%TF.GenerationSoftware,KiCad,Pcbnew,9.0.4*%
%TF.CreationDate,2025-09-18T09:53:14-07:00*%
%TF.ProjectId,bigpulse,62696770-756c-4736-952e-6b696361645f,rev?*%
%TF.SameCoordinates,Original*%
%TF.FileFunction,Soldermask,Top*%
%TF.FilePolarity,Negative*%
%FSLAX46Y46*%
G04 Gerber Fmt 4.6, Leading zero omitted, Abs format (unit mm)*
G04 Created by KiCad (PCBNEW 9.0.4) date 2025-09-18 09:53:14*
%MOMM*%
%LPD*%
G01*
G04 APERTURE LIST*
G04 Aperture macros list*
%AMRoundRect*
0 Rectangle with rounded corners*
0 $1 Rounding radius*
0 $2 $3 $4 $5 $6 $7 $8 $9 X,Y pos of 4 corners*
0 Add a 4 corners polygon primitive as box body*
4,1,4,$2,$3,$4,$5,$6,$7,$8,$9,$2,$3,0*
0 Add four circle primitives for the rounded corners*
1,1,$1+$1,$2,$3*
1,1,$1+$1,$4,$5*
1,1,$1+$1,$6,$7*
1,1,$1+$1,$8,$9*
0 Add four rect primitives between the rounded corners*
20,1,$1+$1,$2,$3,$4,$5,0*
20,1,$1+$1,$4,$5,$6,$7,0*
20,1,$1+$1,$6,$7,$8,$9,0*
20,1,$1+$1,$8,$9,$2,$3,0*%
%AMFreePoly0*
4,1,25,-1.500000,1.420000,-1.360000,1.280000,-1.205000,1.155000,-1.035000,1.045000,-0.860000,0.950000,-0.675000,0.875000,-0.480000,0.820000,-0.280000,0.780000,-0.085000,0.765000,0.085000,0.765000,0.280000,0.780000,0.480000,0.820000,0.675000,0.875000,0.860000,0.950000,1.035000,1.045000,1.205000,1.155000,1.360000,1.280000,1.500000,1.420000,1.645000,1.595000,3.555000,1.595000,
3.555000,-0.755000,-3.555000,-0.755000,-3.555000,1.595000,-1.645000,1.595000,-1.500000,1.420000,-1.500000,1.420000,$1*%
G04 Aperture macros list end*
%ADD10RoundRect,0.150000X-0.512500X-0.150000X0.512500X-0.150000X0.512500X0.150000X-0.512500X0.150000X0*%
%ADD11RoundRect,0.250000X0.325000X1.100000X-0.325000X1.100000X-0.325000X-1.100000X0.325000X-1.100000X0*%
%ADD12R,1.000000X1.500000*%
%ADD13RoundRect,0.250000X-0.325000X-1.100000X0.325000X-1.100000X0.325000X1.100000X-0.325000X1.100000X0*%
%ADD14C,0.800000*%
%ADD15C,7.400000*%
%ADD16RoundRect,0.200000X-0.200000X-0.275000X0.200000X-0.275000X0.200000X0.275000X-0.200000X0.275000X0*%
%ADD17RoundRect,0.250000X-0.650000X-2.450000X0.650000X-2.450000X0.650000X2.450000X-0.650000X2.450000X0*%
%ADD18RoundRect,0.250000X-0.312500X-1.075000X0.312500X-1.075000X0.312500X1.075000X-0.312500X1.075000X0*%
%ADD19RoundRect,0.225000X0.225000X0.250000X-0.225000X0.250000X-0.225000X-0.250000X0.225000X-0.250000X0*%
%ADD20RoundRect,0.250000X0.650000X2.450000X-0.650000X2.450000X-0.650000X-2.450000X0.650000X-2.450000X0*%
%ADD21C,1.800000*%
%ADD22C,1.600000*%
%ADD23RoundRect,0.250000X0.750000X0.750000X-0.750000X0.750000X-0.750000X-0.750000X0.750000X-0.750000X0*%
%ADD24C,3.000000*%
%ADD25RoundRect,0.250000X-0.350000X-0.625000X0.350000X-0.625000X0.350000X0.625000X-0.350000X0.625000X0*%
%ADD26RoundRect,0.250000X-0.550000X-0.625000X0.550000X-0.625000X0.550000X0.625000X-0.550000X0.625000X0*%
%ADD27RoundRect,0.253000X-0.347000X-0.622000X0.347000X-0.622000X0.347000X0.622000X-0.347000X0.622000X0*%
%ADD28RoundRect,0.200000X0.200000X0.275000X-0.200000X0.275000X-0.200000X-0.275000X0.200000X-0.275000X0*%
%ADD29RoundRect,0.250000X1.000000X0.900000X-1.000000X0.900000X-1.000000X-0.900000X1.000000X-0.900000X0*%
%ADD30RoundRect,0.076250X-0.368250X-0.076250X0.368250X-0.076250X0.368250X0.076250X-0.368250X0.076250X0*%
%ADD31R,1.651000X2.845000*%
%ADD32C,1.730000*%
%ADD33FreePoly0,0.000000*%
%ADD34FreePoly0,180.000000*%
%ADD35R,1.700000X1.700000*%
%ADD36C,1.700000*%
%ADD37RoundRect,0.250000X0.950000X0.500000X-0.950000X0.500000X-0.950000X-0.500000X0.950000X-0.500000X0*%
%ADD38RoundRect,0.250000X0.275000X0.500000X-0.275000X0.500000X-0.275000X-0.500000X0.275000X-0.500000X0*%
%ADD39RoundRect,0.200000X-0.275000X0.200000X-0.275000X-0.200000X0.275000X-0.200000X0.275000X0.200000X0*%
%ADD40RoundRect,0.250000X-0.950000X-0.500000X0.950000X-0.500000X0.950000X0.500000X-0.950000X0.500000X0*%
%ADD41RoundRect,0.250000X-0.275000X-0.500000X0.275000X-0.500000X0.275000X0.500000X-0.275000X0.500000X0*%
%ADD42RoundRect,0.250000X0.450000X-0.262500X0.450000X0.262500X-0.450000X0.262500X-0.450000X-0.262500X0*%
%ADD43C,6.527800*%
%ADD44RoundRect,0.200000X0.275000X-0.200000X0.275000X0.200000X-0.275000X0.200000X-0.275000X-0.200000X0*%
%ADD45RoundRect,0.250000X1.100000X-0.325000X1.100000X0.325000X-1.100000X0.325000X-1.100000X-0.325000X0*%
%ADD46R,1.200000X3.300000*%
%ADD47RoundRect,0.250000X0.500000X-0.950000X0.500000X0.950000X-0.500000X0.950000X-0.500000X-0.950000X0*%
%ADD48RoundRect,0.250000X0.500000X-0.275000X0.500000X0.275000X-0.500000X0.275000X-0.500000X-0.275000X0*%
%ADD49RoundRect,0.225000X-0.225000X-0.250000X0.225000X-0.250000X0.225000X0.250000X-0.225000X0.250000X0*%
G04 APERTURE END LIST*
%TO.C,JP1*%
G36*
X179032000Y-114312000D02*
G01*
X180632000Y-114312000D01*
X180632000Y-115812000D01*
X179032000Y-115812000D01*
X179032000Y-114312000D01*
G37*
%TD*%
D10*
%TO.C,Q1*%
X211587500Y-100650000D03*
X211587500Y-102550000D03*
X213862500Y-101600000D03*
%TD*%
D11*
%TO.C,C13*%
X213438000Y-112395000D03*
X210488000Y-112395000D03*
%TD*%
D12*
%TO.C,JP1*%
X178532000Y-115062000D03*
X179832000Y-115062000D03*
X181132000Y-115062000D03*
%TD*%
D13*
%TO.C,C1*%
X210615000Y-93218000D03*
X213565000Y-93218000D03*
%TD*%
D14*
%TO.C,J3*%
X187725000Y-92075000D03*
X188537779Y-90112779D03*
X188537779Y-94037221D03*
X190500000Y-89300000D03*
D15*
X190500000Y-92075000D03*
D14*
X190500000Y-94850000D03*
X192462221Y-90112779D03*
X192462221Y-94037221D03*
X193275000Y-92075000D03*
%TD*%
D16*
%TO.C,R14*%
X209474800Y-90424000D03*
X211124800Y-90424000D03*
%TD*%
%TO.C,R23*%
X171133000Y-108712000D03*
X172783000Y-108712000D03*
%TD*%
D17*
%TO.C,C20*%
X172964000Y-89662000D03*
X178064000Y-89662000D03*
%TD*%
D18*
%TO.C,R6*%
X221803500Y-107696000D03*
X224728500Y-107696000D03*
%TD*%
D19*
%TO.C,C16*%
X163462000Y-108712000D03*
X161912000Y-108712000D03*
%TD*%
D13*
%TO.C,C6*%
X216203000Y-107696000D03*
X219153000Y-107696000D03*
%TD*%
D18*
%TO.C,R4*%
X221803500Y-99568000D03*
X224728500Y-99568000D03*
%TD*%
D14*
%TO.C,J4*%
X187725000Y-111125000D03*
X188537779Y-109162779D03*
X188537779Y-113087221D03*
X190500000Y-108350000D03*
D15*
X190500000Y-111125000D03*
D14*
X190500000Y-113900000D03*
X192462221Y-109162779D03*
X192462221Y-113087221D03*
X193275000Y-111125000D03*
%TD*%
D20*
%TO.C,C18*%
X163014000Y-104521000D03*
X157914000Y-104521000D03*
%TD*%
D18*
%TO.C,R7*%
X221803500Y-111760000D03*
X224728500Y-111760000D03*
%TD*%
%TO.C,R3*%
X221803500Y-95504000D03*
X224728500Y-95504000D03*
%TD*%
D21*
%TO.C,J2*%
X147320000Y-93400000D03*
D22*
X147320000Y-88900000D03*
D23*
X152820000Y-95050000D03*
X152820000Y-88900000D03*
X141820000Y-88900000D03*
X141820000Y-95050000D03*
%TD*%
D24*
%TO.C,MH4*%
X229616000Y-95250000D03*
%TD*%
D25*
%TO.C,RV2*%
X181730000Y-108211000D03*
D26*
X182880000Y-112261000D03*
D27*
X184030000Y-108211000D03*
%TD*%
D28*
%TO.C,R24*%
X163512000Y-110490000D03*
X161862000Y-110490000D03*
%TD*%
D29*
%TO.C,D1*%
X203445000Y-101600000D03*
X199145000Y-101600000D03*
%TD*%
D30*
%TO.C,U1*%
X165214000Y-105057000D03*
X165214000Y-106057000D03*
X165214000Y-107057000D03*
X165214000Y-107557000D03*
X165214000Y-108057000D03*
X165214000Y-108557000D03*
X169425000Y-108557000D03*
X169425000Y-108057000D03*
X169425000Y-107557000D03*
X169425000Y-107057000D03*
X169425000Y-106057000D03*
X169425000Y-105057000D03*
D31*
X167319500Y-106807000D03*
%TD*%
D32*
%TO.C,TP2*%
X204470000Y-109728000D03*
D33*
X204470000Y-112528000D03*
D34*
X204470000Y-106928000D03*
%TD*%
D25*
%TO.C,RV1*%
X175634000Y-108211000D03*
D26*
X176784000Y-112261000D03*
D27*
X177934000Y-108211000D03*
%TD*%
D35*
%TO.C,LD1*%
X229235000Y-102870000D03*
D36*
X229235000Y-100330000D03*
%TD*%
D37*
%TO.C,D3*%
X222289000Y-88138000D03*
D38*
X224664000Y-88138000D03*
%TD*%
D13*
%TO.C,C2*%
X216203000Y-91440000D03*
X219153000Y-91440000D03*
%TD*%
D18*
%TO.C,R5*%
X221803500Y-103632000D03*
X224728500Y-103632000D03*
%TD*%
D39*
%TO.C,R18*%
X209423000Y-101283000D03*
X209423000Y-102933000D03*
%TD*%
D32*
%TO.C,J1*%
X148590000Y-109728000D03*
D34*
X148590000Y-106928000D03*
D33*
X148590000Y-112528000D03*
%TD*%
D13*
%TO.C,C5*%
X216203000Y-103632000D03*
X219153000Y-103632000D03*
%TD*%
D40*
%TO.C,D5*%
X174840000Y-101219000D03*
D41*
X172465000Y-101219000D03*
%TD*%
D42*
%TO.C,R26*%
X166116000Y-96948000D03*
X166116000Y-95123000D03*
%TD*%
D13*
%TO.C,C3*%
X216203000Y-95504000D03*
X219153000Y-95504000D03*
%TD*%
D43*
%TO.C,H\u002A\u002A*%
X234950000Y-88900000D03*
%TD*%
%TO.C,H\u002A\u002A*%
X133350000Y-114300000D03*
%TD*%
D13*
%TO.C,C7*%
X216203000Y-111760000D03*
X219153000Y-111760000D03*
%TD*%
D19*
%TO.C,C15*%
X160223000Y-110490000D03*
X158673000Y-110490000D03*
%TD*%
D18*
%TO.C,R1*%
X210627500Y-97282000D03*
X213552500Y-97282000D03*
%TD*%
D17*
%TO.C,C21*%
X164318000Y-89662000D03*
X169418000Y-89662000D03*
%TD*%
D43*
%TO.C,H\u002A\u002A*%
X133350000Y-88900000D03*
%TD*%
%TO.C,H\u002A\u002A*%
X234950000Y-114300000D03*
%TD*%
D44*
%TO.C,R15*%
X207391000Y-102933000D03*
X207391000Y-101283000D03*
%TD*%
D37*
%TO.C,D2*%
X222288000Y-115062000D03*
D38*
X224663000Y-115062000D03*
%TD*%
D13*
%TO.C,C4*%
X216203000Y-99568000D03*
X219153000Y-99568000D03*
%TD*%
D45*
%TO.C,C8*%
X210439000Y-109728000D03*
X210439000Y-106778000D03*
%TD*%
D20*
%TO.C,C17*%
X163014000Y-98298000D03*
X157914000Y-98298000D03*
%TD*%
D13*
%TO.C,C19*%
X172691000Y-97536000D03*
X175641000Y-97536000D03*
%TD*%
D46*
%TO.C,L1*%
X166318000Y-101473000D03*
X169418000Y-101473000D03*
%TD*%
D24*
%TO.C,MH1*%
X229616000Y-107950000D03*
%TD*%
D47*
%TO.C,D4*%
X169418000Y-95161000D03*
D48*
X169418000Y-97536000D03*
%TD*%
D49*
%TO.C,C14*%
X171183000Y-106934000D03*
X172733000Y-106934000D03*
%TD*%
D40*
%TO.C,D6*%
X178054000Y-94488000D03*
D41*
X175679000Y-94488000D03*
%TD*%
D16*
%TO.C,R25*%
X171133000Y-110490000D03*
X172783000Y-110490000D03*
%TD*%
D18*
%TO.C,R2*%
X221803500Y-91440000D03*
X224728500Y-91440000D03*
%TD*%
D32*
%TO.C,TP1*%
X204470000Y-93472000D03*
D34*
X204470000Y-90672000D03*
D33*
X204470000Y-96272000D03*
%TD*%
G36*
X135022069Y-94499685D02*
G01*
X135056984Y-94533421D01*
X135070848Y-94553448D01*
X135092821Y-94619772D01*
X135082747Y-94673155D01*
X132590000Y-100450000D01*
X132830000Y-100659999D01*
X135916024Y-98994526D01*
X135984369Y-98980010D01*
X136049713Y-99004748D01*
X136091309Y-99060887D01*
X136095951Y-99130602D01*
X136094490Y-99136483D01*
X134100000Y-106400000D01*
X134349999Y-106459999D01*
X134350000Y-106459999D01*
X134815526Y-106174150D01*
X134882956Y-106155845D01*
X134949577Y-106176901D01*
X134994239Y-106230633D01*
X135002761Y-106299981D01*
X134983258Y-106349090D01*
X133130889Y-109099292D01*
X133077111Y-109143899D01*
X133007755Y-109152350D01*
X132944839Y-109121963D01*
X132908340Y-109062384D01*
X132906602Y-109055086D01*
X132241932Y-105834715D01*
X132247659Y-105765080D01*
X132290124Y-105709596D01*
X132355845Y-105685879D01*
X132423956Y-105701458D01*
X132463090Y-105735945D01*
X132710000Y-106069999D01*
X132710000Y-106070000D01*
X133049998Y-106160000D01*
X133050000Y-106159999D01*
X133059999Y-106150000D01*
X133059999Y-106149999D01*
X133779999Y-101650000D01*
X133469999Y-101430000D01*
X130401916Y-103062377D01*
X130333486Y-103076488D01*
X130268290Y-103051363D01*
X130227027Y-102994979D01*
X130222799Y-102925237D01*
X130224337Y-102919216D01*
X132581443Y-94570309D01*
X132618602Y-94511140D01*
X132681851Y-94481453D01*
X132700778Y-94480000D01*
X134955030Y-94480000D01*
X135022069Y-94499685D01*
G37*
M02*
