%TF.GenerationSoftware,KiCad,Pcbnew,9.0.4*%
%TF.CreationDate,2025-09-18T09:53:14-07:00*%
%TF.ProjectId,bigpulse,62696770-756c-4736-952e-6b696361645f,rev?*%
%TF.SameCoordinates,Original*%
%TF.FileFunction,Copper,L2,Bot*%
%TF.FilePolarity,Positive*%
%FSLAX46Y46*%
G04 Gerber Fmt 4.6, Leading zero omitted, Abs format (unit mm)*
G04 Created by KiCad (PCBNEW 9.0.4) date 2025-09-18 09:53:14*
%MOMM*%
%LPD*%
G01*
G04 APERTURE LIST*
G04 Aperture macros list*
%AMRoundRect*
0 Rectangle with rounded corners*
0 $1 Rounding radius*
0 $2 $3 $4 $5 $6 $7 $8 $9 X,Y pos of 4 corners*
0 Add a 4 corners polygon primitive as box body*
4,1,4,$2,$3,$4,$5,$6,$7,$8,$9,$2,$3,0*
0 Add four circle primitives for the rounded corners*
1,1,$1+$1,$2,$3*
1,1,$1+$1,$4,$5*
1,1,$1+$1,$6,$7*
1,1,$1+$1,$8,$9*
0 Add four rect primitives between the rounded corners*
20,1,$1+$1,$2,$3,$4,$5,0*
20,1,$1+$1,$4,$5,$6,$7,0*
20,1,$1+$1,$6,$7,$8,$9,0*
20,1,$1+$1,$8,$9,$2,$3,0*%
G04 Aperture macros list end*
%TA.AperFunction,Conductor*%
%ADD10C,0.203200*%
%TD*%
%TA.AperFunction,EtchedComponent*%
%ADD11C,0.000000*%
%TD*%
%TA.AperFunction,EtchedComponent*%
%ADD12C,0.004482*%
%TD*%
%TA.AperFunction,ComponentPad*%
%ADD13C,0.800000*%
%TD*%
%TA.AperFunction,ComponentPad*%
%ADD14C,7.400000*%
%TD*%
%TA.AperFunction,HeatsinkPad*%
%ADD15C,0.550000*%
%TD*%
%TA.AperFunction,HeatsinkPad*%
%ADD16R,1.651000X2.845000*%
%TD*%
%TA.AperFunction,ComponentPad*%
%ADD17R,1.700000X1.700000*%
%TD*%
%TA.AperFunction,ComponentPad*%
%ADD18C,1.700000*%
%TD*%
%TA.AperFunction,SMDPad,CuDef*%
%ADD19RoundRect,0.150000X0.825000X0.150000X-0.825000X0.150000X-0.825000X-0.150000X0.825000X-0.150000X0*%
%TD*%
%TA.AperFunction,HeatsinkPad*%
%ADD20R,2.290000X3.000000*%
%TD*%
%TA.AperFunction,SMDPad,CuDef*%
%ADD21RoundRect,0.225000X0.250000X-0.225000X0.250000X0.225000X-0.250000X0.225000X-0.250000X-0.225000X0*%
%TD*%
%TA.AperFunction,SMDPad,CuDef*%
%ADD22RoundRect,0.200000X-0.200000X-0.275000X0.200000X-0.275000X0.200000X0.275000X-0.200000X0.275000X0*%
%TD*%
%TA.AperFunction,SMDPad,CuDef*%
%ADD23RoundRect,0.250000X0.312500X1.075000X-0.312500X1.075000X-0.312500X-1.075000X0.312500X-1.075000X0*%
%TD*%
%TA.AperFunction,SMDPad,CuDef*%
%ADD24R,1.000000X1.500000*%
%TD*%
%TA.AperFunction,SMDPad,CuDef*%
%ADD25RoundRect,0.250000X-0.350000X0.850000X-0.350000X-0.850000X0.350000X-0.850000X0.350000X0.850000X0*%
%TD*%
%TA.AperFunction,SMDPad,CuDef*%
%ADD26RoundRect,0.249997X-2.650003X2.950003X-2.650003X-2.950003X2.650003X-2.950003X2.650003X2.950003X0*%
%TD*%
%TA.AperFunction,SMDPad,CuDef*%
%ADD27RoundRect,0.200000X0.275000X-0.200000X0.275000X0.200000X-0.275000X0.200000X-0.275000X-0.200000X0*%
%TD*%
%TA.AperFunction,SMDPad,CuDef*%
%ADD28RoundRect,0.250000X2.450000X-0.650000X2.450000X0.650000X-2.450000X0.650000X-2.450000X-0.650000X0*%
%TD*%
%TA.AperFunction,SMDPad,CuDef*%
%ADD29RoundRect,0.150000X-0.875000X-0.150000X0.875000X-0.150000X0.875000X0.150000X-0.875000X0.150000X0*%
%TD*%
%TA.AperFunction,SMDPad,CuDef*%
%ADD30RoundRect,0.250000X1.100000X-0.325000X1.100000X0.325000X-1.100000X0.325000X-1.100000X-0.325000X0*%
%TD*%
%TA.AperFunction,SMDPad,CuDef*%
%ADD31RoundRect,0.225000X0.225000X0.250000X-0.225000X0.250000X-0.225000X-0.250000X0.225000X-0.250000X0*%
%TD*%
%TA.AperFunction,SMDPad,CuDef*%
%ADD32RoundRect,0.225000X-0.225000X-0.250000X0.225000X-0.250000X0.225000X0.250000X-0.225000X0.250000X0*%
%TD*%
%TA.AperFunction,SMDPad,CuDef*%
%ADD33RoundRect,0.200000X-0.275000X0.200000X-0.275000X-0.200000X0.275000X-0.200000X0.275000X0.200000X0*%
%TD*%
%TA.AperFunction,ViaPad*%
%ADD34C,0.600000*%
%TD*%
%TA.AperFunction,Conductor*%
%ADD35C,0.254000*%
%TD*%
%TA.AperFunction,Conductor*%
%ADD36C,0.508000*%
%TD*%
%TA.AperFunction,Conductor*%
%ADD37C,0.762000*%
%TD*%
%TA.AperFunction,Conductor*%
%ADD38C,0.635000*%
%TD*%
G04 APERTURE END LIST*
%TO.N,GND*%
D10*
X137795000Y-111760000D02*
X143510000Y-111760000D01*
X143510000Y-112647000D01*
X137795000Y-112647000D01*
X137795000Y-111760000D01*
%TA.AperFunction,Conductor*%
G36*
X137795000Y-111760000D02*
G01*
X143510000Y-111760000D01*
X143510000Y-112647000D01*
X137795000Y-112647000D01*
X137795000Y-111760000D01*
G37*
%TD.AperFunction*%
X138684000Y-116179600D02*
X142748000Y-116179600D01*
X142748000Y-116586000D01*
X138684000Y-116586000D01*
X138684000Y-116179600D01*
%TA.AperFunction,Conductor*%
G36*
X138684000Y-116179600D02*
G01*
X142748000Y-116179600D01*
X142748000Y-116586000D01*
X138684000Y-116586000D01*
X138684000Y-116179600D01*
G37*
%TD.AperFunction*%
X137668000Y-112143000D02*
X138557000Y-112143000D01*
X138557000Y-116586000D01*
X137668000Y-116586000D01*
X137668000Y-112143000D01*
%TA.AperFunction,Conductor*%
G36*
X137668000Y-112143000D02*
G01*
X138557000Y-112143000D01*
X138557000Y-116586000D01*
X137668000Y-116586000D01*
X137668000Y-112143000D01*
G37*
%TD.AperFunction*%
X142430500Y-112014000D02*
X143319500Y-112014000D01*
X143319500Y-116457000D01*
X142430500Y-116457000D01*
X142430500Y-112014000D01*
%TA.AperFunction,Conductor*%
G36*
X142430500Y-112014000D02*
G01*
X143319500Y-112014000D01*
X143319500Y-116457000D01*
X142430500Y-116457000D01*
X142430500Y-112014000D01*
G37*
%TD.AperFunction*%
D11*
%TA.AperFunction,EtchedComponent*%
%TD*%
%TO.C,JP2*%
G36*
X185162000Y-108910400D02*
G01*
X184662000Y-108910400D01*
X184662000Y-108310400D01*
X185162000Y-108310400D01*
X185162000Y-108910400D01*
G37*
%TD.AperFunction*%
D12*
%TO.C,svg2mod*%
X140436652Y-113707752D02*
X140457632Y-113710442D01*
X140478174Y-113715300D01*
X140498044Y-113722284D01*
X140517012Y-113731351D01*
X140534845Y-113742460D01*
X140551312Y-113755568D01*
X140566179Y-113770632D01*
X140579216Y-113787612D01*
X140590190Y-113806464D01*
X140598869Y-113827146D01*
X140605504Y-113850131D01*
X140609501Y-113872702D01*
X140610986Y-113894745D01*
X140610089Y-113916149D01*
X140606935Y-113936801D01*
X140601653Y-113956587D01*
X140594370Y-113975395D01*
X140585213Y-113993112D01*
X140574311Y-114009626D01*
X140561790Y-114024823D01*
X140547777Y-114038592D01*
X140532402Y-114050819D01*
X140515789Y-114061391D01*
X140498069Y-114070196D01*
X140479367Y-114077120D01*
X140459811Y-114082052D01*
X140439529Y-114084879D01*
X140418648Y-114085487D01*
X140397296Y-114083764D01*
X140375601Y-114079597D01*
X140353688Y-114072873D01*
X140331687Y-114063481D01*
X140311372Y-114051767D01*
X140293272Y-114037755D01*
X140277435Y-114021713D01*
X140263908Y-114003913D01*
X140252736Y-113984625D01*
X140243967Y-113964119D01*
X140237647Y-113942665D01*
X140233823Y-113920533D01*
X140232542Y-113897994D01*
X140233850Y-113875317D01*
X140237795Y-113852774D01*
X140244422Y-113830634D01*
X140253778Y-113809168D01*
X140265911Y-113788645D01*
X140280866Y-113769336D01*
X140297002Y-113753165D01*
X140314556Y-113739499D01*
X140333295Y-113728296D01*
X140352987Y-113719514D01*
X140373401Y-113713111D01*
X140394305Y-113709044D01*
X140415466Y-113707272D01*
X140436652Y-113707752D01*
%TA.AperFunction,EtchedComponent*%
G36*
X140436652Y-113707752D02*
G01*
X140457632Y-113710442D01*
X140478174Y-113715300D01*
X140498044Y-113722284D01*
X140517012Y-113731351D01*
X140534845Y-113742460D01*
X140551312Y-113755568D01*
X140566179Y-113770632D01*
X140579216Y-113787612D01*
X140590190Y-113806464D01*
X140598869Y-113827146D01*
X140605504Y-113850131D01*
X140609501Y-113872702D01*
X140610986Y-113894745D01*
X140610089Y-113916149D01*
X140606935Y-113936801D01*
X140601653Y-113956587D01*
X140594370Y-113975395D01*
X140585213Y-113993112D01*
X140574311Y-114009626D01*
X140561790Y-114024823D01*
X140547777Y-114038592D01*
X140532402Y-114050819D01*
X140515789Y-114061391D01*
X140498069Y-114070196D01*
X140479367Y-114077120D01*
X140459811Y-114082052D01*
X140439529Y-114084879D01*
X140418648Y-114085487D01*
X140397296Y-114083764D01*
X140375601Y-114079597D01*
X140353688Y-114072873D01*
X140331687Y-114063481D01*
X140311372Y-114051767D01*
X140293272Y-114037755D01*
X140277435Y-114021713D01*
X140263908Y-114003913D01*
X140252736Y-113984625D01*
X140243967Y-113964119D01*
X140237647Y-113942665D01*
X140233823Y-113920533D01*
X140232542Y-113897994D01*
X140233850Y-113875317D01*
X140237795Y-113852774D01*
X140244422Y-113830634D01*
X140253778Y-113809168D01*
X140265911Y-113788645D01*
X140280866Y-113769336D01*
X140297002Y-113753165D01*
X140314556Y-113739499D01*
X140333295Y-113728296D01*
X140352987Y-113719514D01*
X140373401Y-113713111D01*
X140394305Y-113709044D01*
X140415466Y-113707272D01*
X140436652Y-113707752D01*
G37*
%TD.AperFunction*%
X140435748Y-114767338D02*
X140455067Y-114769645D01*
X140474115Y-114773843D01*
X140492716Y-114779946D01*
X140510696Y-114787966D01*
X140527882Y-114797916D01*
X140544098Y-114809809D01*
X140559170Y-114823657D01*
X140572925Y-114839475D01*
X140585187Y-114857275D01*
X140595783Y-114877069D01*
X140604361Y-114898683D01*
X140610097Y-114920391D01*
X140613110Y-114942021D01*
X140613520Y-114963404D01*
X140611446Y-114984368D01*
X140607005Y-115004742D01*
X140600317Y-115024354D01*
X140591500Y-115043035D01*
X140580674Y-115060612D01*
X140567957Y-115076915D01*
X140553469Y-115091774D01*
X140537327Y-115105016D01*
X140519651Y-115116471D01*
X140500560Y-115125967D01*
X140480172Y-115133335D01*
X140458607Y-115138402D01*
X140435982Y-115140999D01*
X140412418Y-115140953D01*
X140387821Y-115138125D01*
X140364580Y-115132743D01*
X140342811Y-115124969D01*
X140322631Y-115114963D01*
X140304158Y-115102885D01*
X140287510Y-115088897D01*
X140272803Y-115073159D01*
X140260155Y-115055833D01*
X140249684Y-115037077D01*
X140241506Y-115017055D01*
X140235739Y-114995925D01*
X140232500Y-114973850D01*
X140231907Y-114950989D01*
X140234077Y-114927504D01*
X140239128Y-114903555D01*
X140246125Y-114882454D01*
X140255116Y-114863076D01*
X140265927Y-114845434D01*
X140278382Y-114829541D01*
X140292308Y-114815410D01*
X140307530Y-114803053D01*
X140323875Y-114792484D01*
X140341168Y-114783716D01*
X140359234Y-114776762D01*
X140377899Y-114771633D01*
X140396989Y-114768345D01*
X140416330Y-114766908D01*
X140435748Y-114767338D01*
%TA.AperFunction,EtchedComponent*%
G36*
X140435748Y-114767338D02*
G01*
X140455067Y-114769645D01*
X140474115Y-114773843D01*
X140492716Y-114779946D01*
X140510696Y-114787966D01*
X140527882Y-114797916D01*
X140544098Y-114809809D01*
X140559170Y-114823657D01*
X140572925Y-114839475D01*
X140585187Y-114857275D01*
X140595783Y-114877069D01*
X140604361Y-114898683D01*
X140610097Y-114920391D01*
X140613110Y-114942021D01*
X140613520Y-114963404D01*
X140611446Y-114984368D01*
X140607005Y-115004742D01*
X140600317Y-115024354D01*
X140591500Y-115043035D01*
X140580674Y-115060612D01*
X140567957Y-115076915D01*
X140553469Y-115091774D01*
X140537327Y-115105016D01*
X140519651Y-115116471D01*
X140500560Y-115125967D01*
X140480172Y-115133335D01*
X140458607Y-115138402D01*
X140435982Y-115140999D01*
X140412418Y-115140953D01*
X140387821Y-115138125D01*
X140364580Y-115132743D01*
X140342811Y-115124969D01*
X140322631Y-115114963D01*
X140304158Y-115102885D01*
X140287510Y-115088897D01*
X140272803Y-115073159D01*
X140260155Y-115055833D01*
X140249684Y-115037077D01*
X140241506Y-115017055D01*
X140235739Y-114995925D01*
X140232500Y-114973850D01*
X140231907Y-114950989D01*
X140234077Y-114927504D01*
X140239128Y-114903555D01*
X140246125Y-114882454D01*
X140255116Y-114863076D01*
X140265927Y-114845434D01*
X140278382Y-114829541D01*
X140292308Y-114815410D01*
X140307530Y-114803053D01*
X140323875Y-114792484D01*
X140341168Y-114783716D01*
X140359234Y-114776762D01*
X140377899Y-114771633D01*
X140396989Y-114768345D01*
X140416330Y-114766908D01*
X140435748Y-114767338D01*
G37*
%TD.AperFunction*%
X141257980Y-114588419D02*
X141275505Y-114599673D01*
X141295744Y-114606855D01*
X141321387Y-114610682D01*
X141355124Y-114611869D01*
X141385478Y-114612820D01*
X141413163Y-114615531D01*
X141438263Y-114620052D01*
X141460865Y-114626431D01*
X141481053Y-114634718D01*
X141498914Y-114644962D01*
X141514534Y-114657211D01*
X141527997Y-114671516D01*
X141539391Y-114687925D01*
X141548799Y-114706487D01*
X141556309Y-114727252D01*
X141561273Y-114750158D01*
X141562890Y-114774007D01*
X141561353Y-114798276D01*
X141556857Y-114822442D01*
X141549597Y-114845982D01*
X141539767Y-114868374D01*
X141527562Y-114889095D01*
X141513176Y-114907622D01*
X141496804Y-114923433D01*
X141478640Y-114936005D01*
X141464123Y-114943283D01*
X141448598Y-114948374D01*
X141428852Y-114951844D01*
X141401671Y-114954256D01*
X141363841Y-114956175D01*
X141321959Y-114958252D01*
X141295876Y-114961549D01*
X141280848Y-114968149D01*
X141272131Y-114980137D01*
X141264981Y-114999596D01*
X141264981Y-114999594D01*
X141269996Y-114979292D01*
X141274638Y-114957200D01*
X141278837Y-114933578D01*
X141282520Y-114908685D01*
X141285617Y-114882781D01*
X141288057Y-114856127D01*
X141289770Y-114828983D01*
X141290684Y-114801608D01*
X141290729Y-114774264D01*
X141289834Y-114747209D01*
X141287928Y-114720703D01*
X141284940Y-114695008D01*
X141280799Y-114670382D01*
X141275435Y-114647086D01*
X141268776Y-114625381D01*
X141260752Y-114605525D01*
X141251292Y-114587779D01*
X141240325Y-114572403D01*
X141240480Y-114572378D01*
X141257980Y-114588419D01*
%TA.AperFunction,EtchedComponent*%
G36*
X141257980Y-114588419D02*
G01*
X141275505Y-114599673D01*
X141295744Y-114606855D01*
X141321387Y-114610682D01*
X141355124Y-114611869D01*
X141385478Y-114612820D01*
X141413163Y-114615531D01*
X141438263Y-114620052D01*
X141460865Y-114626431D01*
X141481053Y-114634718D01*
X141498914Y-114644962D01*
X141514534Y-114657211D01*
X141527997Y-114671516D01*
X141539391Y-114687925D01*
X141548799Y-114706487D01*
X141556309Y-114727252D01*
X141561273Y-114750158D01*
X141562890Y-114774007D01*
X141561353Y-114798276D01*
X141556857Y-114822442D01*
X141549597Y-114845982D01*
X141539767Y-114868374D01*
X141527562Y-114889095D01*
X141513176Y-114907622D01*
X141496804Y-114923433D01*
X141478640Y-114936005D01*
X141464123Y-114943283D01*
X141448598Y-114948374D01*
X141428852Y-114951844D01*
X141401671Y-114954256D01*
X141363841Y-114956175D01*
X141321959Y-114958252D01*
X141295876Y-114961549D01*
X141280848Y-114968149D01*
X141272131Y-114980137D01*
X141264981Y-114999596D01*
X141264981Y-114999594D01*
X141269996Y-114979292D01*
X141274638Y-114957200D01*
X141278837Y-114933578D01*
X141282520Y-114908685D01*
X141285617Y-114882781D01*
X141288057Y-114856127D01*
X141289770Y-114828983D01*
X141290684Y-114801608D01*
X141290729Y-114774264D01*
X141289834Y-114747209D01*
X141287928Y-114720703D01*
X141284940Y-114695008D01*
X141280799Y-114670382D01*
X141275435Y-114647086D01*
X141268776Y-114625381D01*
X141260752Y-114605525D01*
X141251292Y-114587779D01*
X141240325Y-114572403D01*
X141240480Y-114572378D01*
X141257980Y-114588419D01*
G37*
%TD.AperFunction*%
D11*
%TA.AperFunction,EtchedComponent*%
G36*
X142365000Y-116203000D02*
G01*
X138555000Y-116203000D01*
X138555000Y-113369271D01*
X138690175Y-113369271D01*
X138690711Y-113381892D01*
X138692279Y-113394697D01*
X138694879Y-113407688D01*
X138698513Y-113420868D01*
X138703185Y-113434236D01*
X138708895Y-113447796D01*
X138715645Y-113461549D01*
X138723437Y-113475497D01*
X138732274Y-113489641D01*
X138742156Y-113503982D01*
X138753086Y-113518523D01*
X138765066Y-113533266D01*
X138778098Y-113548211D01*
X138792183Y-113563362D01*
X138807323Y-113578718D01*
X138823521Y-113594283D01*
X138840778Y-113610057D01*
X138859095Y-113626042D01*
X138878476Y-113642241D01*
X138898921Y-113658654D01*
X138920433Y-113675284D01*
X138943014Y-113692132D01*
X138966665Y-113709199D01*
X138991388Y-113726488D01*
X139017185Y-113744000D01*
X139044058Y-113761737D01*
X139072009Y-113779700D01*
X139101040Y-113797892D01*
X139131152Y-113816313D01*
X139162348Y-113834966D01*
X139194629Y-113853852D01*
X139227997Y-113872972D01*
X139262455Y-113892330D01*
X139298004Y-113911925D01*
X139325267Y-113927303D01*
X139338792Y-113938093D01*
X139342569Y-113949390D01*
X139340585Y-113966289D01*
X139334853Y-114001406D01*
X139329489Y-114035137D01*
X139324493Y-114067566D01*
X139319861Y-114098774D01*
X139315592Y-114128843D01*
X139311684Y-114157857D01*
X139308134Y-114185896D01*
X139304941Y-114213044D01*
X139302102Y-114239382D01*
X139299615Y-114264993D01*
X139297478Y-114289958D01*
X139295690Y-114314361D01*
X139294247Y-114338282D01*
X139293148Y-114361805D01*
X139292392Y-114385012D01*
X139291974Y-114407985D01*
X139291895Y-114430805D01*
X139292151Y-114453556D01*
X139292741Y-114476319D01*
X139293662Y-114499177D01*
X139294912Y-114522212D01*
X139296489Y-114545506D01*
X139298392Y-114569141D01*
X139300617Y-114593200D01*
X139303164Y-114617764D01*
X139306029Y-114642916D01*
X139309212Y-114668738D01*
X139312709Y-114695313D01*
X139316518Y-114722722D01*
X139320638Y-114751047D01*
X139326506Y-114789495D01*
X139331455Y-114821365D01*
X139335200Y-114847474D01*
X139337457Y-114868639D01*
X139337940Y-114885675D01*
X139336366Y-114899400D01*
X139332450Y-114910631D01*
X139325907Y-114920184D01*
X139316452Y-114928876D01*
X139303801Y-114937523D01*
X139287670Y-114946942D01*
X139267773Y-114957951D01*
X139243826Y-114971365D01*
X139211815Y-114989836D01*
X139180648Y-115008196D01*
X139150336Y-115026438D01*
X139120892Y-115044550D01*
X139092328Y-115062523D01*
X139064655Y-115080349D01*
X139037886Y-115098017D01*
X139012032Y-115115517D01*
X138987106Y-115132841D01*
X138963119Y-115149979D01*
X138940083Y-115166921D01*
X138918010Y-115183658D01*
X138896913Y-115200181D01*
X138876802Y-115216479D01*
X138857691Y-115232543D01*
X138839590Y-115248365D01*
X138822512Y-115263933D01*
X138806469Y-115279240D01*
X138791473Y-115294275D01*
X138777535Y-115309028D01*
X138764668Y-115323491D01*
X138752884Y-115337654D01*
X138742193Y-115351506D01*
X138732610Y-115365040D01*
X138724144Y-115378245D01*
X138716809Y-115391112D01*
X138710373Y-115403940D01*
X138704858Y-115416559D01*
X138700268Y-115428969D01*
X138696610Y-115441175D01*
X138693889Y-115453179D01*
X138692112Y-115464983D01*
X138691282Y-115476590D01*
X138691407Y-115488004D01*
X138692492Y-115499225D01*
X138694543Y-115510258D01*
X138697564Y-115521105D01*
X138701563Y-115531769D01*
X138706544Y-115542252D01*
X138712513Y-115552557D01*
X138719476Y-115562686D01*
X138727439Y-115572643D01*
X138736407Y-115582431D01*
X138746385Y-115592051D01*
X138757380Y-115601506D01*
X138769397Y-115610800D01*
X138782442Y-115619935D01*
X138796521Y-115628913D01*
X138811638Y-115637737D01*
X138827801Y-115646411D01*
X138845013Y-115654936D01*
X138863282Y-115663316D01*
X138882612Y-115671552D01*
X138903010Y-115679649D01*
X138924481Y-115687608D01*
X138947031Y-115695432D01*
X138970664Y-115703124D01*
X138995388Y-115710686D01*
X139021208Y-115718122D01*
X139048129Y-115725434D01*
X139076157Y-115732624D01*
X139105297Y-115739695D01*
X139135556Y-115746651D01*
X139166939Y-115753493D01*
X139199451Y-115760225D01*
X139233099Y-115766849D01*
X139267888Y-115773368D01*
X139303823Y-115779784D01*
X139340910Y-115786100D01*
X139379155Y-115792319D01*
X139418564Y-115798444D01*
X139459142Y-115804477D01*
X139500895Y-115810421D01*
X139543829Y-115816279D01*
X139587948Y-115822053D01*
X139633260Y-115827746D01*
X139651625Y-115830039D01*
X139670866Y-115832498D01*
X139690946Y-115835111D01*
X139711825Y-115837868D01*
X139733467Y-115840756D01*
X139755834Y-115843764D01*
X139778889Y-115846882D01*
X139802593Y-115850097D01*
X139826909Y-115853399D01*
X139851799Y-115856775D01*
X139877225Y-115860215D01*
X139903151Y-115863708D01*
X139929538Y-115867241D01*
X139956348Y-115870804D01*
X139983544Y-115874385D01*
X140011089Y-115877973D01*
X140038944Y-115881556D01*
X140067072Y-115885123D01*
X140095435Y-115888663D01*
X140123995Y-115892165D01*
X140152715Y-115895616D01*
X140181558Y-115899006D01*
X140210484Y-115902324D01*
X140239458Y-115905557D01*
X140268441Y-115908695D01*
X140297395Y-115911726D01*
X140326283Y-115914639D01*
X140355066Y-115917423D01*
X140383709Y-115920065D01*
X140412172Y-115922556D01*
X140440418Y-115924883D01*
X140468409Y-115927035D01*
X140496108Y-115929000D01*
X140523478Y-115930768D01*
X140550479Y-115932327D01*
X140577075Y-115933666D01*
X140603228Y-115934773D01*
X140628901Y-115935637D01*
X140654055Y-115936246D01*
X140678653Y-115936589D01*
X140702657Y-115936656D01*
X140726030Y-115936434D01*
X140748733Y-115935912D01*
X140770730Y-115935078D01*
X140788492Y-115933988D01*
X140806496Y-115932339D01*
X140824735Y-115930137D01*
X140843200Y-115927388D01*
X140861881Y-115924097D01*
X140880769Y-115920270D01*
X140899856Y-115915913D01*
X140919133Y-115911030D01*
X140938590Y-115905627D01*
X140958219Y-115899710D01*
X140978011Y-115893285D01*
X140997956Y-115886357D01*
X141018046Y-115878932D01*
X141038273Y-115871014D01*
X141058626Y-115862610D01*
X141079097Y-115853726D01*
X141099678Y-115844366D01*
X141120358Y-115834536D01*
X141141130Y-115824242D01*
X141161984Y-115813489D01*
X141182911Y-115802284D01*
X141203902Y-115790630D01*
X141224949Y-115778535D01*
X141246042Y-115766003D01*
X141267173Y-115753040D01*
X141288332Y-115739652D01*
X141309511Y-115725844D01*
X141330701Y-115711622D01*
X141351892Y-115696990D01*
X141373075Y-115681956D01*
X141394243Y-115666524D01*
X141415385Y-115650699D01*
X141436493Y-115634488D01*
X141457559Y-115617896D01*
X141478572Y-115600929D01*
X141499524Y-115583591D01*
X141520406Y-115565889D01*
X141541209Y-115547828D01*
X141561925Y-115529413D01*
X141582544Y-115510651D01*
X141603056Y-115491547D01*
X141623455Y-115472105D01*
X141643729Y-115452333D01*
X141663871Y-115432234D01*
X141683872Y-115411816D01*
X141703722Y-115391083D01*
X141723413Y-115370041D01*
X141742935Y-115348696D01*
X141762280Y-115327052D01*
X141781438Y-115305116D01*
X141800402Y-115282893D01*
X141819161Y-115260389D01*
X141837707Y-115237609D01*
X141856031Y-115214559D01*
X141874124Y-115191244D01*
X141891977Y-115167670D01*
X141909581Y-115143842D01*
X141926927Y-115119766D01*
X141944006Y-115095448D01*
X141960810Y-115070892D01*
X141977329Y-115046105D01*
X141993554Y-115021093D01*
X142009476Y-114995859D01*
X142027604Y-114966512D01*
X142045007Y-114937877D01*
X142061677Y-114909926D01*
X142077608Y-114882630D01*
X142092790Y-114855961D01*
X142107217Y-114829890D01*
X142120880Y-114804390D01*
X142133773Y-114779433D01*
X142145888Y-114754989D01*
X142157216Y-114731031D01*
X142167750Y-114707530D01*
X142177483Y-114684459D01*
X142186407Y-114661788D01*
X142194515Y-114639489D01*
X142201797Y-114617535D01*
X142208248Y-114595897D01*
X142213859Y-114574547D01*
X142218623Y-114553456D01*
X142222531Y-114532597D01*
X142225577Y-114511940D01*
X142227753Y-114491458D01*
X142229051Y-114471122D01*
X142229463Y-114450904D01*
X142228981Y-114430776D01*
X142227599Y-114410709D01*
X142225308Y-114390676D01*
X142222101Y-114370648D01*
X142217970Y-114350596D01*
X142213373Y-114331511D01*
X142208255Y-114312125D01*
X142202625Y-114292451D01*
X142196492Y-114272501D01*
X142189865Y-114252291D01*
X142182754Y-114231832D01*
X142175166Y-114211138D01*
X142167113Y-114190223D01*
X142158601Y-114169100D01*
X142149642Y-114147783D01*
X142140242Y-114126284D01*
X142130413Y-114104617D01*
X142120161Y-114082796D01*
X142109498Y-114060834D01*
X142098431Y-114038744D01*
X142086970Y-114016539D01*
X142075124Y-113994234D01*
X142062901Y-113971841D01*
X142050312Y-113949373D01*
X142037364Y-113926844D01*
X142024068Y-113904268D01*
X142010431Y-113881658D01*
X141996464Y-113859027D01*
X141982174Y-113836388D01*
X141967572Y-113813755D01*
X141952666Y-113791142D01*
X141937466Y-113768561D01*
X141921979Y-113746026D01*
X141906216Y-113723550D01*
X141890186Y-113701147D01*
X141873896Y-113678830D01*
X141857358Y-113656613D01*
X141840579Y-113634508D01*
X141823568Y-113612530D01*
X141806336Y-113590691D01*
X141788889Y-113569005D01*
X141771239Y-113547485D01*
X141753393Y-113526145D01*
X141735362Y-113504997D01*
X141717153Y-113484057D01*
X141698776Y-113463335D01*
X141680240Y-113442847D01*
X141661554Y-113422606D01*
X141642727Y-113402624D01*
X141623769Y-113382916D01*
X141604687Y-113363494D01*
X141585492Y-113344372D01*
X141566192Y-113325563D01*
X141546796Y-113307081D01*
X141527314Y-113288939D01*
X141507754Y-113271150D01*
X141488125Y-113253728D01*
X141468437Y-113236686D01*
X141448699Y-113220038D01*
X141428919Y-113203796D01*
X141409107Y-113187975D01*
X141389272Y-113172588D01*
X141369422Y-113157647D01*
X141349567Y-113143166D01*
X141329716Y-113129160D01*
X141309878Y-113115640D01*
X141290061Y-113102621D01*
X141270276Y-113090115D01*
X141244346Y-113074462D01*
X141218661Y-113059766D01*
X141193208Y-113045999D01*
X141167974Y-113033133D01*
X141142946Y-113021140D01*
X141118110Y-113009993D01*
X141093455Y-112999663D01*
X141068966Y-112990122D01*
X141044631Y-112981343D01*
X141020437Y-112973298D01*
X140996371Y-112965958D01*
X140972419Y-112959296D01*
X140948569Y-112953285D01*
X140924807Y-112947896D01*
X140901121Y-112943100D01*
X140877498Y-112938872D01*
X140853924Y-112935182D01*
X140830386Y-112932002D01*
X140806872Y-112929306D01*
X140783368Y-112927064D01*
X140759862Y-112925249D01*
X140736339Y-112923833D01*
X140712788Y-112922789D01*
X140689196Y-112922087D01*
X140665548Y-112921702D01*
X140639941Y-112921493D01*
X140615990Y-112921407D01*
X140593472Y-112921456D01*
X140572164Y-112921656D01*
X140551844Y-112922018D01*
X140532287Y-112922558D01*
X140513273Y-112923287D01*
X140494577Y-112924220D01*
X140475977Y-112925369D01*
X140457250Y-112926750D01*
X140438173Y-112928374D01*
X140418523Y-112930256D01*
X140398078Y-112932409D01*
X140376614Y-112934846D01*
X140353909Y-112937581D01*
X140329739Y-112940628D01*
X140303882Y-112944000D01*
X140276116Y-112947710D01*
X140246216Y-112951772D01*
X140213961Y-112956199D01*
X140179127Y-112961005D01*
X140141491Y-112966204D01*
X140100831Y-112971809D01*
X140056924Y-112977833D01*
X140031263Y-112981188D01*
X140004551Y-112984406D01*
X139977064Y-112987486D01*
X139949077Y-112990433D01*
X139920865Y-112993246D01*
X139892702Y-112995929D01*
X139864864Y-112998483D01*
X139837625Y-113000910D01*
X139811260Y-113003213D01*
X139786045Y-113005392D01*
X139762254Y-113007451D01*
X139740162Y-113009391D01*
X139720044Y-113011213D01*
X139702175Y-113012921D01*
X139662590Y-113016942D01*
X139623830Y-113021076D01*
X139585894Y-113025325D01*
X139548777Y-113029688D01*
X139512478Y-113034167D01*
X139476992Y-113038763D01*
X139442316Y-113043476D01*
X139408447Y-113048307D01*
X139375383Y-113053257D01*
X139343120Y-113058327D01*
X139311654Y-113063517D01*
X139280982Y-113068828D01*
X139251102Y-113074262D01*
X139222010Y-113079818D01*
X139193703Y-113085499D01*
X139166178Y-113091303D01*
X139139432Y-113097233D01*
X139113460Y-113103290D01*
X139088261Y-113109473D01*
X139063832Y-113115784D01*
X139040167Y-113122223D01*
X139017266Y-113128792D01*
X138995124Y-113135490D01*
X138973738Y-113142320D01*
X138953106Y-113149281D01*
X138933223Y-113156375D01*
X138914088Y-113163603D01*
X138895695Y-113170964D01*
X138878044Y-113178460D01*
X138861129Y-113186092D01*
X138844948Y-113193861D01*
X138829499Y-113201767D01*
X138814777Y-113209811D01*
X138800779Y-113217994D01*
X138787503Y-113226317D01*
X138774945Y-113234780D01*
X138763101Y-113243384D01*
X138751970Y-113252131D01*
X138735046Y-113267688D01*
X138720206Y-113285724D01*
X138707876Y-113305570D01*
X138698478Y-113326556D01*
X138692437Y-113348013D01*
X138690175Y-113369271D01*
X138555000Y-113369271D01*
X138555000Y-112647000D01*
X142365000Y-112647000D01*
X142365000Y-114450904D01*
X142365000Y-116203000D01*
G37*
%TD.AperFunction*%
%TD*%
D13*
%TO.P,J3,1,Pin_1*%
%TO.N,+VDC*%
X187725000Y-92075000D03*
X188537779Y-90112779D03*
X188537779Y-94037221D03*
X190500000Y-89300000D03*
D14*
X190500000Y-92075000D03*
D13*
X190500000Y-94850000D03*
X192462221Y-90112779D03*
X192462221Y-94037221D03*
X193275000Y-92075000D03*
%TD*%
%TO.P,J4,1,Pin_1*%
%TO.N,GNDPWR*%
X187725000Y-111125000D03*
X188537779Y-109162779D03*
X188537779Y-113087221D03*
X190500000Y-108350000D03*
D14*
X190500000Y-111125000D03*
D13*
X190500000Y-113900000D03*
X192462221Y-109162779D03*
X192462221Y-113087221D03*
X193275000Y-111125000D03*
%TD*%
D15*
%TO.P,U1,17,GND*%
%TO.N,GND*%
X166769000Y-105659500D03*
X166769000Y-106807000D03*
X166769000Y-107954500D03*
D16*
X167319500Y-106807000D03*
D15*
X167870000Y-105659500D03*
X167870000Y-106807000D03*
X167870000Y-107954500D03*
%TD*%
D17*
%TO.P,LD1,1,C*%
%TO.N,/SHAPER_OUT*%
X229235000Y-102870000D03*
D18*
%TO.P,LD1,2,A*%
%TO.N,/SENSE+*%
X229235000Y-100330000D03*
%TD*%
D19*
%TO.P,U3,1,VOUT*%
%TO.N,VDD*%
X180148000Y-89662000D03*
%TO.P,U3,2,VOUT*%
X180148000Y-90932000D03*
%TO.P,U3,3,SENSE/ADJ*%
X180148000Y-92202000D03*
%TO.P,U3,4,GND*%
%TO.N,GND*%
X180148000Y-93472000D03*
%TO.P,U3,5,EN*%
%TO.N,+12V*%
X175198000Y-93472000D03*
%TO.P,U3,6,SS*%
%TO.N,Net-(U3-SS)*%
X175198000Y-92202000D03*
%TO.P,U3,7,VIN*%
%TO.N,+12V*%
X175198000Y-90932000D03*
%TO.P,U3,8,VIN*%
X175198000Y-89662000D03*
D20*
%TO.P,U3,9,GND*%
%TO.N,GND*%
X177673000Y-91567000D03*
%TD*%
D21*
%TO.P,C11,1*%
%TO.N,GNDPWR*%
X199644000Y-109614000D03*
%TO.P,C11,2*%
%TO.N,VDDA*%
X199644000Y-108064000D03*
%TD*%
D22*
%TO.P,R21,1*%
%TO.N,Net-(U4-ADJ)*%
X201359000Y-99314000D03*
%TO.P,R21,2*%
%TO.N,GNDPWR*%
X203009000Y-99314000D03*
%TD*%
D23*
%TO.P,R13,1*%
%TO.N,/SENSE+*%
X224728500Y-111760000D03*
%TO.P,R13,2*%
%TO.N,GNDPWR*%
X221803500Y-111760000D03*
%TD*%
D24*
%TO.P,JP2,1,A*%
%TO.N,GND*%
X184262000Y-108610400D03*
%TO.P,JP2,2,B*%
%TO.N,GNDPWR*%
X185562000Y-108610400D03*
%TD*%
D25*
%TO.P,U4,1,IN*%
%TO.N,+VDC*%
X194824000Y-96560000D03*
D26*
%TO.P,U4,2,OUT*%
%TO.N,VDDA*%
X197104000Y-102860000D03*
D25*
%TO.P,U4,3,ADJ*%
%TO.N,Net-(U4-ADJ)*%
X199384000Y-96560000D03*
%TD*%
D23*
%TO.P,R10,1*%
%TO.N,/SENSE+*%
X224728500Y-99568000D03*
%TO.P,R10,2*%
%TO.N,GNDPWR*%
X221803500Y-99568000D03*
%TD*%
D27*
%TO.P,R17,1*%
%TO.N,GNDPWR*%
X191643000Y-100901000D03*
%TO.P,R17,2*%
%TO.N,Net-(U2-EN2)*%
X191643000Y-99251000D03*
%TD*%
D28*
%TO.P,C10,1*%
%TO.N,GNDPWR*%
X199644000Y-93482000D03*
%TO.P,C10,2*%
%TO.N,+VDC*%
X199644000Y-88382000D03*
%TD*%
D23*
%TO.P,R11,1*%
%TO.N,/SENSE+*%
X224728500Y-103632000D03*
%TO.P,R11,2*%
%TO.N,GNDPWR*%
X221803500Y-103632000D03*
%TD*%
D29*
%TO.P,U2,1,V_{CC1}*%
%TO.N,VDD*%
X180135000Y-106045000D03*
%TO.P,U2,2,GND1*%
%TO.N,GND*%
X180135000Y-104775000D03*
%TO.P,U2,3,INA*%
%TO.N,Net-(U2-INA)*%
X180135000Y-103505000D03*
%TO.P,U2,4,INB*%
%TO.N,GND*%
X180135000Y-102235000D03*
%TO.P,U2,5,INC*%
X180135000Y-100965000D03*
%TO.P,U2,6,IND*%
X180135000Y-99695000D03*
%TO.P,U2,7,NC*%
%TO.N,unconnected-(U2-NC-Pad7)*%
X180135000Y-98425000D03*
%TO.P,U2,8,GND1*%
%TO.N,GND*%
X180135000Y-97155000D03*
%TO.P,U2,9,GND2*%
%TO.N,GNDPWR*%
X189435000Y-97155000D03*
%TO.P,U2,10,EN2*%
%TO.N,Net-(U2-EN2)*%
X189435000Y-98425000D03*
%TO.P,U2,11,OUTD*%
%TO.N,unconnected-(U2-OUTD-Pad11)*%
X189435000Y-99695000D03*
%TO.P,U2,12,OUTC*%
%TO.N,unconnected-(U2-OUTC-Pad12)*%
X189435000Y-100965000D03*
%TO.P,U2,13,OUTB*%
%TO.N,unconnected-(U2-OUTB-Pad13)*%
X189435000Y-102235000D03*
%TO.P,U2,14,OUTA*%
%TO.N,Net-(U2-OUTA)*%
X189435000Y-103505000D03*
%TO.P,U2,15,GND2*%
%TO.N,GNDPWR*%
X189435000Y-104775000D03*
%TO.P,U2,16,V_{CC2}*%
%TO.N,VDDA*%
X189435000Y-106045000D03*
%TD*%
D27*
%TO.P,R22,1*%
%TO.N,VDDA*%
X201422000Y-102806000D03*
%TO.P,R22,2*%
%TO.N,Net-(U4-ADJ)*%
X201422000Y-101156000D03*
%TD*%
%TO.P,R20,1*%
%TO.N,Net-(U2-INA)*%
X177800000Y-103505000D03*
%TO.P,R20,2*%
%TO.N,GND*%
X177800000Y-101855000D03*
%TD*%
D30*
%TO.P,C12,1*%
%TO.N,GNDPWR*%
X197104000Y-110314000D03*
%TO.P,C12,2*%
%TO.N,VDDA*%
X197104000Y-107364000D03*
%TD*%
D23*
%TO.P,R12,1*%
%TO.N,/SENSE+*%
X224728500Y-107696000D03*
%TO.P,R12,2*%
%TO.N,GNDPWR*%
X221803500Y-107696000D03*
%TD*%
%TO.P,R8,1*%
%TO.N,/SENSE+*%
X224728500Y-91440000D03*
%TO.P,R8,2*%
%TO.N,GNDPWR*%
X221803500Y-91440000D03*
%TD*%
D31*
%TO.P,C24,1*%
%TO.N,Net-(U3-SS)*%
X172987000Y-92202000D03*
%TO.P,C24,2*%
%TO.N,GND*%
X171437000Y-92202000D03*
%TD*%
D32*
%TO.P,C23,1*%
%TO.N,VDD*%
X182359000Y-89662000D03*
%TO.P,C23,2*%
%TO.N,GND*%
X183909000Y-89662000D03*
%TD*%
D23*
%TO.P,R9,1*%
%TO.N,/SENSE+*%
X224728500Y-95504000D03*
%TO.P,R9,2*%
%TO.N,GNDPWR*%
X221803500Y-95504000D03*
%TD*%
D33*
%TO.P,R16,1*%
%TO.N,Net-(U2-EN2)*%
X191643000Y-102426000D03*
%TO.P,R16,2*%
%TO.N,VDDA*%
X191643000Y-104076000D03*
%TD*%
D22*
%TO.P,R19,1*%
%TO.N,Net-(J1-In)*%
X174499000Y-103505000D03*
%TO.P,R19,2*%
%TO.N,Net-(U2-INA)*%
X176149000Y-103505000D03*
%TD*%
D31*
%TO.P,C9,1*%
%TO.N,Net-(J1-In)*%
X172847000Y-103505000D03*
%TO.P,C9,2*%
X171297000Y-103505000D03*
%TD*%
%TO.P,C22,1*%
%TO.N,+12V*%
X172987000Y-89662000D03*
%TO.P,C22,2*%
%TO.N,GND*%
X171437000Y-89662000D03*
%TD*%
D34*
%TO.N,GNDPWR*%
X202565000Y-90551000D03*
X211455000Y-104140000D03*
X205740000Y-90551000D03*
X205740000Y-96393000D03*
X206375000Y-112649000D03*
X206375000Y-106680000D03*
X207645000Y-96393000D03*
X203835000Y-112649000D03*
X202565000Y-112649000D03*
X222289000Y-88138000D03*
X214249000Y-90170000D03*
X212979000Y-90170000D03*
X210820000Y-104140000D03*
X201295000Y-90551000D03*
X213614000Y-90805000D03*
X213360000Y-104140000D03*
X201295000Y-106680000D03*
X202565000Y-96393000D03*
X207010000Y-96393000D03*
X205740000Y-106680000D03*
X205105000Y-90551000D03*
X201930000Y-106680000D03*
X205105000Y-106680000D03*
X207010000Y-90551000D03*
X209550000Y-104140000D03*
X206375000Y-90551000D03*
X212979000Y-90805000D03*
X207645000Y-106680000D03*
X210185000Y-104140000D03*
X203200000Y-90551000D03*
X201295000Y-96393000D03*
X203835000Y-90551000D03*
X203200000Y-112649000D03*
X207010000Y-112649000D03*
X204470000Y-96393000D03*
X207645000Y-112649000D03*
X222288000Y-115062000D03*
X212725000Y-104140000D03*
X204470000Y-112649000D03*
X205740000Y-112649000D03*
X203835000Y-106680000D03*
X201930000Y-112649000D03*
X201930000Y-90551000D03*
X202565000Y-106680000D03*
X201295000Y-112649000D03*
X213614000Y-90170000D03*
X203200000Y-96393000D03*
X204470000Y-106680000D03*
X208915000Y-104140000D03*
X220345000Y-88138000D03*
X201930000Y-96393000D03*
X205105000Y-96393000D03*
X220345000Y-115062000D03*
X205105000Y-112649000D03*
X203200000Y-106680000D03*
X206375000Y-96393000D03*
X207645000Y-90551000D03*
X203835000Y-96393000D03*
X212090000Y-104140000D03*
X207010000Y-106680000D03*
X214249000Y-90805000D03*
X204470000Y-90551000D03*
%TO.N,Net-(U2-OUTA)*%
X187452000Y-106807000D03*
%TO.N,Net-(J1-In)*%
X174498000Y-114173000D03*
%TO.N,GND*%
X149225000Y-106934000D03*
X149860000Y-106934000D03*
X143510000Y-88900000D03*
X146050000Y-112395000D03*
X143510000Y-89662000D03*
X160020000Y-103886000D03*
X179832000Y-108204000D03*
X160020000Y-100203000D03*
X146050000Y-106934000D03*
X173990000Y-106934000D03*
X165735000Y-89662000D03*
X160020000Y-101981000D03*
X148590000Y-112395000D03*
X160020000Y-106426000D03*
X160020000Y-100838000D03*
X160020000Y-98933000D03*
X165735000Y-91948000D03*
X160020000Y-99568000D03*
X146685000Y-112395000D03*
X148590000Y-106934000D03*
X160020000Y-105791000D03*
X150495000Y-106934000D03*
X151130000Y-112395000D03*
X160020000Y-96393000D03*
X160020000Y-107061000D03*
X160020000Y-105156000D03*
X160020000Y-98298000D03*
X173990000Y-107823000D03*
X160020000Y-97028000D03*
X143510000Y-88138000D03*
X173990000Y-108712000D03*
X165735000Y-90424000D03*
X160020000Y-103251000D03*
X149860000Y-112395000D03*
X151130000Y-106934000D03*
X149225000Y-112395000D03*
X160020000Y-102616000D03*
X146685000Y-106934000D03*
X165735000Y-91186000D03*
X160020000Y-104521000D03*
X147955000Y-112395000D03*
X165735000Y-88138000D03*
X150495000Y-112395000D03*
X147320000Y-112395000D03*
X147320000Y-106934000D03*
X165735000Y-88900000D03*
X160020000Y-97663000D03*
X147955000Y-106934000D03*
X160020000Y-95758000D03*
X165735000Y-87376000D03*
%TO.N,+12V*%
X173228000Y-93472000D03*
X175387000Y-88646000D03*
X162941000Y-94361000D03*
%TO.N,Net-(D5-A)*%
X166243000Y-98171000D03*
X171196000Y-100584000D03*
X171196000Y-101854000D03*
X166878000Y-98171000D03*
X171196000Y-101219000D03*
X165608000Y-98171000D03*
%TO.N,/SENSE+*%
X219075000Y-88773000D03*
%TD*%
D35*
%TO.N,GNDPWR*%
X197358000Y-95768000D02*
X199644000Y-93482000D01*
X197104000Y-98806000D02*
X197358000Y-98552000D01*
X191389000Y-97155000D02*
X193040000Y-98806000D01*
X189435000Y-97155000D02*
X191389000Y-97155000D01*
X193040000Y-98806000D02*
X197104000Y-98806000D01*
X197358000Y-98552000D02*
X197358000Y-95768000D01*
%TO.N,Net-(U2-OUTA)*%
X188214000Y-103505000D02*
X187452000Y-104267000D01*
X187452000Y-104267000D02*
X187452000Y-106807000D01*
X189435000Y-103505000D02*
X188214000Y-103505000D01*
D36*
%TO.N,Net-(J1-In)*%
X170053000Y-103886000D02*
X170434000Y-103505000D01*
X173863000Y-105283000D02*
X170561000Y-105283000D01*
X174498000Y-114173000D02*
X176276000Y-112395000D01*
X170053000Y-104775000D02*
X170053000Y-103886000D01*
X171297000Y-103505000D02*
X172847000Y-103505000D01*
X172847000Y-103505000D02*
X174499000Y-103505000D01*
X176276000Y-112395000D02*
X176276000Y-107696000D01*
X170434000Y-103505000D02*
X171297000Y-103505000D01*
X176276000Y-107696000D02*
X173863000Y-105283000D01*
X170561000Y-105283000D02*
X170053000Y-104775000D01*
D37*
%TO.N,+VDC*%
X194824000Y-93986000D02*
X192913000Y-92075000D01*
X199644000Y-88382000D02*
X194193000Y-88382000D01*
X194193000Y-88382000D02*
X192462221Y-90112779D01*
X194824000Y-96560000D02*
X194824000Y-93986000D01*
X192913000Y-92075000D02*
X190500000Y-92075000D01*
D35*
%TO.N,VDDA*%
X201168000Y-104140000D02*
X198384000Y-104140000D01*
X191643000Y-105664000D02*
X191643000Y-104076000D01*
X201422000Y-102806000D02*
X201422000Y-103886000D01*
D38*
X199644000Y-105400000D02*
X197104000Y-102860000D01*
D35*
X189435000Y-106045000D02*
X191262000Y-106045000D01*
X195888000Y-104076000D02*
X197104000Y-102860000D01*
D37*
X197104000Y-107364000D02*
X197104000Y-102860000D01*
D35*
X191643000Y-104076000D02*
X195888000Y-104076000D01*
D38*
X199644000Y-108064000D02*
X199644000Y-105400000D01*
D35*
X198384000Y-104140000D02*
X197104000Y-102860000D01*
X201422000Y-103886000D02*
X201168000Y-104140000D01*
X191262000Y-106045000D02*
X191643000Y-105664000D01*
D36*
%TO.N,+12V*%
X175198000Y-89662000D02*
X172987000Y-89662000D01*
X163830000Y-93472000D02*
X162941000Y-94361000D01*
X175198000Y-93472000D02*
X173228000Y-93472000D01*
X175198000Y-88835000D02*
X175387000Y-88646000D01*
X175198000Y-89662000D02*
X175198000Y-88835000D01*
X173228000Y-93472000D02*
X163830000Y-93472000D01*
X175198000Y-89662000D02*
X175198000Y-90932000D01*
D35*
%TO.N,VDD*%
X184658000Y-106045000D02*
X184912000Y-105791000D01*
X184912000Y-105791000D02*
X184912000Y-93218000D01*
X180135000Y-106045000D02*
X184658000Y-106045000D01*
X183896000Y-92202000D02*
X180148000Y-92202000D01*
X184912000Y-93218000D02*
X183896000Y-92202000D01*
X182359000Y-89662000D02*
X180148000Y-89662000D01*
%TO.N,Net-(U3-SS)*%
X175198000Y-92202000D02*
X172987000Y-92202000D01*
%TO.N,/SENSE+*%
X224728500Y-91440000D02*
X224728500Y-89473500D01*
X224028000Y-88773000D02*
X219075000Y-88773000D01*
X224728500Y-89473500D02*
X224028000Y-88773000D01*
%TO.N,Net-(U2-EN2)*%
X193421000Y-100076000D02*
X192596000Y-99251000D01*
X189435000Y-98425000D02*
X191389000Y-98425000D01*
X191389000Y-98425000D02*
X191643000Y-98679000D01*
X191643000Y-98679000D02*
X191643000Y-99251000D01*
X191643000Y-102426000D02*
X192976000Y-102426000D01*
X193421000Y-101981000D02*
X193421000Y-100076000D01*
X192596000Y-99251000D02*
X191643000Y-99251000D01*
X192976000Y-102426000D02*
X193421000Y-101981000D01*
%TO.N,Net-(U2-INA)*%
X177800000Y-103505000D02*
X176149000Y-103505000D01*
X180135000Y-103505000D02*
X177800000Y-103505000D01*
%TO.N,Net-(U4-ADJ)*%
X201168000Y-98298000D02*
X199898000Y-98298000D01*
X201359000Y-99314000D02*
X201359000Y-101093000D01*
X201359000Y-98489000D02*
X201168000Y-98298000D01*
X199384000Y-97784000D02*
X199384000Y-96560000D01*
X201359000Y-101093000D02*
X201422000Y-101156000D01*
X199898000Y-98298000D02*
X199384000Y-97784000D01*
X201359000Y-99314000D02*
X201359000Y-98489000D01*
%TD*%
%TA.AperFunction,Conductor*%
%TO.N,GND*%
G36*
X171958000Y-103098100D02*
G01*
X171912879Y-103098100D01*
X171864541Y-103080507D01*
X171845320Y-103055927D01*
X171833806Y-103032374D01*
X171744627Y-102943195D01*
X171744625Y-102943194D01*
X171631319Y-102887802D01*
X171631318Y-102887801D01*
X171557867Y-102877100D01*
X171036141Y-102877100D01*
X171036136Y-102877101D01*
X170962682Y-102887801D01*
X170962680Y-102887802D01*
X170849372Y-102943195D01*
X170760193Y-103032374D01*
X170748680Y-103055927D01*
X170711645Y-103091627D01*
X170681121Y-103098100D01*
X170380431Y-103098100D01*
X170328687Y-103111965D01*
X170276941Y-103125830D01*
X170184160Y-103179397D01*
X170184158Y-103179398D01*
X170184158Y-103179399D01*
X170184157Y-103179400D01*
X170015614Y-103347943D01*
X169727399Y-103636156D01*
X169727398Y-103636158D01*
X169673830Y-103728940D01*
X169666890Y-103754842D01*
X169657239Y-103790862D01*
X169646100Y-103832431D01*
X169646100Y-104721430D01*
X169646100Y-104828570D01*
X169652934Y-104854074D01*
X169673830Y-104932059D01*
X169716078Y-105005234D01*
X169727399Y-105024843D01*
X170235399Y-105532842D01*
X170311158Y-105608601D01*
X170355563Y-105634238D01*
X170399316Y-105659499D01*
X170403943Y-105662170D01*
X170507431Y-105689900D01*
X170507433Y-105689900D01*
X171958000Y-105689900D01*
X171958000Y-116840000D01*
X164846000Y-116840000D01*
X164846000Y-108407494D01*
X166495609Y-108407494D01*
X166495609Y-108407495D01*
X166564811Y-108447449D01*
X166699359Y-108483500D01*
X166838641Y-108483500D01*
X166973187Y-108447449D01*
X167042389Y-108407495D01*
X167042389Y-108407494D01*
X167596609Y-108407494D01*
X167596609Y-108407495D01*
X167665811Y-108447449D01*
X167800359Y-108483500D01*
X167939641Y-108483500D01*
X168074187Y-108447449D01*
X168143389Y-108407495D01*
X168143389Y-108407493D01*
X167870001Y-108134105D01*
X167870000Y-108134105D01*
X167596609Y-108407494D01*
X167042389Y-108407494D01*
X167042389Y-108407493D01*
X166769001Y-108134105D01*
X166769000Y-108134105D01*
X166495609Y-108407494D01*
X164846000Y-108407494D01*
X164846000Y-107884858D01*
X166240000Y-107884858D01*
X166240000Y-108024141D01*
X166276050Y-108158688D01*
X166316003Y-108227889D01*
X166316005Y-108227889D01*
X166589394Y-107954501D01*
X166589394Y-107954499D01*
X166564133Y-107929238D01*
X166642000Y-107929238D01*
X166642000Y-107979762D01*
X166661335Y-108026440D01*
X166697060Y-108062165D01*
X166743738Y-108081500D01*
X166794262Y-108081500D01*
X166840940Y-108062165D01*
X166876665Y-108026440D01*
X166896000Y-107979762D01*
X166896000Y-107954499D01*
X166948605Y-107954499D01*
X166948605Y-107954501D01*
X167221993Y-108227889D01*
X167221994Y-108227889D01*
X167254373Y-108171807D01*
X167293778Y-108138741D01*
X167345218Y-108138741D01*
X167384624Y-108171805D01*
X167384624Y-108171806D01*
X167417003Y-108227889D01*
X167417005Y-108227889D01*
X167690394Y-107954501D01*
X167690394Y-107954499D01*
X167665133Y-107929238D01*
X167743000Y-107929238D01*
X167743000Y-107979762D01*
X167762335Y-108026440D01*
X167798060Y-108062165D01*
X167844738Y-108081500D01*
X167895262Y-108081500D01*
X167941940Y-108062165D01*
X167977665Y-108026440D01*
X167997000Y-107979762D01*
X167997000Y-107954499D01*
X168049605Y-107954499D01*
X168049605Y-107954501D01*
X168322993Y-108227889D01*
X168322995Y-108227889D01*
X168362949Y-108158687D01*
X168399000Y-108024141D01*
X168399000Y-107884858D01*
X168362949Y-107750311D01*
X168322995Y-107681109D01*
X168322994Y-107681109D01*
X168049605Y-107954499D01*
X167997000Y-107954499D01*
X167997000Y-107929238D01*
X167977665Y-107882560D01*
X167941940Y-107846835D01*
X167895262Y-107827500D01*
X167844738Y-107827500D01*
X167798060Y-107846835D01*
X167762335Y-107882560D01*
X167743000Y-107929238D01*
X167665133Y-107929238D01*
X167417004Y-107681109D01*
X167417002Y-107681109D01*
X167384624Y-107737192D01*
X167345219Y-107770257D01*
X167293780Y-107770257D01*
X167254374Y-107737192D01*
X167221994Y-107681109D01*
X166948605Y-107954499D01*
X166896000Y-107954499D01*
X166896000Y-107929238D01*
X166876665Y-107882560D01*
X166840940Y-107846835D01*
X166794262Y-107827500D01*
X166743738Y-107827500D01*
X166697060Y-107846835D01*
X166661335Y-107882560D01*
X166642000Y-107929238D01*
X166564133Y-107929238D01*
X166316004Y-107681109D01*
X166316003Y-107681109D01*
X166276050Y-107750313D01*
X166240000Y-107884858D01*
X164846000Y-107884858D01*
X164846000Y-107259994D01*
X166495609Y-107259994D01*
X166495609Y-107259995D01*
X166564812Y-107299949D01*
X166595276Y-107308112D01*
X166637413Y-107337617D01*
X166650727Y-107387304D01*
X166628987Y-107433924D01*
X166595276Y-107453388D01*
X166564813Y-107461550D01*
X166495609Y-107501503D01*
X166495609Y-107501504D01*
X166769000Y-107774894D01*
X166769001Y-107774894D01*
X167042389Y-107501505D01*
X167042389Y-107501503D01*
X166973188Y-107461550D01*
X166942723Y-107453388D01*
X166900586Y-107423883D01*
X166887272Y-107374196D01*
X166909011Y-107327576D01*
X166942723Y-107308112D01*
X166973187Y-107299949D01*
X167042389Y-107259995D01*
X167042389Y-107259994D01*
X167596609Y-107259994D01*
X167596609Y-107259995D01*
X167665812Y-107299949D01*
X167696276Y-107308112D01*
X167738413Y-107337617D01*
X167751727Y-107387304D01*
X167729987Y-107433924D01*
X167696276Y-107453388D01*
X167665813Y-107461550D01*
X167596609Y-107501503D01*
X167596609Y-107501504D01*
X167870000Y-107774894D01*
X167870001Y-107774894D01*
X168143389Y-107501505D01*
X168143389Y-107501503D01*
X168074188Y-107461550D01*
X168043723Y-107453388D01*
X168001586Y-107423883D01*
X167988272Y-107374196D01*
X168010011Y-107327576D01*
X168043723Y-107308112D01*
X168074187Y-107299949D01*
X168143389Y-107259995D01*
X168143389Y-107259993D01*
X167870001Y-106986605D01*
X167870000Y-106986605D01*
X167596609Y-107259994D01*
X167042389Y-107259994D01*
X167042389Y-107259993D01*
X166769001Y-106986605D01*
X166769000Y-106986605D01*
X166495609Y-107259994D01*
X164846000Y-107259994D01*
X164846000Y-106737358D01*
X166240000Y-106737358D01*
X166240000Y-106876641D01*
X166276050Y-107011188D01*
X166316003Y-107080389D01*
X166316005Y-107080389D01*
X166589394Y-106807001D01*
X166589394Y-106806999D01*
X166564133Y-106781738D01*
X166642000Y-106781738D01*
X166642000Y-106832262D01*
X166661335Y-106878940D01*
X166697060Y-106914665D01*
X166743738Y-106934000D01*
X166794262Y-106934000D01*
X166840940Y-106914665D01*
X166876665Y-106878940D01*
X166896000Y-106832262D01*
X166896000Y-106806999D01*
X166948605Y-106806999D01*
X166948605Y-106807001D01*
X167221993Y-107080389D01*
X167221994Y-107080389D01*
X167254373Y-107024307D01*
X167293778Y-106991241D01*
X167345218Y-106991241D01*
X167384624Y-107024305D01*
X167384624Y-107024306D01*
X167417003Y-107080389D01*
X167417005Y-107080389D01*
X167690394Y-106807001D01*
X167690394Y-106806999D01*
X167665133Y-106781738D01*
X167743000Y-106781738D01*
X167743000Y-106832262D01*
X167762335Y-106878940D01*
X167798060Y-106914665D01*
X167844738Y-106934000D01*
X167895262Y-106934000D01*
X167941940Y-106914665D01*
X167977665Y-106878940D01*
X167997000Y-106832262D01*
X167997000Y-106806999D01*
X168049605Y-106806999D01*
X168049605Y-106807001D01*
X168322993Y-107080389D01*
X168322995Y-107080389D01*
X168362949Y-107011187D01*
X168399000Y-106876641D01*
X168399000Y-106737358D01*
X168362949Y-106602811D01*
X168322995Y-106533609D01*
X168322994Y-106533609D01*
X168049605Y-106806999D01*
X167997000Y-106806999D01*
X167997000Y-106781738D01*
X167977665Y-106735060D01*
X167941940Y-106699335D01*
X167895262Y-106680000D01*
X167844738Y-106680000D01*
X167798060Y-106699335D01*
X167762335Y-106735060D01*
X167743000Y-106781738D01*
X167665133Y-106781738D01*
X167417004Y-106533609D01*
X167417002Y-106533609D01*
X167384624Y-106589692D01*
X167345219Y-106622757D01*
X167293780Y-106622757D01*
X167254374Y-106589692D01*
X167221994Y-106533609D01*
X166948605Y-106806999D01*
X166896000Y-106806999D01*
X166896000Y-106781738D01*
X166876665Y-106735060D01*
X166840940Y-106699335D01*
X166794262Y-106680000D01*
X166743738Y-106680000D01*
X166697060Y-106699335D01*
X166661335Y-106735060D01*
X166642000Y-106781738D01*
X166564133Y-106781738D01*
X166316004Y-106533609D01*
X166316003Y-106533609D01*
X166276050Y-106602813D01*
X166240000Y-106737358D01*
X164846000Y-106737358D01*
X164846000Y-106112494D01*
X166495609Y-106112494D01*
X166495609Y-106112495D01*
X166564812Y-106152449D01*
X166595276Y-106160612D01*
X166637413Y-106190117D01*
X166650727Y-106239804D01*
X166628987Y-106286424D01*
X166595276Y-106305888D01*
X166564813Y-106314050D01*
X166495609Y-106354003D01*
X166495609Y-106354004D01*
X166769000Y-106627394D01*
X166769001Y-106627394D01*
X167042389Y-106354005D01*
X167042389Y-106354003D01*
X166973188Y-106314050D01*
X166942723Y-106305888D01*
X166900586Y-106276383D01*
X166887272Y-106226696D01*
X166909011Y-106180076D01*
X166942723Y-106160612D01*
X166973187Y-106152449D01*
X167042389Y-106112495D01*
X167042389Y-106112494D01*
X167596609Y-106112494D01*
X167596609Y-106112495D01*
X167665812Y-106152449D01*
X167696276Y-106160612D01*
X167738413Y-106190117D01*
X167751727Y-106239804D01*
X167729987Y-106286424D01*
X167696276Y-106305888D01*
X167665813Y-106314050D01*
X167596609Y-106354003D01*
X167596609Y-106354004D01*
X167870000Y-106627394D01*
X167870001Y-106627394D01*
X168143389Y-106354005D01*
X168143389Y-106354003D01*
X168074188Y-106314050D01*
X168043723Y-106305888D01*
X168001586Y-106276383D01*
X167988272Y-106226696D01*
X168010011Y-106180076D01*
X168043723Y-106160612D01*
X168074187Y-106152449D01*
X168143389Y-106112495D01*
X168143389Y-106112493D01*
X167870001Y-105839105D01*
X167870000Y-105839105D01*
X167596609Y-106112494D01*
X167042389Y-106112494D01*
X167042389Y-106112493D01*
X166769001Y-105839105D01*
X166769000Y-105839105D01*
X166495609Y-106112494D01*
X164846000Y-106112494D01*
X164846000Y-105589858D01*
X166240000Y-105589858D01*
X166240000Y-105729141D01*
X166276050Y-105863688D01*
X166316003Y-105932889D01*
X166316005Y-105932889D01*
X166589394Y-105659501D01*
X166589394Y-105659499D01*
X166564133Y-105634238D01*
X166642000Y-105634238D01*
X166642000Y-105684762D01*
X166661335Y-105731440D01*
X166697060Y-105767165D01*
X166743738Y-105786500D01*
X166794262Y-105786500D01*
X166840940Y-105767165D01*
X166876665Y-105731440D01*
X166896000Y-105684762D01*
X166896000Y-105659499D01*
X166948605Y-105659499D01*
X166948605Y-105659501D01*
X167221993Y-105932889D01*
X167221994Y-105932889D01*
X167254373Y-105876807D01*
X167293778Y-105843741D01*
X167345218Y-105843741D01*
X167384624Y-105876805D01*
X167384624Y-105876806D01*
X167417003Y-105932889D01*
X167417005Y-105932889D01*
X167690394Y-105659501D01*
X167690394Y-105659499D01*
X167665133Y-105634238D01*
X167743000Y-105634238D01*
X167743000Y-105684762D01*
X167762335Y-105731440D01*
X167798060Y-105767165D01*
X167844738Y-105786500D01*
X167895262Y-105786500D01*
X167941940Y-105767165D01*
X167977665Y-105731440D01*
X167997000Y-105684762D01*
X167997000Y-105659499D01*
X168049605Y-105659499D01*
X168049605Y-105659501D01*
X168322993Y-105932889D01*
X168322995Y-105932889D01*
X168362949Y-105863687D01*
X168399000Y-105729141D01*
X168399000Y-105589858D01*
X168362949Y-105455311D01*
X168322995Y-105386109D01*
X168322994Y-105386109D01*
X168049605Y-105659499D01*
X167997000Y-105659499D01*
X167997000Y-105634238D01*
X167977665Y-105587560D01*
X167941940Y-105551835D01*
X167895262Y-105532500D01*
X167844738Y-105532500D01*
X167798060Y-105551835D01*
X167762335Y-105587560D01*
X167743000Y-105634238D01*
X167665133Y-105634238D01*
X167417004Y-105386109D01*
X167417002Y-105386109D01*
X167384624Y-105442192D01*
X167345219Y-105475257D01*
X167293780Y-105475257D01*
X167254374Y-105442192D01*
X167221994Y-105386109D01*
X166948605Y-105659499D01*
X166896000Y-105659499D01*
X166896000Y-105634238D01*
X166876665Y-105587560D01*
X166840940Y-105551835D01*
X166794262Y-105532500D01*
X166743738Y-105532500D01*
X166697060Y-105551835D01*
X166661335Y-105587560D01*
X166642000Y-105634238D01*
X166564133Y-105634238D01*
X166316004Y-105386109D01*
X166316003Y-105386109D01*
X166276050Y-105455313D01*
X166240000Y-105589858D01*
X164846000Y-105589858D01*
X164846000Y-105206503D01*
X166495609Y-105206503D01*
X166495609Y-105206504D01*
X166769000Y-105479894D01*
X166769001Y-105479894D01*
X167042389Y-105206505D01*
X167042389Y-105206503D01*
X167596609Y-105206503D01*
X167596609Y-105206504D01*
X167870000Y-105479894D01*
X167870001Y-105479894D01*
X168143389Y-105206505D01*
X168143389Y-105206503D01*
X168074188Y-105166550D01*
X167939641Y-105130500D01*
X167800359Y-105130500D01*
X167665813Y-105166550D01*
X167596609Y-105206503D01*
X167042389Y-105206503D01*
X166973188Y-105166550D01*
X166838641Y-105130500D01*
X166699359Y-105130500D01*
X166564813Y-105166550D01*
X166495609Y-105206503D01*
X164846000Y-105206503D01*
X164846000Y-102616000D01*
X171958000Y-102616000D01*
X171958000Y-103098100D01*
G37*
%TD.AperFunction*%
%TA.AperFunction,Conductor*%
G36*
X170729459Y-103929493D02*
G01*
X170748680Y-103954073D01*
X170760193Y-103977625D01*
X170849372Y-104066804D01*
X170849373Y-104066804D01*
X170849375Y-104066806D01*
X170962681Y-104122198D01*
X171036137Y-104132900D01*
X171557862Y-104132899D01*
X171631319Y-104122198D01*
X171744625Y-104066806D01*
X171833806Y-103977625D01*
X171845320Y-103954073D01*
X171847280Y-103952182D01*
X171847754Y-103949500D01*
X171865589Y-103934533D01*
X171882355Y-103918373D01*
X171885692Y-103917665D01*
X171887159Y-103916435D01*
X171912879Y-103911900D01*
X171958000Y-103911900D01*
X171958000Y-104876100D01*
X170760692Y-104876100D01*
X170712354Y-104858507D01*
X170707517Y-104854074D01*
X170481925Y-104628481D01*
X170460186Y-104581861D01*
X170459900Y-104575307D01*
X170459900Y-104085691D01*
X170465515Y-104070263D01*
X170466946Y-104053910D01*
X170476360Y-104040465D01*
X170477493Y-104037353D01*
X170481926Y-104032517D01*
X170580517Y-103933926D01*
X170627137Y-103912186D01*
X170633691Y-103911900D01*
X170681121Y-103911900D01*
X170729459Y-103929493D01*
G37*
%TD.AperFunction*%
%TD*%
%TA.AperFunction,Conductor*%
%TO.N,GND*%
G36*
X184377138Y-86377593D02*
G01*
X184402858Y-86422142D01*
X184404000Y-86435200D01*
X184404000Y-88893161D01*
X184386407Y-88941499D01*
X184341858Y-88967219D01*
X184302521Y-88963620D01*
X184236870Y-88939134D01*
X184236864Y-88939132D01*
X184179823Y-88933000D01*
X184036000Y-88933000D01*
X184036000Y-90391000D01*
X184179812Y-90391000D01*
X184179823Y-90390999D01*
X184236864Y-90384867D01*
X184236867Y-90384866D01*
X184302520Y-90360379D01*
X184353958Y-90359971D01*
X184393625Y-90392722D01*
X184404000Y-90430838D01*
X184404000Y-92132613D01*
X184386407Y-92180951D01*
X184341858Y-92206671D01*
X184291200Y-92197738D01*
X184275626Y-92185787D01*
X184067866Y-91978027D01*
X184067860Y-91978023D01*
X184004038Y-91941175D01*
X183980308Y-91934816D01*
X183932850Y-91922100D01*
X183932848Y-91922100D01*
X181295756Y-91922100D01*
X181247418Y-91904507D01*
X181231526Y-91883349D01*
X181231157Y-91883603D01*
X181227221Y-91877857D01*
X181227220Y-91877855D01*
X181227218Y-91877853D01*
X181227216Y-91877850D01*
X181147148Y-91797782D01*
X181147145Y-91797780D01*
X181043548Y-91752037D01*
X181024100Y-91749781D01*
X181018226Y-91749100D01*
X179277774Y-91749100D01*
X179272510Y-91749710D01*
X179252451Y-91752037D01*
X179148854Y-91797780D01*
X179148851Y-91797782D01*
X179068782Y-91877851D01*
X179068780Y-91877854D01*
X179023037Y-91981451D01*
X179020100Y-92006776D01*
X179020100Y-92397223D01*
X179023037Y-92422548D01*
X179068780Y-92526145D01*
X179068782Y-92526148D01*
X179148851Y-92606217D01*
X179148854Y-92606219D01*
X179148855Y-92606220D01*
X179252450Y-92651962D01*
X179277774Y-92654900D01*
X179277776Y-92654900D01*
X181018224Y-92654900D01*
X181018226Y-92654900D01*
X181043550Y-92651962D01*
X181147145Y-92606220D01*
X181227220Y-92526145D01*
X181227222Y-92526139D01*
X181231157Y-92520397D01*
X181232291Y-92521174D01*
X181262580Y-92489614D01*
X181295756Y-92481900D01*
X183748914Y-92481900D01*
X183797252Y-92499493D01*
X183802088Y-92503926D01*
X184381974Y-93083812D01*
X184403714Y-93130432D01*
X184404000Y-93136986D01*
X184404000Y-105689900D01*
X184386407Y-105738238D01*
X184341858Y-105763958D01*
X184328800Y-105765100D01*
X181332756Y-105765100D01*
X181284418Y-105747507D01*
X181268526Y-105726349D01*
X181268157Y-105726603D01*
X181264221Y-105720857D01*
X181264220Y-105720855D01*
X181264218Y-105720853D01*
X181264216Y-105720850D01*
X181184148Y-105640782D01*
X181184145Y-105640780D01*
X181080548Y-105595037D01*
X181061100Y-105592781D01*
X181055226Y-105592100D01*
X179214774Y-105592100D01*
X179209510Y-105592710D01*
X179189451Y-105595037D01*
X179085854Y-105640780D01*
X179085851Y-105640782D01*
X179005782Y-105720851D01*
X179005780Y-105720854D01*
X178960037Y-105824451D01*
X178957100Y-105849776D01*
X178957100Y-106240223D01*
X178960037Y-106265548D01*
X179005780Y-106369145D01*
X179005782Y-106369148D01*
X179085851Y-106449217D01*
X179085854Y-106449219D01*
X179085855Y-106449220D01*
X179189450Y-106494962D01*
X179214774Y-106497900D01*
X179214776Y-106497900D01*
X181055224Y-106497900D01*
X181055226Y-106497900D01*
X181080550Y-106494962D01*
X181184145Y-106449220D01*
X181264220Y-106369145D01*
X181264222Y-106369139D01*
X181268157Y-106363397D01*
X181269291Y-106364174D01*
X181299580Y-106332614D01*
X181332756Y-106324900D01*
X184328800Y-106324900D01*
X184377138Y-106342493D01*
X184402858Y-106387042D01*
X184404000Y-106400100D01*
X184404000Y-107560251D01*
X184389000Y-107601464D01*
X184389000Y-109622440D01*
X184403714Y-109653994D01*
X184404000Y-109660548D01*
X184404000Y-116764800D01*
X184386407Y-116813138D01*
X184341858Y-116838858D01*
X184328800Y-116840000D01*
X171958000Y-116840000D01*
X171958000Y-105689900D01*
X173663308Y-105689900D01*
X173711646Y-105707493D01*
X173716482Y-105711926D01*
X175847074Y-107842518D01*
X175868814Y-107889138D01*
X175869100Y-107895692D01*
X175869100Y-112195307D01*
X175851507Y-112243645D01*
X175847074Y-112248481D01*
X174366674Y-113728880D01*
X174332966Y-113748343D01*
X174323191Y-113750962D01*
X174323185Y-113750964D01*
X174219912Y-113810589D01*
X174135589Y-113894912D01*
X174075964Y-113998185D01*
X174075964Y-113998186D01*
X174075964Y-113998187D01*
X174045100Y-114113375D01*
X174045100Y-114232625D01*
X174073345Y-114338037D01*
X174075964Y-114347813D01*
X174075964Y-114347814D01*
X174135589Y-114451087D01*
X174219912Y-114535410D01*
X174279538Y-114569834D01*
X174323187Y-114595036D01*
X174438375Y-114625900D01*
X174438378Y-114625900D01*
X174557622Y-114625900D01*
X174557625Y-114625900D01*
X174672813Y-114595036D01*
X174776087Y-114535410D01*
X174860410Y-114451087D01*
X174920036Y-114347813D01*
X174922656Y-114338033D01*
X174942117Y-114304325D01*
X176601601Y-112644843D01*
X176655170Y-112552057D01*
X176682900Y-112448570D01*
X176682900Y-112341430D01*
X176682900Y-109385417D01*
X183508001Y-109385417D01*
X183522737Y-109459505D01*
X183578876Y-109543524D01*
X183662894Y-109599662D01*
X183662896Y-109599663D01*
X183736982Y-109614399D01*
X184135000Y-109614399D01*
X184135000Y-108737400D01*
X183508001Y-108737400D01*
X183508001Y-109385417D01*
X176682900Y-109385417D01*
X176682900Y-107835382D01*
X183508000Y-107835382D01*
X183508000Y-108483400D01*
X184135000Y-108483400D01*
X184135000Y-107606400D01*
X183736984Y-107606400D01*
X183736982Y-107606401D01*
X183662894Y-107621137D01*
X183578875Y-107677276D01*
X183522737Y-107761294D01*
X183522736Y-107761296D01*
X183508000Y-107835382D01*
X176682900Y-107835382D01*
X176682900Y-107642431D01*
X176655170Y-107538943D01*
X176655170Y-107538942D01*
X176601601Y-107446157D01*
X176601599Y-107446155D01*
X176601597Y-107446152D01*
X174112847Y-104957402D01*
X174112841Y-104957398D01*
X174111800Y-104956797D01*
X178856001Y-104956797D01*
X178870984Y-105051400D01*
X178929083Y-105165425D01*
X179019574Y-105255916D01*
X179133600Y-105314015D01*
X179133598Y-105314015D01*
X179228206Y-105328999D01*
X180008000Y-105328999D01*
X180262000Y-105328999D01*
X181041789Y-105328999D01*
X181041797Y-105328998D01*
X181136400Y-105314015D01*
X181250425Y-105255916D01*
X181340916Y-105165425D01*
X181399015Y-105051400D01*
X181413999Y-104956797D01*
X181414000Y-104956790D01*
X181414000Y-104902000D01*
X180262000Y-104902000D01*
X180262000Y-105328999D01*
X180008000Y-105328999D01*
X180008000Y-104902000D01*
X178856001Y-104902000D01*
X178856001Y-104956797D01*
X174111800Y-104956797D01*
X174075737Y-104935976D01*
X174020059Y-104903830D01*
X173985562Y-104894586D01*
X173916570Y-104876100D01*
X173916569Y-104876100D01*
X171958000Y-104876100D01*
X171958000Y-104593202D01*
X178856000Y-104593202D01*
X178856000Y-104648000D01*
X180008000Y-104648000D01*
X180262000Y-104648000D01*
X181413999Y-104648000D01*
X181413999Y-104593211D01*
X181413998Y-104593202D01*
X181399015Y-104498599D01*
X181340916Y-104384574D01*
X181250425Y-104294083D01*
X181136399Y-104235984D01*
X181136401Y-104235984D01*
X181041797Y-104221000D01*
X180262000Y-104221000D01*
X180262000Y-104648000D01*
X180008000Y-104648000D01*
X180008000Y-104221000D01*
X179228212Y-104221000D01*
X179228201Y-104221001D01*
X179133599Y-104235984D01*
X179019574Y-104294083D01*
X178929083Y-104384574D01*
X178870984Y-104498599D01*
X178856000Y-104593202D01*
X171958000Y-104593202D01*
X171958000Y-103911900D01*
X172231121Y-103911900D01*
X172279459Y-103929493D01*
X172298680Y-103954073D01*
X172310193Y-103977625D01*
X172399372Y-104066804D01*
X172399373Y-104066804D01*
X172399375Y-104066806D01*
X172512681Y-104122198D01*
X172586137Y-104132900D01*
X173107862Y-104132899D01*
X173181319Y-104122198D01*
X173294625Y-104066806D01*
X173383806Y-103977625D01*
X173395320Y-103954073D01*
X173432355Y-103918373D01*
X173462879Y-103911900D01*
X173923726Y-103911900D01*
X173972064Y-103929493D01*
X173991285Y-103954073D01*
X174007820Y-103987898D01*
X174091099Y-104071177D01*
X174091100Y-104071177D01*
X174091102Y-104071179D01*
X174196912Y-104122906D01*
X174247180Y-104130230D01*
X174265497Y-104132899D01*
X174265502Y-104132899D01*
X174265506Y-104132900D01*
X174265508Y-104132900D01*
X174732492Y-104132900D01*
X174732494Y-104132900D01*
X174732498Y-104132899D01*
X174732502Y-104132899D01*
X174742245Y-104131479D01*
X174801088Y-104122906D01*
X174906898Y-104071179D01*
X174990179Y-103987898D01*
X175041906Y-103882088D01*
X175051900Y-103813494D01*
X175051900Y-103196506D01*
X175051899Y-103196497D01*
X175596100Y-103196497D01*
X175596100Y-103813502D01*
X175606094Y-103882088D01*
X175657822Y-103987900D01*
X175741099Y-104071177D01*
X175741100Y-104071177D01*
X175741102Y-104071179D01*
X175846912Y-104122906D01*
X175897180Y-104130230D01*
X175915497Y-104132899D01*
X175915502Y-104132899D01*
X175915506Y-104132900D01*
X175915508Y-104132900D01*
X176382492Y-104132900D01*
X176382494Y-104132900D01*
X176382498Y-104132899D01*
X176382502Y-104132899D01*
X176392245Y-104131479D01*
X176451088Y-104122906D01*
X176556898Y-104071179D01*
X176640179Y-103987898D01*
X176691906Y-103882088D01*
X176695057Y-103860455D01*
X176696690Y-103849257D01*
X176721070Y-103803961D01*
X176768861Y-103784933D01*
X176771104Y-103784900D01*
X177124305Y-103784900D01*
X177172643Y-103802493D01*
X177191864Y-103827073D01*
X177233820Y-103912898D01*
X177317099Y-103996177D01*
X177317100Y-103996177D01*
X177317102Y-103996179D01*
X177422912Y-104047906D01*
X177473180Y-104055230D01*
X177491497Y-104057899D01*
X177491502Y-104057899D01*
X177491506Y-104057900D01*
X177491508Y-104057900D01*
X178108492Y-104057900D01*
X178108494Y-104057900D01*
X178108498Y-104057899D01*
X178108502Y-104057899D01*
X178118245Y-104056479D01*
X178177088Y-104047906D01*
X178282898Y-103996179D01*
X178366179Y-103912898D01*
X178408136Y-103827073D01*
X178445171Y-103791373D01*
X178475695Y-103784900D01*
X178937244Y-103784900D01*
X178985582Y-103802493D01*
X179001473Y-103823650D01*
X179001843Y-103823397D01*
X179005783Y-103829149D01*
X179085851Y-103909217D01*
X179085854Y-103909219D01*
X179085855Y-103909220D01*
X179189450Y-103954962D01*
X179214774Y-103957900D01*
X179214776Y-103957900D01*
X181055224Y-103957900D01*
X181055226Y-103957900D01*
X181080550Y-103954962D01*
X181184145Y-103909220D01*
X181264220Y-103829145D01*
X181309962Y-103725550D01*
X181312900Y-103700226D01*
X181312900Y-103309774D01*
X181309962Y-103284450D01*
X181264220Y-103180855D01*
X181264219Y-103180854D01*
X181264217Y-103180851D01*
X181184148Y-103100782D01*
X181184145Y-103100780D01*
X181080548Y-103055037D01*
X181061100Y-103052781D01*
X181055226Y-103052100D01*
X179214774Y-103052100D01*
X179209510Y-103052710D01*
X179189451Y-103055037D01*
X179085854Y-103100780D01*
X179085851Y-103100782D01*
X179005783Y-103180850D01*
X179001843Y-103186603D01*
X179000708Y-103185825D01*
X178970420Y-103217386D01*
X178937244Y-103225100D01*
X178475695Y-103225100D01*
X178427357Y-103207507D01*
X178408136Y-103182927D01*
X178366179Y-103097101D01*
X178282900Y-103013822D01*
X178282898Y-103013821D01*
X178177088Y-102962094D01*
X178108502Y-102952100D01*
X178108494Y-102952100D01*
X177491506Y-102952100D01*
X177491497Y-102952100D01*
X177422911Y-102962094D01*
X177317099Y-103013822D01*
X177233820Y-103097101D01*
X177191864Y-103182927D01*
X177154829Y-103218627D01*
X177124305Y-103225100D01*
X176771104Y-103225100D01*
X176722766Y-103207507D01*
X176697046Y-103162958D01*
X176696690Y-103160743D01*
X176694495Y-103145681D01*
X176691906Y-103127912D01*
X176640179Y-103022102D01*
X176640177Y-103022100D01*
X176640177Y-103022099D01*
X176556900Y-102938822D01*
X176556898Y-102938821D01*
X176451088Y-102887094D01*
X176382502Y-102877100D01*
X176382494Y-102877100D01*
X175915506Y-102877100D01*
X175915497Y-102877100D01*
X175846911Y-102887094D01*
X175741099Y-102938822D01*
X175657822Y-103022099D01*
X175606094Y-103127911D01*
X175596100Y-103196497D01*
X175051899Y-103196497D01*
X175041906Y-103127912D01*
X174990179Y-103022102D01*
X174990177Y-103022100D01*
X174990177Y-103022099D01*
X174906900Y-102938822D01*
X174906898Y-102938821D01*
X174801088Y-102887094D01*
X174732502Y-102877100D01*
X174732494Y-102877100D01*
X174265506Y-102877100D01*
X174265497Y-102877100D01*
X174196911Y-102887094D01*
X174091099Y-102938822D01*
X174007820Y-103022101D01*
X173991285Y-103055927D01*
X173954250Y-103091627D01*
X173923726Y-103098100D01*
X173462879Y-103098100D01*
X173414541Y-103080507D01*
X173395320Y-103055927D01*
X173383806Y-103032374D01*
X173294627Y-102943195D01*
X173285680Y-102938821D01*
X173181319Y-102887802D01*
X173181318Y-102887801D01*
X173107867Y-102877100D01*
X172586141Y-102877100D01*
X172586136Y-102877101D01*
X172512682Y-102887801D01*
X172512680Y-102887802D01*
X172399372Y-102943195D01*
X172310193Y-103032374D01*
X172298680Y-103055927D01*
X172261645Y-103091627D01*
X172231121Y-103098100D01*
X171958000Y-103098100D01*
X171958000Y-102109694D01*
X177071000Y-102109694D01*
X177073875Y-102140350D01*
X177073877Y-102140359D01*
X177119076Y-102269533D01*
X177119078Y-102269536D01*
X177200347Y-102379652D01*
X177310463Y-102460921D01*
X177310466Y-102460923D01*
X177439640Y-102506122D01*
X177439649Y-102506124D01*
X177470305Y-102508999D01*
X177470308Y-102509000D01*
X177673000Y-102509000D01*
X177927000Y-102509000D01*
X178129692Y-102509000D01*
X178129694Y-102508999D01*
X178160350Y-102506124D01*
X178160359Y-102506122D01*
X178289533Y-102460923D01*
X178289536Y-102460921D01*
X178349322Y-102416797D01*
X178856001Y-102416797D01*
X178870984Y-102511400D01*
X178929083Y-102625425D01*
X179019574Y-102715916D01*
X179133600Y-102774015D01*
X179133598Y-102774015D01*
X179228206Y-102788999D01*
X180008000Y-102788999D01*
X180262000Y-102788999D01*
X181041789Y-102788999D01*
X181041797Y-102788998D01*
X181136400Y-102774015D01*
X181250425Y-102715916D01*
X181340916Y-102625425D01*
X181399015Y-102511400D01*
X181413999Y-102416797D01*
X181414000Y-102416790D01*
X181414000Y-102362000D01*
X180262000Y-102362000D01*
X180262000Y-102788999D01*
X180008000Y-102788999D01*
X180008000Y-102362000D01*
X178856001Y-102362000D01*
X178856001Y-102416797D01*
X178349322Y-102416797D01*
X178399652Y-102379652D01*
X178468626Y-102286196D01*
X178480921Y-102269536D01*
X178480923Y-102269533D01*
X178526122Y-102140359D01*
X178526124Y-102140350D01*
X178528999Y-102109694D01*
X178529000Y-102109692D01*
X178529000Y-102053202D01*
X178856000Y-102053202D01*
X178856000Y-102108000D01*
X180008000Y-102108000D01*
X180262000Y-102108000D01*
X181413999Y-102108000D01*
X181413999Y-102053211D01*
X181413998Y-102053202D01*
X181399015Y-101958599D01*
X181340916Y-101844574D01*
X181250425Y-101754083D01*
X181136399Y-101695984D01*
X181136401Y-101695984D01*
X181041797Y-101681000D01*
X180262000Y-101681000D01*
X180262000Y-102108000D01*
X180008000Y-102108000D01*
X180008000Y-101681000D01*
X179228212Y-101681000D01*
X179228201Y-101681001D01*
X179133599Y-101695984D01*
X179019574Y-101754083D01*
X178929083Y-101844574D01*
X178870984Y-101958599D01*
X178856000Y-102053202D01*
X178529000Y-102053202D01*
X178529000Y-101982000D01*
X177927000Y-101982000D01*
X177927000Y-102509000D01*
X177673000Y-102509000D01*
X177673000Y-101982000D01*
X177071000Y-101982000D01*
X177071000Y-102109694D01*
X171958000Y-102109694D01*
X171958000Y-101600305D01*
X177071000Y-101600305D01*
X177071000Y-101728000D01*
X177673000Y-101728000D01*
X177927000Y-101728000D01*
X178529000Y-101728000D01*
X178529000Y-101600308D01*
X178528999Y-101600305D01*
X178526124Y-101569649D01*
X178526122Y-101569640D01*
X178480923Y-101440466D01*
X178480921Y-101440463D01*
X178399652Y-101330347D01*
X178289536Y-101249078D01*
X178289533Y-101249076D01*
X178160359Y-101203877D01*
X178160350Y-101203875D01*
X178129694Y-101201000D01*
X177927000Y-101201000D01*
X177927000Y-101728000D01*
X177673000Y-101728000D01*
X177673000Y-101201000D01*
X177470305Y-101201000D01*
X177439649Y-101203875D01*
X177439640Y-101203877D01*
X177310466Y-101249076D01*
X177310463Y-101249078D01*
X177200347Y-101330347D01*
X177119078Y-101440463D01*
X177119076Y-101440466D01*
X177073877Y-101569640D01*
X177073875Y-101569649D01*
X177071000Y-101600305D01*
X171958000Y-101600305D01*
X171958000Y-101146797D01*
X178856001Y-101146797D01*
X178870984Y-101241400D01*
X178929083Y-101355425D01*
X179019574Y-101445916D01*
X179133600Y-101504015D01*
X179133598Y-101504015D01*
X179228206Y-101518999D01*
X180008000Y-101518999D01*
X180262000Y-101518999D01*
X181041789Y-101518999D01*
X181041797Y-101518998D01*
X181136400Y-101504015D01*
X181250425Y-101445916D01*
X181340916Y-101355425D01*
X181399015Y-101241400D01*
X181413999Y-101146797D01*
X181414000Y-101146790D01*
X181414000Y-101092000D01*
X180262000Y-101092000D01*
X180262000Y-101518999D01*
X180008000Y-101518999D01*
X180008000Y-101092000D01*
X178856001Y-101092000D01*
X178856001Y-101146797D01*
X171958000Y-101146797D01*
X171958000Y-100783202D01*
X178856000Y-100783202D01*
X178856000Y-100838000D01*
X180008000Y-100838000D01*
X180262000Y-100838000D01*
X181413999Y-100838000D01*
X181413999Y-100783211D01*
X181413998Y-100783202D01*
X181399015Y-100688599D01*
X181340916Y-100574574D01*
X181250425Y-100484083D01*
X181136399Y-100425984D01*
X181136401Y-100425984D01*
X181041797Y-100411000D01*
X180262000Y-100411000D01*
X180262000Y-100838000D01*
X180008000Y-100838000D01*
X180008000Y-100411000D01*
X179228212Y-100411000D01*
X179228201Y-100411001D01*
X179133599Y-100425984D01*
X179019574Y-100484083D01*
X178929083Y-100574574D01*
X178870984Y-100688599D01*
X178856000Y-100783202D01*
X171958000Y-100783202D01*
X171958000Y-99876797D01*
X178856001Y-99876797D01*
X178870984Y-99971400D01*
X178929083Y-100085425D01*
X179019574Y-100175916D01*
X179133600Y-100234015D01*
X179133598Y-100234015D01*
X179228206Y-100248999D01*
X180008000Y-100248999D01*
X180262000Y-100248999D01*
X181041789Y-100248999D01*
X181041797Y-100248998D01*
X181136400Y-100234015D01*
X181250425Y-100175916D01*
X181340916Y-100085425D01*
X181399015Y-99971400D01*
X181413999Y-99876797D01*
X181414000Y-99876790D01*
X181414000Y-99822000D01*
X180262000Y-99822000D01*
X180262000Y-100248999D01*
X180008000Y-100248999D01*
X180008000Y-99822000D01*
X178856001Y-99822000D01*
X178856001Y-99876797D01*
X171958000Y-99876797D01*
X171958000Y-99513202D01*
X178856000Y-99513202D01*
X178856000Y-99568000D01*
X180008000Y-99568000D01*
X180262000Y-99568000D01*
X181413999Y-99568000D01*
X181413999Y-99513211D01*
X181413998Y-99513202D01*
X181399015Y-99418599D01*
X181340916Y-99304574D01*
X181250425Y-99214083D01*
X181136399Y-99155984D01*
X181136401Y-99155984D01*
X181041797Y-99141000D01*
X180262000Y-99141000D01*
X180262000Y-99568000D01*
X180008000Y-99568000D01*
X180008000Y-99141000D01*
X179228212Y-99141000D01*
X179228201Y-99141001D01*
X179133599Y-99155984D01*
X179019574Y-99214083D01*
X178929083Y-99304574D01*
X178870984Y-99418599D01*
X178856000Y-99513202D01*
X171958000Y-99513202D01*
X171958000Y-98229776D01*
X178957100Y-98229776D01*
X178957100Y-98620223D01*
X178960037Y-98645548D01*
X179005780Y-98749145D01*
X179005782Y-98749148D01*
X179085851Y-98829217D01*
X179085854Y-98829219D01*
X179085855Y-98829220D01*
X179189450Y-98874962D01*
X179214774Y-98877900D01*
X179214776Y-98877900D01*
X181055224Y-98877900D01*
X181055226Y-98877900D01*
X181080550Y-98874962D01*
X181184145Y-98829220D01*
X181264220Y-98749145D01*
X181309962Y-98645550D01*
X181312900Y-98620226D01*
X181312900Y-98229774D01*
X181309962Y-98204450D01*
X181264220Y-98100855D01*
X181264219Y-98100854D01*
X181264217Y-98100851D01*
X181184148Y-98020782D01*
X181184145Y-98020780D01*
X181080548Y-97975037D01*
X181061100Y-97972781D01*
X181055226Y-97972100D01*
X179214774Y-97972100D01*
X179209510Y-97972710D01*
X179189451Y-97975037D01*
X179085854Y-98020780D01*
X179085851Y-98020782D01*
X179005782Y-98100851D01*
X179005780Y-98100854D01*
X178960037Y-98204451D01*
X178957100Y-98229776D01*
X171958000Y-98229776D01*
X171958000Y-97336797D01*
X178856001Y-97336797D01*
X178870984Y-97431400D01*
X178929083Y-97545425D01*
X179019574Y-97635916D01*
X179133600Y-97694015D01*
X179133598Y-97694015D01*
X179228206Y-97708999D01*
X180008000Y-97708999D01*
X180262000Y-97708999D01*
X181041789Y-97708999D01*
X181041797Y-97708998D01*
X181136400Y-97694015D01*
X181250425Y-97635916D01*
X181340916Y-97545425D01*
X181399015Y-97431400D01*
X181413999Y-97336797D01*
X181414000Y-97336790D01*
X181414000Y-97282000D01*
X180262000Y-97282000D01*
X180262000Y-97708999D01*
X180008000Y-97708999D01*
X180008000Y-97282000D01*
X178856001Y-97282000D01*
X178856001Y-97336797D01*
X171958000Y-97336797D01*
X171958000Y-96973202D01*
X178856000Y-96973202D01*
X178856000Y-97028000D01*
X180008000Y-97028000D01*
X180262000Y-97028000D01*
X181413999Y-97028000D01*
X181413999Y-96973211D01*
X181413998Y-96973202D01*
X181399015Y-96878599D01*
X181340916Y-96764574D01*
X181250425Y-96674083D01*
X181136399Y-96615984D01*
X181136401Y-96615984D01*
X181041797Y-96601000D01*
X180262000Y-96601000D01*
X180262000Y-97028000D01*
X180008000Y-97028000D01*
X180008000Y-96601000D01*
X179228212Y-96601000D01*
X179228201Y-96601001D01*
X179133599Y-96615984D01*
X179019574Y-96674083D01*
X178929083Y-96764574D01*
X178870984Y-96878599D01*
X178856000Y-96973202D01*
X171958000Y-96973202D01*
X171958000Y-93878900D01*
X173006821Y-93878900D01*
X173044419Y-93888973D01*
X173053187Y-93894036D01*
X173168375Y-93924900D01*
X173168378Y-93924900D01*
X173287622Y-93924900D01*
X173287625Y-93924900D01*
X173402813Y-93894036D01*
X173411580Y-93888973D01*
X173449179Y-93878900D01*
X174189062Y-93878900D01*
X174219437Y-93885308D01*
X174227740Y-93888974D01*
X174302450Y-93921962D01*
X174327774Y-93924900D01*
X174327776Y-93924900D01*
X176068224Y-93924900D01*
X176068226Y-93924900D01*
X176093550Y-93921962D01*
X176197145Y-93876220D01*
X176277220Y-93796145D01*
X176322962Y-93692550D01*
X176325900Y-93667226D01*
X176325900Y-93653797D01*
X178919001Y-93653797D01*
X178933984Y-93748400D01*
X178992083Y-93862425D01*
X179082574Y-93952916D01*
X179196600Y-94011015D01*
X179196598Y-94011015D01*
X179291206Y-94025999D01*
X180021000Y-94025999D01*
X180275000Y-94025999D01*
X181004789Y-94025999D01*
X181004797Y-94025998D01*
X181099400Y-94011015D01*
X181213425Y-93952916D01*
X181303916Y-93862425D01*
X181362015Y-93748400D01*
X181376999Y-93653797D01*
X181377000Y-93653790D01*
X181377000Y-93599000D01*
X180275000Y-93599000D01*
X180275000Y-94025999D01*
X180021000Y-94025999D01*
X180021000Y-93599000D01*
X178919001Y-93599000D01*
X178919001Y-93653797D01*
X176325900Y-93653797D01*
X176325900Y-93290202D01*
X178919000Y-93290202D01*
X178919000Y-93345000D01*
X180021000Y-93345000D01*
X180275000Y-93345000D01*
X181376999Y-93345000D01*
X181376999Y-93290211D01*
X181376998Y-93290202D01*
X181362015Y-93195599D01*
X181303916Y-93081574D01*
X181213425Y-92991083D01*
X181099399Y-92932984D01*
X181099401Y-92932984D01*
X181004797Y-92918000D01*
X180275000Y-92918000D01*
X180275000Y-93345000D01*
X180021000Y-93345000D01*
X180021000Y-92918000D01*
X179291212Y-92918000D01*
X179291201Y-92918001D01*
X179196599Y-92932984D01*
X179082574Y-92991083D01*
X178992083Y-93081574D01*
X178933984Y-93195599D01*
X178919000Y-93290202D01*
X176325900Y-93290202D01*
X176325900Y-93276774D01*
X176322962Y-93251450D01*
X176277220Y-93147855D01*
X176277219Y-93147854D01*
X176277217Y-93147851D01*
X176197148Y-93067782D01*
X176197145Y-93067780D01*
X176093548Y-93022037D01*
X176074100Y-93019781D01*
X176068226Y-93019100D01*
X174327774Y-93019100D01*
X174310891Y-93021058D01*
X174302449Y-93022038D01*
X174302447Y-93022038D01*
X174219437Y-93058692D01*
X174189062Y-93065100D01*
X173449179Y-93065100D01*
X173411580Y-93055026D01*
X173402813Y-93049964D01*
X173287625Y-93019100D01*
X173168375Y-93019100D01*
X173053187Y-93049964D01*
X173044419Y-93055026D01*
X173006821Y-93065100D01*
X171958000Y-93065100D01*
X171958000Y-92828761D01*
X172004186Y-92794186D01*
X172086729Y-92683924D01*
X172086730Y-92683922D01*
X172134866Y-92554867D01*
X172134867Y-92554864D01*
X172140999Y-92497823D01*
X172141000Y-92497812D01*
X172141000Y-92329000D01*
X171958000Y-92329000D01*
X171958000Y-92075000D01*
X172141000Y-92075000D01*
X172141000Y-91916126D01*
X172384100Y-91916126D01*
X172384100Y-92487858D01*
X172384101Y-92487863D01*
X172394801Y-92561317D01*
X172394802Y-92561319D01*
X172450195Y-92674627D01*
X172539372Y-92763804D01*
X172539373Y-92763804D01*
X172539375Y-92763806D01*
X172652681Y-92819198D01*
X172726137Y-92829900D01*
X173247862Y-92829899D01*
X173321319Y-92819198D01*
X173434625Y-92763806D01*
X173523806Y-92674625D01*
X173579198Y-92561319D01*
X173581392Y-92546258D01*
X173605770Y-92500963D01*
X173653560Y-92481934D01*
X173655806Y-92481900D01*
X174050244Y-92481900D01*
X174098582Y-92499493D01*
X174114473Y-92520650D01*
X174114843Y-92520397D01*
X174118783Y-92526149D01*
X174198851Y-92606217D01*
X174198854Y-92606219D01*
X174198855Y-92606220D01*
X174302450Y-92651962D01*
X174327774Y-92654900D01*
X174327776Y-92654900D01*
X176068224Y-92654900D01*
X176068226Y-92654900D01*
X176093550Y-92651962D01*
X176197145Y-92606220D01*
X176277220Y-92526145D01*
X176322962Y-92422550D01*
X176325900Y-92397226D01*
X176325900Y-92006774D01*
X176322962Y-91981450D01*
X176277220Y-91877855D01*
X176277219Y-91877854D01*
X176277217Y-91877851D01*
X176197148Y-91797782D01*
X176197145Y-91797780D01*
X176093548Y-91752037D01*
X176074100Y-91749781D01*
X176068226Y-91749100D01*
X174327774Y-91749100D01*
X174322510Y-91749710D01*
X174302451Y-91752037D01*
X174198854Y-91797780D01*
X174198851Y-91797782D01*
X174118783Y-91877850D01*
X174114843Y-91883603D01*
X174113708Y-91882825D01*
X174083420Y-91914386D01*
X174050244Y-91922100D01*
X173655807Y-91922100D01*
X173607469Y-91904507D01*
X173581749Y-91859958D01*
X173581393Y-91857741D01*
X173579200Y-91842688D01*
X173579198Y-91842683D01*
X173579198Y-91842681D01*
X173523806Y-91729375D01*
X173523804Y-91729373D01*
X173523804Y-91729372D01*
X173434627Y-91640195D01*
X173434625Y-91640194D01*
X173321319Y-91584802D01*
X173321318Y-91584801D01*
X173247867Y-91574100D01*
X172726141Y-91574100D01*
X172726136Y-91574101D01*
X172652682Y-91584801D01*
X172652680Y-91584802D01*
X172539372Y-91640195D01*
X172450195Y-91729372D01*
X172394802Y-91842681D01*
X172394801Y-91842681D01*
X172384100Y-91916126D01*
X172141000Y-91916126D01*
X172141000Y-91906188D01*
X172140999Y-91906176D01*
X172134867Y-91849135D01*
X172134866Y-91849132D01*
X172086730Y-91720077D01*
X172086729Y-91720075D01*
X172004186Y-91609813D01*
X171958000Y-91575237D01*
X171958000Y-90288761D01*
X172004186Y-90254186D01*
X172086729Y-90143924D01*
X172086730Y-90143922D01*
X172134866Y-90014867D01*
X172134867Y-90014864D01*
X172140999Y-89957823D01*
X172141000Y-89957812D01*
X172141000Y-89789000D01*
X171958000Y-89789000D01*
X171958000Y-89535000D01*
X172141000Y-89535000D01*
X172141000Y-89376126D01*
X172384100Y-89376126D01*
X172384100Y-89947858D01*
X172384101Y-89947863D01*
X172394801Y-90021317D01*
X172394802Y-90021319D01*
X172450195Y-90134627D01*
X172539372Y-90223804D01*
X172539373Y-90223804D01*
X172539375Y-90223806D01*
X172652681Y-90279198D01*
X172726137Y-90289900D01*
X173247862Y-90289899D01*
X173321319Y-90279198D01*
X173434625Y-90223806D01*
X173523806Y-90134625D01*
X173535320Y-90111073D01*
X173572355Y-90075373D01*
X173602879Y-90068900D01*
X174189062Y-90068900D01*
X174219437Y-90075308D01*
X174276054Y-90100306D01*
X174302450Y-90111962D01*
X174327774Y-90114900D01*
X174715900Y-90114900D01*
X174764238Y-90132493D01*
X174789958Y-90177042D01*
X174791100Y-90190100D01*
X174791100Y-90403900D01*
X174773507Y-90452238D01*
X174728958Y-90477958D01*
X174715900Y-90479100D01*
X174327774Y-90479100D01*
X174322510Y-90479710D01*
X174302451Y-90482037D01*
X174198854Y-90527780D01*
X174198851Y-90527782D01*
X174118782Y-90607851D01*
X174118780Y-90607854D01*
X174073037Y-90711451D01*
X174070100Y-90736776D01*
X174070100Y-91127223D01*
X174073037Y-91152548D01*
X174118780Y-91256145D01*
X174118782Y-91256148D01*
X174198851Y-91336217D01*
X174198854Y-91336219D01*
X174198855Y-91336220D01*
X174302450Y-91381962D01*
X174327774Y-91384900D01*
X174327776Y-91384900D01*
X176068224Y-91384900D01*
X176068226Y-91384900D01*
X176093550Y-91381962D01*
X176197145Y-91336220D01*
X176277220Y-91256145D01*
X176322962Y-91152550D01*
X176325900Y-91127226D01*
X176325900Y-90736776D01*
X179020100Y-90736776D01*
X179020100Y-91127223D01*
X179023037Y-91152548D01*
X179068780Y-91256145D01*
X179068782Y-91256148D01*
X179148851Y-91336217D01*
X179148854Y-91336219D01*
X179148855Y-91336220D01*
X179252450Y-91381962D01*
X179277774Y-91384900D01*
X179277776Y-91384900D01*
X181018224Y-91384900D01*
X181018226Y-91384900D01*
X181043550Y-91381962D01*
X181147145Y-91336220D01*
X181227220Y-91256145D01*
X181272962Y-91152550D01*
X181275900Y-91127226D01*
X181275900Y-90736774D01*
X181272962Y-90711450D01*
X181227220Y-90607855D01*
X181227219Y-90607854D01*
X181227217Y-90607851D01*
X181147148Y-90527782D01*
X181147145Y-90527780D01*
X181043548Y-90482037D01*
X181024100Y-90479781D01*
X181018226Y-90479100D01*
X179277774Y-90479100D01*
X179272510Y-90479710D01*
X179252451Y-90482037D01*
X179148854Y-90527780D01*
X179148851Y-90527782D01*
X179068782Y-90607851D01*
X179068780Y-90607854D01*
X179023037Y-90711451D01*
X179020100Y-90736776D01*
X176325900Y-90736776D01*
X176325900Y-90736774D01*
X176322962Y-90711450D01*
X176277220Y-90607855D01*
X176277219Y-90607854D01*
X176277217Y-90607851D01*
X176197148Y-90527782D01*
X176197145Y-90527780D01*
X176093548Y-90482037D01*
X176074100Y-90479781D01*
X176068226Y-90479100D01*
X176068224Y-90479100D01*
X175680100Y-90479100D01*
X175631762Y-90461507D01*
X175606042Y-90416958D01*
X175604900Y-90403900D01*
X175604900Y-90190100D01*
X175622493Y-90141762D01*
X175667042Y-90116042D01*
X175680100Y-90114900D01*
X176068224Y-90114900D01*
X176068226Y-90114900D01*
X176093550Y-90111962D01*
X176197145Y-90066220D01*
X176277220Y-89986145D01*
X176322962Y-89882550D01*
X176325900Y-89857226D01*
X176325900Y-89466776D01*
X179020100Y-89466776D01*
X179020100Y-89857223D01*
X179023037Y-89882548D01*
X179068780Y-89986145D01*
X179068782Y-89986148D01*
X179148851Y-90066217D01*
X179148854Y-90066219D01*
X179148855Y-90066220D01*
X179252450Y-90111962D01*
X179277774Y-90114900D01*
X179277776Y-90114900D01*
X181018224Y-90114900D01*
X181018226Y-90114900D01*
X181043550Y-90111962D01*
X181147145Y-90066220D01*
X181227220Y-89986145D01*
X181227222Y-89986139D01*
X181231157Y-89980397D01*
X181232291Y-89981174D01*
X181262580Y-89949614D01*
X181295756Y-89941900D01*
X181690193Y-89941900D01*
X181738531Y-89959493D01*
X181764251Y-90004042D01*
X181764607Y-90006259D01*
X181766799Y-90021311D01*
X181766802Y-90021319D01*
X181822195Y-90134627D01*
X181911372Y-90223804D01*
X181911373Y-90223804D01*
X181911375Y-90223806D01*
X182024681Y-90279198D01*
X182098137Y-90289900D01*
X182619862Y-90289899D01*
X182693319Y-90279198D01*
X182806625Y-90223806D01*
X182895806Y-90134625D01*
X182951198Y-90021319D01*
X182960449Y-89957823D01*
X183205000Y-89957823D01*
X183211132Y-90014864D01*
X183211133Y-90014867D01*
X183259269Y-90143922D01*
X183259270Y-90143924D01*
X183341813Y-90254186D01*
X183452075Y-90336729D01*
X183452077Y-90336730D01*
X183581132Y-90384866D01*
X183581135Y-90384867D01*
X183638176Y-90390999D01*
X183638188Y-90391000D01*
X183782000Y-90391000D01*
X183782000Y-89789000D01*
X183205000Y-89789000D01*
X183205000Y-89957823D01*
X182960449Y-89957823D01*
X182961900Y-89947863D01*
X182961899Y-89376138D01*
X182960447Y-89366176D01*
X183205000Y-89366176D01*
X183205000Y-89535000D01*
X183782000Y-89535000D01*
X183782000Y-88933000D01*
X183638176Y-88933000D01*
X183581135Y-88939132D01*
X183581132Y-88939133D01*
X183452077Y-88987269D01*
X183452075Y-88987270D01*
X183341813Y-89069813D01*
X183259270Y-89180075D01*
X183259269Y-89180077D01*
X183211133Y-89309132D01*
X183211132Y-89309135D01*
X183205000Y-89366176D01*
X182960447Y-89366176D01*
X182959990Y-89363037D01*
X182951198Y-89302682D01*
X182951198Y-89302681D01*
X182895806Y-89189375D01*
X182895804Y-89189373D01*
X182895804Y-89189372D01*
X182806627Y-89100195D01*
X182778769Y-89086576D01*
X182693319Y-89044802D01*
X182693318Y-89044801D01*
X182619867Y-89034100D01*
X182098141Y-89034100D01*
X182098136Y-89034101D01*
X182024682Y-89044801D01*
X182024680Y-89044802D01*
X181911372Y-89100195D01*
X181822195Y-89189372D01*
X181766802Y-89302681D01*
X181766801Y-89302681D01*
X181764608Y-89317741D01*
X181740230Y-89363037D01*
X181692440Y-89382066D01*
X181690194Y-89382100D01*
X181295756Y-89382100D01*
X181247418Y-89364507D01*
X181231526Y-89343349D01*
X181231157Y-89343603D01*
X181227221Y-89337857D01*
X181227220Y-89337855D01*
X181227218Y-89337853D01*
X181227216Y-89337850D01*
X181147148Y-89257782D01*
X181147145Y-89257780D01*
X181043548Y-89212037D01*
X181024100Y-89209781D01*
X181018226Y-89209100D01*
X179277774Y-89209100D01*
X179272510Y-89209710D01*
X179252451Y-89212037D01*
X179148854Y-89257780D01*
X179148851Y-89257782D01*
X179068782Y-89337851D01*
X179068780Y-89337854D01*
X179023037Y-89441451D01*
X179020100Y-89466776D01*
X176325900Y-89466776D01*
X176325900Y-89466774D01*
X176322962Y-89441450D01*
X176277220Y-89337855D01*
X176277219Y-89337854D01*
X176277217Y-89337851D01*
X176197148Y-89257782D01*
X176197145Y-89257780D01*
X176093548Y-89212037D01*
X176074100Y-89209781D01*
X176068226Y-89209100D01*
X176068224Y-89209100D01*
X175680100Y-89209100D01*
X175661740Y-89202417D01*
X175642500Y-89199025D01*
X175638139Y-89193828D01*
X175631762Y-89191507D01*
X175621992Y-89174584D01*
X175609435Y-89159620D01*
X175607712Y-89149851D01*
X175606042Y-89146958D01*
X175604900Y-89133900D01*
X175604900Y-89086576D01*
X175622493Y-89038238D01*
X175642501Y-89021451D01*
X175665085Y-89008412D01*
X175749410Y-88924087D01*
X175809035Y-88820814D01*
X175809036Y-88820813D01*
X175839900Y-88705625D01*
X175839900Y-88586375D01*
X175809036Y-88471187D01*
X175809035Y-88471185D01*
X175749410Y-88367912D01*
X175665087Y-88283589D01*
X175561813Y-88223964D01*
X175446625Y-88193100D01*
X175327375Y-88193100D01*
X175240984Y-88216248D01*
X175212186Y-88223964D01*
X175212185Y-88223964D01*
X175108912Y-88283589D01*
X175024589Y-88367912D01*
X174964964Y-88471185D01*
X174964963Y-88471189D01*
X174962343Y-88480967D01*
X174942880Y-88514675D01*
X174872402Y-88585152D01*
X174872398Y-88585158D01*
X174818833Y-88677935D01*
X174818829Y-88677944D01*
X174811414Y-88705623D01*
X174811413Y-88705625D01*
X174791100Y-88781430D01*
X174791100Y-89133900D01*
X174773507Y-89182238D01*
X174728958Y-89207958D01*
X174715900Y-89209100D01*
X174327774Y-89209100D01*
X174310891Y-89211058D01*
X174302449Y-89212038D01*
X174302447Y-89212038D01*
X174219437Y-89248692D01*
X174189062Y-89255100D01*
X173602879Y-89255100D01*
X173554541Y-89237507D01*
X173535320Y-89212927D01*
X173523806Y-89189374D01*
X173434627Y-89100195D01*
X173406769Y-89086576D01*
X173321319Y-89044802D01*
X173321318Y-89044801D01*
X173247867Y-89034100D01*
X172726141Y-89034100D01*
X172726136Y-89034101D01*
X172652682Y-89044801D01*
X172652680Y-89044802D01*
X172539372Y-89100195D01*
X172450195Y-89189372D01*
X172394802Y-89302681D01*
X172394801Y-89302681D01*
X172384100Y-89376126D01*
X172141000Y-89376126D01*
X172141000Y-89366188D01*
X172140999Y-89366176D01*
X172134867Y-89309135D01*
X172134866Y-89309132D01*
X172086730Y-89180077D01*
X172086729Y-89180075D01*
X172004186Y-89069813D01*
X171958000Y-89035237D01*
X171958000Y-86360000D01*
X184328800Y-86360000D01*
X184377138Y-86377593D01*
G37*
%TD.AperFunction*%
%TD*%
%TA.AperFunction,Conductor*%
%TO.N,Net-(D5-A)*%
G36*
X167460738Y-97584493D02*
G01*
X167486458Y-97629042D01*
X167487600Y-97642100D01*
X167487600Y-99923600D01*
X167674468Y-99923600D01*
X167717601Y-99937200D01*
X167739856Y-99952783D01*
X167739857Y-99952783D01*
X167739859Y-99952785D01*
X167788197Y-99970378D01*
X167842195Y-99979899D01*
X167842196Y-99979900D01*
X167842200Y-99979900D01*
X171724900Y-99979900D01*
X171773238Y-99997493D01*
X171798958Y-100042042D01*
X171800100Y-100055100D01*
X171800100Y-102382900D01*
X171782507Y-102431238D01*
X171737958Y-102456958D01*
X171724900Y-102458100D01*
X165079100Y-102458100D01*
X165030762Y-102440507D01*
X165005042Y-102395958D01*
X165003900Y-102382900D01*
X165003900Y-97642100D01*
X165021493Y-97593762D01*
X165066042Y-97568042D01*
X165079100Y-97566900D01*
X167412400Y-97566900D01*
X167460738Y-97584493D01*
G37*
%TD.AperFunction*%
%TD*%
%TA.AperFunction,Conductor*%
%TO.N,GND*%
G36*
X173101000Y-99822000D02*
G01*
X167842200Y-99822000D01*
X167793862Y-99804407D01*
X167768142Y-99759858D01*
X167767000Y-99746800D01*
X167767000Y-97409000D01*
X167767000Y-96774000D01*
X173101000Y-96774000D01*
X173101000Y-99822000D01*
G37*
%TD.AperFunction*%
%TD*%
%TA.AperFunction,Conductor*%
%TO.N,GNDPWR*%
G36*
X222985138Y-86377593D02*
G01*
X223010858Y-86422142D01*
X223012000Y-86435200D01*
X223012000Y-88417900D01*
X222994407Y-88466238D01*
X222949858Y-88491958D01*
X222936800Y-88493100D01*
X219466745Y-88493100D01*
X219418407Y-88475507D01*
X219413581Y-88471084D01*
X219353087Y-88410590D01*
X219353086Y-88410589D01*
X219353085Y-88410588D01*
X219249813Y-88350964D01*
X219134625Y-88320100D01*
X219015375Y-88320100D01*
X218928984Y-88343248D01*
X218900186Y-88350964D01*
X218900185Y-88350964D01*
X218796912Y-88410589D01*
X218712589Y-88494912D01*
X218652964Y-88598185D01*
X218652964Y-88598186D01*
X218652964Y-88598187D01*
X218622100Y-88713375D01*
X218622100Y-88832625D01*
X218635072Y-88881037D01*
X218652964Y-88947813D01*
X218652964Y-88947814D01*
X218712589Y-89051087D01*
X218796912Y-89135410D01*
X218856538Y-89169834D01*
X218900187Y-89195036D01*
X219015375Y-89225900D01*
X219015378Y-89225900D01*
X219134622Y-89225900D01*
X219134625Y-89225900D01*
X219249813Y-89195036D01*
X219353087Y-89135410D01*
X219413571Y-89074925D01*
X219460190Y-89053186D01*
X219466745Y-89052900D01*
X222936800Y-89052900D01*
X222985138Y-89070493D01*
X223010858Y-89115042D01*
X223012000Y-89128100D01*
X223012000Y-116764800D01*
X222994407Y-116813138D01*
X222949858Y-116838858D01*
X222936800Y-116840000D01*
X185495200Y-116840000D01*
X185446862Y-116822407D01*
X185421142Y-116777858D01*
X185420000Y-116764800D01*
X185420000Y-110930744D01*
X186546000Y-110930744D01*
X186546000Y-111319255D01*
X186584078Y-111705870D01*
X186659868Y-112086896D01*
X186659871Y-112086906D01*
X186772644Y-112458665D01*
X186921318Y-112817599D01*
X186921324Y-112817610D01*
X187104447Y-113160207D01*
X187320291Y-113483242D01*
X187320294Y-113483245D01*
X187528654Y-113737134D01*
X187528655Y-113737134D01*
X189024604Y-112241184D01*
X189106112Y-112347407D01*
X189277593Y-112518888D01*
X189383814Y-112600394D01*
X187887864Y-114096343D01*
X187887864Y-114096344D01*
X188141754Y-114304705D01*
X188141757Y-114304708D01*
X188464792Y-114520552D01*
X188807389Y-114703675D01*
X188807400Y-114703681D01*
X189166334Y-114852355D01*
X189538093Y-114965128D01*
X189538103Y-114965131D01*
X189919129Y-115040921D01*
X190305744Y-115078999D01*
X190305758Y-115079000D01*
X190694242Y-115079000D01*
X190694255Y-115078999D01*
X191080870Y-115040921D01*
X191461896Y-114965131D01*
X191461906Y-114965128D01*
X191833665Y-114852355D01*
X192192599Y-114703681D01*
X192192610Y-114703675D01*
X192535207Y-114520552D01*
X192858237Y-114304711D01*
X193112134Y-114096344D01*
X193112134Y-114096343D01*
X191616185Y-112600394D01*
X191722407Y-112518888D01*
X191893888Y-112347407D01*
X191975394Y-112241185D01*
X193471343Y-113737134D01*
X193471344Y-113737134D01*
X193679711Y-113483237D01*
X193895552Y-113160207D01*
X194043608Y-112883215D01*
X220987001Y-112883215D01*
X220993453Y-112943236D01*
X220993454Y-112943241D01*
X221044098Y-113079020D01*
X221044102Y-113079027D01*
X221130952Y-113195047D01*
X221246972Y-113281897D01*
X221246979Y-113281901D01*
X221382756Y-113332544D01*
X221382766Y-113332547D01*
X221442790Y-113338999D01*
X221549500Y-113338999D01*
X222057500Y-113338999D01*
X222164200Y-113338999D01*
X222164215Y-113338998D01*
X222224236Y-113332546D01*
X222224241Y-113332545D01*
X222360020Y-113281901D01*
X222360027Y-113281897D01*
X222476047Y-113195047D01*
X222562897Y-113079027D01*
X222562901Y-113079020D01*
X222613544Y-112943243D01*
X222613547Y-112943233D01*
X222619999Y-112883214D01*
X222620000Y-112883203D01*
X222620000Y-112014000D01*
X222057500Y-112014000D01*
X222057500Y-113338999D01*
X221549500Y-113338999D01*
X221549500Y-112014000D01*
X220987001Y-112014000D01*
X220987001Y-112883215D01*
X194043608Y-112883215D01*
X194078675Y-112817610D01*
X194078681Y-112817599D01*
X194227355Y-112458665D01*
X194340128Y-112086906D01*
X194340131Y-112086896D01*
X194363745Y-111968180D01*
X194415921Y-111705870D01*
X194453999Y-111319255D01*
X194454000Y-111319241D01*
X194454000Y-110930758D01*
X194453999Y-110930744D01*
X194430014Y-110687215D01*
X195500001Y-110687215D01*
X195506453Y-110747236D01*
X195506454Y-110747241D01*
X195557098Y-110883020D01*
X195557102Y-110883027D01*
X195643952Y-110999047D01*
X195759972Y-111085897D01*
X195759979Y-111085901D01*
X195895756Y-111136544D01*
X195895766Y-111136547D01*
X195955791Y-111142999D01*
X196850000Y-111142999D01*
X197358000Y-111142999D01*
X198252200Y-111142999D01*
X198252215Y-111142998D01*
X198312236Y-111136546D01*
X198312241Y-111136545D01*
X198448020Y-111085901D01*
X198448027Y-111085897D01*
X198564047Y-110999047D01*
X198650897Y-110883027D01*
X198650901Y-110883020D01*
X198701544Y-110747243D01*
X198701547Y-110747233D01*
X198707999Y-110687214D01*
X198708000Y-110687203D01*
X198708000Y-110636785D01*
X220987000Y-110636785D01*
X220987000Y-111506000D01*
X221549500Y-111506000D01*
X222057500Y-111506000D01*
X222619999Y-111506000D01*
X222619999Y-110636799D01*
X222619998Y-110636784D01*
X222613546Y-110576763D01*
X222613545Y-110576758D01*
X222562901Y-110440979D01*
X222562897Y-110440972D01*
X222476047Y-110324952D01*
X222360027Y-110238102D01*
X222360020Y-110238098D01*
X222224243Y-110187455D01*
X222224233Y-110187452D01*
X222164214Y-110181000D01*
X222057500Y-110181000D01*
X222057500Y-111506000D01*
X221549500Y-111506000D01*
X221549500Y-110181000D01*
X221442799Y-110181000D01*
X221442784Y-110181001D01*
X221382763Y-110187453D01*
X221382758Y-110187454D01*
X221246979Y-110238098D01*
X221246972Y-110238102D01*
X221130952Y-110324952D01*
X221044102Y-110440972D01*
X221044098Y-110440979D01*
X220993455Y-110576756D01*
X220993452Y-110576766D01*
X220987000Y-110636785D01*
X198708000Y-110636785D01*
X198708000Y-110568000D01*
X197358000Y-110568000D01*
X197358000Y-111142999D01*
X196850000Y-111142999D01*
X196850000Y-110568000D01*
X195500001Y-110568000D01*
X195500001Y-110687215D01*
X194430014Y-110687215D01*
X194415930Y-110544222D01*
X194415929Y-110544215D01*
X194415920Y-110544124D01*
X194340131Y-110163103D01*
X194340128Y-110163093D01*
X194278704Y-109960605D01*
X194272692Y-109940785D01*
X195500000Y-109940785D01*
X195500000Y-110060000D01*
X196850000Y-110060000D01*
X197358000Y-110060000D01*
X198707999Y-110060000D01*
X198707999Y-109940799D01*
X198707998Y-109940784D01*
X198701982Y-109884823D01*
X198915000Y-109884823D01*
X198921132Y-109941864D01*
X198921133Y-109941867D01*
X198969269Y-110070922D01*
X198969270Y-110070924D01*
X199051813Y-110181186D01*
X199162075Y-110263729D01*
X199162077Y-110263730D01*
X199291132Y-110311866D01*
X199291135Y-110311867D01*
X199348176Y-110317999D01*
X199348188Y-110318000D01*
X199390000Y-110318000D01*
X199898000Y-110318000D01*
X199939812Y-110318000D01*
X199939823Y-110317999D01*
X199996864Y-110311867D01*
X199996867Y-110311866D01*
X200125922Y-110263730D01*
X200125924Y-110263729D01*
X200236186Y-110181186D01*
X200318729Y-110070924D01*
X200318730Y-110070922D01*
X200366866Y-109941867D01*
X200366867Y-109941864D01*
X200372999Y-109884823D01*
X200373000Y-109884812D01*
X200373000Y-109868000D01*
X199898000Y-109868000D01*
X199898000Y-110318000D01*
X199390000Y-110318000D01*
X199390000Y-109868000D01*
X198915000Y-109868000D01*
X198915000Y-109884823D01*
X198701982Y-109884823D01*
X198701546Y-109880763D01*
X198701546Y-109880762D01*
X198694970Y-109863130D01*
X198694969Y-109863129D01*
X198650899Y-109744977D01*
X198650897Y-109744972D01*
X198564047Y-109628952D01*
X198448027Y-109542102D01*
X198448020Y-109542098D01*
X198312243Y-109491455D01*
X198312233Y-109491452D01*
X198252214Y-109485000D01*
X197358000Y-109485000D01*
X197358000Y-110060000D01*
X196850000Y-110060000D01*
X196850000Y-109485000D01*
X195955799Y-109485000D01*
X195955784Y-109485001D01*
X195895763Y-109491453D01*
X195895758Y-109491454D01*
X195759979Y-109542098D01*
X195759972Y-109542102D01*
X195643952Y-109628952D01*
X195557102Y-109744972D01*
X195557098Y-109744979D01*
X195506455Y-109880756D01*
X195506452Y-109880766D01*
X195500000Y-109940785D01*
X194272692Y-109940785D01*
X194227355Y-109791334D01*
X194078682Y-109432403D01*
X194048863Y-109376615D01*
X194048862Y-109376612D01*
X194030990Y-109343176D01*
X198915000Y-109343176D01*
X198915000Y-109360000D01*
X199390000Y-109360000D01*
X199898000Y-109360000D01*
X200373000Y-109360000D01*
X200373000Y-109343188D01*
X200372999Y-109343176D01*
X200366867Y-109286135D01*
X200366866Y-109286132D01*
X200318730Y-109157077D01*
X200318729Y-109157075D01*
X200236186Y-109046813D01*
X200125924Y-108964270D01*
X200125922Y-108964269D01*
X199996867Y-108916133D01*
X199996864Y-108916132D01*
X199939823Y-108910000D01*
X199898000Y-108910000D01*
X199898000Y-109360000D01*
X199390000Y-109360000D01*
X199390000Y-108910000D01*
X199348176Y-108910000D01*
X199291135Y-108916132D01*
X199291132Y-108916133D01*
X199162077Y-108964269D01*
X199162075Y-108964270D01*
X199051813Y-109046813D01*
X198969270Y-109157075D01*
X198969269Y-109157077D01*
X198921133Y-109286132D01*
X198921132Y-109286135D01*
X198915000Y-109343176D01*
X194030990Y-109343176D01*
X193895552Y-109089792D01*
X193714759Y-108819215D01*
X220987001Y-108819215D01*
X220993453Y-108879236D01*
X220993454Y-108879241D01*
X221044098Y-109015020D01*
X221044102Y-109015027D01*
X221130952Y-109131047D01*
X221246972Y-109217897D01*
X221246979Y-109217901D01*
X221382756Y-109268544D01*
X221382766Y-109268547D01*
X221442790Y-109274999D01*
X221549500Y-109274999D01*
X222057500Y-109274999D01*
X222164200Y-109274999D01*
X222164215Y-109274998D01*
X222224236Y-109268546D01*
X222224241Y-109268545D01*
X222360020Y-109217901D01*
X222360027Y-109217897D01*
X222476047Y-109131047D01*
X222562897Y-109015027D01*
X222562901Y-109015020D01*
X222613544Y-108879243D01*
X222613547Y-108879233D01*
X222619999Y-108819214D01*
X222620000Y-108819203D01*
X222620000Y-107950000D01*
X222057500Y-107950000D01*
X222057500Y-109274999D01*
X221549500Y-109274999D01*
X221549500Y-107950000D01*
X220987001Y-107950000D01*
X220987001Y-108819215D01*
X193714759Y-108819215D01*
X193679708Y-108766757D01*
X193679705Y-108766754D01*
X193471344Y-108512864D01*
X193471343Y-108512864D01*
X191975393Y-110008813D01*
X191893888Y-109902593D01*
X191722407Y-109731112D01*
X191616184Y-109649605D01*
X193112134Y-108153655D01*
X193112134Y-108153654D01*
X192858245Y-107945294D01*
X192858242Y-107945291D01*
X192535207Y-107729447D01*
X192192610Y-107546324D01*
X192192599Y-107546318D01*
X191833665Y-107397644D01*
X191461906Y-107284871D01*
X191461896Y-107284868D01*
X191080870Y-107209078D01*
X190694255Y-107171000D01*
X190305744Y-107171000D01*
X189919129Y-107209078D01*
X189538103Y-107284868D01*
X189538093Y-107284871D01*
X189166334Y-107397644D01*
X188807400Y-107546318D01*
X188807389Y-107546324D01*
X188464792Y-107729447D01*
X188141762Y-107945288D01*
X187887864Y-108153655D01*
X189383814Y-109649605D01*
X189277593Y-109731112D01*
X189106112Y-109902593D01*
X189024605Y-110008814D01*
X187528655Y-108512864D01*
X187320288Y-108766762D01*
X187104447Y-109089792D01*
X186921324Y-109432389D01*
X186921318Y-109432400D01*
X186772644Y-109791334D01*
X186659871Y-110163093D01*
X186659868Y-110163103D01*
X186584078Y-110544129D01*
X186546000Y-110930744D01*
X185420000Y-110930744D01*
X185420000Y-109695600D01*
X185420000Y-109614399D01*
X185816000Y-109614399D01*
X186087016Y-109614399D01*
X186087017Y-109614398D01*
X186161105Y-109599662D01*
X186245124Y-109543523D01*
X186301262Y-109459505D01*
X186301263Y-109459503D01*
X186316000Y-109385417D01*
X186316000Y-108864400D01*
X185816000Y-108864400D01*
X185816000Y-109614399D01*
X185420000Y-109614399D01*
X185420000Y-108356400D01*
X185816000Y-108356400D01*
X186315999Y-108356400D01*
X186315999Y-107835384D01*
X186315998Y-107835382D01*
X186301262Y-107761294D01*
X186245123Y-107677275D01*
X186161105Y-107621137D01*
X186161103Y-107621136D01*
X186087018Y-107606400D01*
X185816000Y-107606400D01*
X185816000Y-108356400D01*
X185420000Y-108356400D01*
X185420000Y-106747375D01*
X186999100Y-106747375D01*
X186999100Y-106866625D01*
X187029964Y-106981813D01*
X187029964Y-106981814D01*
X187089589Y-107085087D01*
X187173912Y-107169410D01*
X187233538Y-107203834D01*
X187277187Y-107229036D01*
X187392375Y-107259900D01*
X187392378Y-107259900D01*
X187511622Y-107259900D01*
X187511625Y-107259900D01*
X187626813Y-107229036D01*
X187730087Y-107169410D01*
X187814410Y-107085087D01*
X187874036Y-106981813D01*
X187904900Y-106866625D01*
X187904900Y-106747375D01*
X187874036Y-106632187D01*
X187839740Y-106572785D01*
X187814410Y-106528912D01*
X187753926Y-106468428D01*
X187732186Y-106421808D01*
X187731900Y-106415254D01*
X187731900Y-105849776D01*
X188257100Y-105849776D01*
X188257100Y-106240223D01*
X188260037Y-106265548D01*
X188305780Y-106369145D01*
X188305782Y-106369148D01*
X188385851Y-106449217D01*
X188385854Y-106449219D01*
X188385855Y-106449220D01*
X188489450Y-106494962D01*
X188514774Y-106497900D01*
X188514776Y-106497900D01*
X190355224Y-106497900D01*
X190355226Y-106497900D01*
X190380550Y-106494962D01*
X190484145Y-106449220D01*
X190564220Y-106369145D01*
X190564222Y-106369139D01*
X190568157Y-106363397D01*
X190569291Y-106364174D01*
X190599580Y-106332614D01*
X190632756Y-106324900D01*
X191298848Y-106324900D01*
X191298850Y-106324900D01*
X191370037Y-106305825D01*
X191433862Y-106268976D01*
X191866976Y-105835863D01*
X191903825Y-105772038D01*
X191905761Y-105764814D01*
X191908619Y-105754149D01*
X191917541Y-105720850D01*
X191922900Y-105700850D01*
X191922900Y-104698103D01*
X191940493Y-104649765D01*
X191985042Y-104624045D01*
X191987240Y-104623691D01*
X192020088Y-104618906D01*
X192125898Y-104567179D01*
X192209179Y-104483898D01*
X192239907Y-104421042D01*
X192251136Y-104398073D01*
X192288171Y-104362373D01*
X192318695Y-104355900D01*
X193975901Y-104355900D01*
X194024239Y-104373493D01*
X194049959Y-104418042D01*
X194051101Y-104431100D01*
X194051101Y-105841713D01*
X194066043Y-105936058D01*
X194123985Y-106049774D01*
X194214225Y-106140014D01*
X194214227Y-106140015D01*
X194214228Y-106140016D01*
X194327941Y-106197956D01*
X194327943Y-106197957D01*
X194422289Y-106212900D01*
X196494900Y-106212899D01*
X196543238Y-106230492D01*
X196568958Y-106275041D01*
X196570100Y-106288099D01*
X196570100Y-106560900D01*
X196552507Y-106609238D01*
X196507958Y-106634958D01*
X196494900Y-106636100D01*
X195972289Y-106636100D01*
X195877943Y-106651043D01*
X195764228Y-106708984D01*
X195673984Y-106799228D01*
X195616043Y-106912943D01*
X195601100Y-107007289D01*
X195601100Y-107720710D01*
X195616043Y-107815056D01*
X195626400Y-107835382D01*
X195673984Y-107928771D01*
X195764229Y-108019016D01*
X195877943Y-108076956D01*
X195877945Y-108076957D01*
X195972292Y-108091900D01*
X195972296Y-108091900D01*
X198235704Y-108091900D01*
X198235708Y-108091900D01*
X198330055Y-108076957D01*
X198443771Y-108019016D01*
X198534016Y-107928771D01*
X198591957Y-107815055D01*
X198606900Y-107720708D01*
X198606900Y-107007292D01*
X198591957Y-106912945D01*
X198534016Y-106799229D01*
X198443771Y-106708984D01*
X198330055Y-106651043D01*
X198330057Y-106651043D01*
X198235710Y-106636100D01*
X198235708Y-106636100D01*
X197713100Y-106636100D01*
X197664762Y-106618507D01*
X197639042Y-106573958D01*
X197637900Y-106560900D01*
X197637900Y-106288099D01*
X197655493Y-106239761D01*
X197700042Y-106214041D01*
X197713100Y-106212899D01*
X199098400Y-106212899D01*
X199146738Y-106230492D01*
X199172458Y-106275041D01*
X199173600Y-106288099D01*
X199173600Y-107493820D01*
X199156007Y-107542158D01*
X199151574Y-107546994D01*
X199082195Y-107616372D01*
X199026802Y-107729681D01*
X199026801Y-107729681D01*
X199016100Y-107803126D01*
X199016100Y-108324858D01*
X199016101Y-108324863D01*
X199026801Y-108398317D01*
X199026802Y-108398319D01*
X199082195Y-108511627D01*
X199171372Y-108600804D01*
X199171373Y-108600804D01*
X199171375Y-108600806D01*
X199284681Y-108656198D01*
X199358137Y-108666900D01*
X199929862Y-108666899D01*
X200003319Y-108656198D01*
X200116625Y-108600806D01*
X200205806Y-108511625D01*
X200261198Y-108398319D01*
X200271900Y-108324863D01*
X200271899Y-107803138D01*
X200261198Y-107729681D01*
X200205806Y-107616375D01*
X200205804Y-107616373D01*
X200205804Y-107616372D01*
X200136426Y-107546994D01*
X200114686Y-107500374D01*
X200114400Y-107493820D01*
X200114400Y-106572785D01*
X220987000Y-106572785D01*
X220987000Y-107442000D01*
X221549500Y-107442000D01*
X222057500Y-107442000D01*
X222619999Y-107442000D01*
X222619999Y-106572799D01*
X222619998Y-106572784D01*
X222613546Y-106512763D01*
X222613545Y-106512758D01*
X222562901Y-106376979D01*
X222562897Y-106376972D01*
X222476047Y-106260952D01*
X222360027Y-106174102D01*
X222360020Y-106174098D01*
X222224243Y-106123455D01*
X222224233Y-106123452D01*
X222164214Y-106117000D01*
X222057500Y-106117000D01*
X222057500Y-107442000D01*
X221549500Y-107442000D01*
X221549500Y-106117000D01*
X221442799Y-106117000D01*
X221442784Y-106117001D01*
X221382763Y-106123453D01*
X221382758Y-106123454D01*
X221246979Y-106174098D01*
X221246972Y-106174102D01*
X221130952Y-106260952D01*
X221044102Y-106376972D01*
X221044098Y-106376979D01*
X220993455Y-106512756D01*
X220993452Y-106512766D01*
X220987000Y-106572785D01*
X200114400Y-106572785D01*
X200114400Y-106008194D01*
X200122596Y-105974054D01*
X200141957Y-105936057D01*
X200156900Y-105841711D01*
X200156900Y-104755215D01*
X220987001Y-104755215D01*
X220993453Y-104815236D01*
X220993454Y-104815241D01*
X221044098Y-104951020D01*
X221044102Y-104951027D01*
X221130952Y-105067047D01*
X221246972Y-105153897D01*
X221246979Y-105153901D01*
X221382756Y-105204544D01*
X221382766Y-105204547D01*
X221442790Y-105210999D01*
X221549500Y-105210999D01*
X222057500Y-105210999D01*
X222164200Y-105210999D01*
X222164215Y-105210998D01*
X222224236Y-105204546D01*
X222224241Y-105204545D01*
X222360020Y-105153901D01*
X222360027Y-105153897D01*
X222476047Y-105067047D01*
X222562897Y-104951027D01*
X222562901Y-104951020D01*
X222613544Y-104815243D01*
X222613547Y-104815233D01*
X222619999Y-104755214D01*
X222620000Y-104755203D01*
X222620000Y-103886000D01*
X222057500Y-103886000D01*
X222057500Y-105210999D01*
X221549500Y-105210999D01*
X221549500Y-103886000D01*
X220987001Y-103886000D01*
X220987001Y-104755215D01*
X200156900Y-104755215D01*
X200156900Y-104495100D01*
X200174493Y-104446762D01*
X200219042Y-104421042D01*
X200232100Y-104419900D01*
X201204848Y-104419900D01*
X201204850Y-104419900D01*
X201276037Y-104400825D01*
X201339862Y-104363976D01*
X201645976Y-104057862D01*
X201682825Y-103994038D01*
X201701900Y-103922850D01*
X201701900Y-103849150D01*
X201701900Y-103428103D01*
X201719493Y-103379765D01*
X201764042Y-103354045D01*
X201766240Y-103353691D01*
X201799088Y-103348906D01*
X201904898Y-103297179D01*
X201988179Y-103213898D01*
X202039906Y-103108088D01*
X202049900Y-103039494D01*
X202049900Y-102572506D01*
X202047953Y-102559145D01*
X202041903Y-102517618D01*
X202041781Y-102516782D01*
X202040616Y-102508785D01*
X220987000Y-102508785D01*
X220987000Y-103378000D01*
X221549500Y-103378000D01*
X222057500Y-103378000D01*
X222619999Y-103378000D01*
X222619999Y-102508799D01*
X222619998Y-102508784D01*
X222613546Y-102448763D01*
X222613545Y-102448758D01*
X222562901Y-102312979D01*
X222562897Y-102312972D01*
X222476047Y-102196952D01*
X222360027Y-102110102D01*
X222360020Y-102110098D01*
X222224243Y-102059455D01*
X222224233Y-102059452D01*
X222164214Y-102053000D01*
X222057500Y-102053000D01*
X222057500Y-103378000D01*
X221549500Y-103378000D01*
X221549500Y-102053000D01*
X221442799Y-102053000D01*
X221442784Y-102053001D01*
X221382763Y-102059453D01*
X221382758Y-102059454D01*
X221246979Y-102110098D01*
X221246972Y-102110102D01*
X221130952Y-102196952D01*
X221044102Y-102312972D01*
X221044098Y-102312979D01*
X220993455Y-102448756D01*
X220993452Y-102448766D01*
X220987000Y-102508785D01*
X202040616Y-102508785D01*
X202039906Y-102503912D01*
X201988179Y-102398102D01*
X201988177Y-102398100D01*
X201988177Y-102398099D01*
X201904900Y-102314822D01*
X201901116Y-102312972D01*
X201799088Y-102263094D01*
X201730502Y-102253100D01*
X201730494Y-102253100D01*
X201113506Y-102253100D01*
X201113497Y-102253100D01*
X201044911Y-102263094D01*
X200939099Y-102314822D01*
X200855822Y-102398099D01*
X200804094Y-102503911D01*
X200794100Y-102572497D01*
X200794100Y-103039502D01*
X200804094Y-103108088D01*
X200855822Y-103213900D01*
X200939099Y-103297177D01*
X200939100Y-103297177D01*
X200939102Y-103297179D01*
X201044912Y-103348906D01*
X201077742Y-103353689D01*
X201123038Y-103378067D01*
X201142066Y-103425858D01*
X201142100Y-103428103D01*
X201142100Y-103738914D01*
X201136484Y-103754341D01*
X201135054Y-103770695D01*
X201125639Y-103784139D01*
X201124507Y-103787252D01*
X201120074Y-103792088D01*
X201074088Y-103838074D01*
X201027468Y-103859814D01*
X201020914Y-103860100D01*
X200232100Y-103860100D01*
X200183762Y-103842507D01*
X200158042Y-103797958D01*
X200156900Y-103784900D01*
X200156899Y-99878295D01*
X200156899Y-99878293D01*
X200156899Y-99878290D01*
X200141957Y-99783943D01*
X200084016Y-99670228D01*
X200084015Y-99670227D01*
X200084014Y-99670225D01*
X199993774Y-99579985D01*
X199880057Y-99522043D01*
X199880059Y-99522043D01*
X199832884Y-99514571D01*
X199785711Y-99507100D01*
X199785709Y-99507100D01*
X194422295Y-99507100D01*
X194422286Y-99507101D01*
X194327941Y-99522043D01*
X194214225Y-99579985D01*
X194123985Y-99670225D01*
X194066043Y-99783941D01*
X194062940Y-99803536D01*
X194051100Y-99878289D01*
X194051100Y-101833914D01*
X194051101Y-103720900D01*
X194033508Y-103769238D01*
X193988959Y-103794958D01*
X193975901Y-103796100D01*
X192318695Y-103796100D01*
X192270357Y-103778507D01*
X192251136Y-103753927D01*
X192209179Y-103668101D01*
X192125900Y-103584822D01*
X192125898Y-103584821D01*
X192020088Y-103533094D01*
X191951502Y-103523100D01*
X191951494Y-103523100D01*
X191334506Y-103523100D01*
X191334497Y-103523100D01*
X191265911Y-103533094D01*
X191160099Y-103584822D01*
X191076822Y-103668099D01*
X191025094Y-103773911D01*
X191015100Y-103842497D01*
X191015100Y-104309502D01*
X191025094Y-104378088D01*
X191076822Y-104483900D01*
X191160099Y-104567177D01*
X191160100Y-104567177D01*
X191160102Y-104567179D01*
X191265912Y-104618906D01*
X191298742Y-104623689D01*
X191344038Y-104648067D01*
X191363066Y-104695858D01*
X191363100Y-104698103D01*
X191363100Y-105516912D01*
X191345507Y-105565250D01*
X191341075Y-105570086D01*
X191168088Y-105743074D01*
X191121467Y-105764814D01*
X191114913Y-105765100D01*
X190632756Y-105765100D01*
X190584418Y-105747507D01*
X190568526Y-105726349D01*
X190568157Y-105726603D01*
X190564221Y-105720857D01*
X190564220Y-105720855D01*
X190564218Y-105720853D01*
X190564216Y-105720850D01*
X190484148Y-105640782D01*
X190484145Y-105640780D01*
X190380548Y-105595037D01*
X190361100Y-105592781D01*
X190355226Y-105592100D01*
X188514774Y-105592100D01*
X188509510Y-105592710D01*
X188489451Y-105595037D01*
X188385854Y-105640780D01*
X188385851Y-105640782D01*
X188305782Y-105720851D01*
X188305780Y-105720854D01*
X188260037Y-105824451D01*
X188257100Y-105849776D01*
X187731900Y-105849776D01*
X187731900Y-105029000D01*
X188167436Y-105029000D01*
X188170982Y-105051396D01*
X188229083Y-105165425D01*
X188319574Y-105255916D01*
X188433600Y-105314015D01*
X188433598Y-105314015D01*
X188528206Y-105328999D01*
X189181000Y-105328999D01*
X189689000Y-105328999D01*
X190341789Y-105328999D01*
X190341797Y-105328998D01*
X190436400Y-105314015D01*
X190550425Y-105255916D01*
X190640916Y-105165425D01*
X190699015Y-105051397D01*
X190699016Y-105051396D01*
X190702564Y-105029000D01*
X189689000Y-105029000D01*
X189689000Y-105328999D01*
X189181000Y-105328999D01*
X189181000Y-105029000D01*
X188167436Y-105029000D01*
X187731900Y-105029000D01*
X187731900Y-104520999D01*
X188167435Y-104520999D01*
X188167436Y-104521000D01*
X189181000Y-104521000D01*
X189689000Y-104521000D01*
X190702564Y-104521000D01*
X190702563Y-104520999D01*
X190699017Y-104498603D01*
X190640916Y-104384574D01*
X190550425Y-104294083D01*
X190436399Y-104235984D01*
X190436401Y-104235984D01*
X190341797Y-104221000D01*
X189689000Y-104221000D01*
X189689000Y-104521000D01*
X189181000Y-104521000D01*
X189181000Y-104221000D01*
X188528212Y-104221000D01*
X188528201Y-104221001D01*
X188433599Y-104235984D01*
X188319574Y-104294083D01*
X188229083Y-104384574D01*
X188170984Y-104498602D01*
X188170983Y-104498603D01*
X188167435Y-104520999D01*
X187731900Y-104520999D01*
X187731900Y-104414085D01*
X187749493Y-104365747D01*
X187753915Y-104360922D01*
X188242563Y-103872274D01*
X188289181Y-103850535D01*
X188338868Y-103863849D01*
X188348909Y-103872275D01*
X188385851Y-103909217D01*
X188385854Y-103909219D01*
X188385855Y-103909220D01*
X188489450Y-103954962D01*
X188514774Y-103957900D01*
X188514776Y-103957900D01*
X190355224Y-103957900D01*
X190355226Y-103957900D01*
X190380550Y-103954962D01*
X190484145Y-103909220D01*
X190564220Y-103829145D01*
X190609962Y-103725550D01*
X190612900Y-103700226D01*
X190612900Y-103309774D01*
X190609962Y-103284450D01*
X190564220Y-103180855D01*
X190564219Y-103180854D01*
X190564217Y-103180851D01*
X190484148Y-103100782D01*
X190484145Y-103100780D01*
X190380548Y-103055037D01*
X190361100Y-103052781D01*
X190355226Y-103052100D01*
X188514774Y-103052100D01*
X188509510Y-103052710D01*
X188489451Y-103055037D01*
X188385854Y-103100780D01*
X188385851Y-103100782D01*
X188305783Y-103180850D01*
X188301843Y-103186603D01*
X188300708Y-103185825D01*
X188270420Y-103217386D01*
X188237244Y-103225100D01*
X188177150Y-103225100D01*
X188141556Y-103234637D01*
X188105961Y-103244175D01*
X188042139Y-103281023D01*
X188042133Y-103281027D01*
X187463348Y-103859814D01*
X187280138Y-104043024D01*
X187265300Y-104057862D01*
X187228024Y-104095137D01*
X187228023Y-104095139D01*
X187191175Y-104158961D01*
X187172100Y-104230151D01*
X187172100Y-106415254D01*
X187154507Y-106463592D01*
X187150074Y-106468428D01*
X187089589Y-106528912D01*
X187029964Y-106632185D01*
X187029964Y-106632186D01*
X187024912Y-106651043D01*
X186999100Y-106747375D01*
X185420000Y-106747375D01*
X185420000Y-102039776D01*
X188257100Y-102039776D01*
X188257100Y-102430223D01*
X188260037Y-102455548D01*
X188305780Y-102559145D01*
X188305782Y-102559148D01*
X188385851Y-102639217D01*
X188385854Y-102639219D01*
X188385855Y-102639220D01*
X188489450Y-102684962D01*
X188514774Y-102687900D01*
X188514776Y-102687900D01*
X190355224Y-102687900D01*
X190355226Y-102687900D01*
X190380550Y-102684962D01*
X190484145Y-102639220D01*
X190564220Y-102559145D01*
X190609962Y-102455550D01*
X190612900Y-102430226D01*
X190612900Y-102039774D01*
X190609962Y-102014450D01*
X190564220Y-101910855D01*
X190564219Y-101910854D01*
X190564217Y-101910851D01*
X190484148Y-101830782D01*
X190484145Y-101830780D01*
X190380548Y-101785037D01*
X190361100Y-101782781D01*
X190355226Y-101782100D01*
X188514774Y-101782100D01*
X188509510Y-101782710D01*
X188489451Y-101785037D01*
X188385854Y-101830780D01*
X188385851Y-101830782D01*
X188305782Y-101910851D01*
X188305780Y-101910854D01*
X188260037Y-102014451D01*
X188257100Y-102039776D01*
X185420000Y-102039776D01*
X185420000Y-100769776D01*
X188257100Y-100769776D01*
X188257100Y-101160223D01*
X188260037Y-101185548D01*
X188305780Y-101289145D01*
X188305782Y-101289148D01*
X188385851Y-101369217D01*
X188385854Y-101369219D01*
X188385855Y-101369220D01*
X188489450Y-101414962D01*
X188514774Y-101417900D01*
X188514776Y-101417900D01*
X190355224Y-101417900D01*
X190355226Y-101417900D01*
X190380550Y-101414962D01*
X190484145Y-101369220D01*
X190564220Y-101289145D01*
X190609962Y-101185550D01*
X190612900Y-101160226D01*
X190612900Y-101155694D01*
X190914000Y-101155694D01*
X190916875Y-101186350D01*
X190916877Y-101186359D01*
X190962076Y-101315533D01*
X190962078Y-101315536D01*
X191043347Y-101425652D01*
X191153463Y-101506921D01*
X191153466Y-101506923D01*
X191282640Y-101552122D01*
X191282649Y-101552124D01*
X191313305Y-101554999D01*
X191313308Y-101555000D01*
X191389000Y-101555000D01*
X191897000Y-101555000D01*
X191972692Y-101555000D01*
X191972694Y-101554999D01*
X192003350Y-101552124D01*
X192003359Y-101552122D01*
X192132533Y-101506923D01*
X192132536Y-101506921D01*
X192242652Y-101425652D01*
X192323921Y-101315536D01*
X192323923Y-101315533D01*
X192369122Y-101186359D01*
X192369124Y-101186350D01*
X192371999Y-101155694D01*
X192372000Y-101155692D01*
X192372000Y-101155000D01*
X191897000Y-101155000D01*
X191897000Y-101555000D01*
X191389000Y-101555000D01*
X191389000Y-101155000D01*
X190914000Y-101155000D01*
X190914000Y-101155694D01*
X190612900Y-101155694D01*
X190612900Y-100769774D01*
X190609962Y-100744450D01*
X190574802Y-100664821D01*
X190566627Y-100646305D01*
X190914000Y-100646305D01*
X190914000Y-100647000D01*
X191389000Y-100647000D01*
X191897000Y-100647000D01*
X192372000Y-100647000D01*
X192372000Y-100646308D01*
X192371999Y-100646305D01*
X192369124Y-100615649D01*
X192369122Y-100615640D01*
X192323923Y-100486466D01*
X192323921Y-100486463D01*
X192242652Y-100376347D01*
X192132536Y-100295078D01*
X192132533Y-100295076D01*
X192003359Y-100249877D01*
X192003350Y-100249875D01*
X191972694Y-100247000D01*
X191897000Y-100247000D01*
X191897000Y-100647000D01*
X191389000Y-100647000D01*
X191389000Y-100247000D01*
X191313305Y-100247000D01*
X191282649Y-100249875D01*
X191282640Y-100249877D01*
X191153466Y-100295076D01*
X191153463Y-100295078D01*
X191043347Y-100376347D01*
X190962078Y-100486463D01*
X190962076Y-100486466D01*
X190916877Y-100615640D01*
X190916875Y-100615649D01*
X190914000Y-100646305D01*
X190566627Y-100646305D01*
X190564222Y-100640858D01*
X190564217Y-100640851D01*
X190484148Y-100560782D01*
X190484145Y-100560780D01*
X190380548Y-100515037D01*
X190361100Y-100512781D01*
X190355226Y-100512100D01*
X188514774Y-100512100D01*
X188509510Y-100512710D01*
X188489451Y-100515037D01*
X188385854Y-100560780D01*
X188385851Y-100560782D01*
X188305782Y-100640851D01*
X188305780Y-100640854D01*
X188260037Y-100744451D01*
X188257100Y-100769776D01*
X185420000Y-100769776D01*
X185420000Y-99499776D01*
X188257100Y-99499776D01*
X188257100Y-99890223D01*
X188260037Y-99915548D01*
X188305780Y-100019145D01*
X188305782Y-100019148D01*
X188385851Y-100099217D01*
X188385854Y-100099219D01*
X188385855Y-100099220D01*
X188489450Y-100144962D01*
X188514774Y-100147900D01*
X188514776Y-100147900D01*
X190355224Y-100147900D01*
X190355226Y-100147900D01*
X190380550Y-100144962D01*
X190484145Y-100099220D01*
X190564220Y-100019145D01*
X190609962Y-99915550D01*
X190612900Y-99890226D01*
X190612900Y-99499774D01*
X190609962Y-99474450D01*
X190564220Y-99370855D01*
X190564219Y-99370854D01*
X190564217Y-99370851D01*
X190484148Y-99290782D01*
X190484145Y-99290780D01*
X190380548Y-99245037D01*
X190361100Y-99242781D01*
X190355226Y-99242100D01*
X188514774Y-99242100D01*
X188509510Y-99242710D01*
X188489451Y-99245037D01*
X188385854Y-99290780D01*
X188385851Y-99290782D01*
X188305782Y-99370851D01*
X188305780Y-99370854D01*
X188260037Y-99474451D01*
X188257100Y-99499776D01*
X185420000Y-99499776D01*
X185420000Y-98500200D01*
X185437593Y-98451862D01*
X185482142Y-98426142D01*
X185495200Y-98425000D01*
X188181900Y-98425000D01*
X188230238Y-98442593D01*
X188255958Y-98487142D01*
X188257100Y-98500200D01*
X188257100Y-98620223D01*
X188260037Y-98645548D01*
X188305780Y-98749145D01*
X188305782Y-98749148D01*
X188385851Y-98829217D01*
X188385854Y-98829219D01*
X188385855Y-98829220D01*
X188489450Y-98874962D01*
X188514774Y-98877900D01*
X188514776Y-98877900D01*
X190355224Y-98877900D01*
X190355226Y-98877900D01*
X190380550Y-98874962D01*
X190484145Y-98829220D01*
X190564220Y-98749145D01*
X190564222Y-98749139D01*
X190568157Y-98743397D01*
X190569291Y-98744174D01*
X190599580Y-98712614D01*
X190632756Y-98704900D01*
X191033474Y-98704900D01*
X191081812Y-98722493D01*
X191107532Y-98767042D01*
X191098599Y-98817700D01*
X191086648Y-98833274D01*
X191076822Y-98843099D01*
X191025094Y-98948911D01*
X191015100Y-99017497D01*
X191015100Y-99484502D01*
X191025094Y-99553088D01*
X191076822Y-99658900D01*
X191160099Y-99742177D01*
X191160100Y-99742177D01*
X191160102Y-99742179D01*
X191265912Y-99793906D01*
X191316180Y-99801230D01*
X191334497Y-99803899D01*
X191334502Y-99803899D01*
X191334506Y-99803900D01*
X191334508Y-99803900D01*
X191951492Y-99803900D01*
X191951494Y-99803900D01*
X191951498Y-99803899D01*
X191951502Y-99803899D01*
X191961245Y-99802479D01*
X192020088Y-99793906D01*
X192125898Y-99742179D01*
X192209179Y-99658898D01*
X192251136Y-99573073D01*
X192253096Y-99571182D01*
X192253570Y-99568500D01*
X192271405Y-99553533D01*
X192288171Y-99537373D01*
X192291508Y-99536665D01*
X192292975Y-99535435D01*
X192318695Y-99530900D01*
X192448914Y-99530900D01*
X192497252Y-99548493D01*
X192502088Y-99552926D01*
X193119074Y-100169912D01*
X193140814Y-100216532D01*
X193141100Y-100223086D01*
X193141100Y-101833914D01*
X193123507Y-101882252D01*
X193119074Y-101887088D01*
X192882088Y-102124074D01*
X192835468Y-102145814D01*
X192828914Y-102146100D01*
X192318695Y-102146100D01*
X192270357Y-102128507D01*
X192251136Y-102103927D01*
X192209179Y-102018101D01*
X192125900Y-101934822D01*
X192076866Y-101910851D01*
X192020088Y-101883094D01*
X191951502Y-101873100D01*
X191951494Y-101873100D01*
X191334506Y-101873100D01*
X191334497Y-101873100D01*
X191265911Y-101883094D01*
X191160099Y-101934822D01*
X191076822Y-102018099D01*
X191025094Y-102123911D01*
X191015100Y-102192497D01*
X191015100Y-102659502D01*
X191025094Y-102728088D01*
X191076822Y-102833900D01*
X191160099Y-102917177D01*
X191160100Y-102917177D01*
X191160102Y-102917179D01*
X191265912Y-102968906D01*
X191316180Y-102976230D01*
X191334497Y-102978899D01*
X191334502Y-102978899D01*
X191334506Y-102978900D01*
X191334508Y-102978900D01*
X191951492Y-102978900D01*
X191951494Y-102978900D01*
X191951498Y-102978899D01*
X191951502Y-102978899D01*
X191961245Y-102977479D01*
X192020088Y-102968906D01*
X192125898Y-102917179D01*
X192209179Y-102833898D01*
X192251136Y-102748073D01*
X192288171Y-102712373D01*
X192318695Y-102705900D01*
X193012848Y-102705900D01*
X193012850Y-102705900D01*
X193084037Y-102686825D01*
X193147862Y-102649976D01*
X193644976Y-102152862D01*
X193681825Y-102089037D01*
X193700900Y-102017850D01*
X193700900Y-101944150D01*
X193700900Y-100039150D01*
X193695540Y-100019148D01*
X193684388Y-99977527D01*
X193684388Y-99977526D01*
X193681825Y-99967963D01*
X193681825Y-99967962D01*
X193650469Y-99913652D01*
X193644976Y-99904137D01*
X192767866Y-99027027D01*
X192767860Y-99027023D01*
X192704038Y-98990175D01*
X192680308Y-98983816D01*
X192632850Y-98971100D01*
X192632848Y-98971100D01*
X192318695Y-98971100D01*
X192270357Y-98953507D01*
X192251136Y-98928927D01*
X192209179Y-98843101D01*
X192125900Y-98759822D01*
X192104066Y-98749148D01*
X192020088Y-98708094D01*
X191986138Y-98703147D01*
X191982011Y-98700925D01*
X191977343Y-98701323D01*
X191959767Y-98688953D01*
X191940843Y-98678767D01*
X191938129Y-98673723D01*
X191935278Y-98671717D01*
X191930726Y-98659967D01*
X191924298Y-98648021D01*
X191922900Y-98642752D01*
X191922900Y-98642150D01*
X191906341Y-98580351D01*
X191906341Y-98580350D01*
X191903825Y-98570963D01*
X191903825Y-98570962D01*
X191884679Y-98537800D01*
X191875747Y-98487141D01*
X191901467Y-98442593D01*
X191949804Y-98425000D01*
X196215000Y-98425000D01*
X196215000Y-95678289D01*
X198631100Y-95678289D01*
X198631100Y-97441710D01*
X198646043Y-97536056D01*
X198703984Y-97649771D01*
X198794229Y-97740016D01*
X198907943Y-97797956D01*
X198907945Y-97797957D01*
X199002292Y-97812900D01*
X199044267Y-97812900D01*
X199092605Y-97830493D01*
X199116904Y-97868636D01*
X199123174Y-97892036D01*
X199160023Y-97955860D01*
X199160027Y-97955866D01*
X199726133Y-98521972D01*
X199726136Y-98521974D01*
X199726138Y-98521976D01*
X199789963Y-98558825D01*
X199861150Y-98577900D01*
X199934850Y-98577900D01*
X200973636Y-98577900D01*
X201021974Y-98595493D01*
X201047694Y-98640042D01*
X201038761Y-98690700D01*
X201006663Y-98720659D01*
X200951101Y-98747820D01*
X200867822Y-98831099D01*
X200816094Y-98936911D01*
X200806100Y-99005497D01*
X200806100Y-99622502D01*
X200816094Y-99691088D01*
X200867822Y-99796900D01*
X200951099Y-99880177D01*
X200951101Y-99880178D01*
X200951102Y-99880179D01*
X201036928Y-99922136D01*
X201072626Y-99959170D01*
X201079100Y-99989694D01*
X201079100Y-100549438D01*
X201061507Y-100597776D01*
X201036928Y-100616997D01*
X200939099Y-100664822D01*
X200855822Y-100748099D01*
X200804094Y-100853911D01*
X200794100Y-100922497D01*
X200794100Y-101389502D01*
X200804094Y-101458088D01*
X200855822Y-101563900D01*
X200939099Y-101647177D01*
X200939100Y-101647177D01*
X200939102Y-101647179D01*
X201044912Y-101698906D01*
X201095180Y-101706230D01*
X201113497Y-101708899D01*
X201113502Y-101708899D01*
X201113506Y-101708900D01*
X201113508Y-101708900D01*
X201730492Y-101708900D01*
X201730494Y-101708900D01*
X201730498Y-101708899D01*
X201730502Y-101708899D01*
X201740245Y-101707479D01*
X201799088Y-101698906D01*
X201904898Y-101647179D01*
X201988179Y-101563898D01*
X202039906Y-101458088D01*
X202049900Y-101389494D01*
X202049900Y-100922506D01*
X202039906Y-100853912D01*
X201988179Y-100748102D01*
X201988177Y-100748100D01*
X201988177Y-100748099D01*
X201931293Y-100691215D01*
X220987001Y-100691215D01*
X220993453Y-100751236D01*
X220993454Y-100751241D01*
X221044098Y-100887020D01*
X221044102Y-100887027D01*
X221130952Y-101003047D01*
X221246972Y-101089897D01*
X221246979Y-101089901D01*
X221382756Y-101140544D01*
X221382766Y-101140547D01*
X221442790Y-101146999D01*
X221549500Y-101146999D01*
X222057500Y-101146999D01*
X222164200Y-101146999D01*
X222164215Y-101146998D01*
X222224236Y-101140546D01*
X222224241Y-101140545D01*
X222360020Y-101089901D01*
X222360027Y-101089897D01*
X222476047Y-101003047D01*
X222562897Y-100887027D01*
X222562901Y-100887020D01*
X222613544Y-100751243D01*
X222613547Y-100751233D01*
X222619999Y-100691214D01*
X222620000Y-100691203D01*
X222620000Y-99822000D01*
X222057500Y-99822000D01*
X222057500Y-101146999D01*
X221549500Y-101146999D01*
X221549500Y-99822000D01*
X220987001Y-99822000D01*
X220987001Y-100691215D01*
X201931293Y-100691215D01*
X201904900Y-100664822D01*
X201868444Y-100647000D01*
X201799088Y-100613094D01*
X201730502Y-100603100D01*
X201730494Y-100603100D01*
X201714100Y-100603100D01*
X201665762Y-100585507D01*
X201640042Y-100540958D01*
X201638900Y-100527900D01*
X201638900Y-99989694D01*
X201656493Y-99941356D01*
X201681069Y-99922137D01*
X201766898Y-99880179D01*
X201850179Y-99796898D01*
X201901906Y-99691088D01*
X201908811Y-99643694D01*
X202355000Y-99643694D01*
X202357875Y-99674350D01*
X202357877Y-99674359D01*
X202403076Y-99803533D01*
X202403078Y-99803536D01*
X202484347Y-99913652D01*
X202594463Y-99994921D01*
X202594466Y-99994923D01*
X202723640Y-100040122D01*
X202723649Y-100040124D01*
X202754305Y-100042999D01*
X202754308Y-100043000D01*
X202755000Y-100043000D01*
X203263000Y-100043000D01*
X203263692Y-100043000D01*
X203263694Y-100042999D01*
X203294350Y-100040124D01*
X203294359Y-100040122D01*
X203423533Y-99994923D01*
X203423536Y-99994921D01*
X203533652Y-99913652D01*
X203614921Y-99803536D01*
X203614923Y-99803533D01*
X203628052Y-99766014D01*
X203660122Y-99674359D01*
X203660124Y-99674350D01*
X203662999Y-99643694D01*
X203663000Y-99643692D01*
X203663000Y-99568000D01*
X203263000Y-99568000D01*
X203263000Y-100043000D01*
X202755000Y-100043000D01*
X202755000Y-99568000D01*
X202355000Y-99568000D01*
X202355000Y-99643694D01*
X201908811Y-99643694D01*
X201911900Y-99622494D01*
X201911900Y-99005506D01*
X201908811Y-98984308D01*
X201908811Y-98984305D01*
X202355000Y-98984305D01*
X202355000Y-99060000D01*
X202755000Y-99060000D01*
X203263000Y-99060000D01*
X203663000Y-99060000D01*
X203663000Y-98984308D01*
X203662999Y-98984305D01*
X203660124Y-98953649D01*
X203660122Y-98953640D01*
X203614923Y-98824466D01*
X203614921Y-98824463D01*
X203533652Y-98714347D01*
X203423536Y-98633078D01*
X203423533Y-98633076D01*
X203294359Y-98587877D01*
X203294350Y-98587875D01*
X203263694Y-98585000D01*
X203263000Y-98585000D01*
X203263000Y-99060000D01*
X202755000Y-99060000D01*
X202755000Y-98585000D01*
X202754305Y-98585000D01*
X202723649Y-98587875D01*
X202723640Y-98587877D01*
X202594466Y-98633076D01*
X202594463Y-98633078D01*
X202484347Y-98714347D01*
X202403078Y-98824463D01*
X202403076Y-98824466D01*
X202357877Y-98953640D01*
X202357875Y-98953649D01*
X202355000Y-98984305D01*
X201908811Y-98984305D01*
X201901906Y-98936912D01*
X201873057Y-98877900D01*
X201850179Y-98831102D01*
X201850177Y-98831100D01*
X201850177Y-98831099D01*
X201766900Y-98747822D01*
X201681072Y-98705863D01*
X201645373Y-98668827D01*
X201638900Y-98638304D01*
X201638900Y-98452151D01*
X201636930Y-98444799D01*
X201636926Y-98444785D01*
X220987000Y-98444785D01*
X220987000Y-99314000D01*
X221549500Y-99314000D01*
X222057500Y-99314000D01*
X222619999Y-99314000D01*
X222619999Y-98444799D01*
X222619998Y-98444784D01*
X222613546Y-98384763D01*
X222613545Y-98384758D01*
X222562901Y-98248979D01*
X222562897Y-98248972D01*
X222476047Y-98132952D01*
X222360027Y-98046102D01*
X222360020Y-98046098D01*
X222224243Y-97995455D01*
X222224233Y-97995452D01*
X222164214Y-97989000D01*
X222057500Y-97989000D01*
X222057500Y-99314000D01*
X221549500Y-99314000D01*
X221549500Y-97989000D01*
X221442799Y-97989000D01*
X221442784Y-97989001D01*
X221382763Y-97995453D01*
X221382758Y-97995454D01*
X221246979Y-98046098D01*
X221246972Y-98046102D01*
X221130952Y-98132952D01*
X221044102Y-98248972D01*
X221044098Y-98248979D01*
X220993455Y-98384756D01*
X220993452Y-98384766D01*
X220987000Y-98444785D01*
X201636926Y-98444785D01*
X201619825Y-98380963D01*
X201582976Y-98317138D01*
X201530862Y-98265024D01*
X201339862Y-98074024D01*
X201326373Y-98066236D01*
X201276038Y-98037175D01*
X201252308Y-98030816D01*
X201204850Y-98018100D01*
X201204848Y-98018100D01*
X200045086Y-98018100D01*
X200029658Y-98012484D01*
X200013305Y-98011054D01*
X199999860Y-98001639D01*
X199996748Y-98000507D01*
X199991912Y-97996074D01*
X199889348Y-97893510D01*
X199867608Y-97846890D01*
X199880922Y-97797203D01*
X199908380Y-97773333D01*
X199973771Y-97740016D01*
X200064016Y-97649771D01*
X200121957Y-97536055D01*
X200136900Y-97441708D01*
X200136900Y-96627215D01*
X220987001Y-96627215D01*
X220993453Y-96687236D01*
X220993454Y-96687241D01*
X221044098Y-96823020D01*
X221044102Y-96823027D01*
X221130952Y-96939047D01*
X221246972Y-97025897D01*
X221246979Y-97025901D01*
X221382756Y-97076544D01*
X221382766Y-97076547D01*
X221442790Y-97082999D01*
X221549500Y-97082999D01*
X222057500Y-97082999D01*
X222164200Y-97082999D01*
X222164215Y-97082998D01*
X222224236Y-97076546D01*
X222224241Y-97076545D01*
X222360020Y-97025901D01*
X222360027Y-97025897D01*
X222476047Y-96939047D01*
X222562897Y-96823027D01*
X222562901Y-96823020D01*
X222613544Y-96687243D01*
X222613547Y-96687233D01*
X222619999Y-96627214D01*
X222620000Y-96627203D01*
X222620000Y-95758000D01*
X222057500Y-95758000D01*
X222057500Y-97082999D01*
X221549500Y-97082999D01*
X221549500Y-95758000D01*
X220987001Y-95758000D01*
X220987001Y-96627215D01*
X200136900Y-96627215D01*
X200136900Y-95678292D01*
X200121957Y-95583945D01*
X200064016Y-95470229D01*
X199973771Y-95379984D01*
X199860055Y-95322043D01*
X199860057Y-95322043D01*
X199765710Y-95307100D01*
X199765708Y-95307100D01*
X199002292Y-95307100D01*
X199002289Y-95307100D01*
X198907943Y-95322043D01*
X198794228Y-95379984D01*
X198703984Y-95470228D01*
X198646043Y-95583943D01*
X198631100Y-95678289D01*
X196215000Y-95678289D01*
X196215000Y-94180215D01*
X196690001Y-94180215D01*
X196696453Y-94240236D01*
X196696454Y-94240241D01*
X196747098Y-94376020D01*
X196747102Y-94376027D01*
X196833952Y-94492047D01*
X196949972Y-94578897D01*
X196949979Y-94578901D01*
X197085756Y-94629544D01*
X197085766Y-94629547D01*
X197145791Y-94635999D01*
X199390000Y-94635999D01*
X199898000Y-94635999D01*
X202142200Y-94635999D01*
X202142215Y-94635998D01*
X202202236Y-94629546D01*
X202202241Y-94629545D01*
X202338020Y-94578901D01*
X202338027Y-94578897D01*
X202454047Y-94492047D01*
X202537335Y-94380785D01*
X220987000Y-94380785D01*
X220987000Y-95250000D01*
X221549500Y-95250000D01*
X222057500Y-95250000D01*
X222619999Y-95250000D01*
X222619999Y-94380799D01*
X222619998Y-94380784D01*
X222613546Y-94320763D01*
X222613545Y-94320758D01*
X222562901Y-94184979D01*
X222562897Y-94184972D01*
X222476047Y-94068952D01*
X222360027Y-93982102D01*
X222360020Y-93982098D01*
X222224243Y-93931455D01*
X222224233Y-93931452D01*
X222164214Y-93925000D01*
X222057500Y-93925000D01*
X222057500Y-95250000D01*
X221549500Y-95250000D01*
X221549500Y-93925000D01*
X221442799Y-93925000D01*
X221442784Y-93925001D01*
X221382763Y-93931453D01*
X221382758Y-93931454D01*
X221246979Y-93982098D01*
X221246972Y-93982102D01*
X221130952Y-94068952D01*
X221044102Y-94184972D01*
X221044098Y-94184979D01*
X220993455Y-94320756D01*
X220993452Y-94320766D01*
X220987000Y-94380785D01*
X202537335Y-94380785D01*
X202540897Y-94376027D01*
X202540901Y-94376020D01*
X202549676Y-94352495D01*
X202591544Y-94240243D01*
X202591547Y-94240233D01*
X202597999Y-94180214D01*
X202598000Y-94180203D01*
X202598000Y-93736000D01*
X199898000Y-93736000D01*
X199898000Y-94635999D01*
X199390000Y-94635999D01*
X199390000Y-93736000D01*
X196690001Y-93736000D01*
X196690001Y-94180215D01*
X196215000Y-94180215D01*
X196215000Y-92783785D01*
X196690000Y-92783785D01*
X196690000Y-93228000D01*
X199390000Y-93228000D01*
X199898000Y-93228000D01*
X202597999Y-93228000D01*
X202597999Y-92783799D01*
X202597998Y-92783784D01*
X202591546Y-92723763D01*
X202591545Y-92723758D01*
X202540901Y-92587979D01*
X202540897Y-92587972D01*
X202522364Y-92563215D01*
X220987001Y-92563215D01*
X220993453Y-92623236D01*
X220993454Y-92623241D01*
X221044098Y-92759020D01*
X221044102Y-92759027D01*
X221130952Y-92875047D01*
X221246972Y-92961897D01*
X221246979Y-92961901D01*
X221382756Y-93012544D01*
X221382766Y-93012547D01*
X221442790Y-93018999D01*
X221549500Y-93018999D01*
X222057500Y-93018999D01*
X222164200Y-93018999D01*
X222164215Y-93018998D01*
X222224236Y-93012546D01*
X222224241Y-93012545D01*
X222360020Y-92961901D01*
X222360027Y-92961897D01*
X222476047Y-92875047D01*
X222562897Y-92759027D01*
X222562901Y-92759020D01*
X222613544Y-92623243D01*
X222613547Y-92623233D01*
X222619999Y-92563214D01*
X222620000Y-92563203D01*
X222620000Y-91694000D01*
X222057500Y-91694000D01*
X222057500Y-93018999D01*
X221549500Y-93018999D01*
X221549500Y-91694000D01*
X220987001Y-91694000D01*
X220987001Y-92563215D01*
X202522364Y-92563215D01*
X202454047Y-92471952D01*
X202338027Y-92385102D01*
X202338020Y-92385098D01*
X202202243Y-92334455D01*
X202202233Y-92334452D01*
X202142214Y-92328000D01*
X199898000Y-92328000D01*
X199898000Y-93228000D01*
X199390000Y-93228000D01*
X199390000Y-92328000D01*
X197145799Y-92328000D01*
X197145784Y-92328001D01*
X197085763Y-92334453D01*
X197085758Y-92334454D01*
X196949979Y-92385098D01*
X196949972Y-92385102D01*
X196833952Y-92471952D01*
X196747102Y-92587972D01*
X196747098Y-92587979D01*
X196696455Y-92723756D01*
X196696452Y-92723766D01*
X196690000Y-92783785D01*
X196215000Y-92783785D01*
X196215000Y-90316785D01*
X220987000Y-90316785D01*
X220987000Y-91186000D01*
X221549500Y-91186000D01*
X222057500Y-91186000D01*
X222619999Y-91186000D01*
X222619999Y-90316799D01*
X222619998Y-90316784D01*
X222613546Y-90256763D01*
X222613545Y-90256758D01*
X222562901Y-90120979D01*
X222562897Y-90120972D01*
X222476047Y-90004952D01*
X222360027Y-89918102D01*
X222360020Y-89918098D01*
X222224243Y-89867455D01*
X222224233Y-89867452D01*
X222164214Y-89861000D01*
X222057500Y-89861000D01*
X222057500Y-91186000D01*
X221549500Y-91186000D01*
X221549500Y-89861000D01*
X221442799Y-89861000D01*
X221442784Y-89861001D01*
X221382763Y-89867453D01*
X221382758Y-89867454D01*
X221246979Y-89918098D01*
X221246972Y-89918102D01*
X221130952Y-90004952D01*
X221044102Y-90120972D01*
X221044098Y-90120979D01*
X220993455Y-90256756D01*
X220993452Y-90256766D01*
X220987000Y-90316785D01*
X196215000Y-90316785D01*
X196215000Y-88991100D01*
X196232593Y-88942762D01*
X196277142Y-88917042D01*
X196290200Y-88915900D01*
X196715900Y-88915900D01*
X196764238Y-88933493D01*
X196789958Y-88978042D01*
X196791100Y-88991100D01*
X196791100Y-89063710D01*
X196806043Y-89158056D01*
X196863984Y-89271771D01*
X196954229Y-89362016D01*
X197067943Y-89419956D01*
X197067945Y-89419957D01*
X197162292Y-89434900D01*
X197162296Y-89434900D01*
X202125704Y-89434900D01*
X202125708Y-89434900D01*
X202220055Y-89419957D01*
X202333771Y-89362016D01*
X202424016Y-89271771D01*
X202481957Y-89158055D01*
X202496900Y-89063708D01*
X202496900Y-87700292D01*
X202481957Y-87605945D01*
X202424016Y-87492229D01*
X202333771Y-87401984D01*
X202220055Y-87344043D01*
X202220057Y-87344043D01*
X202125710Y-87329100D01*
X202125708Y-87329100D01*
X197162292Y-87329100D01*
X197162289Y-87329100D01*
X197067943Y-87344043D01*
X196954228Y-87401984D01*
X196863984Y-87492228D01*
X196806043Y-87605943D01*
X196791100Y-87700289D01*
X196791100Y-87772900D01*
X196773507Y-87821238D01*
X196728958Y-87846958D01*
X196715900Y-87848100D01*
X196290200Y-87848100D01*
X196241862Y-87830507D01*
X196216142Y-87785958D01*
X196215000Y-87772900D01*
X196215000Y-86435200D01*
X196232593Y-86386862D01*
X196277142Y-86361142D01*
X196290200Y-86360000D01*
X222936800Y-86360000D01*
X222985138Y-86377593D01*
G37*
%TD.AperFunction*%
%TD*%
%TA.AperFunction,Conductor*%
%TO.N,GND*%
G36*
X164846000Y-93065100D02*
G01*
X163883570Y-93065100D01*
X163776430Y-93065100D01*
X163724686Y-93078965D01*
X163672940Y-93092830D01*
X163580158Y-93146398D01*
X163580152Y-93146402D01*
X162809674Y-93916880D01*
X162775966Y-93936343D01*
X162766191Y-93938962D01*
X162766185Y-93938964D01*
X162662912Y-93998589D01*
X162578589Y-94082912D01*
X162518964Y-94186185D01*
X162518964Y-94186186D01*
X162518964Y-94186187D01*
X162488100Y-94301375D01*
X162488100Y-94420625D01*
X162516345Y-94526037D01*
X162518964Y-94535813D01*
X162518964Y-94535814D01*
X162578589Y-94639087D01*
X162662912Y-94723410D01*
X162722538Y-94757834D01*
X162766187Y-94783036D01*
X162881375Y-94813900D01*
X162881378Y-94813900D01*
X163000622Y-94813900D01*
X163000625Y-94813900D01*
X163115813Y-94783036D01*
X163219087Y-94723410D01*
X163303410Y-94639087D01*
X163363036Y-94535813D01*
X163365656Y-94526033D01*
X163385116Y-94492326D01*
X163976519Y-93900924D01*
X164023138Y-93879186D01*
X164029692Y-93878900D01*
X164846000Y-93878900D01*
X164846000Y-116840000D01*
X137616200Y-116840000D01*
X137567862Y-116822407D01*
X137542142Y-116777858D01*
X137541000Y-116764800D01*
X137541000Y-112647000D01*
X138397100Y-112647000D01*
X138397100Y-116203000D01*
X138418255Y-116281950D01*
X138418256Y-116281951D01*
X138418257Y-116281953D01*
X138476046Y-116339742D01*
X138476048Y-116339743D01*
X138476050Y-116339745D01*
X138555000Y-116360900D01*
X138555003Y-116360900D01*
X142364997Y-116360900D01*
X142365000Y-116360900D01*
X142443950Y-116339745D01*
X142501745Y-116281950D01*
X142522900Y-116203000D01*
X142522900Y-112647000D01*
X142501745Y-112568050D01*
X142501743Y-112568048D01*
X142501742Y-112568046D01*
X142443953Y-112510257D01*
X142443951Y-112510256D01*
X142443950Y-112510255D01*
X142365000Y-112489100D01*
X138555000Y-112489100D01*
X138476050Y-112510255D01*
X138476049Y-112510255D01*
X138476048Y-112510256D01*
X138476046Y-112510257D01*
X138418257Y-112568046D01*
X138418256Y-112568048D01*
X138418255Y-112568049D01*
X138418255Y-112568050D01*
X138397100Y-112647000D01*
X137541000Y-112647000D01*
X137541000Y-93309136D01*
X146165500Y-93309136D01*
X146165500Y-93490863D01*
X146193926Y-93670338D01*
X146193928Y-93670346D01*
X146250083Y-93843174D01*
X146332583Y-94005090D01*
X146389125Y-94082912D01*
X146439398Y-94152107D01*
X146439405Y-94152115D01*
X146567884Y-94280594D01*
X146567892Y-94280601D01*
X146567894Y-94280603D01*
X146714910Y-94387417D01*
X146876826Y-94469917D01*
X147049654Y-94526072D01*
X147229139Y-94554500D01*
X147229143Y-94554500D01*
X147410857Y-94554500D01*
X147410861Y-94554500D01*
X147590346Y-94526072D01*
X147763174Y-94469917D01*
X147925090Y-94387417D01*
X148072106Y-94280603D01*
X148200603Y-94152106D01*
X148307417Y-94005090D01*
X148389917Y-93843174D01*
X148446072Y-93670346D01*
X148474500Y-93490861D01*
X148474500Y-93309139D01*
X148446072Y-93129654D01*
X148389917Y-92956826D01*
X148307417Y-92794910D01*
X148200603Y-92647894D01*
X148200601Y-92647892D01*
X148200594Y-92647884D01*
X148072115Y-92519405D01*
X148072107Y-92519398D01*
X147925091Y-92412584D01*
X147925092Y-92412584D01*
X147925090Y-92412583D01*
X147763174Y-92330083D01*
X147763167Y-92330080D01*
X147763163Y-92330079D01*
X147590350Y-92273929D01*
X147590338Y-92273926D01*
X147410863Y-92245500D01*
X147410861Y-92245500D01*
X147229139Y-92245500D01*
X147229136Y-92245500D01*
X147049661Y-92273926D01*
X147049649Y-92273929D01*
X146876836Y-92330079D01*
X146876828Y-92330082D01*
X146876826Y-92330083D01*
X146876822Y-92330084D01*
X146876822Y-92330085D01*
X146714908Y-92412584D01*
X146567892Y-92519398D01*
X146567884Y-92519405D01*
X146439405Y-92647884D01*
X146439398Y-92647892D01*
X146332584Y-92794908D01*
X146250085Y-92956822D01*
X146250079Y-92956836D01*
X146193929Y-93129649D01*
X146193926Y-93129661D01*
X146165500Y-93309136D01*
X137541000Y-93309136D01*
X137541000Y-88796140D01*
X146265500Y-88796140D01*
X146265500Y-89003859D01*
X146306024Y-89207588D01*
X146306025Y-89207589D01*
X146385515Y-89399495D01*
X146500913Y-89572200D01*
X146500921Y-89572209D01*
X146647790Y-89719078D01*
X146647799Y-89719086D01*
X146820504Y-89834484D01*
X146820507Y-89834486D01*
X147012410Y-89913974D01*
X147012411Y-89913975D01*
X147012412Y-89913975D01*
X147012414Y-89913976D01*
X147148843Y-89941113D01*
X147216140Y-89954500D01*
X147216141Y-89954500D01*
X147423860Y-89954500D01*
X147474446Y-89944437D01*
X147627586Y-89913976D01*
X147819493Y-89834486D01*
X147992204Y-89719083D01*
X148139083Y-89572204D01*
X148254486Y-89399493D01*
X148333976Y-89207586D01*
X148374500Y-89003859D01*
X148374500Y-88796141D01*
X148333976Y-88592414D01*
X148254486Y-88400507D01*
X148254484Y-88400504D01*
X148139086Y-88227799D01*
X148139078Y-88227790D01*
X147992209Y-88080921D01*
X147992200Y-88080913D01*
X147819495Y-87965515D01*
X147627589Y-87886025D01*
X147627588Y-87886024D01*
X147423860Y-87845500D01*
X147423859Y-87845500D01*
X147216141Y-87845500D01*
X147216140Y-87845500D01*
X147012411Y-87886024D01*
X147012410Y-87886025D01*
X146820504Y-87965515D01*
X146647799Y-88080913D01*
X146647790Y-88080921D01*
X146500921Y-88227790D01*
X146500913Y-88227799D01*
X146385515Y-88400504D01*
X146306025Y-88592410D01*
X146306024Y-88592411D01*
X146265500Y-88796140D01*
X137541000Y-88796140D01*
X137541000Y-86435200D01*
X137558593Y-86386862D01*
X137603142Y-86361142D01*
X137616200Y-86360000D01*
X164846000Y-86360000D01*
X164846000Y-93065100D01*
G37*
%TD.AperFunction*%
%TD*%
%TA.AperFunction,Conductor*%
%TO.N,GND*%
G36*
X171958000Y-97409000D02*
G01*
X164846000Y-97409000D01*
X164846000Y-93878900D01*
X171958000Y-93878900D01*
X171958000Y-97409000D01*
G37*
%TD.AperFunction*%
%TA.AperFunction,Conductor*%
G36*
X171958000Y-89035237D02*
G01*
X171893924Y-88987270D01*
X171893922Y-88987269D01*
X171764867Y-88939133D01*
X171764864Y-88939132D01*
X171707823Y-88933000D01*
X171564000Y-88933000D01*
X171564000Y-90391000D01*
X171707812Y-90391000D01*
X171707823Y-90390999D01*
X171764864Y-90384867D01*
X171764867Y-90384866D01*
X171893921Y-90336731D01*
X171958000Y-90288760D01*
X171958000Y-91575237D01*
X171893924Y-91527270D01*
X171893922Y-91527269D01*
X171764867Y-91479133D01*
X171764864Y-91479132D01*
X171707823Y-91473000D01*
X171564000Y-91473000D01*
X171564000Y-92126800D01*
X171546407Y-92175138D01*
X171501858Y-92200858D01*
X171488800Y-92202000D01*
X171437000Y-92202000D01*
X171437000Y-92253800D01*
X171419407Y-92302138D01*
X171374858Y-92327858D01*
X171361800Y-92329000D01*
X170733000Y-92329000D01*
X170733000Y-92497823D01*
X170739132Y-92554864D01*
X170739133Y-92554867D01*
X170787269Y-92683922D01*
X170787270Y-92683924D01*
X170869813Y-92794186D01*
X170980075Y-92876729D01*
X170980077Y-92876730D01*
X171094587Y-92919441D01*
X171133728Y-92952818D01*
X171142259Y-93003546D01*
X171116186Y-93047888D01*
X171068307Y-93065100D01*
X164846000Y-93065100D01*
X164846000Y-91906176D01*
X170733000Y-91906176D01*
X170733000Y-92075000D01*
X171310000Y-92075000D01*
X171310000Y-91473000D01*
X171166176Y-91473000D01*
X171109135Y-91479132D01*
X171109132Y-91479133D01*
X170980077Y-91527269D01*
X170980075Y-91527270D01*
X170869813Y-91609813D01*
X170787270Y-91720075D01*
X170787269Y-91720077D01*
X170739133Y-91849132D01*
X170739132Y-91849135D01*
X170733000Y-91906176D01*
X164846000Y-91906176D01*
X164846000Y-89957823D01*
X170733000Y-89957823D01*
X170739132Y-90014864D01*
X170739133Y-90014867D01*
X170787269Y-90143922D01*
X170787270Y-90143924D01*
X170869813Y-90254186D01*
X170980075Y-90336729D01*
X170980077Y-90336730D01*
X171109132Y-90384866D01*
X171109135Y-90384867D01*
X171166176Y-90390999D01*
X171166188Y-90391000D01*
X171310000Y-90391000D01*
X171310000Y-89789000D01*
X170733000Y-89789000D01*
X170733000Y-89957823D01*
X164846000Y-89957823D01*
X164846000Y-89366176D01*
X170733000Y-89366176D01*
X170733000Y-89535000D01*
X171310000Y-89535000D01*
X171310000Y-88933000D01*
X171166176Y-88933000D01*
X171109135Y-88939132D01*
X171109132Y-88939133D01*
X170980077Y-88987269D01*
X170980075Y-88987270D01*
X170869813Y-89069813D01*
X170787270Y-89180075D01*
X170787269Y-89180077D01*
X170739133Y-89309132D01*
X170739132Y-89309135D01*
X170733000Y-89366176D01*
X164846000Y-89366176D01*
X164846000Y-86360000D01*
X171958000Y-86360000D01*
X171958000Y-89035237D01*
G37*
%TD.AperFunction*%
%TA.AperFunction,Conductor*%
G36*
X171958000Y-93065100D02*
G01*
X171805693Y-93065100D01*
X171757355Y-93047507D01*
X171731635Y-93002958D01*
X171740568Y-92952300D01*
X171779413Y-92919441D01*
X171893921Y-92876731D01*
X171958000Y-92828760D01*
X171958000Y-93065100D01*
G37*
%TD.AperFunction*%
%TD*%
%TA.AperFunction,Conductor*%
%TO.N,/SENSE+*%
G36*
X226033138Y-89425593D02*
G01*
X226058858Y-89470142D01*
X226060000Y-89483200D01*
X226060000Y-99060000D01*
X231064800Y-99060000D01*
X231113138Y-99077593D01*
X231138858Y-99122142D01*
X231140000Y-99135200D01*
X231140000Y-101524800D01*
X231122407Y-101573138D01*
X231077858Y-101598858D01*
X231064800Y-101600000D01*
X226060000Y-101600000D01*
X226060000Y-113716800D01*
X226042407Y-113765138D01*
X225997858Y-113790858D01*
X225984800Y-113792000D01*
X223595200Y-113792000D01*
X223546862Y-113774407D01*
X223521142Y-113729858D01*
X223520000Y-113716800D01*
X223520000Y-112883215D01*
X223912001Y-112883215D01*
X223918453Y-112943236D01*
X223918454Y-112943241D01*
X223969098Y-113079020D01*
X223969102Y-113079027D01*
X224055952Y-113195047D01*
X224171972Y-113281897D01*
X224171979Y-113281901D01*
X224307756Y-113332544D01*
X224307766Y-113332547D01*
X224367790Y-113338999D01*
X224474500Y-113338999D01*
X224982500Y-113338999D01*
X225089200Y-113338999D01*
X225089215Y-113338998D01*
X225149236Y-113332546D01*
X225149241Y-113332545D01*
X225285020Y-113281901D01*
X225285027Y-113281897D01*
X225401047Y-113195047D01*
X225487897Y-113079027D01*
X225487901Y-113079020D01*
X225538544Y-112943243D01*
X225538547Y-112943233D01*
X225544999Y-112883214D01*
X225545000Y-112883203D01*
X225545000Y-112014000D01*
X224982500Y-112014000D01*
X224982500Y-113338999D01*
X224474500Y-113338999D01*
X224474500Y-112014000D01*
X223912001Y-112014000D01*
X223912001Y-112883215D01*
X223520000Y-112883215D01*
X223520000Y-110636785D01*
X223912000Y-110636785D01*
X223912000Y-111506000D01*
X224474500Y-111506000D01*
X224982500Y-111506000D01*
X225544999Y-111506000D01*
X225544999Y-110636799D01*
X225544998Y-110636784D01*
X225538546Y-110576763D01*
X225538545Y-110576758D01*
X225487901Y-110440979D01*
X225487897Y-110440972D01*
X225401047Y-110324952D01*
X225285027Y-110238102D01*
X225285020Y-110238098D01*
X225149243Y-110187455D01*
X225149233Y-110187452D01*
X225089214Y-110181000D01*
X224982500Y-110181000D01*
X224982500Y-111506000D01*
X224474500Y-111506000D01*
X224474500Y-110181000D01*
X224367799Y-110181000D01*
X224367784Y-110181001D01*
X224307763Y-110187453D01*
X224307758Y-110187454D01*
X224171979Y-110238098D01*
X224171972Y-110238102D01*
X224055952Y-110324952D01*
X223969102Y-110440972D01*
X223969098Y-110440979D01*
X223918455Y-110576756D01*
X223918452Y-110576766D01*
X223912000Y-110636785D01*
X223520000Y-110636785D01*
X223520000Y-108819215D01*
X223912001Y-108819215D01*
X223918453Y-108879236D01*
X223918454Y-108879241D01*
X223969098Y-109015020D01*
X223969102Y-109015027D01*
X224055952Y-109131047D01*
X224171972Y-109217897D01*
X224171979Y-109217901D01*
X224307756Y-109268544D01*
X224307766Y-109268547D01*
X224367790Y-109274999D01*
X224474500Y-109274999D01*
X224982500Y-109274999D01*
X225089200Y-109274999D01*
X225089215Y-109274998D01*
X225149236Y-109268546D01*
X225149241Y-109268545D01*
X225285020Y-109217901D01*
X225285027Y-109217897D01*
X225401047Y-109131047D01*
X225487897Y-109015027D01*
X225487901Y-109015020D01*
X225538544Y-108879243D01*
X225538547Y-108879233D01*
X225544999Y-108819214D01*
X225545000Y-108819203D01*
X225545000Y-107950000D01*
X224982500Y-107950000D01*
X224982500Y-109274999D01*
X224474500Y-109274999D01*
X224474500Y-107950000D01*
X223912001Y-107950000D01*
X223912001Y-108819215D01*
X223520000Y-108819215D01*
X223520000Y-106572785D01*
X223912000Y-106572785D01*
X223912000Y-107442000D01*
X224474500Y-107442000D01*
X224982500Y-107442000D01*
X225544999Y-107442000D01*
X225544999Y-106572799D01*
X225544998Y-106572784D01*
X225538546Y-106512763D01*
X225538545Y-106512758D01*
X225487901Y-106376979D01*
X225487897Y-106376972D01*
X225401047Y-106260952D01*
X225285027Y-106174102D01*
X225285020Y-106174098D01*
X225149243Y-106123455D01*
X225149233Y-106123452D01*
X225089214Y-106117000D01*
X224982500Y-106117000D01*
X224982500Y-107442000D01*
X224474500Y-107442000D01*
X224474500Y-106117000D01*
X224367799Y-106117000D01*
X224367784Y-106117001D01*
X224307763Y-106123453D01*
X224307758Y-106123454D01*
X224171979Y-106174098D01*
X224171972Y-106174102D01*
X224055952Y-106260952D01*
X223969102Y-106376972D01*
X223969098Y-106376979D01*
X223918455Y-106512756D01*
X223918452Y-106512766D01*
X223912000Y-106572785D01*
X223520000Y-106572785D01*
X223520000Y-104755215D01*
X223912001Y-104755215D01*
X223918453Y-104815236D01*
X223918454Y-104815241D01*
X223969098Y-104951020D01*
X223969102Y-104951027D01*
X224055952Y-105067047D01*
X224171972Y-105153897D01*
X224171979Y-105153901D01*
X224307756Y-105204544D01*
X224307766Y-105204547D01*
X224367790Y-105210999D01*
X224474500Y-105210999D01*
X224982500Y-105210999D01*
X225089200Y-105210999D01*
X225089215Y-105210998D01*
X225149236Y-105204546D01*
X225149241Y-105204545D01*
X225285020Y-105153901D01*
X225285027Y-105153897D01*
X225401047Y-105067047D01*
X225487897Y-104951027D01*
X225487901Y-104951020D01*
X225538544Y-104815243D01*
X225538547Y-104815233D01*
X225544999Y-104755214D01*
X225545000Y-104755203D01*
X225545000Y-103886000D01*
X224982500Y-103886000D01*
X224982500Y-105210999D01*
X224474500Y-105210999D01*
X224474500Y-103886000D01*
X223912001Y-103886000D01*
X223912001Y-104755215D01*
X223520000Y-104755215D01*
X223520000Y-102508785D01*
X223912000Y-102508785D01*
X223912000Y-103378000D01*
X224474500Y-103378000D01*
X224982500Y-103378000D01*
X225544999Y-103378000D01*
X225544999Y-102508799D01*
X225544998Y-102508784D01*
X225538546Y-102448763D01*
X225538545Y-102448758D01*
X225487901Y-102312979D01*
X225487897Y-102312972D01*
X225401047Y-102196952D01*
X225285027Y-102110102D01*
X225285020Y-102110098D01*
X225149243Y-102059455D01*
X225149233Y-102059452D01*
X225089214Y-102053000D01*
X224982500Y-102053000D01*
X224982500Y-103378000D01*
X224474500Y-103378000D01*
X224474500Y-102053000D01*
X224367799Y-102053000D01*
X224367784Y-102053001D01*
X224307763Y-102059453D01*
X224307758Y-102059454D01*
X224171979Y-102110098D01*
X224171972Y-102110102D01*
X224055952Y-102196952D01*
X223969102Y-102312972D01*
X223969098Y-102312979D01*
X223918455Y-102448756D01*
X223918452Y-102448766D01*
X223912000Y-102508785D01*
X223520000Y-102508785D01*
X223520000Y-100691215D01*
X223912001Y-100691215D01*
X223918453Y-100751236D01*
X223918454Y-100751241D01*
X223969098Y-100887020D01*
X223969102Y-100887027D01*
X224055952Y-101003047D01*
X224171972Y-101089897D01*
X224171979Y-101089901D01*
X224307756Y-101140544D01*
X224307766Y-101140547D01*
X224367790Y-101146999D01*
X224474500Y-101146999D01*
X224982500Y-101146999D01*
X225089200Y-101146999D01*
X225089215Y-101146998D01*
X225149236Y-101140546D01*
X225149241Y-101140545D01*
X225285020Y-101089901D01*
X225285027Y-101089897D01*
X225401047Y-101003047D01*
X225487897Y-100887027D01*
X225487901Y-100887020D01*
X225538544Y-100751243D01*
X225538547Y-100751233D01*
X225544999Y-100691214D01*
X225545000Y-100691203D01*
X225545000Y-100243110D01*
X228131000Y-100243110D01*
X228131000Y-100416889D01*
X228158182Y-100588513D01*
X228158185Y-100588525D01*
X228211879Y-100753778D01*
X228211885Y-100753792D01*
X228290776Y-100908626D01*
X228293463Y-100912324D01*
X228293464Y-100912325D01*
X228791666Y-100414123D01*
X228815667Y-100503694D01*
X228874910Y-100606306D01*
X228958694Y-100690090D01*
X229061306Y-100749333D01*
X229150875Y-100773333D01*
X228652674Y-101271534D01*
X228656378Y-101274225D01*
X228656381Y-101274227D01*
X228811207Y-101353114D01*
X228811221Y-101353120D01*
X228976474Y-101406814D01*
X228976486Y-101406817D01*
X229148110Y-101433999D01*
X229148117Y-101434000D01*
X229321883Y-101434000D01*
X229321889Y-101433999D01*
X229493513Y-101406817D01*
X229493525Y-101406814D01*
X229658778Y-101353120D01*
X229658792Y-101353114D01*
X229813627Y-101274222D01*
X229817324Y-101271535D01*
X229817324Y-101271534D01*
X229319124Y-100773333D01*
X229408694Y-100749333D01*
X229511306Y-100690090D01*
X229595090Y-100606306D01*
X229654333Y-100503694D01*
X229678333Y-100414123D01*
X230176534Y-100912324D01*
X230176535Y-100912324D01*
X230179222Y-100908627D01*
X230258114Y-100753792D01*
X230258120Y-100753778D01*
X230311814Y-100588525D01*
X230311817Y-100588513D01*
X230338999Y-100416889D01*
X230339000Y-100416882D01*
X230339000Y-100243117D01*
X230338999Y-100243110D01*
X230311817Y-100071486D01*
X230311814Y-100071474D01*
X230258120Y-99906221D01*
X230258114Y-99906207D01*
X230179227Y-99751381D01*
X230179225Y-99751378D01*
X230176534Y-99747674D01*
X229678333Y-100245875D01*
X229654333Y-100156306D01*
X229595090Y-100053694D01*
X229511306Y-99969910D01*
X229408694Y-99910667D01*
X229319124Y-99886666D01*
X229817325Y-99388464D01*
X229817324Y-99388463D01*
X229813626Y-99385776D01*
X229658792Y-99306885D01*
X229658778Y-99306879D01*
X229493525Y-99253185D01*
X229493513Y-99253182D01*
X229321889Y-99226000D01*
X229148110Y-99226000D01*
X228976486Y-99253182D01*
X228976474Y-99253185D01*
X228811221Y-99306879D01*
X228811207Y-99306885D01*
X228656380Y-99385773D01*
X228656367Y-99385781D01*
X228652674Y-99388463D01*
X228652674Y-99388465D01*
X229150875Y-99886666D01*
X229061306Y-99910667D01*
X228958694Y-99969910D01*
X228874910Y-100053694D01*
X228815667Y-100156306D01*
X228791666Y-100245875D01*
X228293465Y-99747674D01*
X228293463Y-99747674D01*
X228290781Y-99751367D01*
X228290773Y-99751380D01*
X228211885Y-99906207D01*
X228211879Y-99906221D01*
X228158185Y-100071474D01*
X228158182Y-100071486D01*
X228131000Y-100243110D01*
X225545000Y-100243110D01*
X225545000Y-99822000D01*
X224982500Y-99822000D01*
X224982500Y-101146999D01*
X224474500Y-101146999D01*
X224474500Y-99822000D01*
X223912001Y-99822000D01*
X223912001Y-100691215D01*
X223520000Y-100691215D01*
X223520000Y-98444785D01*
X223912000Y-98444785D01*
X223912000Y-99314000D01*
X224474500Y-99314000D01*
X224982500Y-99314000D01*
X225544999Y-99314000D01*
X225544999Y-98444799D01*
X225544998Y-98444784D01*
X225538546Y-98384763D01*
X225538545Y-98384758D01*
X225487901Y-98248979D01*
X225487897Y-98248972D01*
X225401047Y-98132952D01*
X225285027Y-98046102D01*
X225285020Y-98046098D01*
X225149243Y-97995455D01*
X225149233Y-97995452D01*
X225089214Y-97989000D01*
X224982500Y-97989000D01*
X224982500Y-99314000D01*
X224474500Y-99314000D01*
X224474500Y-97989000D01*
X224367799Y-97989000D01*
X224367784Y-97989001D01*
X224307763Y-97995453D01*
X224307758Y-97995454D01*
X224171979Y-98046098D01*
X224171972Y-98046102D01*
X224055952Y-98132952D01*
X223969102Y-98248972D01*
X223969098Y-98248979D01*
X223918455Y-98384756D01*
X223918452Y-98384766D01*
X223912000Y-98444785D01*
X223520000Y-98444785D01*
X223520000Y-96627215D01*
X223912001Y-96627215D01*
X223918453Y-96687236D01*
X223918454Y-96687241D01*
X223969098Y-96823020D01*
X223969102Y-96823027D01*
X224055952Y-96939047D01*
X224171972Y-97025897D01*
X224171979Y-97025901D01*
X224307756Y-97076544D01*
X224307766Y-97076547D01*
X224367790Y-97082999D01*
X224474500Y-97082999D01*
X224982500Y-97082999D01*
X225089200Y-97082999D01*
X225089215Y-97082998D01*
X225149236Y-97076546D01*
X225149241Y-97076545D01*
X225285020Y-97025901D01*
X225285027Y-97025897D01*
X225401047Y-96939047D01*
X225487897Y-96823027D01*
X225487901Y-96823020D01*
X225538544Y-96687243D01*
X225538547Y-96687233D01*
X225544999Y-96627214D01*
X225545000Y-96627203D01*
X225545000Y-95758000D01*
X224982500Y-95758000D01*
X224982500Y-97082999D01*
X224474500Y-97082999D01*
X224474500Y-95758000D01*
X223912001Y-95758000D01*
X223912001Y-96627215D01*
X223520000Y-96627215D01*
X223520000Y-94380785D01*
X223912000Y-94380785D01*
X223912000Y-95250000D01*
X224474500Y-95250000D01*
X224982500Y-95250000D01*
X225544999Y-95250000D01*
X225544999Y-94380799D01*
X225544998Y-94380784D01*
X225538546Y-94320763D01*
X225538545Y-94320758D01*
X225487901Y-94184979D01*
X225487897Y-94184972D01*
X225401047Y-94068952D01*
X225285027Y-93982102D01*
X225285020Y-93982098D01*
X225149243Y-93931455D01*
X225149233Y-93931452D01*
X225089214Y-93925000D01*
X224982500Y-93925000D01*
X224982500Y-95250000D01*
X224474500Y-95250000D01*
X224474500Y-93925000D01*
X224367799Y-93925000D01*
X224367784Y-93925001D01*
X224307763Y-93931453D01*
X224307758Y-93931454D01*
X224171979Y-93982098D01*
X224171972Y-93982102D01*
X224055952Y-94068952D01*
X223969102Y-94184972D01*
X223969098Y-94184979D01*
X223918455Y-94320756D01*
X223918452Y-94320766D01*
X223912000Y-94380785D01*
X223520000Y-94380785D01*
X223520000Y-92563215D01*
X223912001Y-92563215D01*
X223918453Y-92623236D01*
X223918454Y-92623241D01*
X223969098Y-92759020D01*
X223969102Y-92759027D01*
X224055952Y-92875047D01*
X224171972Y-92961897D01*
X224171979Y-92961901D01*
X224307756Y-93012544D01*
X224307766Y-93012547D01*
X224367790Y-93018999D01*
X224474500Y-93018999D01*
X224982500Y-93018999D01*
X225089200Y-93018999D01*
X225089215Y-93018998D01*
X225149236Y-93012546D01*
X225149241Y-93012545D01*
X225285020Y-92961901D01*
X225285027Y-92961897D01*
X225401047Y-92875047D01*
X225487897Y-92759027D01*
X225487901Y-92759020D01*
X225538544Y-92623243D01*
X225538547Y-92623233D01*
X225544999Y-92563214D01*
X225545000Y-92563203D01*
X225545000Y-91694000D01*
X224982500Y-91694000D01*
X224982500Y-93018999D01*
X224474500Y-93018999D01*
X224474500Y-91694000D01*
X223912001Y-91694000D01*
X223912001Y-92563215D01*
X223520000Y-92563215D01*
X223520000Y-90316785D01*
X223912000Y-90316785D01*
X223912000Y-91186000D01*
X224474500Y-91186000D01*
X224982500Y-91186000D01*
X225544999Y-91186000D01*
X225544999Y-90316799D01*
X225544998Y-90316784D01*
X225538546Y-90256763D01*
X225538545Y-90256758D01*
X225487901Y-90120979D01*
X225487897Y-90120972D01*
X225401047Y-90004952D01*
X225285027Y-89918102D01*
X225285020Y-89918098D01*
X225149243Y-89867455D01*
X225149233Y-89867452D01*
X225089214Y-89861000D01*
X224982500Y-89861000D01*
X224982500Y-91186000D01*
X224474500Y-91186000D01*
X224474500Y-89861000D01*
X224367799Y-89861000D01*
X224367784Y-89861001D01*
X224307763Y-89867453D01*
X224307758Y-89867454D01*
X224171979Y-89918098D01*
X224171972Y-89918102D01*
X224055952Y-90004952D01*
X223969102Y-90120972D01*
X223969098Y-90120979D01*
X223918455Y-90256756D01*
X223918452Y-90256766D01*
X223912000Y-90316785D01*
X223520000Y-90316785D01*
X223520000Y-89483200D01*
X223537593Y-89434862D01*
X223582142Y-89409142D01*
X223595200Y-89408000D01*
X225984800Y-89408000D01*
X226033138Y-89425593D01*
G37*
%TD.AperFunction*%
%TD*%
M02*
