M48
; DRILL file {KiCad 9.0.4} date 2025-09-18T09:53:16-0700
; FORMAT={-:-/ absolute / metric / decimal}
; #@! TF.CreationDate,2025-09-18T09:53:16-07:00
; #@! TF.GenerationSoftware,Kicad,Pcbnew,9.0.4
; #@! TF.FileFunction,Plated,1,2,PTH
FMAT,2
METRIC
; #@! TA.AperFunction,Plated,PTH,ComponentDrill
T1C0.254
; #@! TA.AperFunction,Plated,PTH,ViaDrill
T2C0.300
; #@! TA.AperFunction,Plated,PTH,ComponentDrill
T3C0.500
; #@! TA.AperFunction,Plated,PTH,ComponentDrill
T4C0.900
; #@! TA.AperFunction,Plated,PTH,ComponentDrill
T5C3.700
%
G90
G05
T1
X166.769Y-105.659
X166.769Y-106.807
X166.769Y-107.954
X167.87Y-105.659
X167.87Y-106.807
X167.87Y-107.954
T2
X143.51Y-88.138
X143.51Y-88.9
X143.51Y-89.662
X146.05Y-106.934
X146.05Y-112.395
X146.685Y-106.934
X146.685Y-112.395
X147.32Y-106.934
X147.32Y-112.395
X147.955Y-106.934
X147.955Y-112.395
X148.59Y-106.934
X148.59Y-112.395
X149.225Y-106.934
X149.225Y-112.395
X149.86Y-106.934
X149.86Y-112.395
X150.495Y-106.934
X150.495Y-112.395
X151.13Y-106.934
X151.13Y-112.395
X160.02Y-95.758
X160.02Y-96.393
X160.02Y-97.028
X160.02Y-97.663
X160.02Y-98.298
X160.02Y-98.933
X160.02Y-99.568
X160.02Y-100.203
X160.02Y-100.838
X160.02Y-101.981
X160.02Y-102.616
X160.02Y-103.251
X160.02Y-103.886
X160.02Y-104.521
X160.02Y-105.156
X160.02Y-105.791
X160.02Y-106.426
X160.02Y-107.061
X162.941Y-94.361
X165.608Y-98.171
X165.735Y-87.376
X165.735Y-88.138
X165.735Y-88.9
X165.735Y-89.662
X165.735Y-90.424
X165.735Y-91.186
X165.735Y-91.948
X166.243Y-98.171
X166.878Y-98.171
X171.196Y-100.584
X171.196Y-101.219
X171.196Y-101.854
X173.228Y-93.472
X173.99Y-106.934
X173.99Y-107.823
X173.99Y-108.712
X174.498Y-114.173
X175.387Y-88.646
X179.832Y-108.204
X187.452Y-106.807
X201.295Y-90.551
X201.295Y-96.393
X201.295Y-106.68
X201.295Y-112.649
X201.93Y-90.551
X201.93Y-96.393
X201.93Y-106.68
X201.93Y-112.649
X202.565Y-90.551
X202.565Y-96.393
X202.565Y-106.68
X202.565Y-112.649
X203.2Y-90.551
X203.2Y-96.393
X203.2Y-106.68
X203.2Y-112.649
X203.835Y-90.551
X203.835Y-96.393
X203.835Y-106.68
X203.835Y-112.649
X204.47Y-90.551
X204.47Y-96.393
X204.47Y-106.68
X204.47Y-112.649
X205.105Y-90.551
X205.105Y-96.393
X205.105Y-106.68
X205.105Y-112.649
X205.74Y-90.551
X205.74Y-96.393
X205.74Y-106.68
X205.74Y-112.649
X206.375Y-90.551
X206.375Y-96.393
X206.375Y-106.68
X206.375Y-112.649
X207.01Y-90.551
X207.01Y-96.393
X207.01Y-106.68
X207.01Y-112.649
X207.645Y-90.551
X207.645Y-96.393
X207.645Y-106.68
X207.645Y-112.649
X208.915Y-104.14
X209.55Y-104.14
X210.185Y-104.14
X210.82Y-104.14
X211.455Y-104.14
X212.09Y-104.14
X212.725Y-104.14
X212.979Y-90.17
X212.979Y-90.805
X213.36Y-104.14
X213.614Y-90.17
X213.614Y-90.805
X214.249Y-90.17
X214.249Y-90.805
X219.075Y-88.773
X220.345Y-88.138
X220.345Y-115.062
X222.288Y-115.062
X222.289Y-88.138
T3
X187.725Y-92.075
X187.725Y-111.125
X188.538Y-90.113
X188.538Y-94.037
X188.538Y-109.163
X188.538Y-113.087
X190.5Y-89.3
X190.5Y-94.85
X190.5Y-108.35
X190.5Y-113.9
X192.462Y-90.113
X192.462Y-94.037
X192.462Y-109.163
X192.462Y-113.087
X193.275Y-92.075
X193.275Y-111.125
T4
X229.235Y-100.33
X229.235Y-102.87
T5
X190.5Y-92.075
X190.5Y-111.125
M30
