%TF.GenerationSoftware,KiCad,Pcbnew,9.0.4*%
%TF.CreationDate,2025-09-18T09:53:14-07:00*%
%TF.ProjectId,bigpulse,62696770-756c-4736-952e-6b696361645f,rev?*%
%TF.SameCoordinates,Original*%
%TF.FileFunction,Soldermask,Bot*%
%TF.FilePolarity,Negative*%
%FSLAX46Y46*%
G04 Gerber Fmt 4.6, Leading zero omitted, Abs format (unit mm)*
G04 Created by KiCad (PCBNEW 9.0.4) date 2025-09-18 09:53:14*
%MOMM*%
%LPD*%
G01*
G04 APERTURE LIST*
G04 Aperture macros list*
%AMRoundRect*
0 Rectangle with rounded corners*
0 $1 Rounding radius*
0 $2 $3 $4 $5 $6 $7 $8 $9 X,Y pos of 4 corners*
0 Add a 4 corners polygon primitive as box body*
4,1,4,$2,$3,$4,$5,$6,$7,$8,$9,$2,$3,0*
0 Add four circle primitives for the rounded corners*
1,1,$1+$1,$2,$3*
1,1,$1+$1,$4,$5*
1,1,$1+$1,$6,$7*
1,1,$1+$1,$8,$9*
0 Add four rect primitives between the rounded corners*
20,1,$1+$1,$2,$3,$4,$5,0*
20,1,$1+$1,$4,$5,$6,$7,0*
20,1,$1+$1,$6,$7,$8,$9,0*
20,1,$1+$1,$8,$9,$2,$3,0*%
G04 Aperture macros list end*
%ADD10C,0.120000*%
%ADD11C,0.004482*%
%ADD12C,0.800000*%
%ADD13C,7.400000*%
%ADD14C,1.800000*%
%ADD15C,1.600000*%
%ADD16C,3.000000*%
%ADD17R,1.700000X1.700000*%
%ADD18C,1.700000*%
%ADD19C,6.527800*%
%ADD20RoundRect,0.150000X0.825000X0.150000X-0.825000X0.150000X-0.825000X-0.150000X0.825000X-0.150000X0*%
%ADD21R,2.290000X3.000000*%
%ADD22RoundRect,0.225000X0.250000X-0.225000X0.250000X0.225000X-0.250000X0.225000X-0.250000X-0.225000X0*%
%ADD23RoundRect,0.200000X-0.200000X-0.275000X0.200000X-0.275000X0.200000X0.275000X-0.200000X0.275000X0*%
%ADD24RoundRect,0.250000X0.312500X1.075000X-0.312500X1.075000X-0.312500X-1.075000X0.312500X-1.075000X0*%
%ADD25R,1.000000X1.500000*%
%ADD26RoundRect,0.250000X-0.350000X0.850000X-0.350000X-0.850000X0.350000X-0.850000X0.350000X0.850000X0*%
%ADD27RoundRect,0.249997X-2.650003X2.950003X-2.650003X-2.950003X2.650003X-2.950003X2.650003X2.950003X0*%
%ADD28RoundRect,0.200000X0.275000X-0.200000X0.275000X0.200000X-0.275000X0.200000X-0.275000X-0.200000X0*%
%ADD29RoundRect,0.250000X2.450000X-0.650000X2.450000X0.650000X-2.450000X0.650000X-2.450000X-0.650000X0*%
%ADD30RoundRect,0.150000X-0.875000X-0.150000X0.875000X-0.150000X0.875000X0.150000X-0.875000X0.150000X0*%
%ADD31RoundRect,0.250000X1.100000X-0.325000X1.100000X0.325000X-1.100000X0.325000X-1.100000X-0.325000X0*%
%ADD32RoundRect,0.225000X0.225000X0.250000X-0.225000X0.250000X-0.225000X-0.250000X0.225000X-0.250000X0*%
%ADD33RoundRect,0.225000X-0.225000X-0.250000X0.225000X-0.250000X0.225000X0.250000X-0.225000X0.250000X0*%
%ADD34RoundRect,0.200000X-0.275000X0.200000X-0.275000X-0.200000X0.275000X-0.200000X0.275000X0.200000X0*%
G04 APERTURE END LIST*
D10*
%TO.C,J2*%
X148120000Y-88900000D02*
G75*
G02*
X146520000Y-88900000I-800000J0D01*
G01*
X146520000Y-88900000D02*
G75*
G02*
X148120000Y-88900000I800000J0D01*
G01*
X148220000Y-93400000D02*
G75*
G02*
X146420000Y-93400000I-900000J0D01*
G01*
X146420000Y-93400000D02*
G75*
G02*
X148220000Y-93400000I900000J0D01*
G01*
%TO.C,JP2*%
G36*
X184762000Y-109360400D02*
G01*
X185062000Y-109360400D01*
X185062000Y-107860400D01*
X184762000Y-107860400D01*
X184762000Y-109360400D01*
G37*
D11*
%TO.C,svg2mod*%
X140436655Y-113707749D02*
X140457635Y-113710439D01*
X140478176Y-113715297D01*
X140498047Y-113722281D01*
X140517015Y-113731348D01*
X140534848Y-113742457D01*
X140551314Y-113755564D01*
X140566182Y-113770629D01*
X140579219Y-113787608D01*
X140590193Y-113806460D01*
X140598872Y-113827143D01*
X140605507Y-113850128D01*
X140609503Y-113872698D01*
X140610989Y-113894742D01*
X140610091Y-113916146D01*
X140606938Y-113936797D01*
X140601656Y-113956583D01*
X140594373Y-113975391D01*
X140585216Y-113993109D01*
X140574314Y-114009623D01*
X140561792Y-114024820D01*
X140547780Y-114038589D01*
X140532404Y-114050815D01*
X140515792Y-114061387D01*
X140498071Y-114070192D01*
X140479369Y-114077117D01*
X140459814Y-114082049D01*
X140439532Y-114084875D01*
X140418651Y-114085483D01*
X140397299Y-114083760D01*
X140375603Y-114079593D01*
X140353691Y-114072870D01*
X140331690Y-114063477D01*
X140311375Y-114051764D01*
X140293275Y-114037751D01*
X140277438Y-114021710D01*
X140263910Y-114003910D01*
X140252739Y-113984622D01*
X140243969Y-113964115D01*
X140237650Y-113942661D01*
X140233826Y-113920529D01*
X140232545Y-113897990D01*
X140233853Y-113875314D01*
X140237797Y-113852770D01*
X140244424Y-113830630D01*
X140253781Y-113809164D01*
X140265913Y-113788641D01*
X140280869Y-113769333D01*
X140297005Y-113753161D01*
X140314558Y-113739495D01*
X140333297Y-113728292D01*
X140352990Y-113719511D01*
X140373404Y-113713107D01*
X140394307Y-113709041D01*
X140415469Y-113707269D01*
X140436655Y-113707749D01*
G36*
X140436655Y-113707749D02*
G01*
X140457635Y-113710439D01*
X140478176Y-113715297D01*
X140498047Y-113722281D01*
X140517015Y-113731348D01*
X140534848Y-113742457D01*
X140551314Y-113755564D01*
X140566182Y-113770629D01*
X140579219Y-113787608D01*
X140590193Y-113806460D01*
X140598872Y-113827143D01*
X140605507Y-113850128D01*
X140609503Y-113872698D01*
X140610989Y-113894742D01*
X140610091Y-113916146D01*
X140606938Y-113936797D01*
X140601656Y-113956583D01*
X140594373Y-113975391D01*
X140585216Y-113993109D01*
X140574314Y-114009623D01*
X140561792Y-114024820D01*
X140547780Y-114038589D01*
X140532404Y-114050815D01*
X140515792Y-114061387D01*
X140498071Y-114070192D01*
X140479369Y-114077117D01*
X140459814Y-114082049D01*
X140439532Y-114084875D01*
X140418651Y-114085483D01*
X140397299Y-114083760D01*
X140375603Y-114079593D01*
X140353691Y-114072870D01*
X140331690Y-114063477D01*
X140311375Y-114051764D01*
X140293275Y-114037751D01*
X140277438Y-114021710D01*
X140263910Y-114003910D01*
X140252739Y-113984622D01*
X140243969Y-113964115D01*
X140237650Y-113942661D01*
X140233826Y-113920529D01*
X140232545Y-113897990D01*
X140233853Y-113875314D01*
X140237797Y-113852770D01*
X140244424Y-113830630D01*
X140253781Y-113809164D01*
X140265913Y-113788641D01*
X140280869Y-113769333D01*
X140297005Y-113753161D01*
X140314558Y-113739495D01*
X140333297Y-113728292D01*
X140352990Y-113719511D01*
X140373404Y-113713107D01*
X140394307Y-113709041D01*
X140415469Y-113707269D01*
X140436655Y-113707749D01*
G37*
X141257980Y-114588420D02*
X141275505Y-114599674D01*
X141295744Y-114606856D01*
X141321387Y-114610682D01*
X141355124Y-114611870D01*
X141385478Y-114612821D01*
X141413163Y-114615532D01*
X141438263Y-114620052D01*
X141460865Y-114626432D01*
X141481053Y-114634719D01*
X141498914Y-114644962D01*
X141514534Y-114657212D01*
X141527997Y-114671517D01*
X141539391Y-114687925D01*
X141548799Y-114706488D01*
X141556309Y-114727252D01*
X141561273Y-114750159D01*
X141562890Y-114774008D01*
X141561353Y-114798277D01*
X141556857Y-114822442D01*
X141549597Y-114845982D01*
X141539767Y-114868374D01*
X141527562Y-114889095D01*
X141513176Y-114907622D01*
X141496804Y-114923434D01*
X141478640Y-114936006D01*
X141464123Y-114943284D01*
X141448598Y-114948375D01*
X141428852Y-114951844D01*
X141401671Y-114954256D01*
X141363841Y-114956175D01*
X141321959Y-114958252D01*
X141295876Y-114961549D01*
X141280848Y-114968150D01*
X141272131Y-114980138D01*
X141264981Y-114999597D01*
X141264981Y-114999595D01*
X141269996Y-114979293D01*
X141274639Y-114957201D01*
X141278837Y-114933578D01*
X141282520Y-114908685D01*
X141285617Y-114882782D01*
X141288057Y-114856128D01*
X141289770Y-114828983D01*
X141290684Y-114801609D01*
X141290729Y-114774264D01*
X141289834Y-114747209D01*
X141287928Y-114720704D01*
X141284940Y-114695008D01*
X141280799Y-114670383D01*
X141275435Y-114647087D01*
X141268776Y-114625381D01*
X141260752Y-114605525D01*
X141251292Y-114587780D01*
X141240325Y-114572404D01*
X141240480Y-114572378D01*
X141257980Y-114588420D01*
G36*
X141257980Y-114588420D02*
G01*
X141275505Y-114599674D01*
X141295744Y-114606856D01*
X141321387Y-114610682D01*
X141355124Y-114611870D01*
X141385478Y-114612821D01*
X141413163Y-114615532D01*
X141438263Y-114620052D01*
X141460865Y-114626432D01*
X141481053Y-114634719D01*
X141498914Y-114644962D01*
X141514534Y-114657212D01*
X141527997Y-114671517D01*
X141539391Y-114687925D01*
X141548799Y-114706488D01*
X141556309Y-114727252D01*
X141561273Y-114750159D01*
X141562890Y-114774008D01*
X141561353Y-114798277D01*
X141556857Y-114822442D01*
X141549597Y-114845982D01*
X141539767Y-114868374D01*
X141527562Y-114889095D01*
X141513176Y-114907622D01*
X141496804Y-114923434D01*
X141478640Y-114936006D01*
X141464123Y-114943284D01*
X141448598Y-114948375D01*
X141428852Y-114951844D01*
X141401671Y-114954256D01*
X141363841Y-114956175D01*
X141321959Y-114958252D01*
X141295876Y-114961549D01*
X141280848Y-114968150D01*
X141272131Y-114980138D01*
X141264981Y-114999597D01*
X141264981Y-114999595D01*
X141269996Y-114979293D01*
X141274639Y-114957201D01*
X141278837Y-114933578D01*
X141282520Y-114908685D01*
X141285617Y-114882782D01*
X141288057Y-114856128D01*
X141289770Y-114828983D01*
X141290684Y-114801609D01*
X141290729Y-114774264D01*
X141289834Y-114747209D01*
X141287928Y-114720704D01*
X141284940Y-114695008D01*
X141280799Y-114670383D01*
X141275435Y-114647087D01*
X141268776Y-114625381D01*
X141260752Y-114605525D01*
X141251292Y-114587780D01*
X141240325Y-114572404D01*
X141240480Y-114572378D01*
X141257980Y-114588420D01*
G37*
%TD*%
D12*
%TO.C,J3*%
X187725000Y-92075000D03*
X188537779Y-90112779D03*
X188537779Y-94037221D03*
X190500000Y-89300000D03*
D13*
X190500000Y-92075000D03*
D12*
X190500000Y-94850000D03*
X192462221Y-90112779D03*
X192462221Y-94037221D03*
X193275000Y-92075000D03*
%TD*%
%TO.C,J4*%
X187725000Y-111125000D03*
X188537779Y-109162779D03*
X188537779Y-113087221D03*
X190500000Y-108350000D03*
D13*
X190500000Y-111125000D03*
D12*
X190500000Y-113900000D03*
X192462221Y-109162779D03*
X192462221Y-113087221D03*
X193275000Y-111125000D03*
%TD*%
D14*
%TO.C,J2*%
X147320000Y-93400000D03*
D15*
X147320000Y-88900000D03*
%TD*%
D16*
%TO.C,MH4*%
X229616000Y-95250000D03*
%TD*%
D17*
%TO.C,LD1*%
X229235000Y-102870000D03*
D18*
X229235000Y-100330000D03*
%TD*%
D19*
%TO.C,H\u002A\u002A*%
X234950000Y-88900000D03*
%TD*%
%TO.C,H\u002A\u002A*%
X133350000Y-114300000D03*
%TD*%
%TO.C,H\u002A\u002A*%
X133350000Y-88900000D03*
%TD*%
%TO.C,H\u002A\u002A*%
X234950000Y-114300000D03*
%TD*%
D16*
%TO.C,MH1*%
X229616000Y-107950000D03*
%TD*%
D20*
%TO.C,U3*%
X180148000Y-89662000D03*
X180148000Y-90932000D03*
X180148000Y-92202000D03*
X180148000Y-93472000D03*
X175198000Y-93472000D03*
X175198000Y-92202000D03*
X175198000Y-90932000D03*
X175198000Y-89662000D03*
D21*
X177673000Y-91567000D03*
%TD*%
D22*
%TO.C,C11*%
X199644000Y-109614000D03*
X199644000Y-108064000D03*
%TD*%
D23*
%TO.C,R21*%
X201359000Y-99314000D03*
X203009000Y-99314000D03*
%TD*%
D24*
%TO.C,R13*%
X224728500Y-111760000D03*
X221803500Y-111760000D03*
%TD*%
D25*
%TO.C,JP2*%
X184262000Y-108610400D03*
X185562000Y-108610400D03*
%TD*%
D26*
%TO.C,U4*%
X194824000Y-96560000D03*
D27*
X197104000Y-102860000D03*
D26*
X199384000Y-96560000D03*
%TD*%
D24*
%TO.C,R10*%
X224728500Y-99568000D03*
X221803500Y-99568000D03*
%TD*%
D28*
%TO.C,R17*%
X191643000Y-100901000D03*
X191643000Y-99251000D03*
%TD*%
D29*
%TO.C,C10*%
X199644000Y-93482000D03*
X199644000Y-88382000D03*
%TD*%
D24*
%TO.C,R11*%
X224728500Y-103632000D03*
X221803500Y-103632000D03*
%TD*%
D30*
%TO.C,U2*%
X180135000Y-106045000D03*
X180135000Y-104775000D03*
X180135000Y-103505000D03*
X180135000Y-102235000D03*
X180135000Y-100965000D03*
X180135000Y-99695000D03*
X180135000Y-98425000D03*
X180135000Y-97155000D03*
X189435000Y-97155000D03*
X189435000Y-98425000D03*
X189435000Y-99695000D03*
X189435000Y-100965000D03*
X189435000Y-102235000D03*
X189435000Y-103505000D03*
X189435000Y-104775000D03*
X189435000Y-106045000D03*
%TD*%
D28*
%TO.C,R22*%
X201422000Y-102806000D03*
X201422000Y-101156000D03*
%TD*%
%TO.C,R20*%
X177800000Y-103505000D03*
X177800000Y-101855000D03*
%TD*%
D31*
%TO.C,C12*%
X197104000Y-110314000D03*
X197104000Y-107364000D03*
%TD*%
D24*
%TO.C,R12*%
X224728500Y-107696000D03*
X221803500Y-107696000D03*
%TD*%
%TO.C,R8*%
X224728500Y-91440000D03*
X221803500Y-91440000D03*
%TD*%
D32*
%TO.C,C24*%
X172987000Y-92202000D03*
X171437000Y-92202000D03*
%TD*%
D33*
%TO.C,C23*%
X182359000Y-89662000D03*
X183909000Y-89662000D03*
%TD*%
D24*
%TO.C,R9*%
X224728500Y-95504000D03*
X221803500Y-95504000D03*
%TD*%
D34*
%TO.C,R16*%
X191643000Y-102426000D03*
X191643000Y-104076000D03*
%TD*%
D23*
%TO.C,R19*%
X174499000Y-103505000D03*
X176149000Y-103505000D03*
%TD*%
D32*
%TO.C,C9*%
X172847000Y-103505000D03*
X171297000Y-103505000D03*
%TD*%
%TO.C,C22*%
X172987000Y-89662000D03*
X171437000Y-89662000D03*
%TD*%
M02*
