%TF.GenerationSoftware,KiCad,Pcbnew,9.0.4*%
%TF.CreationDate,2025-09-18T09:53:14-07:00*%
%TF.ProjectId,bigpulse,62696770-756c-4736-952e-6b696361645f,rev?*%
%TF.SameCoordinates,Original*%
%TF.FileFunction,Copper,L1,Top*%
%TF.FilePolarity,Positive*%
%FSLAX46Y46*%
G04 Gerber Fmt 4.6, Leading zero omitted, Abs format (unit mm)*
G04 Created by KiCad (PCBNEW 9.0.4) date 2025-09-18 09:53:14*
%MOMM*%
%LPD*%
G01*
G04 APERTURE LIST*
G04 Aperture macros list*
%AMRoundRect*
0 Rectangle with rounded corners*
0 $1 Rounding radius*
0 $2 $3 $4 $5 $6 $7 $8 $9 X,Y pos of 4 corners*
0 Add a 4 corners polygon primitive as box body*
4,1,4,$2,$3,$4,$5,$6,$7,$8,$9,$2,$3,0*
0 Add four circle primitives for the rounded corners*
1,1,$1+$1,$2,$3*
1,1,$1+$1,$4,$5*
1,1,$1+$1,$6,$7*
1,1,$1+$1,$8,$9*
0 Add four rect primitives between the rounded corners*
20,1,$1+$1,$2,$3,$4,$5,0*
20,1,$1+$1,$4,$5,$6,$7,0*
20,1,$1+$1,$6,$7,$8,$9,0*
20,1,$1+$1,$8,$9,$2,$3,0*%
%AMFreePoly0*
4,1,25,-1.500000,1.420000,-1.360000,1.280000,-1.205000,1.155000,-1.035000,1.045000,-0.860000,0.950000,-0.675000,0.875000,-0.480000,0.820000,-0.280000,0.780000,-0.085000,0.765000,0.085000,0.765000,0.280000,0.780000,0.480000,0.820000,0.675000,0.875000,0.860000,0.950000,1.035000,1.045000,1.205000,1.155000,1.360000,1.280000,1.500000,1.420000,1.645000,1.595000,3.555000,1.595000,
3.555000,-0.755000,-3.555000,-0.755000,-3.555000,1.595000,-1.645000,1.595000,-1.500000,1.420000,-1.500000,1.420000,$1*%
G04 Aperture macros list end*
%TA.AperFunction,EtchedComponent*%
%ADD10C,0.000000*%
%TD*%
%TA.AperFunction,EtchedComponent*%
%ADD11C,0.200000*%
%TD*%
%TA.AperFunction,SMDPad,CuDef*%
%ADD12RoundRect,0.150000X-0.512500X-0.150000X0.512500X-0.150000X0.512500X0.150000X-0.512500X0.150000X0*%
%TD*%
%TA.AperFunction,SMDPad,CuDef*%
%ADD13RoundRect,0.250000X0.325000X1.100000X-0.325000X1.100000X-0.325000X-1.100000X0.325000X-1.100000X0*%
%TD*%
%TA.AperFunction,SMDPad,CuDef*%
%ADD14R,1.000000X1.500000*%
%TD*%
%TA.AperFunction,SMDPad,CuDef*%
%ADD15RoundRect,0.250000X-0.325000X-1.100000X0.325000X-1.100000X0.325000X1.100000X-0.325000X1.100000X0*%
%TD*%
%TA.AperFunction,ComponentPad*%
%ADD16C,0.800000*%
%TD*%
%TA.AperFunction,ComponentPad*%
%ADD17C,7.400000*%
%TD*%
%TA.AperFunction,SMDPad,CuDef*%
%ADD18RoundRect,0.200000X-0.200000X-0.275000X0.200000X-0.275000X0.200000X0.275000X-0.200000X0.275000X0*%
%TD*%
%TA.AperFunction,SMDPad,CuDef*%
%ADD19RoundRect,0.250000X-0.650000X-2.450000X0.650000X-2.450000X0.650000X2.450000X-0.650000X2.450000X0*%
%TD*%
%TA.AperFunction,SMDPad,CuDef*%
%ADD20RoundRect,0.250000X-0.312500X-1.075000X0.312500X-1.075000X0.312500X1.075000X-0.312500X1.075000X0*%
%TD*%
%TA.AperFunction,SMDPad,CuDef*%
%ADD21RoundRect,0.225000X0.225000X0.250000X-0.225000X0.250000X-0.225000X-0.250000X0.225000X-0.250000X0*%
%TD*%
%TA.AperFunction,SMDPad,CuDef*%
%ADD22RoundRect,0.250000X0.650000X2.450000X-0.650000X2.450000X-0.650000X-2.450000X0.650000X-2.450000X0*%
%TD*%
%TA.AperFunction,SMDPad,CuDef*%
%ADD23RoundRect,0.250000X0.750000X0.750000X-0.750000X0.750000X-0.750000X-0.750000X0.750000X-0.750000X0*%
%TD*%
%TA.AperFunction,SMDPad,CuDef*%
%ADD24RoundRect,0.250000X-0.350000X-0.625000X0.350000X-0.625000X0.350000X0.625000X-0.350000X0.625000X0*%
%TD*%
%TA.AperFunction,SMDPad,CuDef*%
%ADD25RoundRect,0.250000X-0.550000X-0.625000X0.550000X-0.625000X0.550000X0.625000X-0.550000X0.625000X0*%
%TD*%
%TA.AperFunction,SMDPad,CuDef*%
%ADD26RoundRect,0.253000X-0.347000X-0.622000X0.347000X-0.622000X0.347000X0.622000X-0.347000X0.622000X0*%
%TD*%
%TA.AperFunction,SMDPad,CuDef*%
%ADD27RoundRect,0.200000X0.200000X0.275000X-0.200000X0.275000X-0.200000X-0.275000X0.200000X-0.275000X0*%
%TD*%
%TA.AperFunction,SMDPad,CuDef*%
%ADD28RoundRect,0.250000X1.000000X0.900000X-1.000000X0.900000X-1.000000X-0.900000X1.000000X-0.900000X0*%
%TD*%
%TA.AperFunction,SMDPad,CuDef*%
%ADD29RoundRect,0.076250X-0.368250X-0.076250X0.368250X-0.076250X0.368250X0.076250X-0.368250X0.076250X0*%
%TD*%
%TA.AperFunction,HeatsinkPad*%
%ADD30C,0.550000*%
%TD*%
%TA.AperFunction,HeatsinkPad*%
%ADD31R,1.651000X2.845000*%
%TD*%
%TA.AperFunction,SMDPad,CuDef*%
%ADD32C,1.730000*%
%TD*%
%TA.AperFunction,SMDPad,CuDef*%
%ADD33FreePoly0,0.000000*%
%TD*%
%TA.AperFunction,SMDPad,CuDef*%
%ADD34FreePoly0,180.000000*%
%TD*%
%TA.AperFunction,ComponentPad*%
%ADD35R,1.700000X1.700000*%
%TD*%
%TA.AperFunction,ComponentPad*%
%ADD36C,1.700000*%
%TD*%
%TA.AperFunction,SMDPad,CuDef*%
%ADD37RoundRect,0.250000X0.950000X0.500000X-0.950000X0.500000X-0.950000X-0.500000X0.950000X-0.500000X0*%
%TD*%
%TA.AperFunction,SMDPad,CuDef*%
%ADD38RoundRect,0.250000X0.275000X0.500000X-0.275000X0.500000X-0.275000X-0.500000X0.275000X-0.500000X0*%
%TD*%
%TA.AperFunction,SMDPad,CuDef*%
%ADD39RoundRect,0.200000X-0.275000X0.200000X-0.275000X-0.200000X0.275000X-0.200000X0.275000X0.200000X0*%
%TD*%
%TA.AperFunction,SMDPad,CuDef*%
%ADD40RoundRect,0.250000X-0.950000X-0.500000X0.950000X-0.500000X0.950000X0.500000X-0.950000X0.500000X0*%
%TD*%
%TA.AperFunction,SMDPad,CuDef*%
%ADD41RoundRect,0.250000X-0.275000X-0.500000X0.275000X-0.500000X0.275000X0.500000X-0.275000X0.500000X0*%
%TD*%
%TA.AperFunction,SMDPad,CuDef*%
%ADD42RoundRect,0.250000X0.450000X-0.262500X0.450000X0.262500X-0.450000X0.262500X-0.450000X-0.262500X0*%
%TD*%
%TA.AperFunction,SMDPad,CuDef*%
%ADD43RoundRect,0.200000X0.275000X-0.200000X0.275000X0.200000X-0.275000X0.200000X-0.275000X-0.200000X0*%
%TD*%
%TA.AperFunction,SMDPad,CuDef*%
%ADD44RoundRect,0.250000X1.100000X-0.325000X1.100000X0.325000X-1.100000X0.325000X-1.100000X-0.325000X0*%
%TD*%
%TA.AperFunction,SMDPad,CuDef*%
%ADD45R,1.200000X3.300000*%
%TD*%
%TA.AperFunction,SMDPad,CuDef*%
%ADD46RoundRect,0.250000X0.500000X-0.950000X0.500000X0.950000X-0.500000X0.950000X-0.500000X-0.950000X0*%
%TD*%
%TA.AperFunction,SMDPad,CuDef*%
%ADD47RoundRect,0.250000X0.500000X-0.275000X0.500000X0.275000X-0.500000X0.275000X-0.500000X-0.275000X0*%
%TD*%
%TA.AperFunction,SMDPad,CuDef*%
%ADD48RoundRect,0.225000X-0.225000X-0.250000X0.225000X-0.250000X0.225000X0.250000X-0.225000X0.250000X0*%
%TD*%
%TA.AperFunction,ViaPad*%
%ADD49C,0.600000*%
%TD*%
%TA.AperFunction,Conductor*%
%ADD50C,0.762000*%
%TD*%
%TA.AperFunction,Conductor*%
%ADD51C,0.254000*%
%TD*%
%TA.AperFunction,Conductor*%
%ADD52C,0.508000*%
%TD*%
G04 APERTURE END LIST*
D10*
%TA.AperFunction,EtchedComponent*%
%TO.C,JP1*%
G36*
X179432000Y-114862000D02*
G01*
X178932000Y-114862000D01*
X178932000Y-114462000D01*
X179432000Y-114462000D01*
X179432000Y-114862000D01*
G37*
%TD.AperFunction*%
%TA.AperFunction,EtchedComponent*%
G36*
X179432000Y-115662000D02*
G01*
X178932000Y-115662000D01*
X178932000Y-115262000D01*
X179432000Y-115262000D01*
X179432000Y-115662000D01*
G37*
%TD.AperFunction*%
D11*
%TO.C,REF\u002A\u002A*%
X134420000Y-106580000D02*
X133016624Y-109101000D01*
X132580000Y-106140000D01*
X134420000Y-106580000D01*
%TA.AperFunction,EtchedComponent*%
G36*
X134420000Y-106580000D02*
G01*
X133016624Y-109101000D01*
X132580000Y-106140000D01*
X134420000Y-106580000D01*
G37*
%TD.AperFunction*%
X133900000Y-101620000D02*
X133480000Y-101320000D01*
X133969125Y-101052375D01*
X133900000Y-101620000D01*
%TA.AperFunction,EtchedComponent*%
G36*
X133900000Y-101620000D02*
G01*
X133480000Y-101320000D01*
X133969125Y-101052375D01*
X133900000Y-101620000D01*
G37*
%TD.AperFunction*%
X132830000Y-100790000D02*
X132207000Y-101100000D01*
X132467317Y-100466526D01*
X132830000Y-100790000D01*
%TA.AperFunction,EtchedComponent*%
G36*
X132830000Y-100790000D02*
G01*
X132207000Y-101100000D01*
X132467317Y-100466526D01*
X132830000Y-100790000D01*
G37*
%TD.AperFunction*%
X132470000Y-100460000D02*
X132467317Y-100466526D01*
X132460000Y-100460000D01*
X132470000Y-100460000D01*
%TA.AperFunction,EtchedComponent*%
G36*
X132470000Y-100460000D02*
G01*
X132467317Y-100466526D01*
X132460000Y-100460000D01*
X132470000Y-100460000D01*
G37*
%TD.AperFunction*%
X132207000Y-101100000D02*
X136016999Y-99052125D01*
X133873874Y-106862625D01*
X134969250Y-106195875D01*
X133016624Y-109101000D01*
X132302250Y-105672001D01*
X133064249Y-106719750D01*
X133969125Y-101052375D01*
X130301999Y-103005001D01*
X132683249Y-94575375D01*
X135016874Y-94575375D01*
X132207000Y-101100000D01*
%TA.AperFunction,EtchedComponent*%
G36*
X132207000Y-101100000D02*
G01*
X136016999Y-99052125D01*
X133873874Y-106862625D01*
X134969250Y-106195875D01*
X133016624Y-109101000D01*
X132302250Y-105672001D01*
X133064249Y-106719750D01*
X133969125Y-101052375D01*
X130301999Y-103005001D01*
X132683249Y-94575375D01*
X135016874Y-94575375D01*
X132207000Y-101100000D01*
G37*
%TD.AperFunction*%
%TD*%
D12*
%TO.P,Q1,1,B*%
%TO.N,/TRIG*%
X211587500Y-100650000D03*
%TO.P,Q1,2,E*%
%TO.N,GNDPWR*%
X211587500Y-102550000D03*
%TO.P,Q1,3,C*%
%TO.N,/SHAPER_IN*%
X213862500Y-101600000D03*
%TD*%
D13*
%TO.P,C13,1*%
%TO.N,/SHAPER_IN*%
X213438000Y-112395000D03*
%TO.P,C13,2*%
%TO.N,GNDPWR*%
X210488000Y-112395000D03*
%TD*%
D14*
%TO.P,JP1,1,A*%
%TO.N,Net-(JP1-A)*%
X178532000Y-115062000D03*
%TO.P,JP1,2,C*%
%TO.N,Net-(JP1-C)*%
X179832000Y-115062000D03*
%TO.P,JP1,3,B*%
%TO.N,Net-(JP1-B)*%
X181132000Y-115062000D03*
%TD*%
D15*
%TO.P,C1,1*%
%TO.N,/PDEC*%
X210615000Y-93218000D03*
%TO.P,C1,2*%
%TO.N,GNDPWR*%
X213565000Y-93218000D03*
%TD*%
D16*
%TO.P,J3,1,Pin_1*%
%TO.N,+VDC*%
X187725000Y-92075000D03*
X188537779Y-90112779D03*
X188537779Y-94037221D03*
X190500000Y-89300000D03*
D17*
X190500000Y-92075000D03*
D16*
X190500000Y-94850000D03*
X192462221Y-90112779D03*
X192462221Y-94037221D03*
X193275000Y-92075000D03*
%TD*%
D18*
%TO.P,R14,1*%
%TO.N,Net-(R14-Pad1)*%
X209474800Y-90424000D03*
%TO.P,R14,2*%
%TO.N,/SENSE+*%
X211124800Y-90424000D03*
%TD*%
%TO.P,R23,1*%
%TO.N,Net-(U1-RT)*%
X171133000Y-108712000D03*
%TO.P,R23,2*%
%TO.N,GND*%
X172783000Y-108712000D03*
%TD*%
D19*
%TO.P,C20,1*%
%TO.N,Net-(D4-K)*%
X172964000Y-89662000D03*
%TO.P,C20,2*%
%TO.N,+VDC*%
X178064000Y-89662000D03*
%TD*%
D20*
%TO.P,R6,1*%
%TO.N,/SHAPER_INTER*%
X221803500Y-107696000D03*
%TO.P,R6,2*%
%TO.N,/SHAPER_OUT*%
X224728500Y-107696000D03*
%TD*%
D21*
%TO.P,C16,1*%
%TO.N,Net-(U1-INTVcc)*%
X163462000Y-108712000D03*
%TO.P,C16,2*%
%TO.N,GND*%
X161912000Y-108712000D03*
%TD*%
D15*
%TO.P,C6,1*%
%TO.N,/SHAPER_IN*%
X216203000Y-107696000D03*
%TO.P,C6,2*%
%TO.N,/SHAPER_INTER*%
X219153000Y-107696000D03*
%TD*%
D20*
%TO.P,R4,1*%
%TO.N,/SHAPER_INTER*%
X221803500Y-99568000D03*
%TO.P,R4,2*%
%TO.N,/SHAPER_OUT*%
X224728500Y-99568000D03*
%TD*%
D16*
%TO.P,J4,1,Pin_1*%
%TO.N,GNDPWR*%
X187725000Y-111125000D03*
X188537779Y-109162779D03*
X188537779Y-113087221D03*
X190500000Y-108350000D03*
D17*
X190500000Y-111125000D03*
D16*
X190500000Y-113900000D03*
X192462221Y-109162779D03*
X192462221Y-113087221D03*
X193275000Y-111125000D03*
%TD*%
D22*
%TO.P,C18,1*%
%TO.N,+12V*%
X163014000Y-104521000D03*
%TO.P,C18,2*%
%TO.N,GND*%
X157914000Y-104521000D03*
%TD*%
D20*
%TO.P,R7,1*%
%TO.N,/SHAPER_INTER*%
X221803500Y-111760000D03*
%TO.P,R7,2*%
%TO.N,/SHAPER_OUT*%
X224728500Y-111760000D03*
%TD*%
%TO.P,R3,1*%
%TO.N,/SHAPER_INTER*%
X221803500Y-95504000D03*
%TO.P,R3,2*%
%TO.N,/SHAPER_OUT*%
X224728500Y-95504000D03*
%TD*%
D23*
%TO.P,J2,1*%
%TO.N,+12V*%
X152820000Y-95050000D03*
X152820000Y-88900000D03*
%TO.P,J2,2*%
%TO.N,GND*%
X141820000Y-88900000D03*
%TO.P,J2,3*%
%TO.N,N/C*%
X141820000Y-95050000D03*
%TD*%
D24*
%TO.P,RV2,1,1*%
%TO.N,GND*%
X181730000Y-108211000D03*
D25*
%TO.P,RV2,2,2*%
%TO.N,Net-(JP1-B)*%
X182880000Y-112261000D03*
D26*
%TO.P,RV2,3,3*%
%TO.N,unconnected-(RV2-Pad3)*%
X184030000Y-108211000D03*
%TD*%
D27*
%TO.P,R24,1*%
%TO.N,Net-(U1-Vc)*%
X163512000Y-110490000D03*
%TO.P,R24,2*%
%TO.N,Net-(C15-Pad1)*%
X161862000Y-110490000D03*
%TD*%
D28*
%TO.P,D1,1,K*%
%TO.N,/PDEC*%
X203445000Y-101600000D03*
%TO.P,D1,2,A*%
%TO.N,+VDC*%
X199145000Y-101600000D03*
%TD*%
D29*
%TO.P,U1,1,EN*%
%TO.N,+12V*%
X165214000Y-105057000D03*
%TO.P,U1,3,Vin*%
X165214000Y-106057000D03*
%TO.P,U1,5,INTVcc*%
%TO.N,Net-(U1-INTVcc)*%
X165214000Y-107057000D03*
%TO.P,U1,6*%
%TO.N,N/C*%
X165214000Y-107557000D03*
%TO.P,U1,7,BIAS*%
%TO.N,GND*%
X165214000Y-108057000D03*
%TO.P,U1,8,Vc*%
%TO.N,Net-(U1-Vc)*%
X165214000Y-108557000D03*
%TO.P,U1,9,FBX*%
%TO.N,Net-(JP1-C)*%
X169425000Y-108557000D03*
%TO.P,U1,10,RT*%
%TO.N,Net-(U1-RT)*%
X169425000Y-108057000D03*
%TO.P,U1,11,SS*%
%TO.N,Net-(U1-SS)*%
X169425000Y-107557000D03*
%TO.P,U1,12,SYNC/MODE*%
%TO.N,GND*%
X169425000Y-107057000D03*
%TO.P,U1,14,SW2*%
%TO.N,/SW*%
X169425000Y-106057000D03*
%TO.P,U1,16,SW1*%
X169425000Y-105057000D03*
D30*
%TO.P,U1,17,GND*%
%TO.N,GND*%
X166769000Y-105659500D03*
X166769000Y-106807000D03*
X166769000Y-107954500D03*
D31*
X167319500Y-106807000D03*
D30*
X167870000Y-105659500D03*
X167870000Y-106807000D03*
X167870000Y-107954500D03*
%TD*%
D32*
%TO.P,TP2,1,1*%
%TO.N,Net-(U2-OUTA)*%
X204470000Y-109728000D03*
D33*
%TO.P,TP2,2,2*%
%TO.N,GNDPWR*%
X204470000Y-112528000D03*
D34*
X204470000Y-106928000D03*
%TD*%
D24*
%TO.P,RV1,1,1*%
%TO.N,GND*%
X175634000Y-108211000D03*
D25*
%TO.P,RV1,2,2*%
%TO.N,Net-(JP1-A)*%
X176784000Y-112261000D03*
D26*
%TO.P,RV1,3,3*%
%TO.N,unconnected-(RV1-Pad3)*%
X177934000Y-108211000D03*
%TD*%
D35*
%TO.P,LD1,1,C*%
%TO.N,/SHAPER_OUT*%
X229235000Y-102870000D03*
D36*
%TO.P,LD1,2,A*%
%TO.N,/SENSE+*%
X229235000Y-100330000D03*
%TD*%
D37*
%TO.P,D3,1,K*%
%TO.N,GNDPWR*%
X222289000Y-88138000D03*
D38*
%TO.P,D3,2,A*%
%TO.N,/SHAPER_OUT*%
X224664000Y-88138000D03*
%TD*%
D15*
%TO.P,C2,1*%
%TO.N,/SHAPER_IN*%
X216203000Y-91440000D03*
%TO.P,C2,2*%
%TO.N,/SHAPER_INTER*%
X219153000Y-91440000D03*
%TD*%
D20*
%TO.P,R5,1*%
%TO.N,/SHAPER_INTER*%
X221803500Y-103632000D03*
%TO.P,R5,2*%
%TO.N,/SHAPER_OUT*%
X224728500Y-103632000D03*
%TD*%
D39*
%TO.P,R18,1*%
%TO.N,/TRIG*%
X209423000Y-101283000D03*
%TO.P,R18,2*%
%TO.N,GNDPWR*%
X209423000Y-102933000D03*
%TD*%
D32*
%TO.P,J1,1,In*%
%TO.N,Net-(J1-In)*%
X148590000Y-109728000D03*
D34*
%TO.P,J1,2,Ext*%
%TO.N,GND*%
X148590000Y-106928000D03*
D33*
X148590000Y-112528000D03*
%TD*%
D15*
%TO.P,C5,1*%
%TO.N,/SHAPER_IN*%
X216203000Y-103632000D03*
%TO.P,C5,2*%
%TO.N,/SHAPER_INTER*%
X219153000Y-103632000D03*
%TD*%
D40*
%TO.P,D5,1,K*%
%TO.N,Net-(D5-K)*%
X174840000Y-101219000D03*
D41*
%TO.P,D5,2,A*%
%TO.N,Net-(D5-A)*%
X172465000Y-101219000D03*
%TD*%
D42*
%TO.P,R26,1*%
%TO.N,Net-(D5-A)*%
X166116000Y-96948000D03*
%TO.P,R26,2*%
%TO.N,Net-(D4-K)*%
X166116000Y-95123000D03*
%TD*%
D15*
%TO.P,C3,1*%
%TO.N,/SHAPER_IN*%
X216203000Y-95504000D03*
%TO.P,C3,2*%
%TO.N,/SHAPER_INTER*%
X219153000Y-95504000D03*
%TD*%
%TO.P,C7,1*%
%TO.N,/SHAPER_IN*%
X216203000Y-111760000D03*
%TO.P,C7,2*%
%TO.N,/SHAPER_INTER*%
X219153000Y-111760000D03*
%TD*%
D21*
%TO.P,C15,1*%
%TO.N,Net-(C15-Pad1)*%
X160223000Y-110490000D03*
%TO.P,C15,2*%
%TO.N,GND*%
X158673000Y-110490000D03*
%TD*%
D20*
%TO.P,R1,1*%
%TO.N,/PDEC*%
X210627500Y-97282000D03*
%TO.P,R1,2*%
%TO.N,/SHAPER_IN*%
X213552500Y-97282000D03*
%TD*%
D19*
%TO.P,C21,1*%
%TO.N,GND*%
X164318000Y-89662000D03*
%TO.P,C21,2*%
%TO.N,Net-(D4-K)*%
X169418000Y-89662000D03*
%TD*%
D43*
%TO.P,R15,1*%
%TO.N,Net-(C8-Pad2)*%
X207391000Y-102933000D03*
%TO.P,R15,2*%
%TO.N,/TRIG*%
X207391000Y-101283000D03*
%TD*%
D37*
%TO.P,D2,1,K*%
%TO.N,GNDPWR*%
X222288000Y-115062000D03*
D38*
%TO.P,D2,2,A*%
%TO.N,/SHAPER_OUT*%
X224663000Y-115062000D03*
%TD*%
D15*
%TO.P,C4,1*%
%TO.N,/SHAPER_IN*%
X216203000Y-99568000D03*
%TO.P,C4,2*%
%TO.N,/SHAPER_INTER*%
X219153000Y-99568000D03*
%TD*%
D44*
%TO.P,C8,1*%
%TO.N,Net-(U2-OUTA)*%
X210439000Y-109728000D03*
%TO.P,C8,2*%
%TO.N,Net-(C8-Pad2)*%
X210439000Y-106778000D03*
%TD*%
D22*
%TO.P,C17,1*%
%TO.N,+12V*%
X163014000Y-98298000D03*
%TO.P,C17,2*%
%TO.N,GND*%
X157914000Y-98298000D03*
%TD*%
D15*
%TO.P,C19,1*%
%TO.N,/SW*%
X172691000Y-97536000D03*
%TO.P,C19,2*%
%TO.N,Net-(D5-K)*%
X175641000Y-97536000D03*
%TD*%
D45*
%TO.P,L1,1,1*%
%TO.N,+12V*%
X166318000Y-101473000D03*
%TO.P,L1,2,2*%
%TO.N,/SW*%
X169418000Y-101473000D03*
%TD*%
D46*
%TO.P,D4,1,K*%
%TO.N,Net-(D4-K)*%
X169418000Y-95161000D03*
D47*
%TO.P,D4,2,A*%
%TO.N,/SW*%
X169418000Y-97536000D03*
%TD*%
D48*
%TO.P,C14,1*%
%TO.N,Net-(U1-SS)*%
X171183000Y-106934000D03*
%TO.P,C14,2*%
%TO.N,GND*%
X172733000Y-106934000D03*
%TD*%
D40*
%TO.P,D6,1,K*%
%TO.N,+VDC*%
X178054000Y-94488000D03*
D41*
%TO.P,D6,2,A*%
%TO.N,Net-(D5-K)*%
X175679000Y-94488000D03*
%TD*%
D18*
%TO.P,R25,1*%
%TO.N,Net-(JP1-C)*%
X171133000Y-110490000D03*
%TO.P,R25,2*%
%TO.N,+VDC*%
X172783000Y-110490000D03*
%TD*%
D20*
%TO.P,R2,1*%
%TO.N,/SHAPER_INTER*%
X221803500Y-91440000D03*
%TO.P,R2,2*%
%TO.N,/SHAPER_OUT*%
X224728500Y-91440000D03*
%TD*%
D32*
%TO.P,TP1,1,1*%
%TO.N,Net-(R14-Pad1)*%
X204470000Y-93472000D03*
D34*
%TO.P,TP1,2,2*%
%TO.N,GNDPWR*%
X204470000Y-90672000D03*
D33*
X204470000Y-96272000D03*
%TD*%
D49*
%TO.N,GNDPWR*%
X202565000Y-90551000D03*
X211455000Y-104140000D03*
X205740000Y-90551000D03*
X205740000Y-96393000D03*
X206375000Y-112649000D03*
X206375000Y-106680000D03*
X207645000Y-96393000D03*
X203835000Y-112649000D03*
X202565000Y-112649000D03*
X222289000Y-88138000D03*
X214249000Y-90170000D03*
X212979000Y-90170000D03*
X210820000Y-104140000D03*
X201295000Y-90551000D03*
X213614000Y-90805000D03*
X213360000Y-104140000D03*
X201295000Y-106680000D03*
X202565000Y-96393000D03*
X207010000Y-96393000D03*
X205740000Y-106680000D03*
X205105000Y-90551000D03*
X201930000Y-106680000D03*
X205105000Y-106680000D03*
X207010000Y-90551000D03*
X209550000Y-104140000D03*
X206375000Y-90551000D03*
X212979000Y-90805000D03*
X207645000Y-106680000D03*
X210185000Y-104140000D03*
X203200000Y-90551000D03*
X201295000Y-96393000D03*
X203835000Y-90551000D03*
X203200000Y-112649000D03*
X207010000Y-112649000D03*
X204470000Y-96393000D03*
X207645000Y-112649000D03*
X222288000Y-115062000D03*
X212725000Y-104140000D03*
X204470000Y-112649000D03*
X205740000Y-112649000D03*
X203835000Y-106680000D03*
X201930000Y-112649000D03*
X201930000Y-90551000D03*
X202565000Y-106680000D03*
X201295000Y-112649000D03*
X213614000Y-90170000D03*
X203200000Y-96393000D03*
X204470000Y-106680000D03*
X208915000Y-104140000D03*
X220345000Y-88138000D03*
X201930000Y-96393000D03*
X205105000Y-96393000D03*
X220345000Y-115062000D03*
X205105000Y-112649000D03*
X203200000Y-106680000D03*
X206375000Y-96393000D03*
X207645000Y-90551000D03*
X203835000Y-96393000D03*
X212090000Y-104140000D03*
X207010000Y-106680000D03*
X214249000Y-90805000D03*
X204470000Y-90551000D03*
%TO.N,Net-(U2-OUTA)*%
X187452000Y-106807000D03*
%TO.N,Net-(J1-In)*%
X174498000Y-114173000D03*
%TO.N,GND*%
X149225000Y-106934000D03*
X149860000Y-106934000D03*
X143510000Y-88900000D03*
X146050000Y-112395000D03*
X143510000Y-89662000D03*
X160020000Y-103886000D03*
X179832000Y-108204000D03*
X160020000Y-100203000D03*
X146050000Y-106934000D03*
X173990000Y-106934000D03*
X165735000Y-89662000D03*
X160020000Y-101981000D03*
X148590000Y-112395000D03*
X160020000Y-106426000D03*
X160020000Y-100838000D03*
X160020000Y-98933000D03*
X165735000Y-91948000D03*
X160020000Y-99568000D03*
X146685000Y-112395000D03*
X148590000Y-106934000D03*
X160020000Y-105791000D03*
X150495000Y-106934000D03*
X151130000Y-112395000D03*
X160020000Y-96393000D03*
X160020000Y-107061000D03*
X160020000Y-105156000D03*
X160020000Y-98298000D03*
X173990000Y-107823000D03*
X160020000Y-97028000D03*
X143510000Y-88138000D03*
X173990000Y-108712000D03*
X165735000Y-90424000D03*
X160020000Y-103251000D03*
X149860000Y-112395000D03*
X151130000Y-106934000D03*
X149225000Y-112395000D03*
X160020000Y-102616000D03*
X146685000Y-106934000D03*
X165735000Y-91186000D03*
X160020000Y-104521000D03*
X147955000Y-112395000D03*
X165735000Y-88138000D03*
X150495000Y-112395000D03*
X147320000Y-112395000D03*
X147320000Y-106934000D03*
X165735000Y-88900000D03*
X160020000Y-97663000D03*
X147955000Y-106934000D03*
X160020000Y-95758000D03*
X165735000Y-87376000D03*
%TO.N,+12V*%
X173228000Y-93472000D03*
X175387000Y-88646000D03*
X162941000Y-94361000D03*
%TO.N,Net-(D5-A)*%
X166243000Y-98171000D03*
X171196000Y-100584000D03*
X171196000Y-101854000D03*
X166878000Y-98171000D03*
X171196000Y-101219000D03*
X165608000Y-98171000D03*
%TO.N,/SENSE+*%
X219075000Y-88773000D03*
%TD*%
D50*
%TO.N,GNDPWR*%
X222289000Y-88138000D02*
X220345000Y-88138000D01*
X210488000Y-112395000D02*
X207899000Y-112395000D01*
X207899000Y-112395000D02*
X207645000Y-112649000D01*
X222288000Y-115062000D02*
X220345000Y-115062000D01*
%TO.N,Net-(C8-Pad2)*%
X207391000Y-104775000D02*
X207899000Y-105283000D01*
X207899000Y-105283000D02*
X209804000Y-105283000D01*
X207391000Y-102933000D02*
X207391000Y-104775000D01*
X210439000Y-105918000D02*
X210439000Y-106778000D01*
X209804000Y-105283000D02*
X210439000Y-105918000D01*
D51*
%TO.N,Net-(U2-OUTA)*%
X204470000Y-109728000D02*
X210439000Y-109728000D01*
X198501000Y-109728000D02*
X204470000Y-109728000D01*
X195072000Y-106299000D02*
X198501000Y-109728000D01*
X187960000Y-106299000D02*
X195072000Y-106299000D01*
X187452000Y-106807000D02*
X187960000Y-106299000D01*
D52*
%TO.N,Net-(J1-In)*%
X152146000Y-109728000D02*
X155829000Y-113411000D01*
X148590000Y-109728000D02*
X152146000Y-109728000D01*
X155829000Y-113411000D02*
X156591000Y-114173000D01*
X156591000Y-114173000D02*
X174498000Y-114173000D01*
D51*
%TO.N,+VDC*%
X179070000Y-109728000D02*
X179070000Y-95504000D01*
X179070000Y-95504000D02*
X178054000Y-94488000D01*
X178689000Y-110109000D02*
X179070000Y-109728000D01*
X173164000Y-110109000D02*
X178689000Y-110109000D01*
X172783000Y-110490000D02*
X173164000Y-110109000D01*
%TO.N,Net-(U1-SS)*%
X170566308Y-106934000D02*
X171183000Y-106934000D01*
X169943308Y-107557000D02*
X170566308Y-106934000D01*
X169425000Y-107557000D02*
X169943308Y-107557000D01*
%TO.N,GND*%
X157683200Y-109270800D02*
X157810200Y-109143800D01*
X165214000Y-108057000D02*
X166666500Y-108057000D01*
X161912000Y-108712000D02*
X160858200Y-108712000D01*
X157810200Y-109143800D02*
X159537400Y-109143800D01*
X166666500Y-108057000D02*
X166769000Y-107954500D01*
X169425000Y-107057000D02*
X168120000Y-107057000D01*
D50*
X181730000Y-108211000D02*
X179839000Y-108211000D01*
D51*
X158673000Y-110490000D02*
X157937200Y-110490000D01*
X157937200Y-110490000D02*
X157683200Y-110236000D01*
X160020000Y-107873800D02*
X160020000Y-107061000D01*
X168120000Y-107057000D02*
X167870000Y-106807000D01*
X160858200Y-108712000D02*
X160413700Y-108267500D01*
X159537400Y-109143800D02*
X160413700Y-108267500D01*
X160413700Y-108267500D02*
X160020000Y-107873800D01*
X157683200Y-110236000D02*
X157683200Y-109270800D01*
D50*
X179839000Y-108211000D02*
X179832000Y-108204000D01*
D51*
%TO.N,Net-(C15-Pad1)*%
X161862000Y-110490000D02*
X160223000Y-110490000D01*
%TO.N,Net-(U1-INTVcc)*%
X163462000Y-108712000D02*
X164147000Y-108712000D01*
X164274000Y-108585000D02*
X164274000Y-107442000D01*
X164274000Y-107442000D02*
X164659000Y-107057000D01*
X164659000Y-107057000D02*
X165214000Y-107057000D01*
X164147000Y-108712000D02*
X164274000Y-108585000D01*
D52*
%TO.N,+12V*%
X175387000Y-92075000D02*
X175387000Y-88646000D01*
X173990000Y-93472000D02*
X174244000Y-93218000D01*
X173228000Y-93472000D02*
X173990000Y-93472000D01*
X174244000Y-93218000D02*
X175387000Y-92075000D01*
D51*
%TO.N,Net-(JP1-A)*%
X176784000Y-112261000D02*
X176784000Y-114554000D01*
X176784000Y-114554000D02*
X177292000Y-115062000D01*
X177292000Y-115062000D02*
X178532000Y-115062000D01*
%TO.N,Net-(JP1-C)*%
X169425000Y-109418000D02*
X170497000Y-110490000D01*
X174752000Y-110744000D02*
X173736000Y-111760000D01*
X171704000Y-110490000D02*
X171958000Y-110744000D01*
X179832000Y-111760000D02*
X179070000Y-110998000D01*
X170497000Y-110490000D02*
X171133000Y-110490000D01*
X178816000Y-110744000D02*
X174752000Y-110744000D01*
X171958000Y-110744000D02*
X171958000Y-111252000D01*
X171958000Y-111252000D02*
X172466000Y-111760000D01*
X173736000Y-111760000D02*
X172466000Y-111760000D01*
X179832000Y-115062000D02*
X179832000Y-111760000D01*
X179070000Y-110998000D02*
X178816000Y-110744000D01*
X171133000Y-110490000D02*
X171704000Y-110490000D01*
X169425000Y-108557000D02*
X169425000Y-109418000D01*
%TO.N,Net-(JP1-B)*%
X182880000Y-112261000D02*
X182880000Y-114554000D01*
X182880000Y-114554000D02*
X182372000Y-115062000D01*
X182372000Y-115062000D02*
X181132000Y-115062000D01*
%TO.N,/SENSE+*%
X211582000Y-90424000D02*
X211836000Y-90170000D01*
X211836000Y-90170000D02*
X211836000Y-89281000D01*
X211836000Y-89281000D02*
X212344000Y-88773000D01*
X212344000Y-88773000D02*
X219075000Y-88773000D01*
X211124800Y-90424000D02*
X211582000Y-90424000D01*
%TO.N,Net-(R14-Pad1)*%
X209474800Y-91515200D02*
X207518000Y-93472000D01*
X207518000Y-93472000D02*
X204470000Y-93472000D01*
X209474800Y-90424000D02*
X209474800Y-91515200D01*
%TO.N,Net-(U1-RT)*%
X169425000Y-108057000D02*
X169969000Y-108057000D01*
X170624000Y-108712000D02*
X171133000Y-108712000D01*
X169969000Y-108057000D02*
X170624000Y-108712000D01*
%TO.N,Net-(U1-Vc)*%
X165214000Y-109550000D02*
X164274000Y-110490000D01*
X164274000Y-110490000D02*
X163512000Y-110490000D01*
X165214000Y-108557000D02*
X165214000Y-109550000D01*
D50*
%TO.N,/SHAPER_IN*%
X213438000Y-112395000D02*
X214376000Y-112395000D01*
X215011000Y-111760000D02*
X216203000Y-111760000D01*
X214376000Y-112395000D02*
X215011000Y-111760000D01*
%TD*%
%TA.AperFunction,Conductor*%
%TO.N,/TRIG*%
G36*
X212698138Y-99585593D02*
G01*
X212723858Y-99630142D01*
X212725000Y-99643200D01*
X212725000Y-101366900D01*
X212707407Y-101415238D01*
X212662858Y-101440958D01*
X212649800Y-101442100D01*
X210260200Y-101442100D01*
X210252959Y-101442415D01*
X210246434Y-101442700D01*
X210234690Y-101443727D01*
X210233385Y-101443842D01*
X210168193Y-101464396D01*
X210168192Y-101464396D01*
X210123644Y-101490115D01*
X210123640Y-101490118D01*
X210101092Y-101505907D01*
X210096443Y-101510557D01*
X210095332Y-101509446D01*
X210059637Y-101534438D01*
X210040176Y-101537000D01*
X208693999Y-101537000D01*
X208687019Y-101543979D01*
X208676407Y-101573138D01*
X208631858Y-101598858D01*
X208618800Y-101600000D01*
X208195200Y-101600000D01*
X208146862Y-101582407D01*
X208121528Y-101538527D01*
X208120001Y-101537000D01*
X206661999Y-101537000D01*
X206655206Y-101543792D01*
X206651925Y-101562400D01*
X206646728Y-101566760D01*
X206644407Y-101573138D01*
X206627484Y-101582907D01*
X206612520Y-101595465D01*
X206602751Y-101597187D01*
X206599858Y-101598858D01*
X206586800Y-101600000D01*
X206450200Y-101600000D01*
X206401862Y-101582407D01*
X206376142Y-101537858D01*
X206375000Y-101524800D01*
X206375000Y-101028305D01*
X206662000Y-101028305D01*
X206662000Y-101029000D01*
X207137000Y-101029000D01*
X207645000Y-101029000D01*
X208120000Y-101029000D01*
X208120000Y-101028308D01*
X208119999Y-101028305D01*
X208694000Y-101028305D01*
X208694000Y-101029000D01*
X209169000Y-101029000D01*
X209677000Y-101029000D01*
X210152000Y-101029000D01*
X210152000Y-101028308D01*
X210151999Y-101028305D01*
X210149124Y-100997649D01*
X210149122Y-100997640D01*
X210117182Y-100906358D01*
X210116357Y-100904000D01*
X210682436Y-100904000D01*
X210685982Y-100926396D01*
X210744083Y-101040425D01*
X210834574Y-101130916D01*
X210948600Y-101189015D01*
X210948598Y-101189015D01*
X211043206Y-101203999D01*
X211333500Y-101203999D01*
X211841500Y-101203999D01*
X212131789Y-101203999D01*
X212131797Y-101203998D01*
X212226400Y-101189015D01*
X212340425Y-101130916D01*
X212430916Y-101040425D01*
X212489015Y-100926397D01*
X212489016Y-100926396D01*
X212492564Y-100904000D01*
X211841500Y-100904000D01*
X211841500Y-101203999D01*
X211333500Y-101203999D01*
X211333500Y-100904000D01*
X210682436Y-100904000D01*
X210116357Y-100904000D01*
X210103923Y-100868466D01*
X210103921Y-100868463D01*
X210022652Y-100758347D01*
X209912536Y-100677078D01*
X209912533Y-100677076D01*
X209783359Y-100631877D01*
X209783350Y-100631875D01*
X209752694Y-100629000D01*
X209677000Y-100629000D01*
X209677000Y-101029000D01*
X209169000Y-101029000D01*
X209169000Y-100629000D01*
X209093305Y-100629000D01*
X209062649Y-100631875D01*
X209062640Y-100631877D01*
X208933466Y-100677076D01*
X208933463Y-100677078D01*
X208823347Y-100758347D01*
X208742078Y-100868463D01*
X208742076Y-100868466D01*
X208696877Y-100997640D01*
X208696875Y-100997649D01*
X208694000Y-101028305D01*
X208119999Y-101028305D01*
X208117124Y-100997649D01*
X208117122Y-100997640D01*
X208071923Y-100868466D01*
X208071921Y-100868463D01*
X207990652Y-100758347D01*
X207880536Y-100677078D01*
X207880533Y-100677076D01*
X207751359Y-100631877D01*
X207751350Y-100631875D01*
X207720694Y-100629000D01*
X207645000Y-100629000D01*
X207645000Y-101029000D01*
X207137000Y-101029000D01*
X207137000Y-100629000D01*
X207061305Y-100629000D01*
X207030649Y-100631875D01*
X207030640Y-100631877D01*
X206901466Y-100677076D01*
X206901463Y-100677078D01*
X206791347Y-100758347D01*
X206710078Y-100868463D01*
X206710076Y-100868466D01*
X206664877Y-100997640D01*
X206664875Y-100997649D01*
X206662000Y-101028305D01*
X206375000Y-101028305D01*
X206375000Y-100405200D01*
X206378349Y-100395999D01*
X210682435Y-100395999D01*
X210682436Y-100396000D01*
X211333500Y-100396000D01*
X211841500Y-100396000D01*
X212492564Y-100396000D01*
X212492563Y-100395999D01*
X212489017Y-100373603D01*
X212430916Y-100259574D01*
X212340425Y-100169083D01*
X212226399Y-100110984D01*
X212226401Y-100110984D01*
X212131797Y-100096000D01*
X211841500Y-100096000D01*
X211841500Y-100396000D01*
X211333500Y-100396000D01*
X211333500Y-100096000D01*
X211043212Y-100096000D01*
X211043201Y-100096001D01*
X210948599Y-100110984D01*
X210834574Y-100169083D01*
X210744083Y-100259574D01*
X210685984Y-100373602D01*
X210685983Y-100373603D01*
X210682435Y-100395999D01*
X206378349Y-100395999D01*
X206392593Y-100356862D01*
X206437142Y-100331142D01*
X206450200Y-100330000D01*
X210185000Y-100330000D01*
X210185000Y-99643200D01*
X210202593Y-99594862D01*
X210247142Y-99569142D01*
X210260200Y-99568000D01*
X212649800Y-99568000D01*
X212698138Y-99585593D01*
G37*
%TD.AperFunction*%
%TD*%
%TA.AperFunction,Conductor*%
%TO.N,/SHAPER_INTER*%
G36*
X222985138Y-89425593D02*
G01*
X223010858Y-89470142D01*
X223012000Y-89483200D01*
X223012000Y-113716800D01*
X222994407Y-113765138D01*
X222949858Y-113790858D01*
X222936800Y-113792000D01*
X218007200Y-113792000D01*
X217958862Y-113774407D01*
X217933142Y-113729858D01*
X217932000Y-113716800D01*
X217932000Y-112908215D01*
X218324001Y-112908215D01*
X218330453Y-112968236D01*
X218330454Y-112968241D01*
X218381098Y-113104020D01*
X218381102Y-113104027D01*
X218467952Y-113220047D01*
X218583972Y-113306897D01*
X218583979Y-113306901D01*
X218719756Y-113357544D01*
X218719766Y-113357547D01*
X218779790Y-113363999D01*
X218899000Y-113363999D01*
X219407000Y-113363999D01*
X219526200Y-113363999D01*
X219526215Y-113363998D01*
X219586236Y-113357546D01*
X219586241Y-113357545D01*
X219722020Y-113306901D01*
X219722027Y-113306897D01*
X219838047Y-113220047D01*
X219924897Y-113104027D01*
X219924901Y-113104020D01*
X219975544Y-112968243D01*
X219975547Y-112968233D01*
X219981999Y-112908214D01*
X219982000Y-112908203D01*
X219982000Y-112883215D01*
X220987001Y-112883215D01*
X220993453Y-112943236D01*
X220993454Y-112943241D01*
X221044098Y-113079020D01*
X221044102Y-113079027D01*
X221130952Y-113195047D01*
X221246972Y-113281897D01*
X221246979Y-113281901D01*
X221382756Y-113332544D01*
X221382766Y-113332547D01*
X221442790Y-113338999D01*
X221549500Y-113338999D01*
X222057500Y-113338999D01*
X222164200Y-113338999D01*
X222164215Y-113338998D01*
X222224236Y-113332546D01*
X222224241Y-113332545D01*
X222360020Y-113281901D01*
X222360027Y-113281897D01*
X222476047Y-113195047D01*
X222562897Y-113079027D01*
X222562901Y-113079020D01*
X222613544Y-112943243D01*
X222613547Y-112943233D01*
X222619999Y-112883214D01*
X222620000Y-112883203D01*
X222620000Y-112014000D01*
X222057500Y-112014000D01*
X222057500Y-113338999D01*
X221549500Y-113338999D01*
X221549500Y-112014000D01*
X220987001Y-112014000D01*
X220987001Y-112883215D01*
X219982000Y-112883215D01*
X219982000Y-112014000D01*
X219407000Y-112014000D01*
X219407000Y-113363999D01*
X218899000Y-113363999D01*
X218899000Y-112014000D01*
X218324001Y-112014000D01*
X218324001Y-112908215D01*
X217932000Y-112908215D01*
X217932000Y-110611785D01*
X218324000Y-110611785D01*
X218324000Y-111506000D01*
X218899000Y-111506000D01*
X219407000Y-111506000D01*
X219981999Y-111506000D01*
X219981999Y-110636785D01*
X220987000Y-110636785D01*
X220987000Y-111506000D01*
X221549500Y-111506000D01*
X222057500Y-111506000D01*
X222619999Y-111506000D01*
X222619999Y-110636799D01*
X222619998Y-110636784D01*
X222613546Y-110576763D01*
X222613545Y-110576758D01*
X222562901Y-110440979D01*
X222562897Y-110440972D01*
X222476047Y-110324952D01*
X222360027Y-110238102D01*
X222360020Y-110238098D01*
X222224243Y-110187455D01*
X222224233Y-110187452D01*
X222164214Y-110181000D01*
X222057500Y-110181000D01*
X222057500Y-111506000D01*
X221549500Y-111506000D01*
X221549500Y-110181000D01*
X221442799Y-110181000D01*
X221442784Y-110181001D01*
X221382763Y-110187453D01*
X221382758Y-110187454D01*
X221246979Y-110238098D01*
X221246972Y-110238102D01*
X221130952Y-110324952D01*
X221044102Y-110440972D01*
X221044098Y-110440979D01*
X220993455Y-110576756D01*
X220993452Y-110576766D01*
X220987000Y-110636785D01*
X219981999Y-110636785D01*
X219981999Y-110611799D01*
X219981998Y-110611784D01*
X219975546Y-110551763D01*
X219975545Y-110551758D01*
X219924901Y-110415979D01*
X219924897Y-110415972D01*
X219838047Y-110299952D01*
X219722027Y-110213102D01*
X219722020Y-110213098D01*
X219586243Y-110162455D01*
X219586233Y-110162452D01*
X219526214Y-110156000D01*
X219407000Y-110156000D01*
X219407000Y-111506000D01*
X218899000Y-111506000D01*
X218899000Y-110156000D01*
X218779799Y-110156000D01*
X218779784Y-110156001D01*
X218719763Y-110162453D01*
X218719758Y-110162454D01*
X218583979Y-110213098D01*
X218583972Y-110213102D01*
X218467952Y-110299952D01*
X218381102Y-110415972D01*
X218381098Y-110415979D01*
X218330455Y-110551756D01*
X218330452Y-110551766D01*
X218324000Y-110611785D01*
X217932000Y-110611785D01*
X217932000Y-108844215D01*
X218324001Y-108844215D01*
X218330453Y-108904236D01*
X218330454Y-108904241D01*
X218381098Y-109040020D01*
X218381102Y-109040027D01*
X218467952Y-109156047D01*
X218583972Y-109242897D01*
X218583979Y-109242901D01*
X218719756Y-109293544D01*
X218719766Y-109293547D01*
X218779790Y-109299999D01*
X218899000Y-109299999D01*
X219407000Y-109299999D01*
X219526200Y-109299999D01*
X219526215Y-109299998D01*
X219586236Y-109293546D01*
X219586241Y-109293545D01*
X219722020Y-109242901D01*
X219722027Y-109242897D01*
X219838047Y-109156047D01*
X219924897Y-109040027D01*
X219924901Y-109040020D01*
X219975544Y-108904243D01*
X219975547Y-108904233D01*
X219981999Y-108844214D01*
X219982000Y-108844203D01*
X219982000Y-108819215D01*
X220987001Y-108819215D01*
X220993453Y-108879236D01*
X220993454Y-108879241D01*
X221044098Y-109015020D01*
X221044102Y-109015027D01*
X221130952Y-109131047D01*
X221246972Y-109217897D01*
X221246979Y-109217901D01*
X221382756Y-109268544D01*
X221382766Y-109268547D01*
X221442790Y-109274999D01*
X221549500Y-109274999D01*
X222057500Y-109274999D01*
X222164200Y-109274999D01*
X222164215Y-109274998D01*
X222224236Y-109268546D01*
X222224241Y-109268545D01*
X222360020Y-109217901D01*
X222360027Y-109217897D01*
X222476047Y-109131047D01*
X222562897Y-109015027D01*
X222562901Y-109015020D01*
X222613544Y-108879243D01*
X222613547Y-108879233D01*
X222619999Y-108819214D01*
X222620000Y-108819203D01*
X222620000Y-107950000D01*
X222057500Y-107950000D01*
X222057500Y-109274999D01*
X221549500Y-109274999D01*
X221549500Y-107950000D01*
X220987001Y-107950000D01*
X220987001Y-108819215D01*
X219982000Y-108819215D01*
X219982000Y-107950000D01*
X219407000Y-107950000D01*
X219407000Y-109299999D01*
X218899000Y-109299999D01*
X218899000Y-107950000D01*
X218324001Y-107950000D01*
X218324001Y-108844215D01*
X217932000Y-108844215D01*
X217932000Y-106547785D01*
X218324000Y-106547785D01*
X218324000Y-107442000D01*
X218899000Y-107442000D01*
X219407000Y-107442000D01*
X219981999Y-107442000D01*
X219981999Y-106572785D01*
X220987000Y-106572785D01*
X220987000Y-107442000D01*
X221549500Y-107442000D01*
X222057500Y-107442000D01*
X222619999Y-107442000D01*
X222619999Y-106572799D01*
X222619998Y-106572784D01*
X222613546Y-106512763D01*
X222613545Y-106512758D01*
X222562901Y-106376979D01*
X222562897Y-106376972D01*
X222476047Y-106260952D01*
X222360027Y-106174102D01*
X222360020Y-106174098D01*
X222224243Y-106123455D01*
X222224233Y-106123452D01*
X222164214Y-106117000D01*
X222057500Y-106117000D01*
X222057500Y-107442000D01*
X221549500Y-107442000D01*
X221549500Y-106117000D01*
X221442799Y-106117000D01*
X221442784Y-106117001D01*
X221382763Y-106123453D01*
X221382758Y-106123454D01*
X221246979Y-106174098D01*
X221246972Y-106174102D01*
X221130952Y-106260952D01*
X221044102Y-106376972D01*
X221044098Y-106376979D01*
X220993455Y-106512756D01*
X220993452Y-106512766D01*
X220987000Y-106572785D01*
X219981999Y-106572785D01*
X219981999Y-106547799D01*
X219981998Y-106547784D01*
X219975546Y-106487763D01*
X219975545Y-106487758D01*
X219924901Y-106351979D01*
X219924897Y-106351972D01*
X219838047Y-106235952D01*
X219722027Y-106149102D01*
X219722020Y-106149098D01*
X219586243Y-106098455D01*
X219586233Y-106098452D01*
X219526214Y-106092000D01*
X219407000Y-106092000D01*
X219407000Y-107442000D01*
X218899000Y-107442000D01*
X218899000Y-106092000D01*
X218779799Y-106092000D01*
X218779784Y-106092001D01*
X218719763Y-106098453D01*
X218719758Y-106098454D01*
X218583979Y-106149098D01*
X218583972Y-106149102D01*
X218467952Y-106235952D01*
X218381102Y-106351972D01*
X218381098Y-106351979D01*
X218330455Y-106487756D01*
X218330452Y-106487766D01*
X218324000Y-106547785D01*
X217932000Y-106547785D01*
X217932000Y-104780215D01*
X218324001Y-104780215D01*
X218330453Y-104840236D01*
X218330454Y-104840241D01*
X218381098Y-104976020D01*
X218381102Y-104976027D01*
X218467952Y-105092047D01*
X218583972Y-105178897D01*
X218583979Y-105178901D01*
X218719756Y-105229544D01*
X218719766Y-105229547D01*
X218779790Y-105235999D01*
X218899000Y-105235999D01*
X219407000Y-105235999D01*
X219526200Y-105235999D01*
X219526215Y-105235998D01*
X219586236Y-105229546D01*
X219586241Y-105229545D01*
X219722020Y-105178901D01*
X219722027Y-105178897D01*
X219838047Y-105092047D01*
X219924897Y-104976027D01*
X219924901Y-104976020D01*
X219975544Y-104840243D01*
X219975547Y-104840233D01*
X219981999Y-104780214D01*
X219982000Y-104780203D01*
X219982000Y-104755215D01*
X220987001Y-104755215D01*
X220993453Y-104815236D01*
X220993454Y-104815241D01*
X221044098Y-104951020D01*
X221044102Y-104951027D01*
X221130952Y-105067047D01*
X221246972Y-105153897D01*
X221246979Y-105153901D01*
X221382756Y-105204544D01*
X221382766Y-105204547D01*
X221442790Y-105210999D01*
X221549500Y-105210999D01*
X222057500Y-105210999D01*
X222164200Y-105210999D01*
X222164215Y-105210998D01*
X222224236Y-105204546D01*
X222224241Y-105204545D01*
X222360020Y-105153901D01*
X222360027Y-105153897D01*
X222476047Y-105067047D01*
X222562897Y-104951027D01*
X222562901Y-104951020D01*
X222613544Y-104815243D01*
X222613547Y-104815233D01*
X222619999Y-104755214D01*
X222620000Y-104755203D01*
X222620000Y-103886000D01*
X222057500Y-103886000D01*
X222057500Y-105210999D01*
X221549500Y-105210999D01*
X221549500Y-103886000D01*
X220987001Y-103886000D01*
X220987001Y-104755215D01*
X219982000Y-104755215D01*
X219982000Y-103886000D01*
X219407000Y-103886000D01*
X219407000Y-105235999D01*
X218899000Y-105235999D01*
X218899000Y-103886000D01*
X218324001Y-103886000D01*
X218324001Y-104780215D01*
X217932000Y-104780215D01*
X217932000Y-102483785D01*
X218324000Y-102483785D01*
X218324000Y-103378000D01*
X218899000Y-103378000D01*
X219407000Y-103378000D01*
X219981999Y-103378000D01*
X219981999Y-102508785D01*
X220987000Y-102508785D01*
X220987000Y-103378000D01*
X221549500Y-103378000D01*
X222057500Y-103378000D01*
X222619999Y-103378000D01*
X222619999Y-102508799D01*
X222619998Y-102508784D01*
X222613546Y-102448763D01*
X222613545Y-102448758D01*
X222562901Y-102312979D01*
X222562897Y-102312972D01*
X222476047Y-102196952D01*
X222360027Y-102110102D01*
X222360020Y-102110098D01*
X222224243Y-102059455D01*
X222224233Y-102059452D01*
X222164214Y-102053000D01*
X222057500Y-102053000D01*
X222057500Y-103378000D01*
X221549500Y-103378000D01*
X221549500Y-102053000D01*
X221442799Y-102053000D01*
X221442784Y-102053001D01*
X221382763Y-102059453D01*
X221382758Y-102059454D01*
X221246979Y-102110098D01*
X221246972Y-102110102D01*
X221130952Y-102196952D01*
X221044102Y-102312972D01*
X221044098Y-102312979D01*
X220993455Y-102448756D01*
X220993452Y-102448766D01*
X220987000Y-102508785D01*
X219981999Y-102508785D01*
X219981999Y-102483799D01*
X219981998Y-102483784D01*
X219975546Y-102423763D01*
X219975545Y-102423758D01*
X219924901Y-102287979D01*
X219924897Y-102287972D01*
X219838047Y-102171952D01*
X219722027Y-102085102D01*
X219722020Y-102085098D01*
X219586243Y-102034455D01*
X219586233Y-102034452D01*
X219526214Y-102028000D01*
X219407000Y-102028000D01*
X219407000Y-103378000D01*
X218899000Y-103378000D01*
X218899000Y-102028000D01*
X218779799Y-102028000D01*
X218779784Y-102028001D01*
X218719763Y-102034453D01*
X218719758Y-102034454D01*
X218583979Y-102085098D01*
X218583972Y-102085102D01*
X218467952Y-102171952D01*
X218381102Y-102287972D01*
X218381098Y-102287979D01*
X218330455Y-102423756D01*
X218330452Y-102423766D01*
X218324000Y-102483785D01*
X217932000Y-102483785D01*
X217932000Y-100716215D01*
X218324001Y-100716215D01*
X218330453Y-100776236D01*
X218330454Y-100776241D01*
X218381098Y-100912020D01*
X218381102Y-100912027D01*
X218467952Y-101028047D01*
X218583972Y-101114897D01*
X218583979Y-101114901D01*
X218719756Y-101165544D01*
X218719766Y-101165547D01*
X218779790Y-101171999D01*
X218899000Y-101171999D01*
X219407000Y-101171999D01*
X219526200Y-101171999D01*
X219526215Y-101171998D01*
X219586236Y-101165546D01*
X219586241Y-101165545D01*
X219722020Y-101114901D01*
X219722027Y-101114897D01*
X219838047Y-101028047D01*
X219924897Y-100912027D01*
X219924901Y-100912020D01*
X219975544Y-100776243D01*
X219975547Y-100776233D01*
X219981999Y-100716214D01*
X219982000Y-100716203D01*
X219982000Y-100691215D01*
X220987001Y-100691215D01*
X220993453Y-100751236D01*
X220993454Y-100751241D01*
X221044098Y-100887020D01*
X221044102Y-100887027D01*
X221130952Y-101003047D01*
X221246972Y-101089897D01*
X221246979Y-101089901D01*
X221382756Y-101140544D01*
X221382766Y-101140547D01*
X221442790Y-101146999D01*
X221549500Y-101146999D01*
X222057500Y-101146999D01*
X222164200Y-101146999D01*
X222164215Y-101146998D01*
X222224236Y-101140546D01*
X222224241Y-101140545D01*
X222360020Y-101089901D01*
X222360027Y-101089897D01*
X222476047Y-101003047D01*
X222562897Y-100887027D01*
X222562901Y-100887020D01*
X222613544Y-100751243D01*
X222613547Y-100751233D01*
X222619999Y-100691214D01*
X222620000Y-100691203D01*
X222620000Y-99822000D01*
X222057500Y-99822000D01*
X222057500Y-101146999D01*
X221549500Y-101146999D01*
X221549500Y-99822000D01*
X220987001Y-99822000D01*
X220987001Y-100691215D01*
X219982000Y-100691215D01*
X219982000Y-99822000D01*
X219407000Y-99822000D01*
X219407000Y-101171999D01*
X218899000Y-101171999D01*
X218899000Y-99822000D01*
X218324001Y-99822000D01*
X218324001Y-100716215D01*
X217932000Y-100716215D01*
X217932000Y-98419785D01*
X218324000Y-98419785D01*
X218324000Y-99314000D01*
X218899000Y-99314000D01*
X219407000Y-99314000D01*
X219981999Y-99314000D01*
X219981999Y-98444785D01*
X220987000Y-98444785D01*
X220987000Y-99314000D01*
X221549500Y-99314000D01*
X222057500Y-99314000D01*
X222619999Y-99314000D01*
X222619999Y-98444799D01*
X222619998Y-98444784D01*
X222613546Y-98384763D01*
X222613545Y-98384758D01*
X222562901Y-98248979D01*
X222562897Y-98248972D01*
X222476047Y-98132952D01*
X222360027Y-98046102D01*
X222360020Y-98046098D01*
X222224243Y-97995455D01*
X222224233Y-97995452D01*
X222164214Y-97989000D01*
X222057500Y-97989000D01*
X222057500Y-99314000D01*
X221549500Y-99314000D01*
X221549500Y-97989000D01*
X221442799Y-97989000D01*
X221442784Y-97989001D01*
X221382763Y-97995453D01*
X221382758Y-97995454D01*
X221246979Y-98046098D01*
X221246972Y-98046102D01*
X221130952Y-98132952D01*
X221044102Y-98248972D01*
X221044098Y-98248979D01*
X220993455Y-98384756D01*
X220993452Y-98384766D01*
X220987000Y-98444785D01*
X219981999Y-98444785D01*
X219981999Y-98419799D01*
X219981998Y-98419784D01*
X219975546Y-98359763D01*
X219975545Y-98359758D01*
X219924901Y-98223979D01*
X219924897Y-98223972D01*
X219838047Y-98107952D01*
X219722027Y-98021102D01*
X219722020Y-98021098D01*
X219586243Y-97970455D01*
X219586233Y-97970452D01*
X219526214Y-97964000D01*
X219407000Y-97964000D01*
X219407000Y-99314000D01*
X218899000Y-99314000D01*
X218899000Y-97964000D01*
X218779799Y-97964000D01*
X218779784Y-97964001D01*
X218719763Y-97970453D01*
X218719758Y-97970454D01*
X218583979Y-98021098D01*
X218583972Y-98021102D01*
X218467952Y-98107952D01*
X218381102Y-98223972D01*
X218381098Y-98223979D01*
X218330455Y-98359756D01*
X218330452Y-98359766D01*
X218324000Y-98419785D01*
X217932000Y-98419785D01*
X217932000Y-96652215D01*
X218324001Y-96652215D01*
X218330453Y-96712236D01*
X218330454Y-96712241D01*
X218381098Y-96848020D01*
X218381102Y-96848027D01*
X218467952Y-96964047D01*
X218583972Y-97050897D01*
X218583979Y-97050901D01*
X218719756Y-97101544D01*
X218719766Y-97101547D01*
X218779790Y-97107999D01*
X218899000Y-97107999D01*
X219407000Y-97107999D01*
X219526200Y-97107999D01*
X219526215Y-97107998D01*
X219586236Y-97101546D01*
X219586241Y-97101545D01*
X219722020Y-97050901D01*
X219722027Y-97050897D01*
X219838047Y-96964047D01*
X219924897Y-96848027D01*
X219924901Y-96848020D01*
X219975544Y-96712243D01*
X219975547Y-96712233D01*
X219981999Y-96652214D01*
X219982000Y-96652203D01*
X219982000Y-96627215D01*
X220987001Y-96627215D01*
X220993453Y-96687236D01*
X220993454Y-96687241D01*
X221044098Y-96823020D01*
X221044102Y-96823027D01*
X221130952Y-96939047D01*
X221246972Y-97025897D01*
X221246979Y-97025901D01*
X221382756Y-97076544D01*
X221382766Y-97076547D01*
X221442790Y-97082999D01*
X221549500Y-97082999D01*
X222057500Y-97082999D01*
X222164200Y-97082999D01*
X222164215Y-97082998D01*
X222224236Y-97076546D01*
X222224241Y-97076545D01*
X222360020Y-97025901D01*
X222360027Y-97025897D01*
X222476047Y-96939047D01*
X222562897Y-96823027D01*
X222562901Y-96823020D01*
X222613544Y-96687243D01*
X222613547Y-96687233D01*
X222619999Y-96627214D01*
X222620000Y-96627203D01*
X222620000Y-95758000D01*
X222057500Y-95758000D01*
X222057500Y-97082999D01*
X221549500Y-97082999D01*
X221549500Y-95758000D01*
X220987001Y-95758000D01*
X220987001Y-96627215D01*
X219982000Y-96627215D01*
X219982000Y-95758000D01*
X219407000Y-95758000D01*
X219407000Y-97107999D01*
X218899000Y-97107999D01*
X218899000Y-95758000D01*
X218324001Y-95758000D01*
X218324001Y-96652215D01*
X217932000Y-96652215D01*
X217932000Y-94355785D01*
X218324000Y-94355785D01*
X218324000Y-95250000D01*
X218899000Y-95250000D01*
X219407000Y-95250000D01*
X219981999Y-95250000D01*
X219981999Y-94380785D01*
X220987000Y-94380785D01*
X220987000Y-95250000D01*
X221549500Y-95250000D01*
X222057500Y-95250000D01*
X222619999Y-95250000D01*
X222619999Y-94380799D01*
X222619998Y-94380784D01*
X222613546Y-94320763D01*
X222613545Y-94320758D01*
X222562901Y-94184979D01*
X222562897Y-94184972D01*
X222476047Y-94068952D01*
X222360027Y-93982102D01*
X222360020Y-93982098D01*
X222224243Y-93931455D01*
X222224233Y-93931452D01*
X222164214Y-93925000D01*
X222057500Y-93925000D01*
X222057500Y-95250000D01*
X221549500Y-95250000D01*
X221549500Y-93925000D01*
X221442799Y-93925000D01*
X221442784Y-93925001D01*
X221382763Y-93931453D01*
X221382758Y-93931454D01*
X221246979Y-93982098D01*
X221246972Y-93982102D01*
X221130952Y-94068952D01*
X221044102Y-94184972D01*
X221044098Y-94184979D01*
X220993455Y-94320756D01*
X220993452Y-94320766D01*
X220987000Y-94380785D01*
X219981999Y-94380785D01*
X219981999Y-94355799D01*
X219981998Y-94355784D01*
X219975546Y-94295763D01*
X219975545Y-94295758D01*
X219924901Y-94159979D01*
X219924897Y-94159972D01*
X219838047Y-94043952D01*
X219722027Y-93957102D01*
X219722020Y-93957098D01*
X219586243Y-93906455D01*
X219586233Y-93906452D01*
X219526214Y-93900000D01*
X219407000Y-93900000D01*
X219407000Y-95250000D01*
X218899000Y-95250000D01*
X218899000Y-93900000D01*
X218779799Y-93900000D01*
X218779784Y-93900001D01*
X218719763Y-93906453D01*
X218719758Y-93906454D01*
X218583979Y-93957098D01*
X218583972Y-93957102D01*
X218467952Y-94043952D01*
X218381102Y-94159972D01*
X218381098Y-94159979D01*
X218330455Y-94295756D01*
X218330452Y-94295766D01*
X218324000Y-94355785D01*
X217932000Y-94355785D01*
X217932000Y-92588215D01*
X218324001Y-92588215D01*
X218330453Y-92648236D01*
X218330454Y-92648241D01*
X218381098Y-92784020D01*
X218381102Y-92784027D01*
X218467952Y-92900047D01*
X218583972Y-92986897D01*
X218583979Y-92986901D01*
X218719756Y-93037544D01*
X218719766Y-93037547D01*
X218779790Y-93043999D01*
X218899000Y-93043999D01*
X219407000Y-93043999D01*
X219526200Y-93043999D01*
X219526215Y-93043998D01*
X219586236Y-93037546D01*
X219586241Y-93037545D01*
X219722020Y-92986901D01*
X219722027Y-92986897D01*
X219838047Y-92900047D01*
X219924897Y-92784027D01*
X219924901Y-92784020D01*
X219975544Y-92648243D01*
X219975547Y-92648233D01*
X219981999Y-92588214D01*
X219982000Y-92588203D01*
X219982000Y-92563215D01*
X220987001Y-92563215D01*
X220993453Y-92623236D01*
X220993454Y-92623241D01*
X221044098Y-92759020D01*
X221044102Y-92759027D01*
X221130952Y-92875047D01*
X221246972Y-92961897D01*
X221246979Y-92961901D01*
X221382756Y-93012544D01*
X221382766Y-93012547D01*
X221442790Y-93018999D01*
X221549500Y-93018999D01*
X222057500Y-93018999D01*
X222164200Y-93018999D01*
X222164215Y-93018998D01*
X222224236Y-93012546D01*
X222224241Y-93012545D01*
X222360020Y-92961901D01*
X222360027Y-92961897D01*
X222476047Y-92875047D01*
X222562897Y-92759027D01*
X222562901Y-92759020D01*
X222613544Y-92623243D01*
X222613547Y-92623233D01*
X222619999Y-92563214D01*
X222620000Y-92563203D01*
X222620000Y-91694000D01*
X222057500Y-91694000D01*
X222057500Y-93018999D01*
X221549500Y-93018999D01*
X221549500Y-91694000D01*
X220987001Y-91694000D01*
X220987001Y-92563215D01*
X219982000Y-92563215D01*
X219982000Y-91694000D01*
X219407000Y-91694000D01*
X219407000Y-93043999D01*
X218899000Y-93043999D01*
X218899000Y-91694000D01*
X218324001Y-91694000D01*
X218324001Y-92588215D01*
X217932000Y-92588215D01*
X217932000Y-90291785D01*
X218324000Y-90291785D01*
X218324000Y-91186000D01*
X218899000Y-91186000D01*
X219407000Y-91186000D01*
X219981999Y-91186000D01*
X219981999Y-90316785D01*
X220987000Y-90316785D01*
X220987000Y-91186000D01*
X221549500Y-91186000D01*
X222057500Y-91186000D01*
X222619999Y-91186000D01*
X222619999Y-90316799D01*
X222619998Y-90316784D01*
X222613546Y-90256763D01*
X222613545Y-90256758D01*
X222562901Y-90120979D01*
X222562897Y-90120972D01*
X222476047Y-90004952D01*
X222360027Y-89918102D01*
X222360020Y-89918098D01*
X222224243Y-89867455D01*
X222224233Y-89867452D01*
X222164214Y-89861000D01*
X222057500Y-89861000D01*
X222057500Y-91186000D01*
X221549500Y-91186000D01*
X221549500Y-89861000D01*
X221442799Y-89861000D01*
X221442784Y-89861001D01*
X221382763Y-89867453D01*
X221382758Y-89867454D01*
X221246979Y-89918098D01*
X221246972Y-89918102D01*
X221130952Y-90004952D01*
X221044102Y-90120972D01*
X221044098Y-90120979D01*
X220993455Y-90256756D01*
X220993452Y-90256766D01*
X220987000Y-90316785D01*
X219981999Y-90316785D01*
X219981999Y-90291799D01*
X219981998Y-90291784D01*
X219975546Y-90231763D01*
X219975545Y-90231758D01*
X219924901Y-90095979D01*
X219924897Y-90095972D01*
X219838047Y-89979952D01*
X219722027Y-89893102D01*
X219722020Y-89893098D01*
X219586243Y-89842455D01*
X219586233Y-89842452D01*
X219526214Y-89836000D01*
X219407000Y-89836000D01*
X219407000Y-91186000D01*
X218899000Y-91186000D01*
X218899000Y-89836000D01*
X218779799Y-89836000D01*
X218779784Y-89836001D01*
X218719763Y-89842453D01*
X218719758Y-89842454D01*
X218583979Y-89893098D01*
X218583972Y-89893102D01*
X218467952Y-89979952D01*
X218381102Y-90095972D01*
X218381098Y-90095979D01*
X218330455Y-90231756D01*
X218330452Y-90231766D01*
X218324000Y-90291785D01*
X217932000Y-90291785D01*
X217932000Y-89483200D01*
X217949593Y-89434862D01*
X217994142Y-89409142D01*
X218007200Y-89408000D01*
X222936800Y-89408000D01*
X222985138Y-89425593D01*
G37*
%TD.AperFunction*%
%TD*%
%TA.AperFunction,Conductor*%
%TO.N,+12V*%
G36*
X164692138Y-92981593D02*
G01*
X164717858Y-93026142D01*
X164719000Y-93039200D01*
X164719000Y-98806000D01*
X167437800Y-98806000D01*
X167486138Y-98823593D01*
X167511858Y-98868142D01*
X167513000Y-98881200D01*
X167513000Y-103810800D01*
X167495407Y-103859138D01*
X167450858Y-103884858D01*
X167437800Y-103886000D01*
X166116000Y-103886000D01*
X166116000Y-106604800D01*
X166098407Y-106653138D01*
X166053858Y-106678858D01*
X166040800Y-106680000D01*
X164243200Y-106680000D01*
X164194862Y-106662407D01*
X164169142Y-106617858D01*
X164168000Y-106604800D01*
X164168000Y-106209500D01*
X164520444Y-106209500D01*
X164521831Y-106220041D01*
X164521833Y-106220047D01*
X164571049Y-106325593D01*
X164571054Y-106325600D01*
X164653399Y-106407945D01*
X164653406Y-106407950D01*
X164758955Y-106457167D01*
X164807052Y-106463499D01*
X165061500Y-106463499D01*
X165366500Y-106463499D01*
X165620945Y-106463499D01*
X165669045Y-106457167D01*
X165774593Y-106407950D01*
X165774600Y-106407945D01*
X165856945Y-106325600D01*
X165856950Y-106325593D01*
X165906166Y-106220047D01*
X165906168Y-106220041D01*
X165907556Y-106209500D01*
X165366500Y-106209500D01*
X165366500Y-106463499D01*
X165061500Y-106463499D01*
X165061500Y-106209500D01*
X164520444Y-106209500D01*
X164168000Y-106209500D01*
X164168000Y-105904500D01*
X164520444Y-105904500D01*
X165061500Y-105904500D01*
X165366500Y-105904500D01*
X165907555Y-105904500D01*
X165906168Y-105893958D01*
X165906166Y-105893952D01*
X165856950Y-105788406D01*
X165856945Y-105788399D01*
X165774600Y-105706054D01*
X165774593Y-105706049D01*
X165669044Y-105656832D01*
X165620947Y-105650500D01*
X165366500Y-105650500D01*
X165366500Y-105904500D01*
X165061500Y-105904500D01*
X165061500Y-105650500D01*
X164807053Y-105650500D01*
X164758954Y-105656832D01*
X164653406Y-105706049D01*
X164653399Y-105706054D01*
X164571054Y-105788399D01*
X164571049Y-105788406D01*
X164521833Y-105893952D01*
X164521831Y-105893958D01*
X164520444Y-105904500D01*
X164168000Y-105904500D01*
X164168000Y-105209500D01*
X164520444Y-105209500D01*
X164521831Y-105220041D01*
X164521833Y-105220047D01*
X164571049Y-105325593D01*
X164571054Y-105325600D01*
X164653399Y-105407945D01*
X164653406Y-105407950D01*
X164758955Y-105457167D01*
X164807052Y-105463499D01*
X165061500Y-105463499D01*
X165366500Y-105463499D01*
X165620945Y-105463499D01*
X165669045Y-105457167D01*
X165774593Y-105407950D01*
X165774600Y-105407945D01*
X165856945Y-105325600D01*
X165856950Y-105325593D01*
X165906166Y-105220047D01*
X165906168Y-105220041D01*
X165907556Y-105209500D01*
X165366500Y-105209500D01*
X165366500Y-105463499D01*
X165061500Y-105463499D01*
X165061500Y-105209500D01*
X164520444Y-105209500D01*
X164168000Y-105209500D01*
X164168000Y-104904500D01*
X164520444Y-104904500D01*
X165061500Y-104904500D01*
X165366500Y-104904500D01*
X165907555Y-104904500D01*
X165906168Y-104893958D01*
X165906166Y-104893952D01*
X165856950Y-104788406D01*
X165856945Y-104788399D01*
X165774600Y-104706054D01*
X165774593Y-104706049D01*
X165669044Y-104656832D01*
X165620947Y-104650500D01*
X165366500Y-104650500D01*
X165366500Y-104904500D01*
X165061500Y-104904500D01*
X165061500Y-104650500D01*
X164807053Y-104650500D01*
X164758954Y-104656832D01*
X164653406Y-104706049D01*
X164653399Y-104706054D01*
X164571054Y-104788399D01*
X164571049Y-104788406D01*
X164521833Y-104893952D01*
X164521831Y-104893958D01*
X164520444Y-104904500D01*
X164168000Y-104904500D01*
X164168000Y-104902000D01*
X161860001Y-104902000D01*
X161860001Y-106604800D01*
X161842408Y-106653138D01*
X161797859Y-106678858D01*
X161784801Y-106680000D01*
X161111200Y-106680000D01*
X161062862Y-106662407D01*
X161037142Y-106617858D01*
X161036000Y-106604800D01*
X161036000Y-102022785D01*
X161860000Y-102022785D01*
X161860000Y-104140000D01*
X162633000Y-104140000D01*
X163395000Y-104140000D01*
X164167999Y-104140000D01*
X164167999Y-103148017D01*
X165464001Y-103148017D01*
X165478737Y-103222105D01*
X165534876Y-103306124D01*
X165618894Y-103362262D01*
X165618896Y-103362263D01*
X165692982Y-103376999D01*
X165937000Y-103376999D01*
X166699000Y-103376999D01*
X166943016Y-103376999D01*
X166943017Y-103376998D01*
X167017105Y-103362262D01*
X167101124Y-103306123D01*
X167157262Y-103222105D01*
X167157263Y-103222103D01*
X167172000Y-103148017D01*
X167172000Y-101854000D01*
X166699000Y-101854000D01*
X166699000Y-103376999D01*
X165937000Y-103376999D01*
X165937000Y-101854000D01*
X165464001Y-101854000D01*
X165464001Y-103148017D01*
X164167999Y-103148017D01*
X164167999Y-102022799D01*
X164167998Y-102022784D01*
X164161546Y-101962763D01*
X164161546Y-101962761D01*
X164119163Y-101849132D01*
X164119162Y-101849131D01*
X164119162Y-101849130D01*
X164110898Y-101826975D01*
X164110897Y-101826972D01*
X164024047Y-101710952D01*
X163908027Y-101624102D01*
X163908020Y-101624098D01*
X163772243Y-101573455D01*
X163772233Y-101573452D01*
X163712214Y-101567000D01*
X163395000Y-101567000D01*
X163395000Y-104140000D01*
X162633000Y-104140000D01*
X162633000Y-101567000D01*
X162315799Y-101567000D01*
X162315784Y-101567001D01*
X162255763Y-101573453D01*
X162255758Y-101573454D01*
X162119979Y-101624098D01*
X162119972Y-101624102D01*
X162003952Y-101710952D01*
X161917102Y-101826972D01*
X161917098Y-101826979D01*
X161866455Y-101962756D01*
X161866452Y-101962766D01*
X161860000Y-102022785D01*
X161036000Y-102022785D01*
X161036000Y-100796215D01*
X161860001Y-100796215D01*
X161866453Y-100856236D01*
X161866454Y-100856241D01*
X161917098Y-100992020D01*
X161917102Y-100992027D01*
X162003952Y-101108047D01*
X162119972Y-101194897D01*
X162119979Y-101194901D01*
X162255756Y-101245544D01*
X162255766Y-101245547D01*
X162315791Y-101251999D01*
X162633000Y-101251999D01*
X163395000Y-101251999D01*
X163712200Y-101251999D01*
X163712215Y-101251998D01*
X163772236Y-101245546D01*
X163772241Y-101245545D01*
X163908020Y-101194901D01*
X163908027Y-101194897D01*
X164024047Y-101108047D01*
X164110897Y-100992027D01*
X164110901Y-100992020D01*
X164161544Y-100856243D01*
X164161547Y-100856233D01*
X164167999Y-100796214D01*
X164168000Y-100796203D01*
X164168000Y-99797982D01*
X165464000Y-99797982D01*
X165464000Y-101092000D01*
X165937000Y-101092000D01*
X166699000Y-101092000D01*
X167171999Y-101092000D01*
X167171999Y-99797984D01*
X167171998Y-99797982D01*
X167157262Y-99723894D01*
X167101123Y-99639875D01*
X167017105Y-99583737D01*
X167017103Y-99583736D01*
X166943018Y-99569000D01*
X166699000Y-99569000D01*
X166699000Y-101092000D01*
X165937000Y-101092000D01*
X165937000Y-99569000D01*
X165692984Y-99569000D01*
X165692982Y-99569001D01*
X165618894Y-99583737D01*
X165534875Y-99639876D01*
X165478737Y-99723894D01*
X165478736Y-99723896D01*
X165464000Y-99797982D01*
X164168000Y-99797982D01*
X164168000Y-98679000D01*
X163395000Y-98679000D01*
X163395000Y-101251999D01*
X162633000Y-101251999D01*
X162633000Y-98679000D01*
X161860001Y-98679000D01*
X161860001Y-100796215D01*
X161036000Y-100796215D01*
X161036000Y-95799785D01*
X161860000Y-95799785D01*
X161860000Y-97917000D01*
X162633000Y-97917000D01*
X163395000Y-97917000D01*
X164167999Y-97917000D01*
X164167999Y-95799799D01*
X164167998Y-95799784D01*
X164161546Y-95739763D01*
X164161545Y-95739758D01*
X164110901Y-95603979D01*
X164110897Y-95603972D01*
X164024047Y-95487952D01*
X163908027Y-95401102D01*
X163908020Y-95401098D01*
X163772243Y-95350455D01*
X163772233Y-95350452D01*
X163712214Y-95344000D01*
X163395000Y-95344000D01*
X163395000Y-97917000D01*
X162633000Y-97917000D01*
X162633000Y-95344000D01*
X162315799Y-95344000D01*
X162315784Y-95344001D01*
X162255763Y-95350453D01*
X162255758Y-95350454D01*
X162119979Y-95401098D01*
X162119972Y-95401102D01*
X162003952Y-95487952D01*
X161917102Y-95603972D01*
X161917098Y-95603979D01*
X161866455Y-95739756D01*
X161866452Y-95739766D01*
X161860000Y-95799785D01*
X161036000Y-95799785D01*
X161036000Y-94615000D01*
X161036000Y-92964000D01*
X162814000Y-92964000D01*
X164643800Y-92964000D01*
X164692138Y-92981593D01*
G37*
%TD.AperFunction*%
%TD*%
%TA.AperFunction,Conductor*%
%TO.N,+12V*%
G36*
X162787138Y-86377593D02*
G01*
X162812858Y-86422142D01*
X162814000Y-86435200D01*
X162814000Y-92964000D01*
X161036000Y-92964000D01*
X161036000Y-86360000D01*
X162738800Y-86360000D01*
X162787138Y-86377593D01*
G37*
%TD.AperFunction*%
%TD*%
%TA.AperFunction,Conductor*%
%TO.N,/SW*%
G36*
X173836138Y-95775593D02*
G01*
X173861858Y-95820142D01*
X173863000Y-95833200D01*
X173863000Y-99238800D01*
X173845407Y-99287138D01*
X173800858Y-99312858D01*
X173787800Y-99314000D01*
X170561000Y-99314000D01*
X170561000Y-106587945D01*
X170557772Y-106596813D01*
X170558751Y-106606198D01*
X170549226Y-106620293D01*
X170543407Y-106636283D01*
X170534531Y-106642041D01*
X170529951Y-106648820D01*
X170507864Y-106659343D01*
X170506468Y-106660249D01*
X170505835Y-106660429D01*
X170458271Y-106673175D01*
X170455350Y-106674860D01*
X170447504Y-106677104D01*
X170442996Y-106676785D01*
X170426836Y-106680000D01*
X168604200Y-106680000D01*
X168555862Y-106662407D01*
X168530142Y-106617858D01*
X168529000Y-106604800D01*
X168529000Y-106209500D01*
X168731444Y-106209500D01*
X168732831Y-106220041D01*
X168732833Y-106220047D01*
X168782049Y-106325593D01*
X168782054Y-106325600D01*
X168864399Y-106407945D01*
X168864406Y-106407950D01*
X168969955Y-106457167D01*
X169018052Y-106463499D01*
X169272500Y-106463499D01*
X169577500Y-106463499D01*
X169831945Y-106463499D01*
X169880045Y-106457167D01*
X169985593Y-106407950D01*
X169985600Y-106407945D01*
X170067945Y-106325600D01*
X170067950Y-106325593D01*
X170117166Y-106220047D01*
X170117168Y-106220041D01*
X170118556Y-106209500D01*
X169577500Y-106209500D01*
X169577500Y-106463499D01*
X169272500Y-106463499D01*
X169272500Y-106209500D01*
X168731444Y-106209500D01*
X168529000Y-106209500D01*
X168529000Y-105904500D01*
X168731444Y-105904500D01*
X169272500Y-105904500D01*
X169577500Y-105904500D01*
X170118555Y-105904500D01*
X170117168Y-105893958D01*
X170117166Y-105893952D01*
X170067950Y-105788406D01*
X170067945Y-105788399D01*
X169985600Y-105706054D01*
X169985593Y-105706049D01*
X169880044Y-105656832D01*
X169831947Y-105650500D01*
X169577500Y-105650500D01*
X169577500Y-105904500D01*
X169272500Y-105904500D01*
X169272500Y-105650500D01*
X169018053Y-105650500D01*
X168969954Y-105656832D01*
X168864406Y-105706049D01*
X168864399Y-105706054D01*
X168782054Y-105788399D01*
X168782049Y-105788406D01*
X168732833Y-105893952D01*
X168732831Y-105893958D01*
X168731444Y-105904500D01*
X168529000Y-105904500D01*
X168529000Y-105209500D01*
X168731444Y-105209500D01*
X168732831Y-105220041D01*
X168732833Y-105220047D01*
X168782049Y-105325593D01*
X168782054Y-105325600D01*
X168864399Y-105407945D01*
X168864406Y-105407950D01*
X168969955Y-105457167D01*
X169018052Y-105463499D01*
X169272500Y-105463499D01*
X169577500Y-105463499D01*
X169831945Y-105463499D01*
X169880045Y-105457167D01*
X169985593Y-105407950D01*
X169985600Y-105407945D01*
X170067945Y-105325600D01*
X170067950Y-105325593D01*
X170117166Y-105220047D01*
X170117168Y-105220041D01*
X170118556Y-105209500D01*
X169577500Y-105209500D01*
X169577500Y-105463499D01*
X169272500Y-105463499D01*
X169272500Y-105209500D01*
X168731444Y-105209500D01*
X168529000Y-105209500D01*
X168529000Y-104904500D01*
X168731444Y-104904500D01*
X169272500Y-104904500D01*
X169577500Y-104904500D01*
X170118555Y-104904500D01*
X170117168Y-104893958D01*
X170117166Y-104893952D01*
X170067950Y-104788406D01*
X170067945Y-104788399D01*
X169985600Y-104706054D01*
X169985593Y-104706049D01*
X169880044Y-104656832D01*
X169831947Y-104650500D01*
X169577500Y-104650500D01*
X169577500Y-104904500D01*
X169272500Y-104904500D01*
X169272500Y-104650500D01*
X169018053Y-104650500D01*
X168969954Y-104656832D01*
X168864406Y-104706049D01*
X168864399Y-104706054D01*
X168782054Y-104788399D01*
X168782049Y-104788406D01*
X168732833Y-104893952D01*
X168732831Y-104893958D01*
X168731444Y-104904500D01*
X168529000Y-104904500D01*
X168529000Y-104140000D01*
X168096200Y-104140000D01*
X168047862Y-104122407D01*
X168022142Y-104077858D01*
X168021000Y-104064800D01*
X168021000Y-103148017D01*
X168564001Y-103148017D01*
X168578737Y-103222105D01*
X168634876Y-103306124D01*
X168718894Y-103362262D01*
X168718896Y-103362263D01*
X168792982Y-103376999D01*
X169037000Y-103376999D01*
X169799000Y-103376999D01*
X170043016Y-103376999D01*
X170043017Y-103376998D01*
X170117105Y-103362262D01*
X170201124Y-103306123D01*
X170257262Y-103222105D01*
X170257263Y-103222103D01*
X170272000Y-103148017D01*
X170272000Y-101854000D01*
X169799000Y-101854000D01*
X169799000Y-103376999D01*
X169037000Y-103376999D01*
X169037000Y-101854000D01*
X168564001Y-101854000D01*
X168564001Y-103148017D01*
X168021000Y-103148017D01*
X168021000Y-99797982D01*
X168564000Y-99797982D01*
X168564000Y-101092000D01*
X169037000Y-101092000D01*
X169799000Y-101092000D01*
X170271999Y-101092000D01*
X170271999Y-99797984D01*
X170271998Y-99797982D01*
X170257262Y-99723894D01*
X170201123Y-99639875D01*
X170117105Y-99583737D01*
X170117103Y-99583736D01*
X170043018Y-99569000D01*
X169799000Y-99569000D01*
X169799000Y-101092000D01*
X169037000Y-101092000D01*
X169037000Y-99569000D01*
X168792984Y-99569000D01*
X168792982Y-99569001D01*
X168718894Y-99583737D01*
X168634875Y-99639876D01*
X168578737Y-99723894D01*
X168578736Y-99723896D01*
X168564000Y-99797982D01*
X168021000Y-99797982D01*
X168021000Y-98684215D01*
X171862001Y-98684215D01*
X171868453Y-98744236D01*
X171868454Y-98744241D01*
X171919098Y-98880020D01*
X171919102Y-98880027D01*
X172005952Y-98996047D01*
X172121972Y-99082897D01*
X172121979Y-99082901D01*
X172257758Y-99133545D01*
X172257763Y-99133546D01*
X172309999Y-99139161D01*
X172310000Y-99139161D01*
X173072000Y-99139161D01*
X173124229Y-99133548D01*
X173124241Y-99133545D01*
X173260020Y-99082901D01*
X173260027Y-99082897D01*
X173376047Y-98996047D01*
X173462897Y-98880027D01*
X173462901Y-98880020D01*
X173513544Y-98744243D01*
X173513547Y-98744233D01*
X173519999Y-98684214D01*
X173520000Y-98684203D01*
X173520000Y-97917000D01*
X173072000Y-97917000D01*
X173072000Y-99139161D01*
X172310000Y-99139161D01*
X172310000Y-97917000D01*
X171862001Y-97917000D01*
X171862001Y-98684215D01*
X168021000Y-98684215D01*
X168021000Y-97917000D01*
X168420212Y-97917000D01*
X168420451Y-97919229D01*
X168471102Y-98055026D01*
X168471102Y-98055027D01*
X168557952Y-98171047D01*
X168673972Y-98257897D01*
X168673979Y-98257901D01*
X168809756Y-98308544D01*
X168809766Y-98308547D01*
X168869790Y-98314999D01*
X169037000Y-98314999D01*
X169799000Y-98314999D01*
X169966200Y-98314999D01*
X169966215Y-98314998D01*
X170026236Y-98308546D01*
X170026241Y-98308545D01*
X170162020Y-98257901D01*
X170162027Y-98257897D01*
X170278047Y-98171047D01*
X170364897Y-98055027D01*
X170364897Y-98055026D01*
X170415548Y-97919229D01*
X170415787Y-97917001D01*
X170415786Y-97917000D01*
X169799000Y-97917000D01*
X169799000Y-98314999D01*
X169037000Y-98314999D01*
X169037000Y-97917000D01*
X168420212Y-97917000D01*
X168021000Y-97917000D01*
X168021000Y-97357200D01*
X168038593Y-97308862D01*
X168083142Y-97283142D01*
X168096200Y-97282000D01*
X168332800Y-97282000D01*
X170815000Y-97282000D01*
X170815000Y-96387785D01*
X171862000Y-96387785D01*
X171862000Y-97155000D01*
X172310000Y-97155000D01*
X173072000Y-97155000D01*
X173519999Y-97155000D01*
X173519999Y-96387799D01*
X173519998Y-96387784D01*
X173513546Y-96327763D01*
X173513545Y-96327758D01*
X173462901Y-96191979D01*
X173462897Y-96191972D01*
X173376047Y-96075952D01*
X173260027Y-95989102D01*
X173124232Y-95938453D01*
X173124230Y-95938452D01*
X173072000Y-95932836D01*
X173072000Y-97155000D01*
X172310000Y-97155000D01*
X172310000Y-95932838D01*
X172257763Y-95938453D01*
X172257758Y-95938454D01*
X172121979Y-95989098D01*
X172121972Y-95989102D01*
X172005952Y-96075952D01*
X171919102Y-96191972D01*
X171919098Y-96191979D01*
X171868455Y-96327756D01*
X171868452Y-96327766D01*
X171862000Y-96387785D01*
X170815000Y-96387785D01*
X170815000Y-95833200D01*
X170832593Y-95784862D01*
X170877142Y-95759142D01*
X170890200Y-95758000D01*
X173787800Y-95758000D01*
X173836138Y-95775593D01*
G37*
%TD.AperFunction*%
%TD*%
%TA.AperFunction,Conductor*%
%TO.N,+VDC*%
G36*
X185420000Y-95885000D02*
G01*
X176731204Y-95885000D01*
X176682866Y-95867407D01*
X176657146Y-95822858D01*
X176656011Y-95810803D01*
X176651674Y-95485544D01*
X176650928Y-95429635D01*
X176667875Y-95381069D01*
X176712076Y-95354757D01*
X176762849Y-95363013D01*
X176771187Y-95368433D01*
X176859975Y-95434899D01*
X176859979Y-95434901D01*
X176995756Y-95485544D01*
X176995766Y-95485547D01*
X177055791Y-95491999D01*
X177927000Y-95491999D01*
X178181000Y-95491999D01*
X179052200Y-95491999D01*
X179052215Y-95491998D01*
X179112236Y-95485546D01*
X179112241Y-95485545D01*
X179248020Y-95434901D01*
X179248027Y-95434897D01*
X179364047Y-95348047D01*
X179450897Y-95232027D01*
X179450901Y-95232020D01*
X179501544Y-95096243D01*
X179501547Y-95096233D01*
X179507999Y-95036214D01*
X179508000Y-95036203D01*
X179508000Y-94615000D01*
X178181000Y-94615000D01*
X178181000Y-95491999D01*
X177927000Y-95491999D01*
X177927000Y-94361000D01*
X178181000Y-94361000D01*
X179507999Y-94361000D01*
X179507999Y-93939799D01*
X179507998Y-93939784D01*
X179501546Y-93879763D01*
X179501545Y-93879758D01*
X179450901Y-93743979D01*
X179450897Y-93743972D01*
X179364047Y-93627952D01*
X179248027Y-93541102D01*
X179248020Y-93541098D01*
X179112243Y-93490455D01*
X179112233Y-93490452D01*
X179052214Y-93484000D01*
X178181000Y-93484000D01*
X178181000Y-94361000D01*
X177927000Y-94361000D01*
X177927000Y-93484000D01*
X177055799Y-93484000D01*
X177055784Y-93484001D01*
X176995763Y-93490453D01*
X176995758Y-93490454D01*
X176859979Y-93541098D01*
X176859972Y-93541102D01*
X176746350Y-93626158D01*
X176697111Y-93641041D01*
X176649824Y-93620791D01*
X176626617Y-93574884D01*
X176626093Y-93566975D01*
X176607336Y-92160215D01*
X176910001Y-92160215D01*
X176916453Y-92220236D01*
X176916454Y-92220241D01*
X176967098Y-92356020D01*
X176967102Y-92356027D01*
X177053952Y-92472047D01*
X177169972Y-92558897D01*
X177169979Y-92558901D01*
X177305756Y-92609544D01*
X177305766Y-92609547D01*
X177365791Y-92615999D01*
X177937000Y-92615999D01*
X178191000Y-92615999D01*
X178762200Y-92615999D01*
X178762215Y-92615998D01*
X178822236Y-92609546D01*
X178822241Y-92609545D01*
X178958020Y-92558901D01*
X178958027Y-92558897D01*
X179074047Y-92472047D01*
X179160897Y-92356027D01*
X179160901Y-92356020D01*
X179211544Y-92220243D01*
X179211547Y-92220233D01*
X179217999Y-92160214D01*
X179218000Y-92160203D01*
X179218000Y-89789000D01*
X178191000Y-89789000D01*
X178191000Y-92615999D01*
X177937000Y-92615999D01*
X177937000Y-89789000D01*
X176910001Y-89789000D01*
X176910001Y-92160215D01*
X176607336Y-92160215D01*
X176569992Y-89359457D01*
X176540717Y-87163785D01*
X176910000Y-87163785D01*
X176910000Y-89535000D01*
X177937000Y-89535000D01*
X178191000Y-89535000D01*
X179217999Y-89535000D01*
X179217999Y-87163799D01*
X179217998Y-87163784D01*
X179211546Y-87103763D01*
X179211545Y-87103758D01*
X179160901Y-86967979D01*
X179160897Y-86967972D01*
X179074047Y-86851952D01*
X178958027Y-86765102D01*
X178958020Y-86765098D01*
X178822243Y-86714455D01*
X178822233Y-86714452D01*
X178762214Y-86708000D01*
X178191000Y-86708000D01*
X178191000Y-89535000D01*
X177937000Y-89535000D01*
X177937000Y-86708000D01*
X177365799Y-86708000D01*
X177365784Y-86708001D01*
X177305763Y-86714453D01*
X177305758Y-86714454D01*
X177169979Y-86765098D01*
X177169972Y-86765102D01*
X177053952Y-86851952D01*
X176967102Y-86967972D01*
X176967098Y-86967979D01*
X176916455Y-87103756D01*
X176916452Y-87103766D01*
X176910000Y-87163785D01*
X176540717Y-87163785D01*
X176540704Y-87162778D01*
X176531016Y-86436203D01*
X176547963Y-86387635D01*
X176592164Y-86361323D01*
X176606209Y-86360000D01*
X185420000Y-86360000D01*
X185420000Y-95885000D01*
G37*
%TD.AperFunction*%
%TD*%
%TA.AperFunction,Conductor*%
%TO.N,GNDPWR*%
G36*
X214603138Y-89425593D02*
G01*
X214628858Y-89470142D01*
X214630000Y-89483200D01*
X214630000Y-94920800D01*
X214612407Y-94969138D01*
X214567858Y-94994858D01*
X214554800Y-94996000D01*
X212546200Y-94996000D01*
X212497862Y-94978407D01*
X212472142Y-94933858D01*
X212471000Y-94920800D01*
X212471000Y-94366215D01*
X212736001Y-94366215D01*
X212742453Y-94426236D01*
X212742454Y-94426241D01*
X212793098Y-94562020D01*
X212793102Y-94562027D01*
X212879952Y-94678047D01*
X212995972Y-94764897D01*
X212995979Y-94764901D01*
X213131756Y-94815544D01*
X213131766Y-94815547D01*
X213191790Y-94821999D01*
X213311000Y-94821999D01*
X213819000Y-94821999D01*
X213938200Y-94821999D01*
X213938215Y-94821998D01*
X213998236Y-94815546D01*
X213998241Y-94815545D01*
X214134020Y-94764901D01*
X214134027Y-94764897D01*
X214250047Y-94678047D01*
X214336897Y-94562027D01*
X214336901Y-94562020D01*
X214387544Y-94426243D01*
X214387547Y-94426233D01*
X214393999Y-94366214D01*
X214394000Y-94366203D01*
X214394000Y-93472000D01*
X213819000Y-93472000D01*
X213819000Y-94821999D01*
X213311000Y-94821999D01*
X213311000Y-93472000D01*
X212736001Y-93472000D01*
X212736001Y-94366215D01*
X212471000Y-94366215D01*
X212471000Y-92069785D01*
X212736000Y-92069785D01*
X212736000Y-92964000D01*
X213311000Y-92964000D01*
X213819000Y-92964000D01*
X214393999Y-92964000D01*
X214393999Y-92069799D01*
X214393998Y-92069784D01*
X214387546Y-92009763D01*
X214387545Y-92009758D01*
X214336901Y-91873979D01*
X214336897Y-91873972D01*
X214250047Y-91757952D01*
X214134027Y-91671102D01*
X214134020Y-91671098D01*
X213998243Y-91620455D01*
X213998233Y-91620452D01*
X213938214Y-91614000D01*
X213819000Y-91614000D01*
X213819000Y-92964000D01*
X213311000Y-92964000D01*
X213311000Y-91614000D01*
X213191799Y-91614000D01*
X213191784Y-91614001D01*
X213131763Y-91620453D01*
X213131758Y-91620454D01*
X212995979Y-91671098D01*
X212995972Y-91671102D01*
X212879952Y-91757952D01*
X212793102Y-91873972D01*
X212793098Y-91873979D01*
X212742455Y-92009756D01*
X212742452Y-92009766D01*
X212736000Y-92069785D01*
X212471000Y-92069785D01*
X212471000Y-89483200D01*
X212488593Y-89434862D01*
X212533142Y-89409142D01*
X212546200Y-89408000D01*
X214554800Y-89408000D01*
X214603138Y-89425593D01*
G37*
%TD.AperFunction*%
%TD*%
%TA.AperFunction,Conductor*%
%TO.N,+VDC*%
G36*
X196188138Y-86377593D02*
G01*
X196213858Y-86422142D01*
X196215000Y-86435200D01*
X196215000Y-97790000D01*
X200838800Y-97790000D01*
X200887138Y-97807593D01*
X200912858Y-97852142D01*
X200914000Y-97865200D01*
X200914000Y-105334800D01*
X200896407Y-105383138D01*
X200851858Y-105408858D01*
X200838800Y-105410000D01*
X185495200Y-105410000D01*
X185446862Y-105392407D01*
X185421142Y-105347858D01*
X185420000Y-105334800D01*
X185420000Y-102548215D01*
X197641001Y-102548215D01*
X197647453Y-102608236D01*
X197647454Y-102608241D01*
X197698098Y-102744020D01*
X197698102Y-102744027D01*
X197784952Y-102860047D01*
X197900972Y-102946897D01*
X197900979Y-102946901D01*
X198036756Y-102997544D01*
X198036766Y-102997547D01*
X198096791Y-103003999D01*
X198764000Y-103003999D01*
X199526000Y-103003999D01*
X200193200Y-103003999D01*
X200193215Y-103003998D01*
X200253236Y-102997546D01*
X200253241Y-102997545D01*
X200389020Y-102946901D01*
X200389027Y-102946897D01*
X200505047Y-102860047D01*
X200591897Y-102744027D01*
X200591901Y-102744020D01*
X200642544Y-102608243D01*
X200642547Y-102608233D01*
X200648999Y-102548214D01*
X200649000Y-102548203D01*
X200649000Y-101981000D01*
X199526000Y-101981000D01*
X199526000Y-103003999D01*
X198764000Y-103003999D01*
X198764000Y-101981000D01*
X197641001Y-101981000D01*
X197641001Y-102548215D01*
X185420000Y-102548215D01*
X185420000Y-100651785D01*
X197641000Y-100651785D01*
X197641000Y-101219000D01*
X198764000Y-101219000D01*
X199526000Y-101219000D01*
X200648999Y-101219000D01*
X200648999Y-100651799D01*
X200648998Y-100651784D01*
X200642546Y-100591763D01*
X200642545Y-100591758D01*
X200591901Y-100455979D01*
X200591897Y-100455972D01*
X200505047Y-100339952D01*
X200389027Y-100253102D01*
X200389020Y-100253098D01*
X200253243Y-100202455D01*
X200253233Y-100202452D01*
X200193214Y-100196000D01*
X199526000Y-100196000D01*
X199526000Y-101219000D01*
X198764000Y-101219000D01*
X198764000Y-100196000D01*
X198096799Y-100196000D01*
X198096784Y-100196001D01*
X198036763Y-100202453D01*
X198036758Y-100202454D01*
X197900979Y-100253098D01*
X197900972Y-100253102D01*
X197784952Y-100339952D01*
X197698102Y-100455972D01*
X197698098Y-100455979D01*
X197647455Y-100591756D01*
X197647452Y-100591766D01*
X197641000Y-100651785D01*
X185420000Y-100651785D01*
X185420000Y-95885000D01*
X185420000Y-91880744D01*
X186546000Y-91880744D01*
X186546000Y-92269255D01*
X186584078Y-92655870D01*
X186659868Y-93036896D01*
X186659871Y-93036906D01*
X186772644Y-93408665D01*
X186921318Y-93767599D01*
X186921324Y-93767610D01*
X187104447Y-94110207D01*
X187320288Y-94433237D01*
X187447698Y-94588486D01*
X188948486Y-93087698D01*
X188958481Y-93105010D01*
X189106112Y-93297407D01*
X189277593Y-93468888D01*
X189469990Y-93616519D01*
X189487300Y-93626513D01*
X187986512Y-95127300D01*
X188141762Y-95254711D01*
X188464792Y-95470552D01*
X188807389Y-95653675D01*
X188807400Y-95653681D01*
X189166334Y-95802355D01*
X189538093Y-95915128D01*
X189538103Y-95915131D01*
X189919129Y-95990921D01*
X190305744Y-96028999D01*
X190305758Y-96029000D01*
X190694242Y-96029000D01*
X190694255Y-96028999D01*
X191080870Y-95990921D01*
X191461896Y-95915131D01*
X191461906Y-95915128D01*
X191833665Y-95802355D01*
X192192599Y-95653681D01*
X192192610Y-95653675D01*
X192535207Y-95470552D01*
X192858237Y-95254711D01*
X193013486Y-95127300D01*
X191512699Y-93626513D01*
X191530010Y-93616519D01*
X191722407Y-93468888D01*
X191893888Y-93297407D01*
X192041519Y-93105010D01*
X192051513Y-93087699D01*
X193552300Y-94588486D01*
X193679711Y-94433237D01*
X193895552Y-94110207D01*
X194078675Y-93767610D01*
X194078681Y-93767599D01*
X194227355Y-93408665D01*
X194340128Y-93036906D01*
X194340131Y-93036896D01*
X194415921Y-92655870D01*
X194453999Y-92269255D01*
X194454000Y-92269241D01*
X194454000Y-91880758D01*
X194453999Y-91880744D01*
X194415921Y-91494129D01*
X194340131Y-91113103D01*
X194340128Y-91113093D01*
X194227355Y-90741334D01*
X194078681Y-90382400D01*
X194078675Y-90382389D01*
X193895552Y-90039792D01*
X193679711Y-89716762D01*
X193552300Y-89561512D01*
X192051512Y-91062299D01*
X192041519Y-91044990D01*
X191893888Y-90852593D01*
X191722407Y-90681112D01*
X191530010Y-90533481D01*
X191512698Y-90523486D01*
X193013486Y-89022698D01*
X192858237Y-88895288D01*
X192535207Y-88679447D01*
X192192610Y-88496324D01*
X192192599Y-88496318D01*
X191833665Y-88347644D01*
X191461906Y-88234871D01*
X191461896Y-88234868D01*
X191080870Y-88159078D01*
X190694255Y-88121000D01*
X190305744Y-88121000D01*
X189919129Y-88159078D01*
X189538103Y-88234868D01*
X189538093Y-88234871D01*
X189166334Y-88347644D01*
X188807400Y-88496318D01*
X188807389Y-88496324D01*
X188464792Y-88679447D01*
X188141757Y-88895291D01*
X188141754Y-88895294D01*
X187986512Y-89022697D01*
X187986512Y-89022698D01*
X189487301Y-90523486D01*
X189469990Y-90533481D01*
X189277593Y-90681112D01*
X189106112Y-90852593D01*
X188958481Y-91044990D01*
X188948486Y-91062300D01*
X187447698Y-89561512D01*
X187447697Y-89561512D01*
X187320294Y-89716754D01*
X187320291Y-89716757D01*
X187104447Y-90039792D01*
X186921324Y-90382389D01*
X186921318Y-90382400D01*
X186772644Y-90741334D01*
X186659871Y-91113093D01*
X186659868Y-91113103D01*
X186584078Y-91494129D01*
X186546000Y-91880744D01*
X185420000Y-91880744D01*
X185420000Y-86360000D01*
X196139800Y-86360000D01*
X196188138Y-86377593D01*
G37*
%TD.AperFunction*%
%TD*%
%TA.AperFunction,Conductor*%
%TO.N,GND*%
G36*
X166343138Y-86377593D02*
G01*
X166368858Y-86422142D01*
X166370000Y-86435200D01*
X166370000Y-92634800D01*
X166352407Y-92683138D01*
X166307858Y-92708858D01*
X166294800Y-92710000D01*
X165223713Y-92710000D01*
X165175375Y-92692407D01*
X165149655Y-92647858D01*
X165158588Y-92597200D01*
X165197433Y-92564341D01*
X165212026Y-92558897D01*
X165212027Y-92558897D01*
X165328047Y-92472047D01*
X165414897Y-92356027D01*
X165414901Y-92356020D01*
X165465544Y-92220243D01*
X165465547Y-92220233D01*
X165471999Y-92160214D01*
X165472000Y-92160203D01*
X165472000Y-89789000D01*
X164393200Y-89789000D01*
X164344862Y-89771407D01*
X164319142Y-89726858D01*
X164318000Y-89713800D01*
X164318000Y-89662000D01*
X164266200Y-89662000D01*
X164217862Y-89644407D01*
X164192142Y-89599858D01*
X164191000Y-89586800D01*
X164191000Y-89535000D01*
X164445000Y-89535000D01*
X165471999Y-89535000D01*
X165471999Y-87163799D01*
X165471998Y-87163784D01*
X165465546Y-87103763D01*
X165465545Y-87103758D01*
X165414901Y-86967979D01*
X165414897Y-86967972D01*
X165328047Y-86851952D01*
X165212027Y-86765102D01*
X165212020Y-86765098D01*
X165076243Y-86714455D01*
X165076233Y-86714452D01*
X165016214Y-86708000D01*
X164445000Y-86708000D01*
X164445000Y-89535000D01*
X164191000Y-89535000D01*
X164191000Y-86708000D01*
X163619799Y-86708000D01*
X163619784Y-86708001D01*
X163559763Y-86714453D01*
X163559758Y-86714454D01*
X163423979Y-86765098D01*
X163423972Y-86765102D01*
X163307952Y-86851952D01*
X163221102Y-86967972D01*
X163221099Y-86967977D01*
X163213658Y-86987929D01*
X163180281Y-87027070D01*
X163129553Y-87035599D01*
X163085211Y-87009526D01*
X163068000Y-86961648D01*
X163068000Y-86435200D01*
X163085593Y-86386862D01*
X163130142Y-86361142D01*
X163143200Y-86360000D01*
X166294800Y-86360000D01*
X166343138Y-86377593D01*
G37*
%TD.AperFunction*%
%TD*%
%TA.AperFunction,Conductor*%
%TO.N,GND*%
G36*
X160501138Y-95013593D02*
G01*
X160526858Y-95058142D01*
X160528000Y-95071200D01*
X160528000Y-107747800D01*
X160510407Y-107796138D01*
X160465858Y-107821858D01*
X160452800Y-107823000D01*
X156412200Y-107823000D01*
X156363862Y-107805407D01*
X156338142Y-107760858D01*
X156337000Y-107747800D01*
X156337000Y-107019215D01*
X156760001Y-107019215D01*
X156766453Y-107079236D01*
X156766454Y-107079241D01*
X156817098Y-107215020D01*
X156817102Y-107215027D01*
X156903952Y-107331047D01*
X157019972Y-107417897D01*
X157019979Y-107417901D01*
X157155756Y-107468544D01*
X157155766Y-107468547D01*
X157215791Y-107474999D01*
X157787000Y-107474999D01*
X158041000Y-107474999D01*
X158612200Y-107474999D01*
X158612215Y-107474998D01*
X158672236Y-107468546D01*
X158672241Y-107468545D01*
X158808020Y-107417901D01*
X158808027Y-107417897D01*
X158924047Y-107331047D01*
X159010897Y-107215027D01*
X159010901Y-107215020D01*
X159061544Y-107079243D01*
X159061547Y-107079233D01*
X159067999Y-107019214D01*
X159068000Y-107019203D01*
X159068000Y-104648000D01*
X158041000Y-104648000D01*
X158041000Y-107474999D01*
X157787000Y-107474999D01*
X157787000Y-104648000D01*
X156760001Y-104648000D01*
X156760001Y-107019215D01*
X156337000Y-107019215D01*
X156337000Y-102022785D01*
X156760000Y-102022785D01*
X156760000Y-104394000D01*
X157787000Y-104394000D01*
X158041000Y-104394000D01*
X159067999Y-104394000D01*
X159067999Y-102022799D01*
X159067998Y-102022784D01*
X159061546Y-101962763D01*
X159061545Y-101962758D01*
X159010901Y-101826979D01*
X159010897Y-101826972D01*
X158924047Y-101710952D01*
X158808027Y-101624102D01*
X158808020Y-101624098D01*
X158672243Y-101573455D01*
X158672233Y-101573452D01*
X158612214Y-101567000D01*
X158041000Y-101567000D01*
X158041000Y-104394000D01*
X157787000Y-104394000D01*
X157787000Y-101567000D01*
X157215799Y-101567000D01*
X157215784Y-101567001D01*
X157155763Y-101573453D01*
X157155758Y-101573454D01*
X157019979Y-101624098D01*
X157019972Y-101624102D01*
X156903952Y-101710952D01*
X156817102Y-101826972D01*
X156817098Y-101826979D01*
X156766455Y-101962756D01*
X156766452Y-101962766D01*
X156760000Y-102022785D01*
X156337000Y-102022785D01*
X156337000Y-100796215D01*
X156760001Y-100796215D01*
X156766453Y-100856236D01*
X156766454Y-100856241D01*
X156817098Y-100992020D01*
X156817102Y-100992027D01*
X156903952Y-101108047D01*
X157019972Y-101194897D01*
X157019979Y-101194901D01*
X157155756Y-101245544D01*
X157155766Y-101245547D01*
X157215791Y-101251999D01*
X157787000Y-101251999D01*
X158041000Y-101251999D01*
X158612200Y-101251999D01*
X158612215Y-101251998D01*
X158672236Y-101245546D01*
X158672241Y-101245545D01*
X158808020Y-101194901D01*
X158808027Y-101194897D01*
X158924047Y-101108047D01*
X159010897Y-100992027D01*
X159010901Y-100992020D01*
X159061544Y-100856243D01*
X159061547Y-100856233D01*
X159067999Y-100796214D01*
X159068000Y-100796203D01*
X159068000Y-98425000D01*
X158041000Y-98425000D01*
X158041000Y-101251999D01*
X157787000Y-101251999D01*
X157787000Y-98425000D01*
X156760001Y-98425000D01*
X156760001Y-100796215D01*
X156337000Y-100796215D01*
X156337000Y-95799785D01*
X156760000Y-95799785D01*
X156760000Y-98171000D01*
X157787000Y-98171000D01*
X158041000Y-98171000D01*
X159067999Y-98171000D01*
X159067999Y-95799799D01*
X159067998Y-95799784D01*
X159061546Y-95739763D01*
X159061545Y-95739758D01*
X159010901Y-95603979D01*
X159010897Y-95603972D01*
X158924047Y-95487952D01*
X158808027Y-95401102D01*
X158808020Y-95401098D01*
X158672243Y-95350455D01*
X158672233Y-95350452D01*
X158612214Y-95344000D01*
X158041000Y-95344000D01*
X158041000Y-98171000D01*
X157787000Y-98171000D01*
X157787000Y-95344000D01*
X157215799Y-95344000D01*
X157215784Y-95344001D01*
X157155763Y-95350453D01*
X157155758Y-95350454D01*
X157019979Y-95401098D01*
X157019972Y-95401102D01*
X156903952Y-95487952D01*
X156817102Y-95603972D01*
X156817098Y-95603979D01*
X156766455Y-95739756D01*
X156766452Y-95739766D01*
X156760000Y-95799785D01*
X156337000Y-95799785D01*
X156337000Y-95071200D01*
X156354593Y-95022862D01*
X156399142Y-94997142D01*
X156412200Y-94996000D01*
X160452800Y-94996000D01*
X160501138Y-95013593D01*
G37*
%TD.AperFunction*%
%TD*%
%TA.AperFunction,Conductor*%
%TO.N,Net-(D5-A)*%
G36*
X165377424Y-96156593D02*
G01*
X165403144Y-96201142D01*
X165394211Y-96251800D01*
X165374151Y-96274401D01*
X165305952Y-96325452D01*
X165219102Y-96441472D01*
X165219102Y-96441473D01*
X165172283Y-96567000D01*
X167059717Y-96567000D01*
X167012897Y-96441473D01*
X167012897Y-96441472D01*
X166926047Y-96325452D01*
X166857849Y-96274401D01*
X166829696Y-96231349D01*
X166835802Y-96180273D01*
X166873311Y-96145072D01*
X166902914Y-96139000D01*
X167437800Y-96139000D01*
X167486138Y-96156593D01*
X167511858Y-96201142D01*
X167513000Y-96214200D01*
X167513000Y-98476800D01*
X167495407Y-98525138D01*
X167450858Y-98550858D01*
X167437800Y-98552000D01*
X165048200Y-98552000D01*
X164999862Y-98534407D01*
X164974142Y-98489858D01*
X164973000Y-98476800D01*
X164973000Y-97329000D01*
X165172283Y-97329000D01*
X165219102Y-97454526D01*
X165219102Y-97454527D01*
X165305952Y-97570547D01*
X165421972Y-97657397D01*
X165421979Y-97657401D01*
X165557756Y-97708044D01*
X165557766Y-97708047D01*
X165617790Y-97714499D01*
X165735000Y-97714499D01*
X166497000Y-97714499D01*
X166614200Y-97714499D01*
X166614215Y-97714498D01*
X166674236Y-97708046D01*
X166674241Y-97708045D01*
X166810020Y-97657401D01*
X166810027Y-97657397D01*
X166926047Y-97570547D01*
X167012897Y-97454527D01*
X167012897Y-97454526D01*
X167059717Y-97329000D01*
X166497000Y-97329000D01*
X166497000Y-97714499D01*
X165735000Y-97714499D01*
X165735000Y-97329000D01*
X165172283Y-97329000D01*
X164973000Y-97329000D01*
X164973000Y-96214200D01*
X164990593Y-96165862D01*
X165035142Y-96140142D01*
X165048200Y-96139000D01*
X165329086Y-96139000D01*
X165377424Y-96156593D01*
G37*
%TD.AperFunction*%
%TD*%
%TA.AperFunction,Conductor*%
%TO.N,/SHAPER_IN*%
G36*
X217397138Y-89425593D02*
G01*
X217422858Y-89470142D01*
X217424000Y-89483200D01*
X217424000Y-113716800D01*
X217406407Y-113765138D01*
X217361858Y-113790858D01*
X217348800Y-113792000D01*
X214959200Y-113792000D01*
X214910862Y-113774407D01*
X214885142Y-113729858D01*
X214884000Y-113716800D01*
X214884000Y-112908215D01*
X215374001Y-112908215D01*
X215380453Y-112968236D01*
X215380454Y-112968241D01*
X215431098Y-113104020D01*
X215431102Y-113104027D01*
X215517952Y-113220047D01*
X215633972Y-113306897D01*
X215633979Y-113306901D01*
X215769756Y-113357544D01*
X215769766Y-113357547D01*
X215829790Y-113363999D01*
X215949000Y-113363999D01*
X216457000Y-113363999D01*
X216576200Y-113363999D01*
X216576215Y-113363998D01*
X216636236Y-113357546D01*
X216636241Y-113357545D01*
X216772020Y-113306901D01*
X216772027Y-113306897D01*
X216888047Y-113220047D01*
X216974897Y-113104027D01*
X216974901Y-113104020D01*
X217025544Y-112968243D01*
X217025547Y-112968233D01*
X217031999Y-112908214D01*
X217032000Y-112908203D01*
X217032000Y-112014000D01*
X216457000Y-112014000D01*
X216457000Y-113363999D01*
X215949000Y-113363999D01*
X215949000Y-112014000D01*
X215374001Y-112014000D01*
X215374001Y-112908215D01*
X214884000Y-112908215D01*
X214884000Y-110611785D01*
X215374000Y-110611785D01*
X215374000Y-111506000D01*
X215949000Y-111506000D01*
X216457000Y-111506000D01*
X217031999Y-111506000D01*
X217031999Y-110611799D01*
X217031998Y-110611784D01*
X217025546Y-110551763D01*
X217025545Y-110551758D01*
X216974901Y-110415979D01*
X216974897Y-110415972D01*
X216888047Y-110299952D01*
X216772027Y-110213102D01*
X216772020Y-110213098D01*
X216636243Y-110162455D01*
X216636233Y-110162452D01*
X216576214Y-110156000D01*
X216457000Y-110156000D01*
X216457000Y-111506000D01*
X215949000Y-111506000D01*
X215949000Y-110156000D01*
X215829799Y-110156000D01*
X215829784Y-110156001D01*
X215769763Y-110162453D01*
X215769758Y-110162454D01*
X215633979Y-110213098D01*
X215633972Y-110213102D01*
X215517952Y-110299952D01*
X215431102Y-110415972D01*
X215431098Y-110415979D01*
X215380455Y-110551756D01*
X215380452Y-110551766D01*
X215374000Y-110611785D01*
X214884000Y-110611785D01*
X214884000Y-108844215D01*
X215374001Y-108844215D01*
X215380453Y-108904236D01*
X215380454Y-108904241D01*
X215431098Y-109040020D01*
X215431102Y-109040027D01*
X215517952Y-109156047D01*
X215633972Y-109242897D01*
X215633979Y-109242901D01*
X215769756Y-109293544D01*
X215769766Y-109293547D01*
X215829790Y-109299999D01*
X215949000Y-109299999D01*
X216457000Y-109299999D01*
X216576200Y-109299999D01*
X216576215Y-109299998D01*
X216636236Y-109293546D01*
X216636241Y-109293545D01*
X216772020Y-109242901D01*
X216772027Y-109242897D01*
X216888047Y-109156047D01*
X216974897Y-109040027D01*
X216974901Y-109040020D01*
X217025544Y-108904243D01*
X217025547Y-108904233D01*
X217031999Y-108844214D01*
X217032000Y-108844203D01*
X217032000Y-107950000D01*
X216457000Y-107950000D01*
X216457000Y-109299999D01*
X215949000Y-109299999D01*
X215949000Y-107950000D01*
X215374001Y-107950000D01*
X215374001Y-108844215D01*
X214884000Y-108844215D01*
X214884000Y-106547785D01*
X215374000Y-106547785D01*
X215374000Y-107442000D01*
X215949000Y-107442000D01*
X216457000Y-107442000D01*
X217031999Y-107442000D01*
X217031999Y-106547799D01*
X217031998Y-106547784D01*
X217025546Y-106487763D01*
X217025545Y-106487758D01*
X216974901Y-106351979D01*
X216974897Y-106351972D01*
X216888047Y-106235952D01*
X216772027Y-106149102D01*
X216772020Y-106149098D01*
X216636243Y-106098455D01*
X216636233Y-106098452D01*
X216576214Y-106092000D01*
X216457000Y-106092000D01*
X216457000Y-107442000D01*
X215949000Y-107442000D01*
X215949000Y-106092000D01*
X215829799Y-106092000D01*
X215829784Y-106092001D01*
X215769763Y-106098453D01*
X215769758Y-106098454D01*
X215633979Y-106149098D01*
X215633972Y-106149102D01*
X215517952Y-106235952D01*
X215431102Y-106351972D01*
X215431098Y-106351979D01*
X215380455Y-106487756D01*
X215380452Y-106487766D01*
X215374000Y-106547785D01*
X214884000Y-106547785D01*
X214884000Y-104780215D01*
X215374001Y-104780215D01*
X215380453Y-104840236D01*
X215380454Y-104840241D01*
X215431098Y-104976020D01*
X215431102Y-104976027D01*
X215517952Y-105092047D01*
X215633972Y-105178897D01*
X215633979Y-105178901D01*
X215769756Y-105229544D01*
X215769766Y-105229547D01*
X215829790Y-105235999D01*
X215949000Y-105235999D01*
X216457000Y-105235999D01*
X216576200Y-105235999D01*
X216576215Y-105235998D01*
X216636236Y-105229546D01*
X216636241Y-105229545D01*
X216772020Y-105178901D01*
X216772027Y-105178897D01*
X216888047Y-105092047D01*
X216974897Y-104976027D01*
X216974901Y-104976020D01*
X217025544Y-104840243D01*
X217025547Y-104840233D01*
X217031999Y-104780214D01*
X217032000Y-104780203D01*
X217032000Y-103886000D01*
X216457000Y-103886000D01*
X216457000Y-105235999D01*
X215949000Y-105235999D01*
X215949000Y-103886000D01*
X215374001Y-103886000D01*
X215374001Y-104780215D01*
X214884000Y-104780215D01*
X214884000Y-102489000D01*
X214884000Y-102483785D01*
X215374000Y-102483785D01*
X215374000Y-103378000D01*
X215949000Y-103378000D01*
X216457000Y-103378000D01*
X217031999Y-103378000D01*
X217031999Y-102483799D01*
X217031998Y-102483784D01*
X217025546Y-102423763D01*
X217025545Y-102423758D01*
X216974901Y-102287979D01*
X216974897Y-102287972D01*
X216888047Y-102171952D01*
X216772027Y-102085102D01*
X216772020Y-102085098D01*
X216636243Y-102034455D01*
X216636233Y-102034452D01*
X216576214Y-102028000D01*
X216457000Y-102028000D01*
X216457000Y-103378000D01*
X215949000Y-103378000D01*
X215949000Y-102028000D01*
X215829799Y-102028000D01*
X215829784Y-102028001D01*
X215769763Y-102034453D01*
X215769758Y-102034454D01*
X215633979Y-102085098D01*
X215633972Y-102085102D01*
X215517952Y-102171952D01*
X215431102Y-102287972D01*
X215431098Y-102287979D01*
X215380455Y-102423756D01*
X215380452Y-102423766D01*
X215374000Y-102483785D01*
X214884000Y-102483785D01*
X214884000Y-100716215D01*
X215374001Y-100716215D01*
X215380453Y-100776236D01*
X215380454Y-100776241D01*
X215431098Y-100912020D01*
X215431102Y-100912027D01*
X215517952Y-101028047D01*
X215633972Y-101114897D01*
X215633979Y-101114901D01*
X215769756Y-101165544D01*
X215769766Y-101165547D01*
X215829790Y-101171999D01*
X215949000Y-101171999D01*
X216457000Y-101171999D01*
X216576200Y-101171999D01*
X216576215Y-101171998D01*
X216636236Y-101165546D01*
X216636241Y-101165545D01*
X216772020Y-101114901D01*
X216772027Y-101114897D01*
X216888047Y-101028047D01*
X216974897Y-100912027D01*
X216974901Y-100912020D01*
X217025544Y-100776243D01*
X217025547Y-100776233D01*
X217031999Y-100716214D01*
X217032000Y-100716203D01*
X217032000Y-99822000D01*
X216457000Y-99822000D01*
X216457000Y-101171999D01*
X215949000Y-101171999D01*
X215949000Y-99822000D01*
X215374001Y-99822000D01*
X215374001Y-100716215D01*
X214884000Y-100716215D01*
X214884000Y-99060000D01*
X212292200Y-99060000D01*
X212243862Y-99042407D01*
X212218142Y-98997858D01*
X212217000Y-98984800D01*
X212217000Y-98405215D01*
X212736001Y-98405215D01*
X212742453Y-98465236D01*
X212742454Y-98465241D01*
X212793098Y-98601020D01*
X212793102Y-98601027D01*
X212879952Y-98717047D01*
X212995972Y-98803897D01*
X212995979Y-98803901D01*
X213131756Y-98854544D01*
X213131766Y-98854547D01*
X213191790Y-98860999D01*
X213298500Y-98860999D01*
X213806500Y-98860999D01*
X213913200Y-98860999D01*
X213913215Y-98860998D01*
X213973236Y-98854546D01*
X213973241Y-98854545D01*
X214109020Y-98803901D01*
X214109027Y-98803897D01*
X214225047Y-98717047D01*
X214311897Y-98601027D01*
X214311901Y-98601020D01*
X214362544Y-98465243D01*
X214362547Y-98465233D01*
X214367433Y-98419785D01*
X215374000Y-98419785D01*
X215374000Y-99314000D01*
X215949000Y-99314000D01*
X216457000Y-99314000D01*
X217031999Y-99314000D01*
X217031999Y-98419799D01*
X217031998Y-98419784D01*
X217025546Y-98359763D01*
X217025545Y-98359758D01*
X216974901Y-98223979D01*
X216974897Y-98223972D01*
X216888047Y-98107952D01*
X216772027Y-98021102D01*
X216772020Y-98021098D01*
X216636243Y-97970455D01*
X216636233Y-97970452D01*
X216576214Y-97964000D01*
X216457000Y-97964000D01*
X216457000Y-99314000D01*
X215949000Y-99314000D01*
X215949000Y-97964000D01*
X215829799Y-97964000D01*
X215829784Y-97964001D01*
X215769763Y-97970453D01*
X215769758Y-97970454D01*
X215633979Y-98021098D01*
X215633972Y-98021102D01*
X215517952Y-98107952D01*
X215431102Y-98223972D01*
X215431098Y-98223979D01*
X215380455Y-98359756D01*
X215380452Y-98359766D01*
X215374000Y-98419785D01*
X214367433Y-98419785D01*
X214368513Y-98409737D01*
X214368513Y-98409735D01*
X214368999Y-98405209D01*
X214369000Y-98405203D01*
X214369000Y-97536000D01*
X213806500Y-97536000D01*
X213806500Y-98860999D01*
X213298500Y-98860999D01*
X213298500Y-97536000D01*
X212736001Y-97536000D01*
X212736001Y-98405215D01*
X212217000Y-98405215D01*
X212217000Y-96158785D01*
X212736000Y-96158785D01*
X212736000Y-97028000D01*
X213298500Y-97028000D01*
X213806500Y-97028000D01*
X214368999Y-97028000D01*
X214368999Y-96652215D01*
X215374001Y-96652215D01*
X215380453Y-96712236D01*
X215380454Y-96712241D01*
X215431098Y-96848020D01*
X215431102Y-96848027D01*
X215517952Y-96964047D01*
X215633972Y-97050897D01*
X215633979Y-97050901D01*
X215769756Y-97101544D01*
X215769766Y-97101547D01*
X215829790Y-97107999D01*
X215949000Y-97107999D01*
X216457000Y-97107999D01*
X216576200Y-97107999D01*
X216576215Y-97107998D01*
X216636236Y-97101546D01*
X216636241Y-97101545D01*
X216772020Y-97050901D01*
X216772027Y-97050897D01*
X216888047Y-96964047D01*
X216974897Y-96848027D01*
X216974901Y-96848020D01*
X217025544Y-96712243D01*
X217025547Y-96712233D01*
X217031999Y-96652214D01*
X217032000Y-96652203D01*
X217032000Y-95758000D01*
X216457000Y-95758000D01*
X216457000Y-97107999D01*
X215949000Y-97107999D01*
X215949000Y-95758000D01*
X215374001Y-95758000D01*
X215374001Y-96652215D01*
X214368999Y-96652215D01*
X214368999Y-96158799D01*
X214368998Y-96158784D01*
X214362546Y-96098763D01*
X214362545Y-96098758D01*
X214311901Y-95962979D01*
X214311897Y-95962972D01*
X214225047Y-95846952D01*
X214145028Y-95787052D01*
X214109027Y-95760102D01*
X214109020Y-95760098D01*
X213973243Y-95709455D01*
X213973233Y-95709452D01*
X213913214Y-95703000D01*
X213806500Y-95703000D01*
X213806500Y-97028000D01*
X213298500Y-97028000D01*
X213298500Y-95703000D01*
X213191799Y-95703000D01*
X213191784Y-95703001D01*
X213131763Y-95709453D01*
X213131758Y-95709454D01*
X212995979Y-95760098D01*
X212995972Y-95760102D01*
X212879952Y-95846952D01*
X212793102Y-95962972D01*
X212793098Y-95962979D01*
X212742455Y-96098756D01*
X212742452Y-96098766D01*
X212736000Y-96158785D01*
X212217000Y-96158785D01*
X212217000Y-95579200D01*
X212234593Y-95530862D01*
X212279142Y-95505142D01*
X212292200Y-95504000D01*
X214884000Y-95504000D01*
X214884000Y-94355785D01*
X215374000Y-94355785D01*
X215374000Y-95250000D01*
X215949000Y-95250000D01*
X216457000Y-95250000D01*
X217031999Y-95250000D01*
X217031999Y-94355799D01*
X217031998Y-94355784D01*
X217025546Y-94295763D01*
X217025545Y-94295758D01*
X216974901Y-94159979D01*
X216974897Y-94159972D01*
X216888047Y-94043952D01*
X216772027Y-93957102D01*
X216772020Y-93957098D01*
X216636243Y-93906455D01*
X216636233Y-93906452D01*
X216576214Y-93900000D01*
X216457000Y-93900000D01*
X216457000Y-95250000D01*
X215949000Y-95250000D01*
X215949000Y-93900000D01*
X215829799Y-93900000D01*
X215829784Y-93900001D01*
X215769763Y-93906453D01*
X215769758Y-93906454D01*
X215633979Y-93957098D01*
X215633972Y-93957102D01*
X215517952Y-94043952D01*
X215431102Y-94159972D01*
X215431098Y-94159979D01*
X215380455Y-94295756D01*
X215380452Y-94295766D01*
X215374000Y-94355785D01*
X214884000Y-94355785D01*
X214884000Y-92588215D01*
X215374001Y-92588215D01*
X215380453Y-92648236D01*
X215380454Y-92648241D01*
X215431098Y-92784020D01*
X215431102Y-92784027D01*
X215517952Y-92900047D01*
X215633972Y-92986897D01*
X215633979Y-92986901D01*
X215769756Y-93037544D01*
X215769766Y-93037547D01*
X215829790Y-93043999D01*
X215949000Y-93043999D01*
X216457000Y-93043999D01*
X216576200Y-93043999D01*
X216576215Y-93043998D01*
X216636236Y-93037546D01*
X216636241Y-93037545D01*
X216772020Y-92986901D01*
X216772027Y-92986897D01*
X216888047Y-92900047D01*
X216974897Y-92784027D01*
X216974901Y-92784020D01*
X217025544Y-92648243D01*
X217025547Y-92648233D01*
X217031999Y-92588214D01*
X217032000Y-92588203D01*
X217032000Y-91694000D01*
X216457000Y-91694000D01*
X216457000Y-93043999D01*
X215949000Y-93043999D01*
X215949000Y-91694000D01*
X215374001Y-91694000D01*
X215374001Y-92588215D01*
X214884000Y-92588215D01*
X214884000Y-90291785D01*
X215374000Y-90291785D01*
X215374000Y-91186000D01*
X215949000Y-91186000D01*
X216457000Y-91186000D01*
X217031999Y-91186000D01*
X217031999Y-90291799D01*
X217031998Y-90291784D01*
X217025546Y-90231763D01*
X217025545Y-90231758D01*
X216974901Y-90095979D01*
X216974897Y-90095972D01*
X216888047Y-89979952D01*
X216772027Y-89893102D01*
X216772020Y-89893098D01*
X216636243Y-89842455D01*
X216636233Y-89842452D01*
X216576214Y-89836000D01*
X216457000Y-89836000D01*
X216457000Y-91186000D01*
X215949000Y-91186000D01*
X215949000Y-89836000D01*
X215829799Y-89836000D01*
X215829784Y-89836001D01*
X215769763Y-89842453D01*
X215769758Y-89842454D01*
X215633979Y-89893098D01*
X215633972Y-89893102D01*
X215517952Y-89979952D01*
X215431102Y-90095972D01*
X215431098Y-90095979D01*
X215380455Y-90231756D01*
X215380452Y-90231766D01*
X215374000Y-90291785D01*
X214884000Y-90291785D01*
X214884000Y-89483200D01*
X214901593Y-89434862D01*
X214946142Y-89409142D01*
X214959200Y-89408000D01*
X217348800Y-89408000D01*
X217397138Y-89425593D01*
G37*
%TD.AperFunction*%
%TD*%
%TA.AperFunction,Conductor*%
%TO.N,/SHAPER_OUT*%
G36*
X226033138Y-86377593D02*
G01*
X226058858Y-86422142D01*
X226060000Y-86435200D01*
X226060000Y-101600000D01*
X231064800Y-101600000D01*
X231113138Y-101617593D01*
X231138858Y-101662142D01*
X231140000Y-101675200D01*
X231140000Y-104318800D01*
X231122407Y-104367138D01*
X231077858Y-104392858D01*
X231064800Y-104394000D01*
X226060000Y-104394000D01*
X226060000Y-116764800D01*
X226042407Y-116813138D01*
X225997858Y-116838858D01*
X225984800Y-116840000D01*
X223595200Y-116840000D01*
X223546862Y-116822407D01*
X223521142Y-116777858D01*
X223520000Y-116764800D01*
X223520000Y-115880935D01*
X223537593Y-115832597D01*
X223542026Y-115827761D01*
X223568016Y-115801771D01*
X223625957Y-115688055D01*
X223638286Y-115610215D01*
X223884001Y-115610215D01*
X223890453Y-115670236D01*
X223890454Y-115670241D01*
X223941098Y-115806020D01*
X223941102Y-115806027D01*
X224027952Y-115922047D01*
X224143972Y-116008897D01*
X224143979Y-116008901D01*
X224279756Y-116059544D01*
X224279766Y-116059547D01*
X224339790Y-116065999D01*
X224409000Y-116065999D01*
X224917000Y-116065999D01*
X224986200Y-116065999D01*
X224986215Y-116065998D01*
X225046236Y-116059546D01*
X225046241Y-116059545D01*
X225182020Y-116008901D01*
X225182027Y-116008897D01*
X225298047Y-115922047D01*
X225384897Y-115806027D01*
X225384901Y-115806020D01*
X225435544Y-115670243D01*
X225435547Y-115670233D01*
X225441999Y-115610214D01*
X225442000Y-115610203D01*
X225442000Y-115316000D01*
X224917000Y-115316000D01*
X224917000Y-116065999D01*
X224409000Y-116065999D01*
X224409000Y-115316000D01*
X223884001Y-115316000D01*
X223884001Y-115610215D01*
X223638286Y-115610215D01*
X223640900Y-115593708D01*
X223640900Y-114530292D01*
X223638286Y-114513785D01*
X223884000Y-114513785D01*
X223884000Y-114808000D01*
X224409000Y-114808000D01*
X224917000Y-114808000D01*
X225441999Y-114808000D01*
X225441999Y-114513799D01*
X225441998Y-114513784D01*
X225435546Y-114453763D01*
X225435545Y-114453758D01*
X225384901Y-114317979D01*
X225384897Y-114317972D01*
X225298047Y-114201952D01*
X225182027Y-114115102D01*
X225182020Y-114115098D01*
X225046243Y-114064455D01*
X225046233Y-114064452D01*
X224986214Y-114058000D01*
X224917000Y-114058000D01*
X224917000Y-114808000D01*
X224409000Y-114808000D01*
X224409000Y-114058000D01*
X224339799Y-114058000D01*
X224339784Y-114058001D01*
X224279763Y-114064453D01*
X224279758Y-114064454D01*
X224143979Y-114115098D01*
X224143972Y-114115102D01*
X224027952Y-114201952D01*
X223941102Y-114317972D01*
X223941098Y-114317979D01*
X223890455Y-114453756D01*
X223890452Y-114453766D01*
X223884000Y-114513785D01*
X223638286Y-114513785D01*
X223625957Y-114435945D01*
X223568016Y-114322229D01*
X223542026Y-114296239D01*
X223520286Y-114249619D01*
X223520000Y-114243065D01*
X223520000Y-112883215D01*
X223912001Y-112883215D01*
X223918453Y-112943236D01*
X223918454Y-112943241D01*
X223969098Y-113079020D01*
X223969102Y-113079027D01*
X224055952Y-113195047D01*
X224171972Y-113281897D01*
X224171979Y-113281901D01*
X224307756Y-113332544D01*
X224307766Y-113332547D01*
X224367790Y-113338999D01*
X224474500Y-113338999D01*
X224982500Y-113338999D01*
X225089200Y-113338999D01*
X225089215Y-113338998D01*
X225149236Y-113332546D01*
X225149241Y-113332545D01*
X225285020Y-113281901D01*
X225285027Y-113281897D01*
X225401047Y-113195047D01*
X225487897Y-113079027D01*
X225487901Y-113079020D01*
X225538544Y-112943243D01*
X225538547Y-112943233D01*
X225544999Y-112883214D01*
X225545000Y-112883203D01*
X225545000Y-112014000D01*
X224982500Y-112014000D01*
X224982500Y-113338999D01*
X224474500Y-113338999D01*
X224474500Y-112014000D01*
X223912001Y-112014000D01*
X223912001Y-112883215D01*
X223520000Y-112883215D01*
X223520000Y-110636785D01*
X223912000Y-110636785D01*
X223912000Y-111506000D01*
X224474500Y-111506000D01*
X224982500Y-111506000D01*
X225544999Y-111506000D01*
X225544999Y-110636799D01*
X225544998Y-110636784D01*
X225538546Y-110576763D01*
X225538545Y-110576758D01*
X225487901Y-110440979D01*
X225487897Y-110440972D01*
X225401047Y-110324952D01*
X225285027Y-110238102D01*
X225285020Y-110238098D01*
X225149243Y-110187455D01*
X225149233Y-110187452D01*
X225089214Y-110181000D01*
X224982500Y-110181000D01*
X224982500Y-111506000D01*
X224474500Y-111506000D01*
X224474500Y-110181000D01*
X224367799Y-110181000D01*
X224367784Y-110181001D01*
X224307763Y-110187453D01*
X224307758Y-110187454D01*
X224171979Y-110238098D01*
X224171972Y-110238102D01*
X224055952Y-110324952D01*
X223969102Y-110440972D01*
X223969098Y-110440979D01*
X223918455Y-110576756D01*
X223918452Y-110576766D01*
X223912000Y-110636785D01*
X223520000Y-110636785D01*
X223520000Y-108819215D01*
X223912001Y-108819215D01*
X223918453Y-108879236D01*
X223918454Y-108879241D01*
X223969098Y-109015020D01*
X223969102Y-109015027D01*
X224055952Y-109131047D01*
X224171972Y-109217897D01*
X224171979Y-109217901D01*
X224307756Y-109268544D01*
X224307766Y-109268547D01*
X224367790Y-109274999D01*
X224474500Y-109274999D01*
X224982500Y-109274999D01*
X225089200Y-109274999D01*
X225089215Y-109274998D01*
X225149236Y-109268546D01*
X225149241Y-109268545D01*
X225285020Y-109217901D01*
X225285027Y-109217897D01*
X225401047Y-109131047D01*
X225487897Y-109015027D01*
X225487901Y-109015020D01*
X225538544Y-108879243D01*
X225538547Y-108879233D01*
X225544999Y-108819214D01*
X225545000Y-108819203D01*
X225545000Y-107950000D01*
X224982500Y-107950000D01*
X224982500Y-109274999D01*
X224474500Y-109274999D01*
X224474500Y-107950000D01*
X223912001Y-107950000D01*
X223912001Y-108819215D01*
X223520000Y-108819215D01*
X223520000Y-106572785D01*
X223912000Y-106572785D01*
X223912000Y-107442000D01*
X224474500Y-107442000D01*
X224982500Y-107442000D01*
X225544999Y-107442000D01*
X225544999Y-106572799D01*
X225544998Y-106572784D01*
X225538546Y-106512763D01*
X225538545Y-106512758D01*
X225487901Y-106376979D01*
X225487897Y-106376972D01*
X225401047Y-106260952D01*
X225285027Y-106174102D01*
X225285020Y-106174098D01*
X225149243Y-106123455D01*
X225149233Y-106123452D01*
X225089214Y-106117000D01*
X224982500Y-106117000D01*
X224982500Y-107442000D01*
X224474500Y-107442000D01*
X224474500Y-106117000D01*
X224367799Y-106117000D01*
X224367784Y-106117001D01*
X224307763Y-106123453D01*
X224307758Y-106123454D01*
X224171979Y-106174098D01*
X224171972Y-106174102D01*
X224055952Y-106260952D01*
X223969102Y-106376972D01*
X223969098Y-106376979D01*
X223918455Y-106512756D01*
X223918452Y-106512766D01*
X223912000Y-106572785D01*
X223520000Y-106572785D01*
X223520000Y-104755215D01*
X223912001Y-104755215D01*
X223918453Y-104815236D01*
X223918454Y-104815241D01*
X223969098Y-104951020D01*
X223969102Y-104951027D01*
X224055952Y-105067047D01*
X224171972Y-105153897D01*
X224171979Y-105153901D01*
X224307756Y-105204544D01*
X224307766Y-105204547D01*
X224367790Y-105210999D01*
X224474500Y-105210999D01*
X224982500Y-105210999D01*
X225089200Y-105210999D01*
X225089215Y-105210998D01*
X225149236Y-105204546D01*
X225149241Y-105204545D01*
X225285020Y-105153901D01*
X225285027Y-105153897D01*
X225401047Y-105067047D01*
X225487897Y-104951027D01*
X225487901Y-104951020D01*
X225538544Y-104815243D01*
X225538547Y-104815233D01*
X225544999Y-104755214D01*
X225545000Y-104755203D01*
X225545000Y-103886000D01*
X224982500Y-103886000D01*
X224982500Y-105210999D01*
X224474500Y-105210999D01*
X224474500Y-103886000D01*
X223912001Y-103886000D01*
X223912001Y-104755215D01*
X223520000Y-104755215D01*
X223520000Y-102508785D01*
X223912000Y-102508785D01*
X223912000Y-103378000D01*
X224474500Y-103378000D01*
X224982500Y-103378000D01*
X225544999Y-103378000D01*
X225544999Y-102508799D01*
X225544998Y-102508784D01*
X225538546Y-102448763D01*
X225538545Y-102448758D01*
X225487901Y-102312979D01*
X225487897Y-102312972D01*
X225401047Y-102196952D01*
X225285027Y-102110102D01*
X225285020Y-102110098D01*
X225155392Y-102061748D01*
X225155389Y-102061748D01*
X225149239Y-102059454D01*
X225149233Y-102059452D01*
X225089214Y-102053000D01*
X224982500Y-102053000D01*
X224982500Y-103378000D01*
X224474500Y-103378000D01*
X224474500Y-102053000D01*
X224367799Y-102053000D01*
X224367784Y-102053001D01*
X224307763Y-102059453D01*
X224307758Y-102059454D01*
X224171979Y-102110098D01*
X224171972Y-102110102D01*
X224055952Y-102196952D01*
X223969102Y-102312972D01*
X223969098Y-102312979D01*
X223918455Y-102448756D01*
X223918452Y-102448766D01*
X223912000Y-102508785D01*
X223520000Y-102508785D01*
X223520000Y-101994982D01*
X228131000Y-101994982D01*
X228131000Y-102616000D01*
X228862032Y-102616000D01*
X228815667Y-102696306D01*
X228785000Y-102810756D01*
X228785000Y-102929244D01*
X228815667Y-103043694D01*
X228862032Y-103124000D01*
X228131001Y-103124000D01*
X228131001Y-103745017D01*
X228145737Y-103819105D01*
X228201876Y-103903124D01*
X228285894Y-103959262D01*
X228285896Y-103959263D01*
X228359982Y-103973999D01*
X228981000Y-103973999D01*
X228981000Y-103242968D01*
X229061306Y-103289333D01*
X229175756Y-103320000D01*
X229294244Y-103320000D01*
X229408694Y-103289333D01*
X229489000Y-103242968D01*
X229489000Y-103973999D01*
X230110016Y-103973999D01*
X230110017Y-103973998D01*
X230184105Y-103959262D01*
X230268124Y-103903123D01*
X230324262Y-103819105D01*
X230324263Y-103819103D01*
X230339000Y-103745017D01*
X230339000Y-103124000D01*
X229607968Y-103124000D01*
X229654333Y-103043694D01*
X229685000Y-102929244D01*
X229685000Y-102810756D01*
X229654333Y-102696306D01*
X229607968Y-102616000D01*
X230338999Y-102616000D01*
X230338999Y-101994984D01*
X230338998Y-101994982D01*
X230324262Y-101920894D01*
X230268123Y-101836875D01*
X230184105Y-101780737D01*
X230184103Y-101780736D01*
X230110018Y-101766000D01*
X229489000Y-101766000D01*
X229489000Y-102497031D01*
X229408694Y-102450667D01*
X229294244Y-102420000D01*
X229175756Y-102420000D01*
X229061306Y-102450667D01*
X228981000Y-102497031D01*
X228981000Y-101766000D01*
X228359984Y-101766000D01*
X228359982Y-101766001D01*
X228285894Y-101780737D01*
X228201875Y-101836876D01*
X228145737Y-101920894D01*
X228145736Y-101920896D01*
X228131000Y-101994982D01*
X223520000Y-101994982D01*
X223520000Y-100691215D01*
X223912001Y-100691215D01*
X223918453Y-100751236D01*
X223918454Y-100751241D01*
X223969098Y-100887020D01*
X223969102Y-100887027D01*
X224055952Y-101003047D01*
X224171972Y-101089897D01*
X224171979Y-101089901D01*
X224307756Y-101140544D01*
X224307766Y-101140547D01*
X224367790Y-101146999D01*
X224474500Y-101146999D01*
X224982500Y-101146999D01*
X225089200Y-101146999D01*
X225089215Y-101146998D01*
X225149236Y-101140546D01*
X225149241Y-101140545D01*
X225285020Y-101089901D01*
X225285027Y-101089897D01*
X225401047Y-101003047D01*
X225487897Y-100887027D01*
X225487901Y-100887020D01*
X225538544Y-100751243D01*
X225538547Y-100751233D01*
X225544999Y-100691214D01*
X225545000Y-100691203D01*
X225545000Y-99822000D01*
X224982500Y-99822000D01*
X224982500Y-101146999D01*
X224474500Y-101146999D01*
X224474500Y-99822000D01*
X223912001Y-99822000D01*
X223912001Y-100691215D01*
X223520000Y-100691215D01*
X223520000Y-98444785D01*
X223912000Y-98444785D01*
X223912000Y-99314000D01*
X224474500Y-99314000D01*
X224982500Y-99314000D01*
X225544999Y-99314000D01*
X225544999Y-98444799D01*
X225544998Y-98444784D01*
X225538546Y-98384763D01*
X225538545Y-98384758D01*
X225487901Y-98248979D01*
X225487897Y-98248972D01*
X225401047Y-98132952D01*
X225285027Y-98046102D01*
X225285020Y-98046098D01*
X225149243Y-97995455D01*
X225149233Y-97995452D01*
X225089214Y-97989000D01*
X224982500Y-97989000D01*
X224982500Y-99314000D01*
X224474500Y-99314000D01*
X224474500Y-97989000D01*
X224367799Y-97989000D01*
X224367784Y-97989001D01*
X224307763Y-97995453D01*
X224307758Y-97995454D01*
X224171979Y-98046098D01*
X224171972Y-98046102D01*
X224055952Y-98132952D01*
X223969102Y-98248972D01*
X223969098Y-98248979D01*
X223918455Y-98384756D01*
X223918452Y-98384766D01*
X223912000Y-98444785D01*
X223520000Y-98444785D01*
X223520000Y-96627215D01*
X223912001Y-96627215D01*
X223918453Y-96687236D01*
X223918454Y-96687241D01*
X223969098Y-96823020D01*
X223969102Y-96823027D01*
X224055952Y-96939047D01*
X224171972Y-97025897D01*
X224171979Y-97025901D01*
X224307756Y-97076544D01*
X224307766Y-97076547D01*
X224367790Y-97082999D01*
X224474500Y-97082999D01*
X224982500Y-97082999D01*
X225089200Y-97082999D01*
X225089215Y-97082998D01*
X225149236Y-97076546D01*
X225149241Y-97076545D01*
X225285020Y-97025901D01*
X225285027Y-97025897D01*
X225401047Y-96939047D01*
X225487897Y-96823027D01*
X225487901Y-96823020D01*
X225538544Y-96687243D01*
X225538547Y-96687233D01*
X225544999Y-96627214D01*
X225545000Y-96627203D01*
X225545000Y-95758000D01*
X224982500Y-95758000D01*
X224982500Y-97082999D01*
X224474500Y-97082999D01*
X224474500Y-95758000D01*
X223912001Y-95758000D01*
X223912001Y-96627215D01*
X223520000Y-96627215D01*
X223520000Y-94380785D01*
X223912000Y-94380785D01*
X223912000Y-95250000D01*
X224474500Y-95250000D01*
X224982500Y-95250000D01*
X225544999Y-95250000D01*
X225544999Y-94380799D01*
X225544998Y-94380784D01*
X225538546Y-94320763D01*
X225538545Y-94320758D01*
X225487901Y-94184979D01*
X225487897Y-94184972D01*
X225401047Y-94068952D01*
X225285027Y-93982102D01*
X225285020Y-93982098D01*
X225149243Y-93931455D01*
X225149233Y-93931452D01*
X225089214Y-93925000D01*
X224982500Y-93925000D01*
X224982500Y-95250000D01*
X224474500Y-95250000D01*
X224474500Y-93925000D01*
X224367799Y-93925000D01*
X224367784Y-93925001D01*
X224307763Y-93931453D01*
X224307758Y-93931454D01*
X224171979Y-93982098D01*
X224171972Y-93982102D01*
X224055952Y-94068952D01*
X223969102Y-94184972D01*
X223969098Y-94184979D01*
X223918455Y-94320756D01*
X223918452Y-94320766D01*
X223912000Y-94380785D01*
X223520000Y-94380785D01*
X223520000Y-92563215D01*
X223912001Y-92563215D01*
X223918453Y-92623236D01*
X223918454Y-92623241D01*
X223969098Y-92759020D01*
X223969102Y-92759027D01*
X224055952Y-92875047D01*
X224171972Y-92961897D01*
X224171979Y-92961901D01*
X224307756Y-93012544D01*
X224307766Y-93012547D01*
X224367790Y-93018999D01*
X224474500Y-93018999D01*
X224982500Y-93018999D01*
X225089200Y-93018999D01*
X225089215Y-93018998D01*
X225149236Y-93012546D01*
X225149241Y-93012545D01*
X225285020Y-92961901D01*
X225285027Y-92961897D01*
X225401047Y-92875047D01*
X225487897Y-92759027D01*
X225487901Y-92759020D01*
X225538544Y-92623243D01*
X225538547Y-92623233D01*
X225544999Y-92563214D01*
X225545000Y-92563203D01*
X225545000Y-91694000D01*
X224982500Y-91694000D01*
X224982500Y-93018999D01*
X224474500Y-93018999D01*
X224474500Y-91694000D01*
X223912001Y-91694000D01*
X223912001Y-92563215D01*
X223520000Y-92563215D01*
X223520000Y-90316785D01*
X223912000Y-90316785D01*
X223912000Y-91186000D01*
X224474500Y-91186000D01*
X224982500Y-91186000D01*
X225544999Y-91186000D01*
X225544999Y-90316799D01*
X225544998Y-90316784D01*
X225538546Y-90256763D01*
X225538545Y-90256758D01*
X225487901Y-90120979D01*
X225487897Y-90120972D01*
X225401047Y-90004952D01*
X225285027Y-89918102D01*
X225285020Y-89918098D01*
X225149243Y-89867455D01*
X225149233Y-89867452D01*
X225089214Y-89861000D01*
X224982500Y-89861000D01*
X224982500Y-91186000D01*
X224474500Y-91186000D01*
X224474500Y-89861000D01*
X224367799Y-89861000D01*
X224367784Y-89861001D01*
X224307763Y-89867453D01*
X224307758Y-89867454D01*
X224171979Y-89918098D01*
X224171972Y-89918102D01*
X224055952Y-90004952D01*
X223969102Y-90120972D01*
X223969098Y-90120979D01*
X223918455Y-90256756D01*
X223918452Y-90256766D01*
X223912000Y-90316785D01*
X223520000Y-90316785D01*
X223520000Y-88957935D01*
X223537593Y-88909597D01*
X223542026Y-88904761D01*
X223569016Y-88877771D01*
X223626957Y-88764055D01*
X223639286Y-88686215D01*
X223885001Y-88686215D01*
X223891453Y-88746236D01*
X223891454Y-88746241D01*
X223942098Y-88882020D01*
X223942102Y-88882027D01*
X224028952Y-88998047D01*
X224144972Y-89084897D01*
X224144979Y-89084901D01*
X224280756Y-89135544D01*
X224280766Y-89135547D01*
X224340790Y-89141999D01*
X224410000Y-89141999D01*
X224918000Y-89141999D01*
X224987200Y-89141999D01*
X224987215Y-89141998D01*
X225047236Y-89135546D01*
X225047241Y-89135545D01*
X225183020Y-89084901D01*
X225183027Y-89084897D01*
X225299047Y-88998047D01*
X225385897Y-88882027D01*
X225385901Y-88882020D01*
X225436544Y-88746243D01*
X225436547Y-88746233D01*
X225442999Y-88686214D01*
X225443000Y-88686203D01*
X225443000Y-88392000D01*
X224918000Y-88392000D01*
X224918000Y-89141999D01*
X224410000Y-89141999D01*
X224410000Y-88392000D01*
X223885001Y-88392000D01*
X223885001Y-88686215D01*
X223639286Y-88686215D01*
X223641900Y-88669708D01*
X223641900Y-87606292D01*
X223639286Y-87589785D01*
X223885000Y-87589785D01*
X223885000Y-87884000D01*
X224410000Y-87884000D01*
X224918000Y-87884000D01*
X225442999Y-87884000D01*
X225442999Y-87589799D01*
X225442998Y-87589784D01*
X225436546Y-87529763D01*
X225436545Y-87529758D01*
X225385901Y-87393979D01*
X225385897Y-87393972D01*
X225299047Y-87277952D01*
X225183027Y-87191102D01*
X225183020Y-87191098D01*
X225047243Y-87140455D01*
X225047233Y-87140452D01*
X224987214Y-87134000D01*
X224918000Y-87134000D01*
X224918000Y-87884000D01*
X224410000Y-87884000D01*
X224410000Y-87134000D01*
X224340799Y-87134000D01*
X224340784Y-87134001D01*
X224280763Y-87140453D01*
X224280758Y-87140454D01*
X224144979Y-87191098D01*
X224144972Y-87191102D01*
X224028952Y-87277952D01*
X223942102Y-87393972D01*
X223942098Y-87393979D01*
X223891455Y-87529756D01*
X223891452Y-87529766D01*
X223885000Y-87589785D01*
X223639286Y-87589785D01*
X223626957Y-87511945D01*
X223569016Y-87398229D01*
X223542026Y-87371239D01*
X223520286Y-87324619D01*
X223520000Y-87318065D01*
X223520000Y-86435200D01*
X223537593Y-86386862D01*
X223582142Y-86361142D01*
X223595200Y-86360000D01*
X225984800Y-86360000D01*
X226033138Y-86377593D01*
G37*
%TD.AperFunction*%
%TD*%
%TA.AperFunction,Conductor*%
%TO.N,GND*%
G36*
X176757138Y-106062593D02*
G01*
X176782858Y-106107142D01*
X176784000Y-106120200D01*
X176784000Y-109525800D01*
X176766407Y-109574138D01*
X176721858Y-109599858D01*
X176708800Y-109601000D01*
X171906200Y-109601000D01*
X171857862Y-109583407D01*
X171832142Y-109538858D01*
X171831000Y-109525800D01*
X171831000Y-109041694D01*
X172129000Y-109041694D01*
X172131875Y-109072350D01*
X172131877Y-109072359D01*
X172177076Y-109201533D01*
X172177078Y-109201536D01*
X172258347Y-109311652D01*
X172368463Y-109392921D01*
X172368466Y-109392923D01*
X172497640Y-109438122D01*
X172497649Y-109438124D01*
X172528305Y-109440999D01*
X172528308Y-109441000D01*
X172656000Y-109441000D01*
X172910000Y-109441000D01*
X173037692Y-109441000D01*
X173037694Y-109440999D01*
X173068350Y-109438124D01*
X173068359Y-109438122D01*
X173197533Y-109392923D01*
X173197536Y-109392921D01*
X173307652Y-109311652D01*
X173388921Y-109201536D01*
X173388923Y-109201533D01*
X173434122Y-109072359D01*
X173434124Y-109072350D01*
X173436999Y-109041694D01*
X173437000Y-109041692D01*
X173437000Y-108884215D01*
X174780001Y-108884215D01*
X174786453Y-108944236D01*
X174786454Y-108944241D01*
X174837098Y-109080020D01*
X174837102Y-109080027D01*
X174923952Y-109196047D01*
X175039972Y-109282897D01*
X175039979Y-109282901D01*
X175175756Y-109333544D01*
X175175766Y-109333547D01*
X175235791Y-109339999D01*
X175507000Y-109339999D01*
X175761000Y-109339999D01*
X176032200Y-109339999D01*
X176032215Y-109339998D01*
X176092236Y-109333546D01*
X176092241Y-109333545D01*
X176228020Y-109282901D01*
X176228027Y-109282897D01*
X176344047Y-109196047D01*
X176430897Y-109080027D01*
X176430901Y-109080020D01*
X176481544Y-108944243D01*
X176481547Y-108944233D01*
X176487999Y-108884214D01*
X176488000Y-108884203D01*
X176488000Y-108338000D01*
X175761000Y-108338000D01*
X175761000Y-109339999D01*
X175507000Y-109339999D01*
X175507000Y-108338000D01*
X174780001Y-108338000D01*
X174780001Y-108884215D01*
X173437000Y-108884215D01*
X173437000Y-108839000D01*
X172910000Y-108839000D01*
X172910000Y-109441000D01*
X172656000Y-109441000D01*
X172656000Y-108839000D01*
X172129000Y-108839000D01*
X172129000Y-109041694D01*
X171831000Y-109041694D01*
X171831000Y-108382305D01*
X172129000Y-108382305D01*
X172129000Y-108585000D01*
X172656000Y-108585000D01*
X172910000Y-108585000D01*
X173437000Y-108585000D01*
X173437000Y-108382308D01*
X173436999Y-108382305D01*
X173434124Y-108351649D01*
X173434122Y-108351640D01*
X173427141Y-108331688D01*
X173388923Y-108222466D01*
X173388921Y-108222463D01*
X173307652Y-108112347D01*
X173197536Y-108031078D01*
X173197533Y-108031076D01*
X173068359Y-107985877D01*
X173068350Y-107985875D01*
X173037694Y-107983000D01*
X172910000Y-107983000D01*
X172910000Y-108585000D01*
X172656000Y-108585000D01*
X172656000Y-107983000D01*
X172528305Y-107983000D01*
X172497649Y-107985875D01*
X172497640Y-107985877D01*
X172368466Y-108031076D01*
X172368463Y-108031078D01*
X172258347Y-108112347D01*
X172177078Y-108222463D01*
X172177076Y-108222466D01*
X172131877Y-108351640D01*
X172131875Y-108351649D01*
X172129000Y-108382305D01*
X171831000Y-108382305D01*
X171831000Y-107229823D01*
X172029000Y-107229823D01*
X172035132Y-107286864D01*
X172035133Y-107286867D01*
X172083269Y-107415922D01*
X172083270Y-107415924D01*
X172165813Y-107526186D01*
X172276075Y-107608729D01*
X172276077Y-107608730D01*
X172405132Y-107656866D01*
X172405135Y-107656867D01*
X172462176Y-107662999D01*
X172462188Y-107663000D01*
X172606000Y-107663000D01*
X172860000Y-107663000D01*
X173003812Y-107663000D01*
X173003823Y-107662999D01*
X173060864Y-107656867D01*
X173060867Y-107656866D01*
X173189922Y-107608730D01*
X173189924Y-107608729D01*
X173284692Y-107537785D01*
X174780000Y-107537785D01*
X174780000Y-108084000D01*
X175507000Y-108084000D01*
X175761000Y-108084000D01*
X176487999Y-108084000D01*
X176487999Y-107537799D01*
X176487998Y-107537784D01*
X176481546Y-107477763D01*
X176481545Y-107477758D01*
X176430901Y-107341979D01*
X176430897Y-107341972D01*
X176344047Y-107225952D01*
X176228027Y-107139102D01*
X176228020Y-107139098D01*
X176092243Y-107088455D01*
X176092233Y-107088452D01*
X176032214Y-107082000D01*
X175761000Y-107082000D01*
X175761000Y-108084000D01*
X175507000Y-108084000D01*
X175507000Y-107082000D01*
X175235799Y-107082000D01*
X175235784Y-107082001D01*
X175175763Y-107088453D01*
X175175758Y-107088454D01*
X175039979Y-107139098D01*
X175039972Y-107139102D01*
X174923952Y-107225952D01*
X174837102Y-107341972D01*
X174837098Y-107341979D01*
X174786455Y-107477756D01*
X174786452Y-107477766D01*
X174780000Y-107537785D01*
X173284692Y-107537785D01*
X173300186Y-107526186D01*
X173326746Y-107490709D01*
X173382729Y-107415924D01*
X173382730Y-107415922D01*
X173430866Y-107286867D01*
X173430867Y-107286864D01*
X173436999Y-107229823D01*
X173437000Y-107229812D01*
X173437000Y-107061000D01*
X172860000Y-107061000D01*
X172860000Y-107663000D01*
X172606000Y-107663000D01*
X172606000Y-107061000D01*
X172029000Y-107061000D01*
X172029000Y-107229823D01*
X171831000Y-107229823D01*
X171831000Y-106638176D01*
X172029000Y-106638176D01*
X172029000Y-106807000D01*
X172606000Y-106807000D01*
X172860000Y-106807000D01*
X173437000Y-106807000D01*
X173437000Y-106638188D01*
X173436999Y-106638176D01*
X173430867Y-106581135D01*
X173430866Y-106581132D01*
X173382730Y-106452077D01*
X173382729Y-106452075D01*
X173300186Y-106341813D01*
X173189924Y-106259270D01*
X173189922Y-106259269D01*
X173060867Y-106211133D01*
X173060864Y-106211132D01*
X173003823Y-106205000D01*
X172860000Y-106205000D01*
X172860000Y-106807000D01*
X172606000Y-106807000D01*
X172606000Y-106205000D01*
X172462176Y-106205000D01*
X172405135Y-106211132D01*
X172405132Y-106211133D01*
X172276077Y-106259269D01*
X172276075Y-106259270D01*
X172165813Y-106341813D01*
X172083270Y-106452075D01*
X172083269Y-106452077D01*
X172035133Y-106581132D01*
X172035132Y-106581135D01*
X172029000Y-106638176D01*
X171831000Y-106638176D01*
X171831000Y-106120200D01*
X171848593Y-106071862D01*
X171893142Y-106046142D01*
X171906200Y-106045000D01*
X176708800Y-106045000D01*
X176757138Y-106062593D01*
G37*
%TD.AperFunction*%
%TD*%
%TA.AperFunction,Conductor*%
%TO.N,Net-(D4-K)*%
G36*
X174725138Y-86377593D02*
G01*
X174750858Y-86422142D01*
X174752000Y-86435200D01*
X174752000Y-92103408D01*
X174734407Y-92151746D01*
X174729974Y-92156582D01*
X173944582Y-92941974D01*
X173897962Y-92963714D01*
X173891408Y-92964000D01*
X170942000Y-92964000D01*
X170942000Y-95174800D01*
X170924407Y-95223138D01*
X170879858Y-95248858D01*
X170866800Y-95250000D01*
X165048200Y-95250000D01*
X164999862Y-95232407D01*
X164974142Y-95187858D01*
X164973000Y-95174800D01*
X164973000Y-94742000D01*
X165172283Y-94742000D01*
X165735000Y-94742000D01*
X166497000Y-94742000D01*
X167059717Y-94742000D01*
X167012897Y-94616473D01*
X167012897Y-94616472D01*
X166926047Y-94500452D01*
X166810027Y-94413602D01*
X166810020Y-94413598D01*
X166674243Y-94362955D01*
X166674233Y-94362952D01*
X166614214Y-94356500D01*
X166497000Y-94356500D01*
X166497000Y-94742000D01*
X165735000Y-94742000D01*
X165735000Y-94356500D01*
X165617799Y-94356500D01*
X165617784Y-94356501D01*
X165557763Y-94362953D01*
X165557758Y-94362954D01*
X165421979Y-94413598D01*
X165421972Y-94413602D01*
X165305952Y-94500452D01*
X165219102Y-94616472D01*
X165219102Y-94616473D01*
X165172283Y-94742000D01*
X164973000Y-94742000D01*
X164973000Y-94162785D01*
X168414000Y-94162785D01*
X168414000Y-94162796D01*
X168414001Y-94780000D01*
X169037000Y-94780000D01*
X169799000Y-94780000D01*
X170422000Y-94780000D01*
X170421999Y-94162799D01*
X170421998Y-94162784D01*
X170415546Y-94102763D01*
X170415545Y-94102758D01*
X170364901Y-93966979D01*
X170364897Y-93966972D01*
X170278047Y-93850952D01*
X170162027Y-93764102D01*
X170162020Y-93764098D01*
X170026243Y-93713455D01*
X170026233Y-93713452D01*
X169966214Y-93707000D01*
X169799000Y-93707000D01*
X169799000Y-94780000D01*
X169037000Y-94780000D01*
X169037000Y-93707000D01*
X168869799Y-93707000D01*
X168869784Y-93707001D01*
X168809763Y-93713453D01*
X168809758Y-93713454D01*
X168673979Y-93764098D01*
X168673972Y-93764102D01*
X168557952Y-93850952D01*
X168471102Y-93966972D01*
X168471098Y-93966979D01*
X168420455Y-94102756D01*
X168420452Y-94102766D01*
X168414000Y-94162785D01*
X164973000Y-94162785D01*
X164973000Y-93039200D01*
X164990593Y-92990862D01*
X165035142Y-92965142D01*
X165048200Y-92964000D01*
X167640000Y-92964000D01*
X167640000Y-92160215D01*
X168264001Y-92160215D01*
X168270453Y-92220236D01*
X168270454Y-92220241D01*
X168321098Y-92356020D01*
X168321102Y-92356027D01*
X168407952Y-92472047D01*
X168523972Y-92558897D01*
X168523979Y-92558901D01*
X168659756Y-92609544D01*
X168659766Y-92609547D01*
X168719791Y-92615999D01*
X169037000Y-92615999D01*
X169799000Y-92615999D01*
X170116200Y-92615999D01*
X170116215Y-92615998D01*
X170176236Y-92609546D01*
X170176241Y-92609545D01*
X170312020Y-92558901D01*
X170312027Y-92558897D01*
X170428047Y-92472047D01*
X170514897Y-92356027D01*
X170514901Y-92356020D01*
X170565544Y-92220243D01*
X170565547Y-92220233D01*
X170571999Y-92160215D01*
X171810001Y-92160215D01*
X171816453Y-92220236D01*
X171816454Y-92220241D01*
X171867098Y-92356020D01*
X171867102Y-92356027D01*
X171953952Y-92472047D01*
X172069972Y-92558897D01*
X172069979Y-92558901D01*
X172205756Y-92609544D01*
X172205766Y-92609547D01*
X172265791Y-92615999D01*
X172583000Y-92615999D01*
X173345000Y-92615999D01*
X173662200Y-92615999D01*
X173662215Y-92615998D01*
X173722236Y-92609546D01*
X173722241Y-92609545D01*
X173858020Y-92558901D01*
X173858027Y-92558897D01*
X173974047Y-92472047D01*
X174060897Y-92356027D01*
X174060901Y-92356020D01*
X174111544Y-92220243D01*
X174111547Y-92220233D01*
X174117999Y-92160214D01*
X174118000Y-92160203D01*
X174118000Y-90043000D01*
X173345000Y-90043000D01*
X173345000Y-92615999D01*
X172583000Y-92615999D01*
X172583000Y-90043000D01*
X171810001Y-90043000D01*
X171810001Y-92160215D01*
X170571999Y-92160215D01*
X170571999Y-92160214D01*
X170572000Y-92160203D01*
X170572000Y-90043000D01*
X169799000Y-90043000D01*
X169799000Y-92615999D01*
X169037000Y-92615999D01*
X169037000Y-90043000D01*
X168264001Y-90043000D01*
X168264001Y-92160215D01*
X167640000Y-92160215D01*
X167640000Y-87163785D01*
X168264000Y-87163785D01*
X168264000Y-89281000D01*
X169037000Y-89281000D01*
X169799000Y-89281000D01*
X170571999Y-89281000D01*
X170571999Y-87163800D01*
X170571998Y-87163785D01*
X171810000Y-87163785D01*
X171810000Y-89281000D01*
X172583000Y-89281000D01*
X173345000Y-89281000D01*
X174117999Y-89281000D01*
X174117999Y-87163799D01*
X174117998Y-87163784D01*
X174111546Y-87103763D01*
X174111545Y-87103758D01*
X174060901Y-86967979D01*
X174060897Y-86967972D01*
X173974047Y-86851952D01*
X173858027Y-86765102D01*
X173858020Y-86765098D01*
X173722243Y-86714455D01*
X173722233Y-86714452D01*
X173662214Y-86708000D01*
X173345000Y-86708000D01*
X173345000Y-89281000D01*
X172583000Y-89281000D01*
X172583000Y-86708000D01*
X172265799Y-86708000D01*
X172265784Y-86708001D01*
X172205763Y-86714453D01*
X172205758Y-86714454D01*
X172069979Y-86765098D01*
X172069972Y-86765102D01*
X171953952Y-86851952D01*
X171867102Y-86967972D01*
X171867098Y-86967979D01*
X171816455Y-87103756D01*
X171816452Y-87103766D01*
X171810000Y-87163785D01*
X170571998Y-87163785D01*
X170571998Y-87163783D01*
X170565546Y-87103763D01*
X170565545Y-87103758D01*
X170514901Y-86967979D01*
X170514897Y-86967972D01*
X170428047Y-86851952D01*
X170312027Y-86765102D01*
X170312020Y-86765098D01*
X170176243Y-86714455D01*
X170176233Y-86714452D01*
X170116214Y-86708000D01*
X169799000Y-86708000D01*
X169799000Y-89281000D01*
X169037000Y-89281000D01*
X169037000Y-86708000D01*
X168719799Y-86708000D01*
X168719784Y-86708001D01*
X168659763Y-86714453D01*
X168659758Y-86714454D01*
X168523979Y-86765098D01*
X168523972Y-86765102D01*
X168407952Y-86851952D01*
X168321102Y-86967972D01*
X168321098Y-86967979D01*
X168270455Y-87103756D01*
X168270452Y-87103766D01*
X168264000Y-87163785D01*
X167640000Y-87163785D01*
X167640000Y-86435200D01*
X167657593Y-86386862D01*
X167702142Y-86361142D01*
X167715200Y-86360000D01*
X174676800Y-86360000D01*
X174725138Y-86377593D01*
G37*
%TD.AperFunction*%
%TD*%
%TA.AperFunction,Conductor*%
%TO.N,Net-(D5-K)*%
G36*
X176437660Y-93235593D02*
G01*
X176463380Y-93280142D01*
X176464515Y-93292197D01*
X176468206Y-93569056D01*
X176468538Y-93577419D01*
X176469062Y-93585324D01*
X176472288Y-93597113D01*
X176468077Y-93648380D01*
X176431897Y-93684946D01*
X176380678Y-93689701D01*
X176339554Y-93662027D01*
X176314045Y-93627951D01*
X176198027Y-93541102D01*
X176062233Y-93490453D01*
X176060000Y-93490212D01*
X176060000Y-95485787D01*
X176062229Y-95485548D01*
X176198026Y-95434897D01*
X176198027Y-95434897D01*
X176314047Y-95348047D01*
X176394599Y-95240441D01*
X176396439Y-95239237D01*
X176397193Y-95237168D01*
X176417779Y-95225282D01*
X176437651Y-95212288D01*
X176439834Y-95212549D01*
X176441742Y-95211448D01*
X176465144Y-95215574D01*
X176488727Y-95218394D01*
X176490233Y-95219998D01*
X176492400Y-95220381D01*
X176507670Y-95238579D01*
X176523928Y-95255903D01*
X176524484Y-95258617D01*
X176525465Y-95259786D01*
X176530000Y-95285506D01*
X176530000Y-95289414D01*
X176519398Y-95323838D01*
X176521006Y-95324648D01*
X176518791Y-95329043D01*
X176501843Y-95377614D01*
X176493042Y-95431735D01*
X176493041Y-95431747D01*
X176498124Y-95812903D01*
X176498805Y-95825599D01*
X176499941Y-95837660D01*
X176499941Y-95837661D01*
X176520398Y-95901802D01*
X176522033Y-95905501D01*
X176521229Y-95905856D01*
X176530000Y-95938583D01*
X176530000Y-96122463D01*
X176512407Y-96170801D01*
X176467858Y-96196521D01*
X176417200Y-96187588D01*
X176394599Y-96167528D01*
X176326047Y-96075952D01*
X176210027Y-95989102D01*
X176074232Y-95938453D01*
X176074230Y-95938452D01*
X176022000Y-95932836D01*
X176022000Y-99139161D01*
X176074229Y-99133548D01*
X176074241Y-99133545D01*
X176210020Y-99082901D01*
X176210027Y-99082897D01*
X176326047Y-98996047D01*
X176394599Y-98904471D01*
X176437651Y-98876318D01*
X176488727Y-98882424D01*
X176523928Y-98919933D01*
X176530000Y-98949536D01*
X176530000Y-102794800D01*
X176512407Y-102843138D01*
X176467858Y-102868858D01*
X176454800Y-102870000D01*
X174573200Y-102870000D01*
X174524862Y-102852407D01*
X174499142Y-102807858D01*
X174498000Y-102794800D01*
X174498000Y-102304199D01*
X174498000Y-102222999D01*
X175221000Y-102222999D01*
X175838200Y-102222999D01*
X175838215Y-102222998D01*
X175898236Y-102216546D01*
X175898241Y-102216545D01*
X176034020Y-102165901D01*
X176034027Y-102165897D01*
X176150047Y-102079047D01*
X176236897Y-101963027D01*
X176236901Y-101963020D01*
X176287544Y-101827243D01*
X176287547Y-101827233D01*
X176293999Y-101767214D01*
X176294000Y-101767203D01*
X176294000Y-101600000D01*
X175221000Y-101600000D01*
X175221000Y-102222999D01*
X174498000Y-102222999D01*
X174498000Y-100838000D01*
X175221000Y-100838000D01*
X176293999Y-100838000D01*
X176293999Y-100670799D01*
X176293998Y-100670784D01*
X176287546Y-100610763D01*
X176287545Y-100610758D01*
X176236901Y-100474979D01*
X176236897Y-100474972D01*
X176150047Y-100358952D01*
X176034027Y-100272102D01*
X176034020Y-100272098D01*
X175898243Y-100221455D01*
X175898233Y-100221452D01*
X175838214Y-100215000D01*
X175221000Y-100215000D01*
X175221000Y-100838000D01*
X174498000Y-100838000D01*
X174498000Y-98684215D01*
X174812001Y-98684215D01*
X174818453Y-98744236D01*
X174818454Y-98744241D01*
X174869098Y-98880020D01*
X174869102Y-98880027D01*
X174955952Y-98996047D01*
X175071972Y-99082897D01*
X175071979Y-99082901D01*
X175207758Y-99133545D01*
X175207763Y-99133546D01*
X175259999Y-99139161D01*
X175260000Y-99139161D01*
X175260000Y-97917000D01*
X174812001Y-97917000D01*
X174812001Y-98684215D01*
X174498000Y-98684215D01*
X174498000Y-96387785D01*
X174812000Y-96387785D01*
X174812000Y-97155000D01*
X175260000Y-97155000D01*
X175260000Y-95932838D01*
X175259999Y-95932838D01*
X175207763Y-95938453D01*
X175207758Y-95938454D01*
X175071979Y-95989098D01*
X175071972Y-95989102D01*
X174955952Y-96075952D01*
X174869102Y-96191972D01*
X174869098Y-96191979D01*
X174818455Y-96327756D01*
X174818452Y-96327766D01*
X174812000Y-96387785D01*
X174498000Y-96387785D01*
X174498000Y-95036215D01*
X174900001Y-95036215D01*
X174906453Y-95096236D01*
X174906454Y-95096241D01*
X174957098Y-95232020D01*
X174957102Y-95232027D01*
X175043952Y-95348047D01*
X175159972Y-95434897D01*
X175295770Y-95485548D01*
X175297999Y-95485787D01*
X175298000Y-95485787D01*
X175298000Y-94869000D01*
X174900001Y-94869000D01*
X174900001Y-95036215D01*
X174498000Y-95036215D01*
X174498000Y-93939785D01*
X174900000Y-93939785D01*
X174900000Y-94107000D01*
X175298000Y-94107000D01*
X175298000Y-93490212D01*
X175295766Y-93490453D01*
X175159973Y-93541102D01*
X175159972Y-93541102D01*
X175043952Y-93627952D01*
X174957102Y-93743972D01*
X174957098Y-93743979D01*
X174906455Y-93879756D01*
X174906452Y-93879766D01*
X174900000Y-93939785D01*
X174498000Y-93939785D01*
X174498000Y-93570592D01*
X174515593Y-93522254D01*
X174520026Y-93517418D01*
X174797418Y-93240026D01*
X174844038Y-93218286D01*
X174850592Y-93218000D01*
X176389322Y-93218000D01*
X176437660Y-93235593D01*
G37*
%TD.AperFunction*%
%TD*%
%TA.AperFunction,Conductor*%
%TO.N,Net-(D5-A)*%
G36*
X173201138Y-99966593D02*
G01*
X173226858Y-100011142D01*
X173228000Y-100024200D01*
X173228000Y-100305357D01*
X173210407Y-100353695D01*
X173165858Y-100379415D01*
X173115200Y-100370482D01*
X173104361Y-100362164D01*
X173104353Y-100362176D01*
X172984027Y-100272102D01*
X172848233Y-100221453D01*
X172846000Y-100221212D01*
X172846000Y-102216787D01*
X172848229Y-102216548D01*
X172984026Y-102165897D01*
X172984027Y-102165897D01*
X173104353Y-102075824D01*
X173105152Y-102076891D01*
X173146246Y-102057729D01*
X173195933Y-102071043D01*
X173225438Y-102113180D01*
X173228000Y-102132643D01*
X173228000Y-102413800D01*
X173210407Y-102462138D01*
X173165858Y-102487858D01*
X173152800Y-102489000D01*
X170890200Y-102489000D01*
X170841862Y-102471407D01*
X170816142Y-102426858D01*
X170815000Y-102413800D01*
X170815000Y-101767215D01*
X171686001Y-101767215D01*
X171692453Y-101827236D01*
X171692454Y-101827241D01*
X171743098Y-101963020D01*
X171743102Y-101963027D01*
X171829952Y-102079047D01*
X171945972Y-102165897D01*
X172081770Y-102216548D01*
X172083999Y-102216787D01*
X172084000Y-102216787D01*
X172084000Y-101600000D01*
X171686001Y-101600000D01*
X171686001Y-101767215D01*
X170815000Y-101767215D01*
X170815000Y-100670785D01*
X171686000Y-100670785D01*
X171686000Y-100838000D01*
X172084000Y-100838000D01*
X172084000Y-100221212D01*
X172081766Y-100221453D01*
X171945973Y-100272102D01*
X171945972Y-100272102D01*
X171829952Y-100358952D01*
X171743102Y-100474972D01*
X171743098Y-100474979D01*
X171692455Y-100610756D01*
X171692452Y-100610766D01*
X171686000Y-100670785D01*
X170815000Y-100670785D01*
X170815000Y-100024200D01*
X170832593Y-99975862D01*
X170877142Y-99950142D01*
X170890200Y-99949000D01*
X173152800Y-99949000D01*
X173201138Y-99966593D01*
G37*
%TD.AperFunction*%
%TD*%
%TA.AperFunction,Conductor*%
%TO.N,+12V*%
G36*
X161036000Y-94615000D02*
G01*
X155956000Y-94615000D01*
X155956000Y-96825800D01*
X155938407Y-96874138D01*
X155893858Y-96899858D01*
X155880800Y-96901000D01*
X151078200Y-96901000D01*
X151029862Y-96883407D01*
X151004142Y-96838858D01*
X151003000Y-96825800D01*
X151003000Y-95848215D01*
X151566001Y-95848215D01*
X151572453Y-95908236D01*
X151572454Y-95908241D01*
X151623098Y-96044020D01*
X151623102Y-96044027D01*
X151709952Y-96160047D01*
X151825972Y-96246897D01*
X151825979Y-96246901D01*
X151961756Y-96297544D01*
X151961766Y-96297547D01*
X152021791Y-96303999D01*
X152693000Y-96303999D01*
X152947000Y-96303999D01*
X153618200Y-96303999D01*
X153618215Y-96303998D01*
X153678236Y-96297546D01*
X153678241Y-96297545D01*
X153814020Y-96246901D01*
X153814027Y-96246897D01*
X153930047Y-96160047D01*
X154016897Y-96044027D01*
X154016901Y-96044020D01*
X154067544Y-95908243D01*
X154067547Y-95908233D01*
X154073999Y-95848214D01*
X154074000Y-95848203D01*
X154074000Y-95177000D01*
X152947000Y-95177000D01*
X152947000Y-96303999D01*
X152693000Y-96303999D01*
X152693000Y-95177000D01*
X151566001Y-95177000D01*
X151566001Y-95848215D01*
X151003000Y-95848215D01*
X151003000Y-94251785D01*
X151566000Y-94251785D01*
X151566000Y-94923000D01*
X152693000Y-94923000D01*
X152947000Y-94923000D01*
X154073999Y-94923000D01*
X154073999Y-94251799D01*
X154073998Y-94251784D01*
X154067546Y-94191763D01*
X154067545Y-94191758D01*
X154016901Y-94055979D01*
X154016897Y-94055972D01*
X153930047Y-93939952D01*
X153814027Y-93853102D01*
X153814020Y-93853098D01*
X153678243Y-93802455D01*
X153678233Y-93802452D01*
X153618214Y-93796000D01*
X152947000Y-93796000D01*
X152947000Y-94923000D01*
X152693000Y-94923000D01*
X152693000Y-93796000D01*
X152021799Y-93796000D01*
X152021784Y-93796001D01*
X151961763Y-93802453D01*
X151961758Y-93802454D01*
X151825979Y-93853098D01*
X151825972Y-93853102D01*
X151709952Y-93939952D01*
X151623102Y-94055972D01*
X151623098Y-94055979D01*
X151572455Y-94191756D01*
X151572452Y-94191766D01*
X151566000Y-94251785D01*
X151003000Y-94251785D01*
X151003000Y-89698215D01*
X151566001Y-89698215D01*
X151572453Y-89758236D01*
X151572454Y-89758241D01*
X151623098Y-89894020D01*
X151623102Y-89894027D01*
X151709952Y-90010047D01*
X151825972Y-90096897D01*
X151825979Y-90096901D01*
X151961756Y-90147544D01*
X151961766Y-90147547D01*
X152021791Y-90153999D01*
X152693000Y-90153999D01*
X152947000Y-90153999D01*
X153618200Y-90153999D01*
X153618215Y-90153998D01*
X153678236Y-90147546D01*
X153678241Y-90147545D01*
X153814020Y-90096901D01*
X153814027Y-90096897D01*
X153930047Y-90010047D01*
X154016897Y-89894027D01*
X154016901Y-89894020D01*
X154067544Y-89758243D01*
X154067547Y-89758233D01*
X154073999Y-89698214D01*
X154074000Y-89698203D01*
X154074000Y-89027000D01*
X152947000Y-89027000D01*
X152947000Y-90153999D01*
X152693000Y-90153999D01*
X152693000Y-89027000D01*
X151566001Y-89027000D01*
X151566001Y-89698215D01*
X151003000Y-89698215D01*
X151003000Y-88101785D01*
X151566000Y-88101785D01*
X151566000Y-88773000D01*
X152693000Y-88773000D01*
X152947000Y-88773000D01*
X154073999Y-88773000D01*
X154073999Y-88101799D01*
X154073998Y-88101784D01*
X154067546Y-88041763D01*
X154067545Y-88041758D01*
X154016901Y-87905979D01*
X154016897Y-87905972D01*
X153930047Y-87789952D01*
X153814027Y-87703102D01*
X153814020Y-87703098D01*
X153678243Y-87652455D01*
X153678233Y-87652452D01*
X153618214Y-87646000D01*
X152947000Y-87646000D01*
X152947000Y-88773000D01*
X152693000Y-88773000D01*
X152693000Y-87646000D01*
X152021799Y-87646000D01*
X152021784Y-87646001D01*
X151961763Y-87652453D01*
X151961758Y-87652454D01*
X151825979Y-87703098D01*
X151825972Y-87703102D01*
X151709952Y-87789952D01*
X151623102Y-87905972D01*
X151623098Y-87905979D01*
X151572455Y-88041756D01*
X151572452Y-88041766D01*
X151566000Y-88101785D01*
X151003000Y-88101785D01*
X151003000Y-86435200D01*
X151020593Y-86386862D01*
X151065142Y-86361142D01*
X151078200Y-86360000D01*
X161036000Y-86360000D01*
X161036000Y-94615000D01*
G37*
%TD.AperFunction*%
%TD*%
%TA.AperFunction,Conductor*%
%TO.N,GND*%
G36*
X143864138Y-87393593D02*
G01*
X143889858Y-87438142D01*
X143891000Y-87451200D01*
X143891000Y-90348800D01*
X143873407Y-90397138D01*
X143828858Y-90422858D01*
X143815800Y-90424000D01*
X140410200Y-90424000D01*
X140361862Y-90406407D01*
X140336142Y-90361858D01*
X140335000Y-90348800D01*
X140335000Y-89698215D01*
X140566001Y-89698215D01*
X140572453Y-89758236D01*
X140572454Y-89758241D01*
X140623098Y-89894020D01*
X140623102Y-89894027D01*
X140709952Y-90010047D01*
X140825972Y-90096897D01*
X140825979Y-90096901D01*
X140961756Y-90147544D01*
X140961766Y-90147547D01*
X141021791Y-90153999D01*
X141693000Y-90153999D01*
X141947000Y-90153999D01*
X142618200Y-90153999D01*
X142618215Y-90153998D01*
X142678236Y-90147546D01*
X142678241Y-90147545D01*
X142814020Y-90096901D01*
X142814027Y-90096897D01*
X142930047Y-90010047D01*
X143016897Y-89894027D01*
X143016901Y-89894020D01*
X143067544Y-89758243D01*
X143067547Y-89758233D01*
X143073999Y-89698214D01*
X143074000Y-89698203D01*
X143074000Y-89027000D01*
X141947000Y-89027000D01*
X141947000Y-90153999D01*
X141693000Y-90153999D01*
X141693000Y-89027000D01*
X140566001Y-89027000D01*
X140566001Y-89698215D01*
X140335000Y-89698215D01*
X140335000Y-88101785D01*
X140566000Y-88101785D01*
X140566000Y-88773000D01*
X141693000Y-88773000D01*
X141947000Y-88773000D01*
X143073999Y-88773000D01*
X143073999Y-88101799D01*
X143073998Y-88101784D01*
X143067546Y-88041763D01*
X143067545Y-88041758D01*
X143016901Y-87905979D01*
X143016897Y-87905972D01*
X142930047Y-87789952D01*
X142814027Y-87703102D01*
X142814020Y-87703098D01*
X142678243Y-87652455D01*
X142678233Y-87652452D01*
X142618214Y-87646000D01*
X141947000Y-87646000D01*
X141947000Y-88773000D01*
X141693000Y-88773000D01*
X141693000Y-87646000D01*
X141021799Y-87646000D01*
X141021784Y-87646001D01*
X140961763Y-87652453D01*
X140961758Y-87652454D01*
X140825979Y-87703098D01*
X140825972Y-87703102D01*
X140709952Y-87789952D01*
X140623102Y-87905972D01*
X140623098Y-87905979D01*
X140572455Y-88041756D01*
X140572452Y-88041766D01*
X140566000Y-88101785D01*
X140335000Y-88101785D01*
X140335000Y-87451200D01*
X140352593Y-87402862D01*
X140397142Y-87377142D01*
X140410200Y-87376000D01*
X143815800Y-87376000D01*
X143864138Y-87393593D01*
G37*
%TD.AperFunction*%
%TD*%
%TA.AperFunction,Conductor*%
%TO.N,/PDEC*%
G36*
X211682138Y-91457593D02*
G01*
X211707858Y-91502142D01*
X211709000Y-91515200D01*
X211709000Y-98984800D01*
X211691407Y-99033138D01*
X211646858Y-99058858D01*
X211633800Y-99060000D01*
X209931000Y-99060000D01*
X209931000Y-100000800D01*
X209913407Y-100049138D01*
X209868858Y-100074858D01*
X209855800Y-100076000D01*
X206121000Y-100076000D01*
X206121000Y-103810800D01*
X206103407Y-103859138D01*
X206058858Y-103884858D01*
X206045800Y-103886000D01*
X201624200Y-103886000D01*
X201575862Y-103868407D01*
X201550142Y-103823858D01*
X201549000Y-103810800D01*
X201549000Y-102548215D01*
X201941001Y-102548215D01*
X201947453Y-102608236D01*
X201947454Y-102608241D01*
X201998098Y-102744020D01*
X201998102Y-102744027D01*
X202084952Y-102860047D01*
X202200972Y-102946897D01*
X202200979Y-102946901D01*
X202336756Y-102997544D01*
X202336766Y-102997547D01*
X202396791Y-103003999D01*
X203191000Y-103003999D01*
X203699000Y-103003999D01*
X204493200Y-103003999D01*
X204493215Y-103003998D01*
X204553236Y-102997546D01*
X204553241Y-102997545D01*
X204689020Y-102946901D01*
X204689027Y-102946897D01*
X204805047Y-102860047D01*
X204891897Y-102744027D01*
X204891901Y-102744020D01*
X204942544Y-102608243D01*
X204942547Y-102608233D01*
X204948999Y-102548214D01*
X204949000Y-102548203D01*
X204949000Y-101854000D01*
X203699000Y-101854000D01*
X203699000Y-103003999D01*
X203191000Y-103003999D01*
X203191000Y-101854000D01*
X201941001Y-101854000D01*
X201941001Y-102548215D01*
X201549000Y-102548215D01*
X201549000Y-100651785D01*
X201941000Y-100651785D01*
X201941000Y-101346000D01*
X203191000Y-101346000D01*
X203699000Y-101346000D01*
X204948999Y-101346000D01*
X204948999Y-100651799D01*
X204948998Y-100651784D01*
X204942546Y-100591763D01*
X204942545Y-100591758D01*
X204891901Y-100455979D01*
X204891897Y-100455972D01*
X204805047Y-100339952D01*
X204689027Y-100253102D01*
X204689020Y-100253098D01*
X204553243Y-100202455D01*
X204553233Y-100202452D01*
X204493214Y-100196000D01*
X203699000Y-100196000D01*
X203699000Y-101346000D01*
X203191000Y-101346000D01*
X203191000Y-100196000D01*
X202396799Y-100196000D01*
X202396784Y-100196001D01*
X202336763Y-100202453D01*
X202336758Y-100202454D01*
X202200979Y-100253098D01*
X202200972Y-100253102D01*
X202084952Y-100339952D01*
X201998102Y-100455972D01*
X201998098Y-100455979D01*
X201947455Y-100591756D01*
X201947452Y-100591766D01*
X201941000Y-100651785D01*
X201549000Y-100651785D01*
X201549000Y-98405215D01*
X209811001Y-98405215D01*
X209817453Y-98465236D01*
X209817454Y-98465241D01*
X209868098Y-98601020D01*
X209868102Y-98601027D01*
X209954952Y-98717047D01*
X210070972Y-98803897D01*
X210070979Y-98803901D01*
X210206756Y-98854544D01*
X210206766Y-98854547D01*
X210266790Y-98860999D01*
X210373500Y-98860999D01*
X210881500Y-98860999D01*
X210988200Y-98860999D01*
X210988215Y-98860998D01*
X211048236Y-98854546D01*
X211048241Y-98854545D01*
X211184020Y-98803901D01*
X211184027Y-98803897D01*
X211300047Y-98717047D01*
X211386897Y-98601027D01*
X211386901Y-98601020D01*
X211437544Y-98465243D01*
X211437547Y-98465233D01*
X211443999Y-98405214D01*
X211444000Y-98405203D01*
X211444000Y-97536000D01*
X210881500Y-97536000D01*
X210881500Y-98860999D01*
X210373500Y-98860999D01*
X210373500Y-97536000D01*
X209811001Y-97536000D01*
X209811001Y-98405215D01*
X201549000Y-98405215D01*
X201549000Y-97865200D01*
X201566593Y-97816862D01*
X201611142Y-97791142D01*
X201624200Y-97790000D01*
X208788000Y-97790000D01*
X208788000Y-96158785D01*
X209811000Y-96158785D01*
X209811000Y-97028000D01*
X210373500Y-97028000D01*
X210881500Y-97028000D01*
X211443999Y-97028000D01*
X211443999Y-96158799D01*
X211443998Y-96158784D01*
X211437546Y-96098763D01*
X211437545Y-96098758D01*
X211386901Y-95962979D01*
X211386897Y-95962972D01*
X211300047Y-95846952D01*
X211184027Y-95760102D01*
X211184020Y-95760098D01*
X211048243Y-95709455D01*
X211048233Y-95709452D01*
X210988214Y-95703000D01*
X210881500Y-95703000D01*
X210881500Y-97028000D01*
X210373500Y-97028000D01*
X210373500Y-95703000D01*
X210266799Y-95703000D01*
X210266784Y-95703001D01*
X210206763Y-95709453D01*
X210206758Y-95709454D01*
X210070979Y-95760098D01*
X210070972Y-95760102D01*
X209954952Y-95846952D01*
X209868102Y-95962972D01*
X209868098Y-95962979D01*
X209817455Y-96098756D01*
X209817452Y-96098766D01*
X209811000Y-96158785D01*
X208788000Y-96158785D01*
X208788000Y-94366215D01*
X209786001Y-94366215D01*
X209792453Y-94426236D01*
X209792454Y-94426241D01*
X209843098Y-94562020D01*
X209843102Y-94562027D01*
X209929952Y-94678047D01*
X210045972Y-94764897D01*
X210045979Y-94764901D01*
X210181756Y-94815544D01*
X210181766Y-94815547D01*
X210241790Y-94821999D01*
X210361000Y-94821999D01*
X210869000Y-94821999D01*
X210988200Y-94821999D01*
X210988215Y-94821998D01*
X211048236Y-94815546D01*
X211048241Y-94815545D01*
X211184020Y-94764901D01*
X211184027Y-94764897D01*
X211300047Y-94678047D01*
X211386897Y-94562027D01*
X211386901Y-94562020D01*
X211437544Y-94426243D01*
X211437547Y-94426233D01*
X211443999Y-94366214D01*
X211444000Y-94366203D01*
X211444000Y-93472000D01*
X210869000Y-93472000D01*
X210869000Y-94821999D01*
X210361000Y-94821999D01*
X210361000Y-93472000D01*
X209786001Y-93472000D01*
X209786001Y-94366215D01*
X208788000Y-94366215D01*
X208788000Y-92628986D01*
X208805593Y-92580648D01*
X208810026Y-92575812D01*
X209316054Y-92069785D01*
X209786000Y-92069785D01*
X209786000Y-92964000D01*
X210361000Y-92964000D01*
X210869000Y-92964000D01*
X211443999Y-92964000D01*
X211443999Y-92069799D01*
X211443998Y-92069784D01*
X211437546Y-92009763D01*
X211437545Y-92009758D01*
X211386901Y-91873979D01*
X211386897Y-91873972D01*
X211300047Y-91757952D01*
X211184027Y-91671102D01*
X211184020Y-91671098D01*
X211048243Y-91620455D01*
X211048233Y-91620452D01*
X210988214Y-91614000D01*
X210869000Y-91614000D01*
X210869000Y-92964000D01*
X210361000Y-92964000D01*
X210361000Y-91614000D01*
X210241799Y-91614000D01*
X210241784Y-91614001D01*
X210181763Y-91620453D01*
X210181758Y-91620454D01*
X210045979Y-91671098D01*
X210045972Y-91671102D01*
X209929952Y-91757952D01*
X209843102Y-91873972D01*
X209843098Y-91873979D01*
X209792455Y-92009756D01*
X209792452Y-92009766D01*
X209786000Y-92069785D01*
X209316054Y-92069785D01*
X209371238Y-92014601D01*
X209698776Y-91687062D01*
X209735625Y-91623238D01*
X209754700Y-91552050D01*
X209754700Y-91515200D01*
X209772293Y-91466862D01*
X209816842Y-91441142D01*
X209829900Y-91440000D01*
X211633800Y-91440000D01*
X211682138Y-91457593D01*
G37*
%TD.AperFunction*%
%TD*%
%TA.AperFunction,Conductor*%
%TO.N,GNDPWR*%
G36*
X212698138Y-101617593D02*
G01*
X212723858Y-101662142D01*
X212725000Y-101675200D01*
X212725000Y-103378000D01*
X213919800Y-103378000D01*
X213968138Y-103395593D01*
X213993858Y-103440142D01*
X213995000Y-103453200D01*
X213995000Y-104445800D01*
X213977407Y-104494138D01*
X213932858Y-104519858D01*
X213919800Y-104521000D01*
X208482200Y-104521000D01*
X208433862Y-104503407D01*
X208408142Y-104458858D01*
X208407000Y-104445800D01*
X208407000Y-103187694D01*
X208694000Y-103187694D01*
X208696875Y-103218350D01*
X208696877Y-103218359D01*
X208742076Y-103347533D01*
X208742078Y-103347536D01*
X208823347Y-103457652D01*
X208933463Y-103538921D01*
X208933466Y-103538923D01*
X209062640Y-103584122D01*
X209062649Y-103584124D01*
X209093305Y-103586999D01*
X209093308Y-103587000D01*
X209169000Y-103587000D01*
X209677000Y-103587000D01*
X209752692Y-103587000D01*
X209752694Y-103586999D01*
X209783350Y-103584124D01*
X209783359Y-103584122D01*
X209912533Y-103538923D01*
X209912536Y-103538921D01*
X210022652Y-103457652D01*
X210103921Y-103347536D01*
X210103923Y-103347533D01*
X210149122Y-103218359D01*
X210149124Y-103218350D01*
X210151999Y-103187694D01*
X210152000Y-103187692D01*
X210152000Y-103187000D01*
X209677000Y-103187000D01*
X209677000Y-103587000D01*
X209169000Y-103587000D01*
X209169000Y-103187000D01*
X208694000Y-103187000D01*
X208694000Y-103187694D01*
X208407000Y-103187694D01*
X208407000Y-102804000D01*
X210682436Y-102804000D01*
X210685982Y-102826396D01*
X210744083Y-102940425D01*
X210834574Y-103030916D01*
X210948600Y-103089015D01*
X210948598Y-103089015D01*
X211043206Y-103103999D01*
X211333500Y-103103999D01*
X211841500Y-103103999D01*
X212131789Y-103103999D01*
X212131797Y-103103998D01*
X212226400Y-103089015D01*
X212340425Y-103030916D01*
X212430916Y-102940425D01*
X212489015Y-102826397D01*
X212489016Y-102826396D01*
X212492564Y-102804000D01*
X211841500Y-102804000D01*
X211841500Y-103103999D01*
X211333500Y-103103999D01*
X211333500Y-102804000D01*
X210682436Y-102804000D01*
X208407000Y-102804000D01*
X208407000Y-102678305D01*
X208694000Y-102678305D01*
X208694000Y-102679000D01*
X209169000Y-102679000D01*
X209677000Y-102679000D01*
X210152000Y-102679000D01*
X210152000Y-102678308D01*
X210151999Y-102678305D01*
X210149124Y-102647649D01*
X210149122Y-102647640D01*
X210103923Y-102518466D01*
X210103921Y-102518463D01*
X210022652Y-102408347D01*
X209982864Y-102378982D01*
X209912536Y-102327078D01*
X209912533Y-102327076D01*
X209823718Y-102295999D01*
X210682435Y-102295999D01*
X210682436Y-102296000D01*
X211333500Y-102296000D01*
X211841500Y-102296000D01*
X212492564Y-102296000D01*
X212492563Y-102295999D01*
X212489017Y-102273603D01*
X212430916Y-102159574D01*
X212340425Y-102069083D01*
X212226399Y-102010984D01*
X212226401Y-102010984D01*
X212131797Y-101996000D01*
X211841500Y-101996000D01*
X211841500Y-102296000D01*
X211333500Y-102296000D01*
X211333500Y-101996000D01*
X211043212Y-101996000D01*
X211043201Y-101996001D01*
X210948599Y-102010984D01*
X210834574Y-102069083D01*
X210744083Y-102159574D01*
X210685984Y-102273602D01*
X210685983Y-102273603D01*
X210682435Y-102295999D01*
X209823718Y-102295999D01*
X209783359Y-102281877D01*
X209783350Y-102281875D01*
X209752694Y-102279000D01*
X209677000Y-102279000D01*
X209677000Y-102679000D01*
X209169000Y-102679000D01*
X209169000Y-102279000D01*
X209093305Y-102279000D01*
X209062649Y-102281875D01*
X209062640Y-102281877D01*
X208933466Y-102327076D01*
X208933463Y-102327078D01*
X208823347Y-102408347D01*
X208742078Y-102518463D01*
X208742076Y-102518466D01*
X208696877Y-102647640D01*
X208696875Y-102647649D01*
X208694000Y-102678305D01*
X208407000Y-102678305D01*
X208407000Y-102056200D01*
X208424593Y-102007862D01*
X208469142Y-101982142D01*
X208482200Y-101981000D01*
X210185000Y-101981000D01*
X210185000Y-101675200D01*
X210202593Y-101626862D01*
X210247142Y-101601142D01*
X210260200Y-101600000D01*
X212649800Y-101600000D01*
X212698138Y-101617593D01*
G37*
%TD.AperFunction*%
%TD*%
%TA.AperFunction,Conductor*%
%TO.N,/SHAPER_IN*%
G36*
X214884000Y-102489000D02*
G01*
X213689200Y-102489000D01*
X213640862Y-102471407D01*
X213615142Y-102426858D01*
X213614000Y-102413800D01*
X213614000Y-102216286D01*
X213614000Y-102153999D01*
X214116500Y-102153999D01*
X214406789Y-102153999D01*
X214406797Y-102153998D01*
X214501400Y-102139015D01*
X214615425Y-102080916D01*
X214705916Y-101990425D01*
X214764015Y-101876397D01*
X214764016Y-101876396D01*
X214767564Y-101854000D01*
X214116500Y-101854000D01*
X214116500Y-102153999D01*
X213614000Y-102153999D01*
X213614000Y-101346000D01*
X214116500Y-101346000D01*
X214767564Y-101346000D01*
X214767563Y-101345999D01*
X214764017Y-101323603D01*
X214705916Y-101209574D01*
X214615425Y-101119083D01*
X214501399Y-101060984D01*
X214501401Y-101060984D01*
X214406797Y-101046000D01*
X214116500Y-101046000D01*
X214116500Y-101346000D01*
X213614000Y-101346000D01*
X213614000Y-100786200D01*
X213631593Y-100737862D01*
X213676142Y-100712142D01*
X213689200Y-100711000D01*
X214884000Y-100711000D01*
X214884000Y-102489000D01*
G37*
%TD.AperFunction*%
%TD*%
M02*
