%TF.GenerationSoftware,KiCad,Pcbnew,9.0.4*%
%TF.CreationDate,2025-09-18T09:53:14-07:00*%
%TF.ProjectId,bigpulse,62696770-756c-4736-952e-6b696361645f,rev?*%
%TF.SameCoordinates,Original*%
%TF.FileFunction,Paste,Top*%
%TF.FilePolarity,Positive*%
%FSLAX46Y46*%
G04 Gerber Fmt 4.6, Leading zero omitted, Abs format (unit mm)*
G04 Created by KiCad (PCBNEW 9.0.4) date 2025-09-18 09:53:14*
%MOMM*%
%LPD*%
G01*
G04 APERTURE LIST*
G04 Aperture macros list*
%AMRoundRect*
0 Rectangle with rounded corners*
0 $1 Rounding radius*
0 $2 $3 $4 $5 $6 $7 $8 $9 X,Y pos of 4 corners*
0 Add a 4 corners polygon primitive as box body*
4,1,4,$2,$3,$4,$5,$6,$7,$8,$9,$2,$3,0*
0 Add four circle primitives for the rounded corners*
1,1,$1+$1,$2,$3*
1,1,$1+$1,$4,$5*
1,1,$1+$1,$6,$7*
1,1,$1+$1,$8,$9*
0 Add four rect primitives between the rounded corners*
20,1,$1+$1,$2,$3,$4,$5,0*
20,1,$1+$1,$4,$5,$6,$7,0*
20,1,$1+$1,$6,$7,$8,$9,0*
20,1,$1+$1,$8,$9,$2,$3,0*%
%AMFreePoly0*
4,1,25,-1.500000,1.420000,-1.360000,1.280000,-1.205000,1.155000,-1.035000,1.045000,-0.860000,0.950000,-0.675000,0.875000,-0.480000,0.820000,-0.280000,0.780000,-0.085000,0.765000,0.085000,0.765000,0.280000,0.780000,0.480000,0.820000,0.675000,0.875000,0.860000,0.950000,1.035000,1.045000,1.205000,1.155000,1.360000,1.280000,1.500000,1.420000,1.645000,1.595000,3.555000,1.595000,
3.555000,-0.755000,-3.555000,-0.755000,-3.555000,1.595000,-1.645000,1.595000,-1.500000,1.420000,-1.500000,1.420000,$1*%
G04 Aperture macros list end*
%ADD10RoundRect,0.150000X-0.512500X-0.150000X0.512500X-0.150000X0.512500X0.150000X-0.512500X0.150000X0*%
%ADD11RoundRect,0.250000X0.325000X1.100000X-0.325000X1.100000X-0.325000X-1.100000X0.325000X-1.100000X0*%
%ADD12RoundRect,0.250000X-0.325000X-1.100000X0.325000X-1.100000X0.325000X1.100000X-0.325000X1.100000X0*%
%ADD13RoundRect,0.200000X-0.200000X-0.275000X0.200000X-0.275000X0.200000X0.275000X-0.200000X0.275000X0*%
%ADD14RoundRect,0.250000X-0.650000X-2.450000X0.650000X-2.450000X0.650000X2.450000X-0.650000X2.450000X0*%
%ADD15RoundRect,0.250000X-0.312500X-1.075000X0.312500X-1.075000X0.312500X1.075000X-0.312500X1.075000X0*%
%ADD16RoundRect,0.225000X0.225000X0.250000X-0.225000X0.250000X-0.225000X-0.250000X0.225000X-0.250000X0*%
%ADD17RoundRect,0.250000X0.650000X2.450000X-0.650000X2.450000X-0.650000X-2.450000X0.650000X-2.450000X0*%
%ADD18RoundRect,0.250000X0.750000X0.750000X-0.750000X0.750000X-0.750000X-0.750000X0.750000X-0.750000X0*%
%ADD19RoundRect,0.250000X-0.350000X-0.625000X0.350000X-0.625000X0.350000X0.625000X-0.350000X0.625000X0*%
%ADD20RoundRect,0.250000X-0.550000X-0.625000X0.550000X-0.625000X0.550000X0.625000X-0.550000X0.625000X0*%
%ADD21RoundRect,0.253000X-0.347000X-0.622000X0.347000X-0.622000X0.347000X0.622000X-0.347000X0.622000X0*%
%ADD22RoundRect,0.200000X0.200000X0.275000X-0.200000X0.275000X-0.200000X-0.275000X0.200000X-0.275000X0*%
%ADD23RoundRect,0.250000X1.000000X0.900000X-1.000000X0.900000X-1.000000X-0.900000X1.000000X-0.900000X0*%
%ADD24RoundRect,0.172500X-0.172500X-0.422500X0.172500X-0.422500X0.172500X0.422500X-0.172500X0.422500X0*%
%ADD25RoundRect,0.076250X-0.368250X-0.076250X0.368250X-0.076250X0.368250X0.076250X-0.368250X0.076250X0*%
%ADD26C,1.730000*%
%ADD27FreePoly0,0.000000*%
%ADD28FreePoly0,180.000000*%
%ADD29RoundRect,0.250000X0.950000X0.500000X-0.950000X0.500000X-0.950000X-0.500000X0.950000X-0.500000X0*%
%ADD30RoundRect,0.250000X0.275000X0.500000X-0.275000X0.500000X-0.275000X-0.500000X0.275000X-0.500000X0*%
%ADD31RoundRect,0.200000X-0.275000X0.200000X-0.275000X-0.200000X0.275000X-0.200000X0.275000X0.200000X0*%
%ADD32RoundRect,0.250000X-0.950000X-0.500000X0.950000X-0.500000X0.950000X0.500000X-0.950000X0.500000X0*%
%ADD33RoundRect,0.250000X-0.275000X-0.500000X0.275000X-0.500000X0.275000X0.500000X-0.275000X0.500000X0*%
%ADD34RoundRect,0.250000X0.450000X-0.262500X0.450000X0.262500X-0.450000X0.262500X-0.450000X-0.262500X0*%
%ADD35RoundRect,0.200000X0.275000X-0.200000X0.275000X0.200000X-0.275000X0.200000X-0.275000X-0.200000X0*%
%ADD36RoundRect,0.250000X1.100000X-0.325000X1.100000X0.325000X-1.100000X0.325000X-1.100000X-0.325000X0*%
%ADD37R,1.200000X3.300000*%
%ADD38RoundRect,0.250000X0.500000X-0.950000X0.500000X0.950000X-0.500000X0.950000X-0.500000X-0.950000X0*%
%ADD39RoundRect,0.250000X0.500000X-0.275000X0.500000X0.275000X-0.500000X0.275000X-0.500000X-0.275000X0*%
%ADD40RoundRect,0.225000X-0.225000X-0.250000X0.225000X-0.250000X0.225000X0.250000X-0.225000X0.250000X0*%
G04 APERTURE END LIST*
D10*
%TO.C,Q1*%
X211587500Y-100650000D03*
X211587500Y-102550000D03*
X213862500Y-101600000D03*
%TD*%
D11*
%TO.C,C13*%
X213438000Y-112395000D03*
X210488000Y-112395000D03*
%TD*%
D12*
%TO.C,C1*%
X210615000Y-93218000D03*
X213565000Y-93218000D03*
%TD*%
D13*
%TO.C,R14*%
X209474800Y-90424000D03*
X211124800Y-90424000D03*
%TD*%
%TO.C,R23*%
X171133000Y-108712000D03*
X172783000Y-108712000D03*
%TD*%
D14*
%TO.C,C20*%
X172964000Y-89662000D03*
X178064000Y-89662000D03*
%TD*%
D15*
%TO.C,R6*%
X221803500Y-107696000D03*
X224728500Y-107696000D03*
%TD*%
D16*
%TO.C,C16*%
X163462000Y-108712000D03*
X161912000Y-108712000D03*
%TD*%
D12*
%TO.C,C6*%
X216203000Y-107696000D03*
X219153000Y-107696000D03*
%TD*%
D15*
%TO.C,R4*%
X221803500Y-99568000D03*
X224728500Y-99568000D03*
%TD*%
D17*
%TO.C,C18*%
X163014000Y-104521000D03*
X157914000Y-104521000D03*
%TD*%
D15*
%TO.C,R7*%
X221803500Y-111760000D03*
X224728500Y-111760000D03*
%TD*%
%TO.C,R3*%
X221803500Y-95504000D03*
X224728500Y-95504000D03*
%TD*%
D18*
%TO.C,J2*%
X152820000Y-95050000D03*
X152820000Y-88900000D03*
X141820000Y-88900000D03*
X141820000Y-95050000D03*
%TD*%
D19*
%TO.C,RV2*%
X181730000Y-108211000D03*
D20*
X182880000Y-112261000D03*
D21*
X184030000Y-108211000D03*
%TD*%
D22*
%TO.C,R24*%
X163512000Y-110490000D03*
X161862000Y-110490000D03*
%TD*%
D23*
%TO.C,D1*%
X203445000Y-101600000D03*
X199145000Y-101600000D03*
%TD*%
D24*
%TO.C,U1*%
X166904500Y-106097000D03*
X166904500Y-107517000D03*
X167734500Y-106097000D03*
X167734500Y-107517000D03*
D25*
X165214000Y-105057000D03*
X165214000Y-106057000D03*
X165214000Y-107057000D03*
X165214000Y-107557000D03*
X165214000Y-108057000D03*
X165214000Y-108557000D03*
X169425000Y-108557000D03*
X169425000Y-108057000D03*
X169425000Y-107557000D03*
X169425000Y-107057000D03*
X169425000Y-106057000D03*
X169425000Y-105057000D03*
%TD*%
D26*
%TO.C,TP2*%
X204470000Y-109728000D03*
D27*
X204470000Y-112528000D03*
D28*
X204470000Y-106928000D03*
%TD*%
D19*
%TO.C,RV1*%
X175634000Y-108211000D03*
D20*
X176784000Y-112261000D03*
D21*
X177934000Y-108211000D03*
%TD*%
D29*
%TO.C,D3*%
X222289000Y-88138000D03*
D30*
X224664000Y-88138000D03*
%TD*%
D12*
%TO.C,C2*%
X216203000Y-91440000D03*
X219153000Y-91440000D03*
%TD*%
D15*
%TO.C,R5*%
X221803500Y-103632000D03*
X224728500Y-103632000D03*
%TD*%
D31*
%TO.C,R18*%
X209423000Y-101283000D03*
X209423000Y-102933000D03*
%TD*%
D26*
%TO.C,J1*%
X148590000Y-109728000D03*
D28*
X148590000Y-106928000D03*
D27*
X148590000Y-112528000D03*
%TD*%
D12*
%TO.C,C5*%
X216203000Y-103632000D03*
X219153000Y-103632000D03*
%TD*%
D32*
%TO.C,D5*%
X174840000Y-101219000D03*
D33*
X172465000Y-101219000D03*
%TD*%
D34*
%TO.C,R26*%
X166116000Y-96948000D03*
X166116000Y-95123000D03*
%TD*%
D12*
%TO.C,C3*%
X216203000Y-95504000D03*
X219153000Y-95504000D03*
%TD*%
%TO.C,C7*%
X216203000Y-111760000D03*
X219153000Y-111760000D03*
%TD*%
D16*
%TO.C,C15*%
X160223000Y-110490000D03*
X158673000Y-110490000D03*
%TD*%
D15*
%TO.C,R1*%
X210627500Y-97282000D03*
X213552500Y-97282000D03*
%TD*%
D14*
%TO.C,C21*%
X164318000Y-89662000D03*
X169418000Y-89662000D03*
%TD*%
D35*
%TO.C,R15*%
X207391000Y-102933000D03*
X207391000Y-101283000D03*
%TD*%
D29*
%TO.C,D2*%
X222288000Y-115062000D03*
D30*
X224663000Y-115062000D03*
%TD*%
D12*
%TO.C,C4*%
X216203000Y-99568000D03*
X219153000Y-99568000D03*
%TD*%
D36*
%TO.C,C8*%
X210439000Y-109728000D03*
X210439000Y-106778000D03*
%TD*%
D17*
%TO.C,C17*%
X163014000Y-98298000D03*
X157914000Y-98298000D03*
%TD*%
D12*
%TO.C,C19*%
X172691000Y-97536000D03*
X175641000Y-97536000D03*
%TD*%
D37*
%TO.C,L1*%
X166318000Y-101473000D03*
X169418000Y-101473000D03*
%TD*%
D38*
%TO.C,D4*%
X169418000Y-95161000D03*
D39*
X169418000Y-97536000D03*
%TD*%
D40*
%TO.C,C14*%
X171183000Y-106934000D03*
X172733000Y-106934000D03*
%TD*%
D32*
%TO.C,D6*%
X178054000Y-94488000D03*
D33*
X175679000Y-94488000D03*
%TD*%
D13*
%TO.C,R25*%
X171133000Y-110490000D03*
X172783000Y-110490000D03*
%TD*%
D15*
%TO.C,R2*%
X221803500Y-91440000D03*
X224728500Y-91440000D03*
%TD*%
D26*
%TO.C,TP1*%
X204470000Y-93472000D03*
D28*
X204470000Y-90672000D03*
D27*
X204470000Y-96272000D03*
%TD*%
M02*
